<svg width="24" height="24" viewBox="0 0 24 24" fill="none" xmlns="http://www.w3.org/2000/svg">
    <path d="M15.0526 10.9294C15.0526 12.3896 14.3603 13.4761 13.9131 14.0256C13.742 14.2358 13.7808 14.5687 14.014 14.7068L17.0835 16.5241C17.6516 16.8604 18 17.4716 18 18.1317C18 19.1636 17.1636 20 16.1317 20H12L5.86449 20C4.83376 20 4 19.1645 4 18.1337C4 17.4726 4.34979 16.8608 4.91955 16.5254L8.06971 14.6711C8.285 14.5444 8.33562 14.2509 8.18861 14.0489C7.74251 13.436 6.94737 12.1695 6.94737 10.9294V6.57609C6.94737 5.07161 9.14206 3.60434 11 3.6089C12.8579 3.61345 15.0526 5.06915 15.0526 6.57609V10.9294Z" stroke="#2F3032" stroke-width="2"/>
</svg>
