<svg width="80" height="80" viewBox="0 0 80 80" fill="none" xmlns="http://www.w3.org/2000/svg">
    <rect x="1" y="1" width="78" height="78" rx="6" stroke="#E5E7EB" stroke-width="2" stroke-linecap="round" stroke-linejoin="round" stroke-dasharray="5 4"/>
    <path fill-rule="evenodd" clip-rule="evenodd" d="M41 31C41 30.4477 40.5523 30 40 30C39.4477 30 39 30.4477 39 31V39H31C30.4477 39 30 39.4477 30 40C30 40.5523 30.4477 41 31 41H39V49C39 49.5523 39.4477 50 40 50C40.5523 50 41 49.5523 41 49V41H49C49.5523 41 50 40.5523 50 40C50 39.4477 49.5523 39 49 39H41V31Z" fill="#2F3032"/>
</svg>
