<svg width="14" height="14" viewBox="0 0 14 14" fill="none" xmlns="http://www.w3.org/2000/svg">
    <path fill-rule="evenodd" clip-rule="evenodd"
        d="M11.6895 1.63085L12.4468 2.39235C13.2834 3.23348 13.2834 4.59722 12.4468 5.43834L11.6895 6.19984C10.8529 7.04097 9.49666 7.04097 8.66013 6.19984L7.90279 5.43834C7.06626 4.59722 7.06626 3.23348 7.90279 2.39235L8.66013 1.63085C9.49666 0.789718 10.8529 0.789718 11.6895 1.63085ZM10.9804 2.33601L11.7378 3.09751C12.1864 3.54857 12.1864 4.28213 11.7378 4.73318L10.9804 5.49468C10.5349 5.9427 9.81474 5.9427 9.36917 5.49468L8.61183 4.73318C8.16324 4.28213 8.16324 3.54857 8.61183 3.09751L9.36917 2.33601C9.81474 1.888 10.5349 1.888 10.9804 2.33601Z"
        fill="white" fill-opacity="1" />
    <path fill-rule="evenodd" clip-rule="evenodd"
        d="M1.07104 3.37699C1.07104 2.18746 2.03535 1.22314 3.22489 1.22314H4.27239C5.46193 1.22314 6.42624 2.18745 6.42624 3.37699V4.45391C6.42624 5.64345 5.46193 6.60776 4.27239 6.60776H3.22489C2.03535 6.60776 1.07104 5.64345 1.07104 4.45391V3.37699ZM3.22489 2.22314H4.27239C4.90964 2.22314 5.42624 2.73974 5.42624 3.37699V4.45391C5.42624 5.09117 4.90964 5.60776 4.27239 5.60776H3.22489C2.58764 5.60776 2.07104 5.09117 2.07104 4.45391V3.37699C2.07104 2.73974 2.58764 2.22314 3.22489 2.22314Z"
        fill="white" fill-opacity="1" />
    <path fill-rule="evenodd" clip-rule="evenodd"
        d="M9.65116 7.68457C8.46162 7.68457 7.49731 8.64888 7.49731 9.83842V10.9153C7.49731 12.1049 8.46162 13.0692 9.65116 13.0692H10.6987C11.8882 13.0692 12.8525 12.1049 12.8525 10.9153V9.83842C12.8525 8.64888 11.8882 7.68457 10.6987 7.68457H9.65116ZM10.6987 8.68457H9.65116C9.01391 8.68457 8.49731 9.20117 8.49731 9.83842V10.9153C8.49731 11.5526 9.01391 12.0692 9.65116 12.0692H10.6987C11.3359 12.0692 11.8525 11.5526 11.8525 10.9153V9.83842C11.8525 9.20116 11.3359 8.68457 10.6987 8.68457Z"
        fill="white" fill-opacity="1" />
    <path fill-rule="evenodd" clip-rule="evenodd"
        d="M1.07104 9.83842C1.07104 8.64888 2.03535 7.68457 3.22489 7.68457H4.27239C5.46193 7.68457 6.42624 8.64888 6.42624 9.83842V10.9153C6.42624 12.1049 5.46193 13.0692 4.27239 13.0692H3.22489C2.03535 13.0692 1.07104 12.1049 1.07104 10.9153V9.83842ZM3.22489 8.68457H4.27239C4.90964 8.68457 5.42624 9.20116 5.42624 9.83842V10.9153C5.42624 11.5526 4.90964 12.0692 4.27239 12.0692H3.22489C2.58764 12.0692 2.07104 11.5526 2.07104 10.9153V9.83842C2.07104 9.20117 2.58764 8.68457 3.22489 8.68457Z"
        fill="white" fill-opacity="1" />
</svg>