<svg width="20" height="20" viewBox="0 0 20 20" fill="none"
     xmlns="http://www.w3.org/2000/svg">
  <path
    d="M15 4H16C17.1046 4 18 4.89543 18 6V16C18 17.1046 17.1046 18 16 18H4C2.89543 18 2 17.1046 2 16V6C2 4.89543 2.89543 4 4 4H5"
    stroke="white" stroke-opacity="1" stroke-width="2"
    stroke-linecap="round"/>
  <path fill-rule="evenodd" clip-rule="evenodd"
        d="M8.99989 2C8.99989 1.44772 9.4476 1 9.99989 1C10.5522 1 10.9999 1.44772 10.9999 2V11.4497L12.8283 9.62128C13.2188 9.23076 13.852 9.23076 14.2425 9.62128C14.6331 10.0118 14.6331 10.645 14.2425 11.0355L10.707 14.571C10.3165 14.9616 9.68331 14.9616 9.29278 14.571L5.75725 11.0355C5.36672 10.645 5.36672 10.0118 5.75725 9.62128C6.14777 9.23076 6.78094 9.23076 7.17146 9.62128L8.99989 11.4497V2Z"
        fill="white" fill-opacity="1"/>
</svg>
