<svg width="14" height="14" viewBox="0 0 14 14" fill="none" xmlns="http://www.w3.org/2000/svg">
    <path fill-rule="evenodd" clip-rule="evenodd"
        d="M6.9505 0.5C5.16619 0.5 3.71973 1.94646 3.71973 3.73077V6.96154C3.71973 8.74584 5.16619 10.1923 6.9505 10.1923C8.7348 10.1923 10.1813 8.74585 10.1813 6.96154V3.73077C10.1813 1.94646 8.7348 0.5 6.9505 0.5ZM9.18126 6.96154V3.73077C9.18126 2.49875 8.18252 1.5 6.9505 1.5C5.71848 1.5 4.71973 2.49875 4.71973 3.73077V6.96154C4.71973 8.19356 5.71848 9.19231 6.9505 9.19231C8.18252 9.19231 9.18126 8.19356 9.18126 6.96154Z"
        fill="white" fill-opacity="1" />
    <path
        d="M4.79663 12.8462C4.79663 12.57 5.02049 12.3462 5.29663 12.3462H8.60432C8.88047 12.3462 9.10432 12.57 9.10432 12.8462C9.10432 13.1223 8.88047 13.3462 8.60432 13.3462H5.29663C5.02049 13.3462 4.79663 13.1223 4.79663 12.8462Z"
        fill="white" fill-opacity="1" />
    <path
        d="M3.14282 5.88452C3.14282 5.60838 2.91896 5.38452 2.64282 5.38452C2.36668 5.38452 2.14282 5.60838 2.14282 5.88452V6.96144C2.14282 9.61666 4.2953 11.7691 6.95051 11.7691C9.60573 11.7691 11.7582 9.61666 11.7582 6.96144V5.88452C11.7582 5.60838 11.5343 5.38452 11.2582 5.38452C10.9821 5.38452 10.7582 5.60838 10.7582 5.88452V6.96144C10.7582 9.06437 9.05345 10.7691 6.95051 10.7691C4.84758 10.7691 3.14282 9.06437 3.14282 6.96144V5.88452Z"
        fill="white" fill-opacity="1" />
</svg>