<svg width="86" height="67" viewBox="0 0 86 67" fill="none" xmlns="http://www.w3.org/2000/svg">
    <path fill-rule="evenodd" clip-rule="evenodd" d="M84.7713 0C85.437 0 85.9791 0.5379 85.9993 1.20921L85.9999 1.24809V65.7516C85.9999 65.9369 85.9593 66.1199 85.881 66.2873C85.5955 66.8976 84.8854 67.1642 84.2802 66.8957L84.244 66.8789L68.4914 59.2751C67.7574 58.9207 67.2842 58.1772 67.2648 57.3549L67.2641 57.3023V8.59828C67.2641 7.72663 67.7741 6.94022 68.5583 6.59464L68.6047 6.57482L84.3088 0.0918239C84.4557 0.0311816 84.6127 0 84.7713 0ZM1.22857 0C1.38713 0 1.5442 0.0311816 1.69109 0.0918239L17.3951 6.57482C18.2056 6.90941 18.7357 7.70953 18.7357 8.59828V57.3023C18.7357 58.1454 18.258 58.9132 17.5084 59.2751L1.75584 66.8789C1.14299 67.1747 0.410102 66.9099 0.118899 66.2873C0.0406157 66.1199 0 65.9369 0 65.7516V1.24809C0 0.558788 0.55005 0 1.22857 0ZM44.3822 14.0892L58.9075 22.6086C59.7628 23.1103 60.2896 24.0373 60.2896 25.0406V42.0794C60.2896 43.0827 59.7628 44.0097 58.9075 44.5114L44.3822 53.0308C43.5269 53.5324 42.4732 53.5324 41.6179 53.0308L27.0926 44.5114C26.2373 44.0097 25.7105 43.0827 25.7105 42.0794V25.0406C25.7105 24.0373 26.2373 23.1103 27.0926 22.6086L41.6179 14.0892C42.4732 13.5876 43.5269 13.5876 44.3822 14.0892Z" fill="url(#paint0_linear_15418_6491)" fill-opacity="0.14"/>
    <defs>
        <linearGradient id="paint0_linear_15418_6491" x1="43.4343" y1="-9.9639" x2="6.46435" y2="66.6762" gradientUnits="userSpaceOnUse">
            <stop stop-color="#BCBEC2"/>
            <stop offset="1" stop-color="#BCBEC2" stop-opacity="0.56"/>
        </linearGradient>
    </defs>
</svg>
