<svg width="24" height="24" viewBox="0 0 24 24" fill="none"
     xmlns="http://www.w3.org/2000/svg">
  <path
    d="M8 11.2695C8 10.7173 8.44772 10.2695 9 10.2695C9.55228 10.2695 10 10.7173 10 11.2695V13.4346C10 13.9869 9.55228 14.4346 9 14.4346C8.44772 14.4346 8 13.9869 8 13.4346V11.2695Z"
    fill="white" fill-opacity="1"/>
  <path
    d="M14 10.2695C13.4477 10.2695 13 10.7173 13 11.2695V13.4346C13 13.9869 13.4477 14.4346 14 14.4346C14.5523 14.4346 15 13.9869 15 13.4346V11.2695C15 10.7173 14.5523 10.2695 14 10.2695Z"
    fill="white" fill-opacity="1"/>
  <path fill-rule="evenodd" clip-rule="evenodd"
        d="M7.21911 3.31389C7.56412 2.88263 8.19341 2.81271 8.62467 3.15772L10.852 4.93956L11.8155 4.93885L14.0419 3.15772C14.4732 2.81271 15.1025 2.88263 15.4475 3.31389C15.7925 3.74516 15.7226 4.37445 15.2913 4.71946L14.6835 5.20568C15.8091 5.61612 16.7183 6.46915 17.1939 7.55497C19.2388 7.89724 21 9.60323 21 11.8111V13.4768C21 15.6976 19.1989 17.4046 17.1462 17.7387C16.4559 19.2185 14.9531 20.2483 13.2005 20.2633L13.2004 20.266H9.83769C8.06736 20.266 6.5479 19.2317 5.85275 17.7403C3.80064 17.406 2 15.6988 2 13.4777V11.8119C2 9.60472 3.76125 7.89895 5.80595 7.55665C6.24982 6.54297 7.07164 5.73213 8.09473 5.29502L7.37528 4.71946C6.94402 4.37445 6.8741 3.74516 7.21911 3.31389ZM9.83843 6.94032C8.69799 6.94032 7.76121 7.71385 7.51164 8.73194L7.32581 9.49002L6.54529 9.49384C5.13982 9.50072 4 10.6088 4 11.8119V13.4777C4 14.6739 5.15923 15.7936 6.5729 15.7999L7.33088 15.8033L7.53245 16.534C7.80561 17.5243 8.72421 18.266 9.83769 18.266H13.1614L13.1615 18.2635C14.2744 18.2635 15.1937 17.5215 15.4667 16.5322L15.6684 15.8016L16.4263 15.7983C17.8411 15.792 19 14.6719 19 13.4768V11.8111C19 10.6069 17.86 9.49906 16.4547 9.49218L15.6743 9.48835L15.4884 8.73046C15.2964 7.94804 14.6978 7.30772 13.9111 7.05471L13.9096 7.05425C13.6796 6.97988 13.4324 6.9389 13.1718 6.93784L9.83843 6.94032Z"
        fill="white" fill-opacity="1"/>
</svg>
