<svg width="14" height="14" viewBox="0 0 14 14" fill="none"
     xmlns="http://www.w3.org/2000/svg">
  <path fill-rule="evenodd" clip-rule="evenodd"
        d="M5.21839 1.20904L7.00737 2.99802L8.79634 1.20904C9.07507 0.930319 9.52697 0.930319 9.80569 1.20904C10.0844 1.48777 10.0844 1.93967 9.80569 2.21839L9.02408 3H10C11.1046 3 12 3.89543 12 5H13C13.5523 5 14 5.44772 14 6V9C14 9.55229 13.5523 10 13 10H12C12 11.1046 11.1046 12 10 12H4C2.89543 12 2 11.1046 2 10H1C0.447715 10 0 9.55229 0 9V6C0 5.44772 0.447715 5 1 5H2C2 3.89543 2.89543 3 4 3H4.99065L4.20904 2.21839C3.93032 1.93967 3.93032 1.48777 4.20904 1.20904C4.48777 0.930319 4.93967 0.930319 5.21839 1.20904ZM5 6C4.44772 6 4 6.44772 4 7V8C4 8.55228 4.44772 9 5 9C5.55228 9 6 8.55228 6 8V7C6 6.44772 5.55228 6 5 6ZM8 7C8 6.44772 8.44771 6 9 6C9.55229 6 10 6.44772 10 7V8C10 8.55228 9.55229 9 9 9C8.44771 9 8 8.55228 8 8V7Z"
        fill="#3D75E3"/>
</svg>
