<svg width="9" height="9" viewBox="0 0 9 9" fill="none" xmlns="http://www.w3.org/2000/svg">
    <path opacity="1" fill-rule="evenodd" clip-rule="evenodd" d="M2.48397 0.722703C2.62013 0.518468 2.88054 0.446719 3.0981 0.540877L3.17735 0.584028L4.25251 1.3008L4.74812 1.30038L5.82265 0.584028C6.05241 0.430852 6.36285 0.492939 6.51603 0.722703C6.65218 0.926938 6.61825 1.19491 6.44766 1.35952L6.37735 1.41608L6.21918 1.52153C6.61914 1.72227 6.94454 2.04687 7.1477 2.44395L7.201 2.56005L7.28171 2.57489C8.19617 2.7705 8.92391 3.53821 8.9944 4.47163L9 4.62032V5.42017C9 6.41912 8.23498 7.26081 7.26897 7.46687L7.178 7.48205L7.12138 7.60022C6.7884 8.21499 6.16451 8.63534 5.44862 8.69225L5.3002 8.70005H3.71773C2.93247 8.70005 2.23668 8.26349 1.87817 7.60116L1.82 7.48305L1.73072 7.46766C0.813186 7.27187 0.0769918 6.50232 0.00566622 5.56921L0 5.42057V4.62072C0 3.62129 0.75576 2.78157 1.71832 2.57569L1.798 2.56105L1.8537 2.44134C2.05859 2.042 2.38542 1.72055 2.78159 1.52204L2.62265 1.41608C2.39289 1.2629 2.3308 0.952467 2.48397 0.722703ZM4.86513 2.29886C4.88927 2.30056 4.91357 2.30053 4.93783 2.29871L5.252 2.29805L5.42388 2.30826C5.47625 2.31443 5.55047 2.33046 5.62206 2.35407C5.98195 2.47217 6.25858 2.7725 6.34779 3.14351L6.43943 3.52466L6.83143 3.52662C7.4599 3.52976 8 4.03678 8 4.62032V5.42017C8 6.00049 7.4497 6.51221 6.81806 6.51508L6.43714 6.51681L6.33768 6.88452L6.29924 7.00091C6.13635 7.41604 5.73728 7.69885 5.281 7.69905L3.71773 7.70005C3.22064 7.70005 2.79122 7.36362 2.66194 6.88539L2.56252 6.51761L2.18154 6.51588C1.55021 6.51301 1 6.0012 1 5.42057V4.62072C1 4.03754 1.54014 3.53056 2.16857 3.52742L2.56065 3.52546L2.65224 3.14422L2.68828 3.02438C2.8438 2.59657 3.25068 2.30125 3.71773 2.30125L4.86513 2.29886ZM2.9 4.30005C2.9 4.02391 3.12386 3.80005 3.4 3.80005C3.67614 3.80005 3.9 4.02391 3.9 4.30005V5.30005C3.9 5.5762 3.67614 5.80005 3.4 5.80005C3.12386 5.80005 2.9 5.5762 2.9 5.30005V4.30005ZM5.97735 3.78403C5.74759 3.63085 5.43715 3.69294 5.28398 3.9227L4.88398 4.5227L4.83732 4.61044C4.77512 4.76217 4.79067 4.93745 4.88398 5.0774L5.28398 5.6774L5.34053 5.74772C5.50514 5.91831 5.77312 5.95224 5.97735 5.81608L6.04766 5.75952C6.21825 5.59491 6.25218 5.32694 6.11603 5.1227L5.901 4.80005L6.11603 4.4774L6.15918 4.39815C6.25333 4.18059 6.18159 3.92018 5.97735 3.78403Z" fill="#86909D"/>
</svg>
