<svg width="88" height="58" viewBox="0 0 88 58" fill="none"
     xmlns="http://www.w3.org/2000/svg">
  <path
    d="M52.952 35.6739H56.2706C55.2451 41.5412 50.1415 46 44 46C39.4485 46 35.4671 43.5511 33.2932 39.8948L31 42.1957V34.587H38.5833L35.6915 37.4884C37.1752 40.5943 40.338 42.7391 44 42.7391C48.3393 42.7391 51.9776 39.7276 52.952 35.6739Z"
    fill="#C0C5D5" fill-opacity="1"/>
  <path
    d="M54.7068 27.1052L57 24.8043V32.413H49.4167L52.3085 29.5116C50.8248 26.4057 47.662 24.2609 44 24.2609C39.6607 24.2609 36.0224 27.2724 35.048 31.3261H31.7294C32.7549 25.4588 37.8585 21 44 21C48.5515 21 52.5329 23.4489 54.7068 27.1052Z"
    fill="#C0C5D5" fill-opacity="1"/>
  <path fill-rule="evenodd" clip-rule="evenodd"
        d="M30.1229 11.0406C34.4997 4.24885 42.0254 0 50.3 0C62.7172 0 72.9816 9.49899 74.2239 21.7386C82.2206 23.7749 88 31.0702 88 39.5882C88 48.8707 81.1691 56.5848 72.25 57.8257V58H18.8063L18.462 57.997C8.23138 57.8153 0 49.4024 0 39.0588C0 31.5888 4.33275 24.931 10.8988 21.8669C12.4443 15.3373 18.2722 10.5882 25.1 10.5882C26.5881 10.5882 28.0459 10.8133 29.435 11.2478L29.8955 11.4004L30.1229 11.0406ZM84 39.5882C84 32.4857 78.8776 26.4758 72.0134 25.3604L70.3966 25.0976L70.3356 23.4607C69.9317 12.6122 61.0841 4 50.3 4C42.7615 4 35.9667 8.23496 32.5281 14.8574L31.6153 16.6154L29.8486 15.7195C28.3882 14.9789 26.7738 14.5882 25.1 14.5882C19.874 14.5882 15.4448 18.4357 14.6321 23.5972L14.4546 24.7248L13.3934 25.1454C7.77535 27.3724 4 32.8581 4 39.0588C4 47.3143 10.6299 54 18.8 54H69.9559L70.501 53.9791C78.0364 53.5723 84 47.2713 84 39.5882Z"
        fill="#C0C5D5" fill-opacity="1"/>
</svg>
