<svg width="25" height="25" viewBox="0 0 25 25" fill="none"
     xmlns="http://www.w3.org/2000/svg">
  <path
    d="M21.3993 9.96429C21.9516 9.412 21.9516 8.51657 21.3993 7.96429L17.0354 3.60032C16.4831 3.04804 15.5877 3.04804 15.0354 3.60032C14.7702 3.86554 14.6212 4.22525 14.6212 4.60032V6.84296L13.207 8.25718L7.55505 8.77099C6.7107 8.84775 6.33897 9.87448 6.93848 10.474L9.804 13.3395L6.38466 18.337C6.25969 18.5197 6.48001 18.74 6.66266 18.615L11.6602 15.1957L14.5257 18.0612C15.1252 18.6607 16.1519 18.289 16.2287 17.4446L16.7425 11.7927L18.1567 10.3785L20.3993 10.3785C20.7744 10.3785 21.1341 10.2295 21.3993 9.96429Z"
    fill="#9B9B9B"/>
</svg>
