<svg width="38" height="38" viewBox="0 0 38 38" fill="none"
     xmlns="http://www.w3.org/2000/svg">
  <rect opacity="0.9" x="9" y="12" width="12" height="2" rx="1" fill="white"/>
  <path opacity="0.9"
        d="M29.6694 19.0113C30.1358 18.5448 30.1358 17.7886 29.6694 17.3221L25.9835 13.6363C25.5171 13.1698 24.7608 13.1698 24.2943 13.6363V13.6363C24.0703 13.8603 23.9445 14.1641 23.9445 14.4809V16.375L22.75 17.5695L18.3068 17.9734C17.4625 18.0502 17.0908 19.0769 17.6903 19.6764L19.8759 21.862L17.0815 25.9461C16.9565 26.1288 17.1769 26.3491 17.3595 26.2241L21.4436 23.4297L23.6292 25.6154C24.2287 26.2149 25.2555 25.8431 25.3322 24.9988L25.7362 20.5556L26.9306 19.3611H28.8247C29.1415 19.3611 29.4454 19.2353 29.6694 19.0113V19.0113Z"
        stroke="white" stroke-width="2" stroke-linejoin="round"/>
  <rect opacity="0.9" x="9" y="18" width="5" height="2" rx="1" fill="white"/>
  <rect opacity="0.9" x="9" y="24" width="5" height="2" rx="1" fill="white"/>
</svg>
