<svg width="30" height="30" viewBox="0 0 30 30" fill="none" xmlns="http://www.w3.org/2000/svg">
    <path d="M7.85347 23.5307L7.85343 23.5306C7.40249 23.2721 6.8487 23.196 6.32419 23.3651L6.63111 24.3169L6.32419 23.3651L4.56097 23.9337C4.77746 23.2718 4.99497 22.6058 5.10546 22.2648C5.28675 21.7053 5.22869 21.0983 4.93275 20.5812L4.92971 20.5758C3.33083 17.6544 3.79276 13.8611 6.32695 11.3269C9.397 8.25689 14.3037 8.23053 17.2866 11.2134C20.2695 14.1963 20.2431 19.103 17.1731 22.1731C14.6337 24.7124 10.8303 25.171 7.90648 23.5606C7.89285 23.5531 7.87506 23.543 7.85347 23.5307Z" stroke="#2F3032" stroke-width="2"/>
    <path fill-rule="evenodd" clip-rule="evenodd" d="M25.3167 18.8689L25.9604 20.8651C26.1799 21.5456 25.5347 22.1878 24.8551 21.9655C24.1211 21.7254 23.3357 21.4688 22.9563 21.3458C22.6602 21.2499 22.3448 21.2813 22.075 21.4367L22.061 21.4446C20.8764 22.094 19.5676 22.4434 18.2446 22.4937C18.8542 21.8087 19.3404 21.0535 19.7029 20.2574C20.1822 20.1247 20.6477 19.9376 21.0897 19.6963C21.7957 19.2941 22.6156 19.1917 23.3846 19.3887C23.1625 18.6102 23.2873 17.8042 23.6629 17.1492C23.6736 17.1305 23.6806 17.118 23.6845 17.1111C25.0807 14.5762 24.6895 11.2578 22.4658 9.03405C20.0533 6.62164 16.3706 6.36971 13.7749 8.20066C12.8686 8.00268 11.9346 7.95128 11.0103 8.04612C11.1664 7.86085 11.3317 7.68073 11.5061 7.50632C14.8917 4.12072 20.4317 4.17155 23.88 7.61984C26.7348 10.4747 27.261 14.7633 25.4363 18.076C25.4251 18.0962 25.4121 18.1193 25.398 18.144C25.2716 18.3644 25.2387 18.6271 25.3167 18.8689Z" fill="#2F3032"/>
</svg>
