<svg width="24" height="24" viewBox="0 0 24 24" fill="none"
     xmlns="http://www.w3.org/2000/svg">
  <path fill-rule="evenodd" clip-rule="evenodd"
        d="M18.981 16.0738C18.6835 16.0425 18.4158 16.0649 18.2062 16.1005C17.8744 16.1569 17.5385 16.2712 17.2337 16.4426C16.929 16.6096 16.6103 16.745 16.2826 16.8486C15.9145 17.634 15.405 18.3714 14.7545 19.022C14.728 19.0485 14.7014 19.0747 14.6746 19.1007C15.8978 19.0948 17.115 18.7914 18.2081 18.1892C18.397 18.0809 18.6805 18.0199 18.8877 18.0867L20.5988 18.6385C21.1821 18.8266 21.7325 18.2736 21.542 17.6911C21.3362 17.062 21.1162 16.3888 21.0108 16.0636C20.9286 15.8097 20.9623 15.5274 21.0955 15.2962C22.6512 12.4584 22.1979 8.78979 19.7545 6.34641C16.7989 3.39073 12.0503 3.34716 9.14839 6.2491L9.11182 6.28593C7.3465 6.40914 5.6061 7.15263 4.24558 8.51315C1.80219 10.9565 1.34892 14.6252 2.90463 17.4629L2.91138 17.4749C3.04456 17.7061 3.07152 17.9765 2.98927 18.2303C2.8839 18.5555 2.66394 19.2287 2.45814 19.8578C2.26757 20.4403 2.81805 20.9933 3.40137 20.8052L5.11238 20.2535C5.31962 20.1866 5.6031 20.2477 5.792 20.356C8.6315 21.92 12.3075 21.469 14.7545 19.022C17.7102 16.0663 17.7537 11.3178 14.8517 8.41585C13.6467 7.21081 12.1232 6.51367 10.5419 6.32206C11.0322 6.38146 11.5168 6.48944 11.9882 6.64608C14.0198 5.65543 16.5875 6.0078 18.3403 7.76062C20.15 9.57031 20.4701 12.2637 19.3483 14.3227C19.0534 14.8465 18.9192 15.4602 18.981 16.0738ZM4.65278 16.4912C4.95991 17.0315 5.08224 17.642 5.02021 18.2404C5.31728 18.2093 5.58458 18.2317 5.79393 18.2673C6.12572 18.3236 6.46156 18.4379 6.76642 18.6094C8.82685 19.7387 11.527 19.421 13.3402 17.6078C15.5394 15.4086 15.5341 11.9266 13.4375 9.83006C11.341 7.73353 7.85899 7.72816 5.65979 9.92737C3.84957 11.7376 3.52983 14.432 4.65278 16.4912Z"
        fill="white" fill-opacity="1"/>
</svg>
