<svg width="24" height="24" viewBox="0 0 24 24" fill="none"
     xmlns="http://www.w3.org/2000/svg">
  <path
    d="M4.59797 18.1018L3.56079 18.4362C3.68963 18.0419 3.80708 17.6819 3.87463 17.4735C4.0406 16.9613 3.97181 16.4101 3.71727 15.9611C2.48301 13.7021 2.83964 10.7663 4.80298 8.80298C7.18337 6.42258 10.9821 6.40638 13.2878 8.71216C15.5936 11.0179 15.5774 14.8166 13.197 17.197C11.2287 19.1654 8.28293 19.5188 6.02167 18.2733C5.8352 18.1706 5.61988 18.0953 5.40214 18.0571C5.19278 18.0204 4.90101 18.004 4.59797 18.1018Z"
    stroke="#2F3032" stroke-width="2"/>
  <path fill-rule="evenodd" clip-rule="evenodd"
        d="M17.5088 15.39L17.5257 15.3804L17.6993 15.2816L17.889 15.219L18.5152 17.1185C18.5152 17.1185 18.477 17.1403 18.4608 17.1492C17.0674 17.9166 15.4583 18.1643 13.9136 17.8946C14.4824 17.3238 14.9351 16.6816 15.2715 15.9981C16.0459 15.976 16.8101 15.7751 17.4954 15.3976L17.5088 15.39ZM12.263 6.74611C14.1649 5.5514 16.761 5.78125 18.4899 7.51008C20.1372 9.15739 20.4267 11.6072 19.4075 13.4772C19.1331 13.9604 19.0097 14.5009 19.0368 15.0372C18.9501 15.0348 18.8773 15.0371 18.823 15.0398C18.629 15.0495 18.4594 15.0778 18.342 15.1011C18.2191 15.1256 18.1138 15.1528 18.0404 15.1734C18.0025 15.1839 17.9702 15.1935 17.945 15.2013L17.9119 15.2117L17.8991 15.2157L17.8938 15.2175L17.8913 15.2183L17.8902 15.2187C17.8899 15.2188 17.889 15.219 18.5152 17.1185C18.5152 17.1185 18.9017 16.9911 19.0951 17.0535L20.692 17.5685C21.2365 17.744 21.7502 17.2279 21.5724 16.6842C21.4702 16.372 21.3643 16.048 21.2728 15.7675L21.2323 15.6435L21.2315 15.641C21.1685 15.448 21.1146 15.2824 21.0766 15.1652C20.9999 14.9283 21.025 14.676 21.1493 14.4602L21.1557 14.449C22.6076 11.8004 22.1846 8.37636 19.9041 6.09587C17.1455 3.33724 12.7135 3.29658 10.005 6.00505C9.99027 6.01981 9.97559 6.03462 9.961 6.04948C10.7565 6.14454 11.5366 6.37664 12.263 6.74611Z"
        fill="#2F3032"/>
</svg>
