<svg width="72" height="72" viewBox="0 0 72 72" fill="none" xmlns="http://www.w3.org/2000/svg">
    <path fill-rule="evenodd" clip-rule="evenodd" d="M36 72C55.8823 72 72 55.8823 72 36C72 16.1177 55.8823 0 36 0C16.1177 0 0 16.1177 0 36C0 55.8823 16.1177 72 36 72ZM36 68C18.3269 68 4 53.6731 4 36C4 18.3269 18.3269 4 36 4C53.6731 4 68 18.3269 68 36C68 53.6731 53.6731 68 36 68ZM35 17C33.8954 17 33 17.8954 33 19V35.1027C32.1077 34.8575 31.1354 35.2602 30.6943 36.1154C30.188 37.0971 30.5734 38.3034 31.5551 38.8097L32.232 39.1588C32.4058 39.5734 32.67 39.9407 33 40.2361V42C33 43.1046 33.8954 44 35 44C36.1046 44 37 43.1046 37 42V41.6178L46.4017 46.4667C47.3834 46.973 48.5896 46.5876 49.0959 45.6059C49.6022 44.6242 49.2168 43.418 48.2351 42.9117L37.9762 37.6207C37.8835 36.8858 37.525 36.2338 37 35.7639V19C37 17.8954 36.1046 17 35 17Z" fill="#C0C5D4" fill-opacity="0.3"/>
</svg>
