<svg width="24" height="24" viewBox="0 0 24 24" fill="none"
     xmlns="http://www.w3.org/2000/svg">
  <path fill-rule="evenodd" clip-rule="evenodd"
        d="M0 12C0 18.6274 5.37258 24 12 24C18.6274 24 24 18.6274 24 12C24 5.37258 18.6274 0 12 0C5.37258 0 0 5.37258 0 12ZM22.5 12C22.5 17.799 17.799 22.5 12 22.5C6.20101 22.5 1.5 17.799 1.5 12C1.5 6.20101 6.20101 1.5 12 1.5C17.799 1.5 22.5 6.20101 22.5 12Z"
        fill="#B8BDC7"/>
  <path fill-rule="evenodd" clip-rule="evenodd"
        d="M10.8695 12.0389L7.00377 15.8242C6.7009 16.1271 6.70201 16.6192 7.00625 16.9235C7.3105 17.2277 7.80267 17.2288 8.10555 16.926L11.9713 13.1407L15.8156 16.9434C16.1199 17.2476 16.612 17.2487 16.9149 16.9459C17.2178 16.643 17.2167 16.1508 16.9124 15.8466L13.0681 12.0439L16.9903 8.20532C17.2931 7.90245 17.292 7.41027 16.9878 7.10603C16.6835 6.80178 16.1914 6.80067 15.8885 7.10355L11.9663 10.9421L8.08332 7.08022C7.77908 6.77597 7.28691 6.77486 6.98403 7.07774C6.68115 7.38061 6.68226 7.87278 6.98651 8.17703L10.8695 12.0389Z"
        fill="#B8BDC7"/>
</svg>
