<svg width="24" height="24" viewBox="0 0 24 24" fill="white"
     xmlns="http://www.w3.org/2000/svg">
  <rect x="4" y="4" width="16" height="2" rx="1"/>
  <rect x="10" y="11" width="10" height="2" rx="1"/>
  <rect x="4" y="18" width="16" height="2" rx="1"/>
  <path
    d="M5 12.1765L4.27299 11.4898C4.09068 11.6829 3.99262 11.9405 4.00043 12.2059C4.00825 12.4713 4.12129 12.7227 4.31464 12.9047L5 12.1765ZM8.72701 9.68662C9.10623 9.28511 9.08814 8.6522 8.68662 8.27299C8.28511 7.89378 7.6522 7.91186 7.27299 8.31338L8.72701 9.68662ZM7.31464 15.7282C7.71681 16.1067 8.34968 16.0875 8.7282 15.6854C9.10672 15.2832 9.08754 14.6503 8.68536 14.2718L7.31464 15.7282ZM5.72701 12.8631L8.72701 9.68662L7.27299 8.31338L4.27299 11.4898L5.72701 12.8631ZM8.68536 14.2718L5.68536 11.4483L4.31464 12.9047L7.31464 15.7282L8.68536 14.2718Z"
  />
</svg>
