<svg width="22" height="20" viewBox="0 0 22 20" fill="none" xmlns="http://www.w3.org/2000/svg">
    <path d="M13.8578 0.0482086C15.6873 0.0631121 17.3886 1.03385 18.3188 2.59361L21.2894 7.57476C22.2196 9.13452 22.2368 11.0455 21.3347 12.5856L18.4269 17.5494C17.5295 19.0814 15.858 20.0147 14.0382 19.9998L8.14152 19.9518C6.31201 19.9369 4.61075 18.9662 3.68056 17.4064L0.709985 12.4252C-0.220205 10.8655 -0.237483 8.95451 0.664681 7.41442L3.57243 2.45056C4.46982 0.918605 6.14132 -0.0146507 7.96117 0.000174022L13.8578 0.0482086Z" fill="#ECECEC"/>
    <path d="M5.87317 7.65362C5.87317 7.60308 5.88315 7.55814 5.90316 7.5188C5.92486 7.4795 5.9532 7.44579 5.9882 7.41772C6.0232 7.38962 6.06322 7.36858 6.10824 7.35451C6.15492 7.33908 6.20326 7.33136 6.25326 7.33136C6.30326 7.33136 6.35077 7.33908 6.3958 7.35451C6.44248 7.36858 6.48332 7.38962 6.51833 7.41772C6.55333 7.44579 6.58083 7.4795 6.60084 7.5188C6.62251 7.55814 6.63336 7.60308 6.63336 7.65362V8.53404C6.63336 8.58458 6.62251 8.62952 6.60084 8.66885C6.58083 8.70816 6.55333 8.74186 6.51833 8.76993C6.48332 8.79804 6.44248 8.81979 6.3958 8.83523C6.35077 8.84926 6.30326 8.8563 6.25326 8.8563C6.20326 8.8563 6.15492 8.84926 6.10824 8.83523C6.06322 8.81979 6.0232 8.79804 5.9882 8.76993C5.9532 8.74186 5.92486 8.70816 5.90316 8.66885C5.88315 8.62952 5.87317 8.58458 5.87317 8.53404V7.65362ZM6.12825 8.53404C6.12825 8.56494 6.13989 8.59089 6.16325 8.61196C6.18657 8.63163 6.2166 8.64147 6.25326 8.64147C6.28992 8.64147 6.31995 8.63163 6.34327 8.61196C6.36663 8.59089 6.37828 8.56494 6.37828 8.53404V7.65362C6.37828 7.62272 6.36663 7.59745 6.34327 7.57781C6.31995 7.55674 6.28992 7.54619 6.25326 7.54619C6.2166 7.54619 6.18657 7.55674 6.16325 7.57781C6.13989 7.59745 6.12825 7.62272 6.12825 7.65362V8.53404Z" fill="white"/>
    <path d="M7.14014 10.7035C7.14014 10.6529 7.15012 10.608 7.17013 10.5687C7.19183 10.5294 7.22016 10.4957 7.25517 10.4676C7.29017 10.4395 7.33018 10.4184 7.37521 10.4044C7.42189 10.3889 7.47023 10.3812 7.52023 10.3812C7.57023 10.3812 7.61774 10.3889 7.66276 10.4044C7.70945 10.4184 7.75029 10.4395 7.78529 10.4676C7.8203 10.4957 7.8478 10.5294 7.86781 10.5687C7.88947 10.608 7.90032 10.6529 7.90032 10.7035V11.5839C7.90032 11.6344 7.88947 11.6794 7.86781 11.7187C7.8478 11.758 7.8203 11.7917 7.78529 11.8198C7.75029 11.8479 7.70945 11.8697 7.66276 11.8851C7.61774 11.8991 7.57023 11.9062 7.52023 11.9062C7.47023 11.9062 7.42189 11.8991 7.37521 11.8851C7.33018 11.8697 7.29017 11.8479 7.25517 11.8198C7.22016 11.7917 7.19183 11.758 7.17013 11.7187C7.15012 11.6794 7.14014 11.6344 7.14014 11.5839V10.7035ZM7.39521 11.5839C7.39521 11.6148 7.40686 11.6408 7.43022 11.6618C7.45354 11.6815 7.48357 11.6913 7.52023 11.6913C7.55689 11.6913 7.58692 11.6815 7.61024 11.6618C7.6336 11.6408 7.64525 11.6148 7.64525 11.5839V10.7035C7.64525 10.6726 7.6336 10.6473 7.61024 10.6277C7.58692 10.6066 7.55689 10.5961 7.52023 10.5961C7.48357 10.5961 7.45354 10.6066 7.43022 10.6277C7.40686 10.6473 7.39521 10.6726 7.39521 10.7035V11.5839Z" fill="white"/>
    <path d="M5.87317 12.2285C5.87317 12.178 5.88315 12.133 5.90316 12.0937C5.92486 12.0544 5.9532 12.0207 5.9882 11.9926C6.0232 11.9645 6.06322 11.9435 6.10824 11.9294C6.15492 11.914 6.20326 11.9062 6.25326 11.9062C6.30326 11.9062 6.35077 11.914 6.3958 11.9294C6.44248 11.9435 6.48332 11.9645 6.51833 11.9926C6.55333 12.0207 6.58083 12.0544 6.60084 12.0937C6.62251 12.133 6.63336 12.178 6.63336 12.2285V13.1089C6.63336 13.1595 6.62251 13.2044 6.60084 13.2437C6.58083 13.283 6.55333 13.3168 6.51833 13.3448C6.48332 13.3729 6.44248 13.3947 6.3958 13.4101C6.35077 13.4242 6.30326 13.4312 6.25326 13.4312C6.20326 13.4312 6.15492 13.4242 6.10824 13.4101C6.06322 13.3947 6.0232 13.3729 5.9882 13.3448C5.9532 13.3168 5.92486 13.283 5.90316 13.2437C5.88315 13.2044 5.87317 13.1595 5.87317 13.1089V12.2285ZM6.12825 13.1089C6.12825 13.1398 6.13989 13.1658 6.16325 13.1869C6.18657 13.2065 6.2166 13.2164 6.25326 13.2164C6.28992 13.2164 6.31995 13.2065 6.34327 13.1869C6.36663 13.1658 6.37828 13.1398 6.37828 13.1089V12.2285C6.37828 12.1976 6.36663 12.1723 6.34327 12.1527C6.31995 12.1316 6.28992 12.1211 6.25326 12.1211C6.2166 12.1211 6.18657 12.1316 6.16325 12.1527C6.13989 12.1723 6.12825 12.1976 6.12825 12.2285V13.1089Z" fill="white"/>
    <path d="M9.67407 9.94097C9.67407 9.89043 9.68406 9.84549 9.70406 9.80616C9.72576 9.76685 9.7541 9.73315 9.7891 9.70507C9.82411 9.67697 9.86412 9.65593 9.90914 9.64187C9.95582 9.62643 10.0042 9.61871 10.0542 9.61871C10.1042 9.61871 10.1517 9.62643 10.1967 9.64187C10.2434 9.65593 10.2842 9.67697 10.3192 9.70507C10.3542 9.73315 10.3817 9.76685 10.4017 9.80616C10.4234 9.84549 10.4343 9.89043 10.4343 9.94097V10.8214C10.4343 10.8719 10.4234 10.9169 10.4017 10.9562C10.3817 10.9955 10.3542 11.0292 10.3192 11.0573C10.2842 11.0854 10.2434 11.1071 10.1967 11.1226C10.1517 11.1366 10.1042 11.1436 10.0542 11.1436C10.0042 11.1436 9.95582 11.1366 9.90914 11.1226C9.86412 11.1071 9.82411 11.0854 9.7891 11.0573C9.7541 11.0292 9.72576 10.9955 9.70406 10.9562C9.68406 10.9169 9.67407 10.8719 9.67407 10.8214V9.94097ZM9.92915 10.8214C9.92915 10.8523 9.94079 10.8782 9.96415 10.8993C9.98748 10.919 10.0175 10.9288 10.0542 10.9288C10.0908 10.9288 10.1209 10.919 10.1442 10.8993C10.1675 10.8782 10.1792 10.8523 10.1792 10.8214V9.94097C10.1792 9.91007 10.1675 9.8848 10.1442 9.86516C10.1209 9.84409 10.0908 9.83354 10.0542 9.83354C10.0175 9.83354 9.98748 9.84409 9.96415 9.86516C9.94079 9.8848 9.92915 9.91007 9.92915 9.94097V10.8214Z" fill="white"/>
    <path d="M9.67407 14.5159C9.67407 14.4654 9.68406 14.4204 9.70406 14.3811C9.72576 14.3418 9.7541 14.3081 9.7891 14.28C9.82411 14.2519 9.86412 14.2309 9.90914 14.2168C9.95582 14.2014 10.0042 14.1937 10.0542 14.1937C10.1042 14.1937 10.1517 14.2014 10.1967 14.2168C10.2434 14.2309 10.2842 14.2519 10.3192 14.28C10.3542 14.3081 10.3817 14.3418 10.4017 14.3811C10.4234 14.4204 10.4343 14.4654 10.4343 14.5159V15.3963C10.4343 15.4469 10.4234 15.4918 10.4017 15.5312C10.3817 15.5705 10.3542 15.6042 10.3192 15.6322C10.2842 15.6603 10.2434 15.6821 10.1967 15.6975C10.1517 15.7116 10.1042 15.7186 10.0542 15.7186C10.0042 15.7186 9.95582 15.7116 9.90914 15.6975C9.86412 15.6821 9.82411 15.6603 9.7891 15.6322C9.7541 15.6042 9.72576 15.5705 9.70406 15.5312C9.68406 15.4918 9.67407 15.4469 9.67407 15.3963V14.5159ZM9.92915 15.3963C9.92915 15.4272 9.94079 15.4532 9.96415 15.4743C9.98748 15.4939 10.0175 15.5038 10.0542 15.5038C10.0908 15.5038 10.1209 15.4939 10.1442 15.4743C10.1675 15.4532 10.1792 15.4272 10.1792 15.3963V14.5159C10.1792 14.485 10.1675 14.4598 10.1442 14.4401C10.1209 14.419 10.0908 14.4085 10.0542 14.4085C10.0175 14.4085 9.98748 14.419 9.96415 14.4401C9.94079 14.4598 9.92915 14.485 9.92915 14.5159V15.3963Z" fill="white"/>
    <path d="M8.40698 13.7534C8.40698 13.7029 8.41697 13.6579 8.43698 13.6186C8.45867 13.5793 8.48701 13.5456 8.52201 13.5175C8.55702 13.4894 8.59703 13.4684 8.64205 13.4543C8.68873 13.4389 8.73708 13.4312 8.78708 13.4312C8.83708 13.4312 8.88459 13.4389 8.92961 13.4543C8.97629 13.4684 9.01714 13.4894 9.05214 13.5175C9.08714 13.5456 9.11465 13.5793 9.13465 13.6186C9.15632 13.6579 9.16717 13.7029 9.16717 13.7534V14.6338C9.16717 14.6844 9.15632 14.7293 9.13465 14.7686C9.11465 14.808 9.08714 14.8417 9.05214 14.8697C9.01714 14.8978 8.97629 14.9196 8.92961 14.935C8.88459 14.9491 8.83708 14.9561 8.78708 14.9561C8.73708 14.9561 8.68873 14.9491 8.64205 14.935C8.59703 14.9196 8.55702 14.8978 8.52201 14.8697C8.48701 14.8417 8.45867 14.808 8.43698 14.7686C8.41697 14.7293 8.40698 14.6844 8.40698 14.6338V13.7534ZM8.66206 14.6338C8.66206 14.6647 8.6737 14.6907 8.69706 14.7118C8.72039 14.7314 8.75041 14.7413 8.78708 14.7413C8.82374 14.7413 8.85376 14.7314 8.87709 14.7118C8.90045 14.6907 8.91209 14.6647 8.91209 14.6338V13.7534C8.91209 13.7225 8.90045 13.6972 8.87709 13.6776C8.85376 13.6565 8.82374 13.646 8.78708 13.646C8.75041 13.646 8.72039 13.6565 8.69706 13.6776C8.6737 13.6972 8.66206 13.7225 8.66206 13.7534V14.6338Z" fill="white"/>
    <path d="M7.39353 9.61881V8.36375L7.14014 8.55113V8.28129L7.39353 8.09387H7.64693V9.61881H7.39353Z" fill="white"/>
    <path d="M6.12656 11.1436V9.88859L5.87317 10.076V9.80614L6.12656 9.61871H6.37996V11.1436H6.12656Z" fill="white"/>
    <path d="M7.39353 14.1936V12.9386L7.14014 13.126V12.8561L7.39353 12.6687H7.64693V14.1936H7.39353Z" fill="white"/>
    <path d="M8.66038 10.3813V9.12626L8.40698 9.31365V9.04381L8.66038 8.85638H8.91377V10.3813H8.66038Z" fill="white"/>
    <path d="M8.66038 12.6686V11.4136L8.40698 11.6009V11.3311L8.66038 11.1437H8.91377V12.6686H8.66038Z" fill="white"/>
    <path d="M9.92747 13.4312V12.1761L9.67407 12.3635V12.0937L9.92747 11.9062H10.1809V13.4312H9.92747Z" fill="white"/>
    <path fill-rule="evenodd" clip-rule="evenodd" d="M11.1515 16.5521V10.0268C11.1515 9.99635 11.1675 9.9681 11.1935 9.95239L16.6448 6.6724C16.7025 6.63772 16.7759 6.67938 16.7759 6.74682V13.3124C16.7759 13.343 16.7597 13.3714 16.7335 13.387L11.2821 16.6268C11.2244 16.661 11.1515 16.6193 11.1515 16.5521ZM16.3432 8.5544C16.3423 8.51292 16.3162 8.4923 16.284 8.50832C16.2764 8.51209 16.2688 8.51782 16.2617 8.52515L15.5037 9.30738L15.5015 9.30972C15.4636 9.35016 15.4347 9.44646 15.4347 9.50096L15.4346 12.4204L15.4347 12.4237C15.4355 12.4746 15.4588 12.5131 15.4942 12.5177L16.2534 12.7016L16.2552 12.7018C16.2844 12.7041 16.3186 12.6703 16.3325 12.6253C16.3362 12.613 16.3382 12.6006 16.3382 12.589L16.3432 8.55683L16.3432 8.5544ZM12.2332 10.6829C12.2261 10.6826 12.2186 10.6844 12.2109 10.6882C12.1782 10.7045 12.1516 10.7527 12.1515 10.7958L12.1466 14.8279C12.1466 14.8395 12.1485 14.85 12.1523 14.8585C12.1663 14.8905 12.2016 14.8894 12.2312 14.8562L12.9916 14.0028C13.0278 13.9621 13.0509 13.9027 13.051 13.85L13.0547 10.8055C13.0548 10.7499 13.0293 10.7126 12.9902 10.7111L12.2332 10.6829ZM15.0347 10.5862L14.3347 10.4023C14.2935 10.3915 14.2426 10.4167 14.2014 10.4686L13.5001 11.3936C13.4587 11.4455 13.4333 11.5161 13.4332 11.5788L13.4319 12.6439C13.4318 12.7066 13.4571 12.7519 13.4984 12.7627L14.1983 12.9029C14.2396 12.9137 14.2904 12.8884 14.3317 12.8365L15.033 11.9553C15.0743 11.9034 15.0998 11.8328 15.0999 11.7701L15.1012 10.705C15.1013 10.6423 15.0759 10.597 15.0347 10.5862Z" fill="white"/>
    <path fill-rule="evenodd" clip-rule="evenodd" d="M10.3943 3.68351C10.7691 3.46647 11.2309 3.46647 11.6057 3.68351L10.3943 3.68351ZM10.3943 3.68351L5.849 6.31563C5.849 6.31563 5.849 6.31563 5.84899 6.31563C5.47417 6.5327 5.24329 6.9338 5.24329 7.36789V12.6321C5.24329 13.0662 5.47417 13.4673 5.84899 13.6844C5.849 13.6844 5.849 13.6844 5.849 13.6844L10.3943 16.3165C10.7691 16.5335 11.2309 16.5335 11.6057 16.3165L16.151 13.6844C16.5258 13.4673 16.7567 13.0662 16.7567 12.6321V7.36789C16.7567 6.9338 16.5258 6.53269 16.151 6.31563L16.2808 6.09015L16.151 6.31563L11.6057 3.68351M10.1347 3.23254C10.6702 2.92249 11.3298 2.92249 11.8653 3.23254L11.8653 3.23255L16.4106 5.86466L16.2831 6.08616L16.4106 5.86467C16.9461 6.17475 17.2759 6.74776 17.2759 7.36789V12.6321C17.2759 13.2523 16.9461 13.8253 16.4106 14.1353L16.2808 13.9099L16.4106 14.1354L11.8653 16.7675L11.8653 16.7675C11.3298 17.0775 10.6702 17.0775 10.1347 16.7675L10.1347 16.7675L5.58941 14.1354L5.5894 14.1353C5.05395 13.8253 4.72412 13.2523 4.72412 12.6321V7.36789C4.72412 6.74776 5.05395 6.17475 5.5894 5.86467L5.58941 5.86466L10.1347 3.23255L10.1347 3.23254Z" fill="white"/>
    <path fill-rule="evenodd" clip-rule="evenodd" d="M16.6484 6.67059L16.9035 7.12412L11.6312 10.1076C11.4952 10.1846 11.4111 10.329 11.4111 10.4855V16.7044H10.892V10.4855C10.892 10.1411 11.077 9.82334 11.3761 9.65407L16.6484 6.67059Z" fill="white"/>
</svg>
