<svg width="24" height="24" viewBox="0 0 24 24" fill="none" xmlns="http://www.w3.org/2000/svg">
  <path fill-rule="evenodd" clip-rule="evenodd" d="M12.1194 3.65434C13.0162 2.77539 14.4534 2.78288 15.341 3.67111L20.3321 8.66544C21.2292 9.56312 21.2216 11.0206 20.3152 11.9089C19.9398 12.2768 19.4489 12.5038 18.9254 12.5514L16.3302 12.7875L15.6191 13.4844L15.4293 18.8446C15.3632 20.7114 13.1026 21.6038 11.7806 20.2809L9.26497 17.7637L4.84035 20.7931C3.76365 21.5302 2.47516 20.2297 3.20658 19.16L6.23466 14.7314L3.71028 12.2054C2.39256 10.8868 3.27485 8.62826 5.13974 8.55615L10.4956 8.34908L11.2082 7.65074L11.4414 5.08322C11.4906 4.5416 11.7309 4.03506 12.1194 3.65434ZM13.9263 5.08487C13.8141 4.97254 13.6326 4.9716 13.5192 5.08274C13.47 5.13098 13.4395 5.19528 13.4332 5.26418L13.1958 7.877C13.1555 8.32056 12.9588 8.73541 12.6406 9.04723L11.8611 9.81117C11.5285 10.1371 11.0865 10.3277 10.6211 10.3457L5.21701 10.5547C5.17414 10.5563 5.15353 10.568 5.14101 10.5773C5.1244 10.5898 5.10603 10.6115 5.09388 10.6425C5.08174 10.6735 5.08044 10.7021 5.08424 10.7227C5.08712 10.7383 5.09446 10.7611 5.12495 10.7917L8.23562 13.9043C8.57561 14.2446 8.62524 14.7786 8.35376 15.1757L7.34058 16.6574L8.82035 15.6443C9.21761 15.3723 9.75229 15.422 10.0926 15.7626L13.1952 18.8672C13.2258 18.8978 13.2485 18.9049 13.2637 18.9077C13.2839 18.9115 13.3122 18.9102 13.3429 18.898C13.3737 18.8859 13.3954 18.8675 13.4078 18.8508C13.4172 18.8382 13.429 18.8173 13.4305 18.7738L13.6221 13.3643C13.6392 12.8835 13.8402 12.4275 14.1839 12.0907L14.9621 11.328C15.2707 11.0256 15.6743 10.8389 16.1047 10.7998L18.7442 10.5597C18.8086 10.5538 18.869 10.5259 18.9153 10.4805C19.0274 10.3707 19.0283 10.1902 18.9174 10.0792L13.9263 5.08487Z" fill="#2F3032"/>
</svg>
