<svg width="24" height="24" viewBox="0 0 24 24" fill="none"
     xmlns="http://www.w3.org/2000/svg">
  <path fill-rule="evenodd" clip-rule="evenodd"
        d="M14.8995 3.58581C15.6805 2.80474 16.9469 2.80474 17.7279 3.58579L20.5563 6.41421C21.3374 7.19526 21.3374 8.4616 20.5563 9.24264L11.642 18.1569L19.9854 18.1569C20.5376 18.1569 20.9854 18.6046 20.9854 19.1569C20.9854 19.7091 20.5376 20.1421 19.9854 20.1421L5.00001 20.1421C4.73478 20.1421 4.48042 20.0367 4.29288 19.8492C4.10534 19.6616 3.99999 19.4073 4 19.142L4.00017 14.8995C4.00018 14.6343 4.10554 14.38 4.29306 14.1924L14.8995 3.58581ZM19.1421 7.82842L16.3137 5.00001L14.9853 6.32841L17.8137 9.1568L19.1421 7.82842ZM6.00016 15.3138L13.5711 7.74264L16.3995 10.571L8.82838 18.1421L6.00004 18.1421L6.00016 15.3138Z"
        fill="#2F3032"/>
</svg>
