<svg width="24" height="24" viewBox="0 0 24 24" fill="none" xmlns="http://www.w3.org/2000/svg">
  <path d="M13.8782 13.6799C13.4653 14.0467 13.4279 14.6788 13.7947 15.0917C14.1615 15.5046 14.7936 15.542 15.2065 15.1752L13.8782 13.6799ZM13 21C13.5523 21 14 20.5523 14 20C14 19.4477 13.5523 19 13 19V21ZM5.91955 16.5254L5.41226 15.6636L5.91955 16.5254ZM9.18861 14.0489L9.99714 13.4605L9.18861 14.0489ZM9.06971 14.6711L8.56243 13.8093L9.06971 14.6711ZM14.5423 14.4276C15.2065 15.1752 15.2068 15.1749 15.2071 15.1747C15.2072 15.1746 15.2075 15.1743 15.2077 15.1741C15.2081 15.1737 15.2086 15.1733 15.2091 15.1729C15.21 15.172 15.2111 15.171 15.2123 15.17C15.2146 15.1679 15.2172 15.1655 15.2203 15.1628C15.2263 15.1572 15.2338 15.1503 15.2426 15.1421C15.2603 15.1256 15.2833 15.1036 15.3109 15.0763C15.3661 15.0216 15.4399 14.9453 15.5261 14.8482C15.6979 14.6547 15.9223 14.3749 16.1458 14.0167C16.5913 13.3029 17.0526 12.2462 17.0526 10.9294H15.0526C15.0526 11.7692 14.7588 12.4615 14.4492 12.9577C14.2951 13.2045 14.1419 13.3949 14.0305 13.5203C13.9752 13.5827 13.931 13.628 13.9036 13.6552C13.8899 13.6687 13.8805 13.6777 13.876 13.6818C13.8737 13.6839 13.8728 13.6848 13.8731 13.6845C13.8733 13.6844 13.8738 13.6839 13.8746 13.6832C13.875 13.6828 13.8756 13.6823 13.8762 13.6818C13.8765 13.6815 13.8768 13.6812 13.8771 13.6809C13.8773 13.6808 13.8776 13.6805 13.8777 13.6804C13.8779 13.6802 13.8782 13.6799 14.5423 14.4276ZM17.0526 10.9294V6.57609H15.0526V10.9294H17.0526ZM17.0526 6.57609C17.0526 5.34448 16.1895 4.34208 15.3009 3.71293C14.3778 3.05941 13.1674 2.61176 12.0025 2.6089L11.9975 4.60889C12.6906 4.61059 13.5065 4.89307 14.1452 5.34527C14.8184 5.82184 15.0526 6.30076 15.0526 6.57609H17.0526ZM12.0025 2.6089C10.8336 2.60603 9.62111 3.05601 8.69813 3.71115C7.80962 4.34183 6.94737 5.34643 6.94737 6.57609H8.94737C8.94737 6.30127 9.18246 5.81999 9.85578 5.34206C10.4946 4.88859 11.3085 4.6072 11.9975 4.60889L12.0025 2.6089ZM7.94737 6.57609C6.94737 6.57609 6.94737 6.5761 6.94737 6.57614C6.94737 6.57617 6.94737 6.57622 6.94737 6.57629C6.94737 6.57635 6.94737 6.57644 6.94737 6.57654C6.94737 6.57664 6.94737 6.57675 6.94737 6.57689C6.94737 6.57702 6.94737 6.57717 6.94737 6.57733C6.94737 6.5775 6.94737 6.57768 6.94737 6.57788C6.94737 6.57808 6.94737 6.57829 6.94737 6.57852C6.94737 6.57875 6.94737 6.579 6.94737 6.57926C6.94737 6.57953 6.94737 6.57981 6.94737 6.5801C6.94737 6.5804 6.94737 6.58071 6.94737 6.58104C6.94737 6.58136 6.94737 6.58171 6.94737 6.58207C6.94737 6.58243 6.94737 6.5828 6.94737 6.58319C6.94737 6.58359 6.94737 6.58399 6.94737 6.58442C6.94737 6.58484 6.94737 6.58528 6.94737 6.58574C6.94737 6.58619 6.94737 6.58666 6.94737 6.58715C6.94737 6.58763 6.94737 6.58814 6.94737 6.58865C6.94737 6.58917 6.94737 6.58971 6.94737 6.59026C6.94737 6.59081 6.94737 6.59137 6.94737 6.59195C6.94737 6.59253 6.94737 6.59313 6.94737 6.59374C6.94737 6.59435 6.94737 6.59498 6.94737 6.59562C6.94737 6.59626 6.94737 6.59692 6.94737 6.59759C6.94737 6.59827 6.94737 6.59895 6.94737 6.59966C6.94737 6.60036 6.94737 6.60108 6.94737 6.60181C6.94737 6.60255 6.94737 6.6033 6.94737 6.60406C6.94737 6.60483 6.94737 6.60561 6.94737 6.6064C6.94737 6.6072 6.94737 6.60801 6.94737 6.60883C6.94737 6.60966 6.94737 6.61049 6.94737 6.61135C6.94737 6.6122 6.94737 6.61307 6.94737 6.61396C6.94737 6.61484 6.94737 6.61574 6.94737 6.61666C6.94737 6.61757 6.94737 6.6185 6.94737 6.61944C6.94737 6.62039 6.94737 6.62135 6.94737 6.62232C6.94737 6.62329 6.94737 6.62428 6.94737 6.62528C6.94737 6.62629 6.94737 6.6273 6.94737 6.62833C6.94737 6.62937 6.94737 6.63041 6.94737 6.63147C6.94737 6.63253 6.94737 6.63361 6.94737 6.6347C6.94737 6.63579 6.94737 6.63689 6.94737 6.63801C6.94737 6.63913 6.94737 6.64026 6.94737 6.64141C6.94737 6.64256 6.94737 6.64372 6.94737 6.64489C6.94737 6.64607 6.94737 6.64726 6.94737 6.64846C6.94737 6.64967 6.94737 6.65089 6.94737 6.65212C6.94737 6.65335 6.94737 6.6546 6.94737 6.65586C6.94737 6.65712 6.94737 6.65839 6.94737 6.65968C6.94737 6.66097 6.94737 6.66227 6.94737 6.66359C6.94737 6.6649 6.94737 6.66623 6.94737 6.66758C6.94737 6.66892 6.94737 6.67028 6.94737 6.67165C6.94737 6.67302 6.94737 6.67441 6.94737 6.67581C6.94737 6.6772 6.94737 6.67862 6.94737 6.68004C6.94737 6.68147 6.94737 6.68291 6.94737 6.68436C6.94737 6.68582 6.94737 6.68728 6.94737 6.68876C6.94737 6.69025 6.94737 6.69174 6.94737 6.69325C6.94737 6.69475 6.94737 6.69628 6.94737 6.69781C6.94737 6.69934 6.94737 6.70089 6.94737 6.70245C6.94737 6.70401 6.94737 6.70559 6.94737 6.70718C6.94737 6.70876 6.94737 6.71036 6.94737 6.71198C6.94737 6.71359 6.94737 6.71522 6.94737 6.71686C6.94737 6.7185 6.94737 6.72015 6.94737 6.72182C6.94737 6.72349 6.94737 6.72517 6.94737 6.72686C6.94737 6.72855 6.94737 6.73026 6.94737 6.73197C6.94737 6.73369 6.94737 6.73542 6.94737 6.73717C6.94737 6.73891 6.94737 6.74067 6.94737 6.74244C6.94737 6.74421 6.94737 6.74599 6.94737 6.74779C6.94737 6.74958 6.94737 6.75139 6.94737 6.75321C6.94737 6.75503 6.94737 6.75686 6.94737 6.75871C6.94737 6.76056 6.94737 6.76241 6.94737 6.76429C6.94737 6.76616 6.94737 6.76804 6.94737 6.76994C6.94737 6.77183 6.94737 6.77374 6.94737 6.77566C6.94737 6.77758 6.94737 6.77952 6.94737 6.78146C6.94737 6.78341 6.94737 6.78536 6.94737 6.78733C6.94737 6.7893 6.94737 6.79129 6.94737 6.79328C6.94737 6.79528 6.94737 6.79728 6.94737 6.7993C6.94737 6.80132 6.94737 6.80335 6.94737 6.80539C6.94737 6.80744 6.94737 6.80949 6.94737 6.81156C6.94737 6.81363 6.94737 6.81571 6.94737 6.8178C6.94737 6.81989 6.94737 6.82199 6.94737 6.82411C6.94737 6.82622 6.94737 6.82835 6.94737 6.83049C6.94737 6.83262 6.94737 6.83478 6.94737 6.83694C6.94737 6.8391 6.94737 6.84127 6.94737 6.84346C6.94737 6.84564 6.94737 6.84784 6.94737 6.85005C6.94737 6.85226 6.94737 6.85448 6.94737 6.85671C6.94737 6.85894 6.94737 6.86119 6.94737 6.86344C6.94737 6.8657 6.94737 6.86796 6.94737 6.87024C6.94737 6.87252 6.94737 6.87481 6.94737 6.87711C6.94737 6.87941 6.94737 6.88172 6.94737 6.88404C6.94737 6.88637 6.94737 6.8887 6.94737 6.89105C6.94737 6.89339 6.94737 6.89575 6.94737 6.89812C6.94737 6.90048 6.94737 6.90286 6.94737 6.90525C6.94737 6.90764 6.94737 6.91005 6.94737 6.91246C6.94737 6.91487 6.94737 6.91729 6.94737 6.91973C6.94737 6.92216 6.94737 6.92461 6.94737 6.92706C6.94737 6.92952 6.94737 6.93199 6.94737 6.93446C6.94737 6.93694 6.94737 6.93943 6.94737 6.94193C6.94737 6.94443 6.94737 6.94694 6.94737 6.94946C6.94737 6.95198 6.94737 6.95451 6.94737 6.95706C6.94737 6.9596 6.94737 6.96215 6.94737 6.96471C6.94737 6.96728 6.94737 6.96985 6.94737 6.97243C6.94737 6.97502 6.94737 6.97761 6.94737 6.98022C6.94737 6.98282 6.94737 6.98544 6.94737 6.98807C6.94737 6.99069 6.94737 6.99333 6.94737 6.99598C6.94737 6.99862 6.94737 7.00128 6.94737 7.00395C6.94737 7.00661 6.94737 7.00929 6.94737 7.01198C6.94737 7.01467 6.94737 7.01736 6.94737 7.02007C6.94737 7.02278 6.94737 7.0255 6.94737 7.02823C6.94737 7.03095 6.94737 7.03369 6.94737 7.03644C6.94737 7.03919 6.94737 7.04195 6.94737 7.04471C6.94737 7.04748 6.94737 7.05026 6.94737 7.05305C6.94737 7.05584 6.94737 7.05863 6.94737 7.06144C6.94737 7.06425 6.94737 7.06706 6.94737 7.06989C6.94737 7.07272 6.94737 7.07555 6.94737 7.0784C6.94737 7.08125 6.94737 7.0841 6.94737 7.08697C6.94737 7.08983 6.94737 7.09271 6.94737 7.09559C6.94737 7.09848 6.94737 7.10137 6.94737 7.10427C6.94737 7.10718 6.94737 7.11009 6.94737 7.11301C6.94737 7.11593 6.94737 7.11886 6.94737 7.12181C6.94737 7.12475 6.94737 7.1277 6.94737 7.13066C6.94737 7.13362 6.94737 7.13658 6.94737 7.13956C6.94737 7.14254 6.94737 7.14553 6.94737 7.14852C6.94737 7.15152 6.94737 7.15452 6.94737 7.15754C6.94737 7.16055 6.94737 7.16358 6.94737 7.16661C6.94737 7.16964 6.94737 7.17268 6.94737 7.17573C6.94737 7.17878 6.94737 7.18184 6.94737 7.18491C6.94737 7.18798 6.94737 7.19105 6.94737 7.19414C6.94737 7.19723 6.94737 7.20032 6.94737 7.20342C6.94737 7.20653 6.94737 7.20964 6.94737 7.21276C6.94737 7.21588 6.94737 7.21901 6.94737 7.22215C6.94737 7.22528 6.94737 7.22843 6.94737 7.23159C6.94737 7.23474 6.94737 7.2379 6.94737 7.24108C6.94737 7.24425 6.94737 7.24743 6.94737 7.25062C6.94737 7.2538 6.94737 7.257 6.94737 7.26021C6.94737 7.26341 6.94737 7.26663 6.94737 7.26985C6.94737 7.27307 6.94737 7.2763 6.94737 7.27954C6.94737 7.28278 6.94737 7.28602 6.94737 7.28928C6.94737 7.29253 6.94737 7.2958 6.94737 7.29907C6.94737 7.30234 6.94737 7.30562 6.94737 7.30891C6.94737 7.31219 6.94737 7.31549 6.94737 7.31879C6.94737 7.32209 6.94737 7.3254 6.94737 7.32872C6.94737 7.33204 6.94737 7.33537 6.94737 7.3387C6.94737 7.34204 6.94737 7.34538 6.94737 7.34873C6.94737 7.35208 6.94737 7.35544 6.94737 7.3588C6.94737 7.36217 6.94737 7.36554 6.94737 7.36892C6.94737 7.3723 6.94737 7.37569 6.94737 7.37909C6.94737 7.38248 6.94737 7.38589 6.94737 7.3893C6.94737 7.39271 6.94737 7.39613 6.94737 7.39955C6.94737 7.40298 6.94737 7.40641 6.94737 7.40985C6.94737 7.41329 6.94737 7.41674 6.94737 7.4202C6.94737 7.42365 6.94737 7.42712 6.94737 7.43059C6.94737 7.43406 6.94737 7.43753 6.94737 7.44102C6.94737 7.4445 6.94737 7.44799 6.94737 7.45149C6.94737 7.45499 6.94737 7.45849 6.94737 7.46201C6.94737 7.46552 6.94737 7.46904 6.94737 7.47256C6.94737 7.47609 6.94737 7.47962 6.94737 7.48316C6.94737 7.4867 6.94737 7.49025 6.94737 7.49381C6.94737 7.49736 6.94737 7.50092 6.94737 7.50449C6.94737 7.50806 6.94737 7.51163 6.94737 7.51521C6.94737 7.51879 6.94737 7.52238 6.94737 7.52597C6.94737 7.52957 6.94737 7.53317 6.94737 7.53678C6.94737 7.54038 6.94737 7.544 6.94737 7.54762C6.94737 7.55124 6.94737 7.55487 6.94737 7.5585C6.94737 7.56213 6.94737 7.56577 6.94737 7.56942C6.94737 7.57307 6.94737 7.57672 6.94737 7.58038C6.94737 7.58404 6.94737 7.5877 6.94737 7.59137C6.94737 7.59505 6.94737 7.59872 6.94737 7.60241C6.94737 7.60609 6.94737 7.60978 6.94737 7.61348C6.94737 7.61717 6.94737 7.62088 6.94737 7.62458C6.94737 7.62829 6.94737 7.63201 6.94737 7.63573C6.94737 7.63945 6.94737 7.64317 6.94737 7.64691C6.94737 7.65064 6.94737 7.65438 6.94737 7.65812C6.94737 7.66186 6.94737 7.66561 6.94737 7.66937C6.94737 7.67312 6.94737 7.67689 6.94737 7.68065C6.94737 7.68442 6.94737 7.68819 6.94737 7.69197C6.94737 7.69575 6.94737 7.69953 6.94737 7.70332C6.94737 7.70711 6.94737 7.71091 6.94737 7.71471C6.94737 7.71851 6.94737 7.72232 6.94737 7.72613C6.94737 7.72994 6.94737 7.73376 6.94737 7.73758C6.94737 7.7414 6.94737 7.74523 6.94737 7.74906C6.94737 7.7529 6.94737 7.75673 6.94737 7.76058C6.94737 7.76442 6.94737 7.76827 6.94737 7.77213C6.94737 7.77598 6.94737 7.77984 6.94737 7.7837C6.94737 7.78757 6.94737 7.79144 6.94737 7.79531C6.94737 7.79919 6.94737 7.80307 6.94737 7.80695C6.94737 7.81084 6.94737 7.81473 6.94737 7.81862C6.94737 7.82252 6.94737 7.82642 6.94737 7.83032C6.94737 7.83422 6.94737 7.83813 6.94737 7.84205C6.94737 7.84596 6.94737 7.84988 6.94737 7.8538C6.94737 7.85773 6.94737 7.86166 6.94737 7.86559C6.94737 7.86952 6.94737 7.87346 6.94737 7.8774C6.94737 7.88134 6.94737 7.88529 6.94737 7.88924C6.94737 7.89319 6.94737 7.89715 6.94737 7.90111C6.94737 7.90507 6.94737 7.90904 6.94737 7.913C6.94737 7.91697 6.94737 7.92095 6.94737 7.92493C6.94737 7.9289 6.94737 7.93289 6.94737 7.93687C6.94737 7.94086 6.94737 7.94485 6.94737 7.94884C6.94737 7.95284 6.94737 7.95684 6.94737 7.96084C6.94737 7.96485 6.94737 7.96885 6.94737 7.97287C6.94737 7.97688 6.94737 7.98089 6.94737 7.98491C6.94737 7.98893 6.94737 7.99296 6.94737 7.99698C6.94737 8.00101 6.94737 8.00504 6.94737 8.00908C6.94737 8.01311 6.94737 8.01715 6.94737 8.0212C6.94737 8.02524 6.94737 8.02929 6.94737 8.03334C6.94737 8.03739 6.94737 8.04144 6.94737 8.0455C6.94737 8.04956 6.94737 8.05362 6.94737 8.05769C6.94737 8.06175 6.94737 8.06582 6.94737 8.06989C6.94737 8.07397 6.94737 8.07804 6.94737 8.08212C6.94737 8.0862 6.94737 8.09028 6.94737 8.09437C6.94737 8.09846 6.94737 8.10255 6.94737 8.10664C6.94737 8.11073 6.94737 8.11483 6.94737 8.11893C6.94737 8.12303 6.94737 8.12713 6.94737 8.13124C6.94737 8.13535 6.94737 8.13946 6.94737 8.14357C6.94737 8.14768 6.94737 8.1518 6.94737 8.15592C6.94737 8.16004 6.94737 8.16416 6.94737 8.16828C6.94737 8.17241 6.94737 8.17654 6.94737 8.18067C6.94737 8.1848 6.94737 8.18893 6.94737 8.19307C6.94737 8.19721 6.94737 8.20135 6.94737 8.20549C6.94737 8.20963 6.94737 8.21378 6.94737 8.21793C6.94737 8.22207 6.94737 8.22623 6.94737 8.23038C6.94737 8.23453 6.94737 8.23869 6.94737 8.24285C6.94737 8.24701 6.94737 8.25117 6.94737 8.25533C6.94737 8.2595 6.94737 8.26367 6.94737 8.26784C6.94737 8.272 6.94737 8.27618 6.94737 8.28035C6.94737 8.28453 6.94737 8.2887 6.94737 8.29288C6.94737 8.29706 6.94737 8.30124 6.94737 8.30543C6.94737 8.30961 6.94737 8.3138 6.94737 8.31798C6.94737 8.32217 6.94737 8.32636 6.94737 8.33056C6.94737 8.33475 6.94737 8.33894 6.94737 8.34314C6.94737 8.34734 6.94737 8.35154 6.94737 8.35574C6.94737 8.35994 6.94737 8.36414 6.94737 8.36835C6.94737 8.37255 6.94737 8.37676 6.94737 8.38097C6.94737 8.38518 6.94737 8.38939 6.94737 8.3936C6.94737 8.39782 6.94737 8.40203 6.94737 8.40625C6.94737 8.41046 6.94737 8.41468 6.94737 8.4189C6.94737 8.42312 6.94737 8.42734 6.94737 8.43157C6.94737 8.43579 6.94737 8.44001 6.94737 8.44424C6.94737 8.44847 6.94737 8.4527 6.94737 8.45693C6.94737 8.46116 6.94737 8.46539 6.94737 8.46962C6.94737 8.47385 6.94737 8.47809 6.94737 8.48232C6.94737 8.48656 6.94737 8.49079 6.94737 8.49503C6.94737 8.49927 6.94737 8.50351 6.94737 8.50775C6.94737 8.51199 6.94737 8.51623 6.94737 8.52048C6.94737 8.52472 6.94737 8.52896 6.94737 8.53321C6.94737 8.53746 6.94737 8.5417 6.94737 8.54595C6.94737 8.5502 6.94737 8.55445 6.94737 8.5587C6.94737 8.56295 6.94737 8.5672 6.94737 8.57145C6.94737 8.5757 6.94737 8.57995 6.94737 8.58421C6.94737 8.58846 6.94737 8.59271 6.94737 8.59697C6.94737 8.60123 6.94737 8.60548 6.94737 8.60974C6.94737 8.61399 6.94737 8.61825 6.94737 8.62251C6.94737 8.62677 6.94737 8.63103 6.94737 8.63529C6.94737 8.63955 6.94737 8.64381 6.94737 8.64807C6.94737 8.65233 6.94737 8.65659 6.94737 8.66085C6.94737 8.66511 6.94737 8.66937 6.94737 8.67364C6.94737 8.6779 6.94737 8.68216 6.94737 8.68642C6.94737 8.69069 6.94737 8.69495 6.94737 8.69921C6.94737 8.70348 6.94737 8.70774 6.94737 8.71201C6.94737 8.71627 6.94737 8.72054 6.94737 8.7248C6.94737 8.72906 6.94737 8.73333 6.94737 8.73759C6.94737 8.74186 6.94737 8.74612 6.94737 8.75039C6.94737 8.75465 6.94737 8.75892 6.94737 8.76318C6.94737 8.76745 6.94737 8.77171 6.94737 8.77598C6.94737 8.78024 6.94737 8.78451 6.94737 8.78877C6.94737 8.79304 6.94737 8.7973 6.94737 8.80156C6.94737 8.80583 6.94737 8.81009 6.94737 8.81436C6.94737 8.81862 6.94737 8.82288 6.94737 8.82714C6.94737 8.83141 6.94737 8.83567 6.94737 8.83993C6.94737 8.84419 6.94737 8.84845 6.94737 8.85272C6.94737 8.85698 6.94737 8.86124 6.94737 8.8655C6.94737 8.86976 6.94737 8.87402 6.94737 8.87827C6.94737 8.88253 6.94737 8.88679 6.94737 8.89105C6.94737 8.89531 6.94737 8.89956 6.94737 8.90382C6.94737 8.90807 6.94737 8.91233 6.94737 8.91658C6.94737 8.92084 6.94737 8.92509 6.94737 8.92934C6.94737 8.9336 6.94737 8.93785 6.94737 8.9421C6.94737 8.94635 6.94737 8.9506 6.94737 8.95485C6.94737 8.95909 6.94737 8.96334 6.94737 8.96759C6.94737 8.97184 6.94737 8.97608 6.94737 8.98032C6.94737 8.98457 6.94737 8.98881 6.94737 8.99305C6.94737 8.99729 6.94737 9.00154 6.94737 9.00577C6.94737 9.01001 6.94737 9.01425 6.94737 9.01849C6.94737 9.02273 6.94737 9.02696 6.94737 9.03119C6.94737 9.03543 6.94737 9.03966 6.94737 9.04389C6.94737 9.04812 6.94737 9.05235 6.94737 9.05658C6.94737 9.06081 6.94737 9.06503 6.94737 9.06926C6.94737 9.07348 6.94737 9.0777 6.94737 9.08193C6.94737 9.08615 6.94737 9.09037 6.94737 9.09458C6.94737 9.0988 6.94737 9.10302 6.94737 9.10723C6.94737 9.11145 6.94737 9.11566 6.94737 9.11987C6.94737 9.12408 6.94737 9.12829 6.94737 9.1325C6.94737 9.1367 6.94737 9.14091 6.94737 9.14511C6.94737 9.14931 6.94737 9.15351 6.94737 9.15771C6.94737 9.16191 6.94737 9.16611 6.94737 9.1703C6.94737 9.1745 6.94737 9.17869 6.94737 9.18288C6.94737 9.18707 6.94737 9.19126 6.94737 9.19544C6.94737 9.19963 6.94737 9.20381 6.94737 9.20799C6.94737 9.21217 6.94737 9.21635 6.94737 9.22053C6.94737 9.2247 6.94737 9.22888 6.94737 9.23305C6.94737 9.23722 6.94737 9.24139 6.94737 9.24556C6.94737 9.24972 6.94737 9.25389 6.94737 9.25805C6.94737 9.26221 6.94737 9.26637 6.94737 9.27052C6.94737 9.27468 6.94737 9.27883 6.94737 9.28298C6.94737 9.28713 6.94737 9.29128 6.94737 9.29542C6.94737 9.29957 6.94737 9.30371 6.94737 9.30785C6.94737 9.31199 6.94737 9.31613 6.94737 9.32026C6.94737 9.32439 6.94737 9.32852 6.94737 9.33265C6.94737 9.33678 6.94737 9.3409 6.94737 9.34503C6.94737 9.34915 6.94737 9.35326 6.94737 9.35738C6.94737 9.3615 6.94737 9.36561 6.94737 9.36972C6.94737 9.37383 6.94737 9.37793 6.94737 9.38203C6.94737 9.38614 6.94737 9.39023 6.94737 9.39433C6.94737 9.39843 6.94737 9.40252 6.94737 9.40661C6.94737 9.4107 6.94737 9.41478 6.94737 9.41887C6.94737 9.42295 6.94737 9.42703 6.94737 9.4311C6.94737 9.43518 6.94737 9.43925 6.94737 9.44332C6.94737 9.44739 6.94737 9.45145 6.94737 9.45551C6.94737 9.45957 6.94737 9.46363 6.94737 9.46768C6.94737 9.47174 6.94737 9.47579 6.94737 9.47983C6.94737 9.48388 6.94737 9.48792 6.94737 9.49196C6.94737 9.496 6.94737 9.50003 6.94737 9.50406C6.94737 9.50809 6.94737 9.51212 6.94737 9.51614C6.94737 9.52016 6.94737 9.52418 6.94737 9.5282C6.94737 9.53221 6.94737 9.53622 6.94737 9.54023C6.94737 9.54424 6.94737 9.54824 6.94737 9.55224C6.94737 9.55624 6.94737 9.56023 6.94737 9.56422C6.94737 9.56821 6.94737 9.5722 6.94737 9.57618C6.94737 9.58016 6.94737 9.58413 6.94737 9.58811C6.94737 9.59208 6.94737 9.59605 6.94737 9.60001C6.94737 9.60398 6.94737 9.60793 6.94737 9.61189C6.94737 9.61584 6.94737 9.61979 6.94737 9.62374C6.94737 9.62769 6.94737 9.63163 6.94737 9.63556C6.94737 9.6395 6.94737 9.64343 6.94737 9.64736C6.94737 9.65129 6.94737 9.65521 6.94737 9.65913C6.94737 9.66304 6.94737 9.66696 6.94737 9.67087C6.94737 9.67477 6.94737 9.67868 6.94737 9.68258C6.94737 9.68647 6.94737 9.69037 6.94737 9.69426C6.94737 9.69814 6.94737 9.70203 6.94737 9.70591C6.94737 9.70979 6.94737 9.71366 6.94737 9.71753C6.94737 9.7214 6.94737 9.72526 6.94737 9.72912C6.94737 9.73298 6.94737 9.73683 6.94737 9.74068C6.94737 9.74452 6.94737 9.74837 6.94737 9.7522C6.94737 9.75604 6.94737 9.75987 6.94737 9.7637C6.94737 9.76753 6.94737 9.77135 6.94737 9.77516C6.94737 9.77898 6.94737 9.78279 6.94737 9.78659C6.94737 9.7904 6.94737 9.7942 6.94737 9.79799C6.94737 9.80179 6.94737 9.80557 6.94737 9.80936C6.94737 9.81314 6.94737 9.81692 6.94737 9.82069C6.94737 9.82446 6.94737 9.82823 6.94737 9.83199C6.94737 9.83575 6.94737 9.8395 6.94737 9.84325C6.94737 9.847 6.94737 9.85074 6.94737 9.85448C6.94737 9.85821 6.94737 9.86194 6.94737 9.86567C6.94737 9.86939 6.94737 9.87311 6.94737 9.87682C6.94737 9.88054 6.94737 9.88424 6.94737 9.88795C6.94737 9.89165 6.94737 9.89534 6.94737 9.89903C6.94737 9.90272 6.94737 9.9064 6.94737 9.91008C6.94737 9.91375 6.94737 9.91742 6.94737 9.92109C6.94737 9.92475 6.94737 9.92841 6.94737 9.93206C6.94737 9.93571 6.94737 9.93935 6.94737 9.94299C6.94737 9.94663 6.94737 9.95026 6.94737 9.95389C6.94737 9.95751 6.94737 9.96113 6.94737 9.96475C6.94737 9.96836 6.94737 9.97196 6.94737 9.97556C6.94737 9.97916 6.94737 9.98276 6.94737 9.98634C6.94737 9.98993 6.94737 9.99351 6.94737 9.99708C6.94737 10.0007 6.94737 10.0042 6.94737 10.0078C6.94737 10.0113 6.94737 10.0149 6.94737 10.0184C6.94737 10.022 6.94737 10.0255 6.94737 10.0291C6.94737 10.0326 6.94737 10.0361 6.94737 10.0396C6.94737 10.0431 6.94737 10.0467 6.94737 10.0502C6.94737 10.0537 6.94737 10.0572 6.94737 10.0606C6.94737 10.0641 6.94737 10.0676 6.94737 10.0711C6.94737 10.0746 6.94737 10.078 6.94737 10.0815C6.94737 10.085 6.94737 10.0884 6.94737 10.0919C6.94737 10.0953 6.94737 10.0987 6.94737 10.1022C6.94737 10.1056 6.94737 10.109 6.94737 10.1124C6.94737 10.1159 6.94737 10.1193 6.94737 10.1227C6.94737 10.1261 6.94737 10.1295 6.94737 10.1329C6.94737 10.1362 6.94737 10.1396 6.94737 10.143C6.94737 10.1464 6.94737 10.1497 6.94737 10.1531C6.94737 10.1564 6.94737 10.1598 6.94737 10.1631C6.94737 10.1665 6.94737 10.1698 6.94737 10.1731C6.94737 10.1765 6.94737 10.1798 6.94737 10.1831C6.94737 10.1864 6.94737 10.1897 6.94737 10.193C6.94737 10.1963 6.94737 10.1996 6.94737 10.2028C6.94737 10.2061 6.94737 10.2094 6.94737 10.2126C6.94737 10.2159 6.94737 10.2192 6.94737 10.2224C6.94737 10.2256 6.94737 10.2289 6.94737 10.2321C6.94737 10.2353 6.94737 10.2386 6.94737 10.2418C6.94737 10.245 6.94737 10.2482 6.94737 10.2514C6.94737 10.2546 6.94737 10.2578 6.94737 10.2609C6.94737 10.2641 6.94737 10.2673 6.94737 10.2705C6.94737 10.2736 6.94737 10.2768 6.94737 10.2799C6.94737 10.2831 6.94737 10.2862 6.94737 10.2893C6.94737 10.2924 6.94737 10.2956 6.94737 10.2987C6.94737 10.3018 6.94737 10.3049 6.94737 10.308C6.94737 10.3111 6.94737 10.3142 6.94737 10.3172C6.94737 10.3203 6.94737 10.3234 6.94737 10.3264C6.94737 10.3295 6.94737 10.3325 6.94737 10.3356C6.94737 10.3386 6.94737 10.3416 6.94737 10.3447C6.94737 10.3477 6.94737 10.3507 6.94737 10.3537C6.94737 10.3567 6.94737 10.3597 6.94737 10.3627C6.94737 10.3657 6.94737 10.3686 6.94737 10.3716C6.94737 10.3746 6.94737 10.3775 6.94737 10.3805C6.94737 10.3834 6.94737 10.3864 6.94737 10.3893C6.94737 10.3922 6.94737 10.3951 6.94737 10.3981C6.94737 10.401 6.94737 10.4039 6.94737 10.4068C6.94737 10.4096 6.94737 10.4125 6.94737 10.4154C6.94737 10.4183 6.94737 10.4211 6.94737 10.424C6.94737 10.4268 6.94737 10.4297 6.94737 10.4325C6.94737 10.4354 6.94737 10.4382 6.94737 10.441C6.94737 10.4438 6.94737 10.4466 6.94737 10.4494C6.94737 10.4522 6.94737 10.455 6.94737 10.4578C6.94737 10.4605 6.94737 10.4633 6.94737 10.4661C6.94737 10.4688 6.94737 10.4716 6.94737 10.4743C6.94737 10.477 6.94737 10.4798 6.94737 10.4825C6.94737 10.4852 6.94737 10.4879 6.94737 10.4906C6.94737 10.4933 6.94737 10.496 6.94737 10.4986C6.94737 10.5013 6.94737 10.504 6.94737 10.5066C6.94737 10.5093 6.94737 10.5119 6.94737 10.5146C6.94737 10.5172 6.94737 10.5198 6.94737 10.5224C6.94737 10.5251 6.94737 10.5277 6.94737 10.5303C6.94737 10.5328 6.94737 10.5354 6.94737 10.538C6.94737 10.5406 6.94737 10.5431 6.94737 10.5457C6.94737 10.5482 6.94737 10.5508 6.94737 10.5533C6.94737 10.5558 6.94737 10.5583 6.94737 10.5609C6.94737 10.5634 6.94737 10.5659 6.94737 10.5683C6.94737 10.5708 6.94737 10.5733 6.94737 10.5758C6.94737 10.5782 6.94737 10.5807 6.94737 10.5831C6.94737 10.5856 6.94737 10.588 6.94737 10.5904C6.94737 10.5928 6.94737 10.5953 6.94737 10.5977C6.94737 10.6001 6.94737 10.6024 6.94737 10.6048C6.94737 10.6072 6.94737 10.6096 6.94737 10.6119C6.94737 10.6143 6.94737 10.6166 6.94737 10.6189C6.94737 10.6213 6.94737 10.6236 6.94737 10.6259C6.94737 10.6282 6.94737 10.6305 6.94737 10.6328C6.94737 10.6351 6.94737 10.6374 6.94737 10.6396C6.94737 10.6419 6.94737 10.6441 6.94737 10.6464C6.94737 10.6486 6.94737 10.6508 6.94737 10.6531C6.94737 10.6553 6.94737 10.6575 6.94737 10.6597C6.94737 10.6619 6.94737 10.6641 6.94737 10.6662C6.94737 10.6684 6.94737 10.6706 6.94737 10.6727C6.94737 10.6749 6.94737 10.677 6.94737 10.6791C6.94737 10.6812 6.94737 10.6833 6.94737 10.6855C6.94737 10.6876 6.94737 10.6896 6.94737 10.6917C6.94737 10.6938 6.94737 10.6959 6.94737 10.6979C6.94737 10.7 6.94737 10.702 6.94737 10.704C6.94737 10.7061 6.94737 10.7081 6.94737 10.7101C6.94737 10.7121 6.94737 10.7141 6.94737 10.7161C6.94737 10.718 6.94737 10.72 6.94737 10.722C6.94737 10.7239 6.94737 10.7258 6.94737 10.7278C6.94737 10.7297 6.94737 10.7316 6.94737 10.7335C6.94737 10.7354 6.94737 10.7373 6.94737 10.7392C6.94737 10.7411 6.94737 10.743 6.94737 10.7448C6.94737 10.7467 6.94737 10.7485 6.94737 10.7503C6.94737 10.7522 6.94737 10.754 6.94737 10.7558C6.94737 10.7576 6.94737 10.7594 6.94737 10.7612C6.94737 10.763 6.94737 10.7647 6.94737 10.7665C6.94737 10.7682 6.94737 10.77 6.94737 10.7717C6.94737 10.7734 6.94737 10.7751 6.94737 10.7768C6.94737 10.7785 6.94737 10.7802 6.94737 10.7819C6.94737 10.7836 6.94737 10.7852 6.94737 10.7869C6.94737 10.7886 6.94737 10.7902 6.94737 10.7918C6.94737 10.7934 6.94737 10.795 6.94737 10.7966C6.94737 10.7982 6.94737 10.7998 6.94737 10.8014C6.94737 10.803 6.94737 10.8045 6.94737 10.8061C6.94737 10.8076 6.94737 10.8091 6.94737 10.8107C6.94737 10.8122 6.94737 10.8137 6.94737 10.8152C6.94737 10.8167 6.94737 10.8181 6.94737 10.8196C6.94737 10.8211 6.94737 10.8225 6.94737 10.824C6.94737 10.8254 6.94737 10.8268 6.94737 10.8282C6.94737 10.8296 6.94737 10.831 6.94737 10.8324C6.94737 10.8338 6.94737 10.8352 6.94737 10.8365C6.94737 10.8379 6.94737 10.8392 6.94737 10.8405C6.94737 10.8419 6.94737 10.8432 6.94737 10.8445C6.94737 10.8458 6.94737 10.8471 6.94737 10.8483C6.94737 10.8496 6.94737 10.8509 6.94737 10.8521C6.94737 10.8533 6.94737 10.8546 6.94737 10.8558C6.94737 10.857 6.94737 10.8582 6.94737 10.8594C6.94737 10.8606 6.94737 10.8618 6.94737 10.8629C6.94737 10.8641 6.94737 10.8652 6.94737 10.8663C6.94737 10.8675 6.94737 10.8686 6.94737 10.8697C6.94737 10.8708 6.94737 10.8719 6.94737 10.8729C6.94737 10.874 6.94737 10.8751 6.94737 10.8761C6.94737 10.8772 6.94737 10.8782 6.94737 10.8792C6.94737 10.8802 6.94737 10.8812 6.94737 10.8822C6.94737 10.8832 6.94737 10.8842 6.94737 10.8851C6.94737 10.8861 6.94737 10.887 6.94737 10.8879C6.94737 10.8889 6.94737 10.8898 6.94737 10.8907C6.94737 10.8916 6.94737 10.8924 6.94737 10.8933C6.94737 10.8942 6.94737 10.895 6.94737 10.8959C6.94737 10.8967 6.94737 10.8975 6.94737 10.8983C6.94737 10.8991 6.94737 10.8999 6.94737 10.9007C6.94737 10.9015 6.94737 10.9022 6.94737 10.903C6.94737 10.9037 6.94737 10.9045 6.94737 10.9052C6.94737 10.9059 6.94737 10.9066 6.94737 10.9073C6.94737 10.908 6.94737 10.9086 6.94737 10.9093C6.94737 10.9099 6.94737 10.9106 6.94737 10.9112C6.94737 10.9118 6.94737 10.9124 6.94737 10.913C6.94737 10.9136 6.94737 10.9142 6.94737 10.9147C6.94737 10.9153 6.94737 10.9159 6.94737 10.9164C6.94737 10.9169 6.94737 10.9174 6.94737 10.9179C6.94737 10.9184 6.94737 10.9189 6.94737 10.9194C6.94737 10.9198 6.94737 10.9203 6.94737 10.9207C6.94737 10.9212 6.94737 10.9216 6.94737 10.922C6.94737 10.9224 6.94737 10.9228 6.94737 10.9231C6.94737 10.9235 6.94737 10.9239 6.94737 10.9242C6.94737 10.9246 6.94737 10.9249 6.94737 10.9252C6.94737 10.9255 6.94737 10.9258 6.94737 10.9261C6.94737 10.9263 6.94737 10.9266 6.94737 10.9268C6.94737 10.9271 6.94737 10.9273 6.94737 10.9275C6.94737 10.9277 6.94737 10.9279 6.94737 10.9281C6.94737 10.9283 6.94737 10.9284 6.94737 10.9286C6.94737 10.9287 6.94737 10.9289 6.94737 10.929C6.94737 10.9291 6.94737 10.9292 6.94737 10.9293C6.94737 10.9293 6.94737 10.9294 6.94737 10.9295C6.94737 10.9295 6.94737 10.9295 6.94737 10.9295C7.94737 10.9296 8.94737 10.9295 8.94737 10.9295C8.94737 10.9295 8.94737 10.9295 8.94737 10.9294H6.94737C6.94737 10.9295 6.94737 10.9295 6.94737 10.9295C6.94737 10.9295 7.94737 10.9296 8.94737 10.9295C8.94737 10.9295 8.94737 10.9295 8.94737 10.9295C8.94737 10.9294 8.94737 10.9293 8.94737 10.9293C8.94737 10.9292 8.94737 10.9291 8.94737 10.929C8.94737 10.9289 8.94737 10.9287 8.94737 10.9286C8.94737 10.9284 8.94737 10.9283 8.94737 10.9281C8.94737 10.9279 8.94737 10.9277 8.94737 10.9275C8.94737 10.9273 8.94737 10.9271 8.94737 10.9268C8.94737 10.9266 8.94737 10.9263 8.94737 10.9261C8.94737 10.9258 8.94737 10.9255 8.94737 10.9252C8.94737 10.9249 8.94737 10.9246 8.94737 10.9242C8.94737 10.9239 8.94737 10.9235 8.94737 10.9231C8.94737 10.9228 8.94737 10.9224 8.94737 10.922C8.94737 10.9216 8.94737 10.9212 8.94737 10.9207C8.94737 10.9203 8.94737 10.9198 8.94737 10.9194C8.94737 10.9189 8.94737 10.9184 8.94737 10.9179C8.94737 10.9174 8.94737 10.9169 8.94737 10.9164C8.94737 10.9159 8.94737 10.9153 8.94737 10.9147C8.94737 10.9142 8.94737 10.9136 8.94737 10.913C8.94737 10.9124 8.94737 10.9118 8.94737 10.9112C8.94737 10.9106 8.94737 10.9099 8.94737 10.9093C8.94737 10.9086 8.94737 10.908 8.94737 10.9073C8.94737 10.9066 8.94737 10.9059 8.94737 10.9052C8.94737 10.9045 8.94737 10.9037 8.94737 10.903C8.94737 10.9022 8.94737 10.9015 8.94737 10.9007C8.94737 10.8999 8.94737 10.8991 8.94737 10.8983C8.94737 10.8975 8.94737 10.8967 8.94737 10.8959C8.94737 10.895 8.94737 10.8942 8.94737 10.8933C8.94737 10.8924 8.94737 10.8916 8.94737 10.8907C8.94737 10.8898 8.94737 10.8889 8.94737 10.8879C8.94737 10.887 8.94737 10.8861 8.94737 10.8851C8.94737 10.8842 8.94737 10.8832 8.94737 10.8822C8.94737 10.8812 8.94737 10.8802 8.94737 10.8792C8.94737 10.8782 8.94737 10.8772 8.94737 10.8761C8.94737 10.8751 8.94737 10.874 8.94737 10.8729C8.94737 10.8719 8.94737 10.8708 8.94737 10.8697C8.94737 10.8686 8.94737 10.8675 8.94737 10.8663C8.94737 10.8652 8.94737 10.8641 8.94737 10.8629C8.94737 10.8618 8.94737 10.8606 8.94737 10.8594C8.94737 10.8582 8.94737 10.857 8.94737 10.8558C8.94737 10.8546 8.94737 10.8533 8.94737 10.8521C8.94737 10.8509 8.94737 10.8496 8.94737 10.8483C8.94737 10.8471 8.94737 10.8458 8.94737 10.8445C8.94737 10.8432 8.94737 10.8419 8.94737 10.8405C8.94737 10.8392 8.94737 10.8379 8.94737 10.8365C8.94737 10.8352 8.94737 10.8338 8.94737 10.8324C8.94737 10.831 8.94737 10.8296 8.94737 10.8282C8.94737 10.8268 8.94737 10.8254 8.94737 10.824C8.94737 10.8225 8.94737 10.8211 8.94737 10.8196C8.94737 10.8181 8.94737 10.8167 8.94737 10.8152C8.94737 10.8137 8.94737 10.8122 8.94737 10.8107C8.94737 10.8091 8.94737 10.8076 8.94737 10.8061C8.94737 10.8045 8.94737 10.803 8.94737 10.8014C8.94737 10.7998 8.94737 10.7982 8.94737 10.7966C8.94737 10.795 8.94737 10.7934 8.94737 10.7918C8.94737 10.7902 8.94737 10.7886 8.94737 10.7869C8.94737 10.7852 8.94737 10.7836 8.94737 10.7819C8.94737 10.7802 8.94737 10.7785 8.94737 10.7768C8.94737 10.7751 8.94737 10.7734 8.94737 10.7717C8.94737 10.77 8.94737 10.7682 8.94737 10.7665C8.94737 10.7647 8.94737 10.763 8.94737 10.7612C8.94737 10.7594 8.94737 10.7576 8.94737 10.7558C8.94737 10.754 8.94737 10.7522 8.94737 10.7503C8.94737 10.7485 8.94737 10.7467 8.94737 10.7448C8.94737 10.743 8.94737 10.7411 8.94737 10.7392C8.94737 10.7373 8.94737 10.7354 8.94737 10.7335C8.94737 10.7316 8.94737 10.7297 8.94737 10.7278C8.94737 10.7258 8.94737 10.7239 8.94737 10.722C8.94737 10.72 8.94737 10.718 8.94737 10.7161C8.94737 10.7141 8.94737 10.7121 8.94737 10.7101C8.94737 10.7081 8.94737 10.7061 8.94737 10.704C8.94737 10.702 8.94737 10.7 8.94737 10.6979C8.94737 10.6959 8.94737 10.6938 8.94737 10.6917C8.94737 10.6896 8.94737 10.6876 8.94737 10.6855C8.94737 10.6833 8.94737 10.6812 8.94737 10.6791C8.94737 10.677 8.94737 10.6749 8.94737 10.6727C8.94737 10.6706 8.94737 10.6684 8.94737 10.6662C8.94737 10.6641 8.94737 10.6619 8.94737 10.6597C8.94737 10.6575 8.94737 10.6553 8.94737 10.6531C8.94737 10.6508 8.94737 10.6486 8.94737 10.6464C8.94737 10.6441 8.94737 10.6419 8.94737 10.6396C8.94737 10.6374 8.94737 10.6351 8.94737 10.6328C8.94737 10.6305 8.94737 10.6282 8.94737 10.6259C8.94737 10.6236 8.94737 10.6213 8.94737 10.6189C8.94737 10.6166 8.94737 10.6143 8.94737 10.6119C8.94737 10.6096 8.94737 10.6072 8.94737 10.6048C8.94737 10.6024 8.94737 10.6001 8.94737 10.5977C8.94737 10.5953 8.94737 10.5928 8.94737 10.5904C8.94737 10.588 8.94737 10.5856 8.94737 10.5831C8.94737 10.5807 8.94737 10.5782 8.94737 10.5758C8.94737 10.5733 8.94737 10.5708 8.94737 10.5683C8.94737 10.5659 8.94737 10.5634 8.94737 10.5609C8.94737 10.5583 8.94737 10.5558 8.94737 10.5533C8.94737 10.5508 8.94737 10.5482 8.94737 10.5457C8.94737 10.5431 8.94737 10.5406 8.94737 10.538C8.94737 10.5354 8.94737 10.5328 8.94737 10.5303C8.94737 10.5277 8.94737 10.5251 8.94737 10.5224C8.94737 10.5198 8.94737 10.5172 8.94737 10.5146C8.94737 10.5119 8.94737 10.5093 8.94737 10.5066C8.94737 10.504 8.94737 10.5013 8.94737 10.4986C8.94737 10.496 8.94737 10.4933 8.94737 10.4906C8.94737 10.4879 8.94737 10.4852 8.94737 10.4825C8.94737 10.4798 8.94737 10.477 8.94737 10.4743C8.94737 10.4716 8.94737 10.4688 8.94737 10.4661C8.94737 10.4633 8.94737 10.4605 8.94737 10.4578C8.94737 10.455 8.94737 10.4522 8.94737 10.4494C8.94737 10.4466 8.94737 10.4438 8.94737 10.441C8.94737 10.4382 8.94737 10.4354 8.94737 10.4325C8.94737 10.4297 8.94737 10.4268 8.94737 10.424C8.94737 10.4211 8.94737 10.4183 8.94737 10.4154C8.94737 10.4125 8.94737 10.4096 8.94737 10.4068C8.94737 10.4039 8.94737 10.401 8.94737 10.3981C8.94737 10.3951 8.94737 10.3922 8.94737 10.3893C8.94737 10.3864 8.94737 10.3834 8.94737 10.3805C8.94737 10.3775 8.94737 10.3746 8.94737 10.3716C8.94737 10.3686 8.94737 10.3657 8.94737 10.3627C8.94737 10.3597 8.94737 10.3567 8.94737 10.3537C8.94737 10.3507 8.94737 10.3477 8.94737 10.3447C8.94737 10.3416 8.94737 10.3386 8.94737 10.3356C8.94737 10.3325 8.94737 10.3295 8.94737 10.3264C8.94737 10.3234 8.94737 10.3203 8.94737 10.3172C8.94737 10.3142 8.94737 10.3111 8.94737 10.308C8.94737 10.3049 8.94737 10.3018 8.94737 10.2987C8.94737 10.2956 8.94737 10.2924 8.94737 10.2893C8.94737 10.2862 8.94737 10.2831 8.94737 10.2799C8.94737 10.2768 8.94737 10.2736 8.94737 10.2705C8.94737 10.2673 8.94737 10.2641 8.94737 10.2609C8.94737 10.2578 8.94737 10.2546 8.94737 10.2514C8.94737 10.2482 8.94737 10.245 8.94737 10.2418C8.94737 10.2386 8.94737 10.2353 8.94737 10.2321C8.94737 10.2289 8.94737 10.2256 8.94737 10.2224C8.94737 10.2192 8.94737 10.2159 8.94737 10.2126C8.94737 10.2094 8.94737 10.2061 8.94737 10.2028C8.94737 10.1996 8.94737 10.1963 8.94737 10.193C8.94737 10.1897 8.94737 10.1864 8.94737 10.1831C8.94737 10.1798 8.94737 10.1765 8.94737 10.1731C8.94737 10.1698 8.94737 10.1665 8.94737 10.1631C8.94737 10.1598 8.94737 10.1564 8.94737 10.1531C8.94737 10.1497 8.94737 10.1464 8.94737 10.143C8.94737 10.1396 8.94737 10.1362 8.94737 10.1329C8.94737 10.1295 8.94737 10.1261 8.94737 10.1227C8.94737 10.1193 8.94737 10.1159 8.94737 10.1124C8.94737 10.109 8.94737 10.1056 8.94737 10.1022C8.94737 10.0987 8.94737 10.0953 8.94737 10.0919C8.94737 10.0884 8.94737 10.085 8.94737 10.0815C8.94737 10.078 8.94737 10.0746 8.94737 10.0711C8.94737 10.0676 8.94737 10.0641 8.94737 10.0606C8.94737 10.0572 8.94737 10.0537 8.94737 10.0502C8.94737 10.0467 8.94737 10.0431 8.94737 10.0396C8.94737 10.0361 8.94737 10.0326 8.94737 10.0291C8.94737 10.0255 8.94737 10.022 8.94737 10.0184C8.94737 10.0149 8.94737 10.0113 8.94737 10.0078C8.94737 10.0042 8.94737 10.0007 8.94737 9.99708C8.94737 9.99351 8.94737 9.98993 8.94737 9.98634C8.94737 9.98276 8.94737 9.97916 8.94737 9.97556C8.94737 9.97196 8.94737 9.96836 8.94737 9.96475C8.94737 9.96113 8.94737 9.95751 8.94737 9.95389C8.94737 9.95026 8.94737 9.94663 8.94737 9.94299C8.94737 9.93935 8.94737 9.93571 8.94737 9.93206C8.94737 9.92841 8.94737 9.92475 8.94737 9.92109C8.94737 9.91742 8.94737 9.91375 8.94737 9.91008C8.94737 9.9064 8.94737 9.90272 8.94737 9.89903C8.94737 9.89534 8.94737 9.89165 8.94737 9.88795C8.94737 9.88424 8.94737 9.88054 8.94737 9.87682C8.94737 9.87311 8.94737 9.86939 8.94737 9.86567C8.94737 9.86194 8.94737 9.85821 8.94737 9.85448C8.94737 9.85074 8.94737 9.847 8.94737 9.84325C8.94737 9.8395 8.94737 9.83575 8.94737 9.83199C8.94737 9.82823 8.94737 9.82446 8.94737 9.82069C8.94737 9.81692 8.94737 9.81314 8.94737 9.80936C8.94737 9.80557 8.94737 9.80179 8.94737 9.79799C8.94737 9.7942 8.94737 9.7904 8.94737 9.78659C8.94737 9.78279 8.94737 9.77898 8.94737 9.77516C8.94737 9.77135 8.94737 9.76753 8.94737 9.7637C8.94737 9.75987 8.94737 9.75604 8.94737 9.7522C8.94737 9.74837 8.94737 9.74452 8.94737 9.74068C8.94737 9.73683 8.94737 9.73298 8.94737 9.72912C8.94737 9.72526 8.94737 9.7214 8.94737 9.71753C8.94737 9.71366 8.94737 9.70979 8.94737 9.70591C8.94737 9.70203 8.94737 9.69814 8.94737 9.69426C8.94737 9.69037 8.94737 9.68647 8.94737 9.68258C8.94737 9.67868 8.94737 9.67477 8.94737 9.67087C8.94737 9.66696 8.94737 9.66304 8.94737 9.65913C8.94737 9.65521 8.94737 9.65129 8.94737 9.64736C8.94737 9.64343 8.94737 9.6395 8.94737 9.63556C8.94737 9.63163 8.94737 9.62769 8.94737 9.62374C8.94737 9.61979 8.94737 9.61584 8.94737 9.61189C8.94737 9.60793 8.94737 9.60398 8.94737 9.60001C8.94737 9.59605 8.94737 9.59208 8.94737 9.58811C8.94737 9.58413 8.94737 9.58016 8.94737 9.57618C8.94737 9.5722 8.94737 9.56821 8.94737 9.56422C8.94737 9.56023 8.94737 9.55624 8.94737 9.55224C8.94737 9.54824 8.94737 9.54424 8.94737 9.54023C8.94737 9.53622 8.94737 9.53221 8.94737 9.5282C8.94737 9.52418 8.94737 9.52016 8.94737 9.51614C8.94737 9.51212 8.94737 9.50809 8.94737 9.50406C8.94737 9.50003 8.94737 9.496 8.94737 9.49196C8.94737 9.48792 8.94737 9.48388 8.94737 9.47983C8.94737 9.47579 8.94737 9.47174 8.94737 9.46768C8.94737 9.46363 8.94737 9.45957 8.94737 9.45551C8.94737 9.45145 8.94737 9.44739 8.94737 9.44332C8.94737 9.43925 8.94737 9.43518 8.94737 9.4311C8.94737 9.42703 8.94737 9.42295 8.94737 9.41887C8.94737 9.41478 8.94737 9.4107 8.94737 9.40661C8.94737 9.40252 8.94737 9.39843 8.94737 9.39433C8.94737 9.39023 8.94737 9.38614 8.94737 9.38203C8.94737 9.37793 8.94737 9.37383 8.94737 9.36972C8.94737 9.36561 8.94737 9.3615 8.94737 9.35738C8.94737 9.35326 8.94737 9.34915 8.94737 9.34503C8.94737 9.3409 8.94737 9.33678 8.94737 9.33265C8.94737 9.32852 8.94737 9.32439 8.94737 9.32026C8.94737 9.31613 8.94737 9.31199 8.94737 9.30785C8.94737 9.30371 8.94737 9.29957 8.94737 9.29542C8.94737 9.29128 8.94737 9.28713 8.94737 9.28298C8.94737 9.27883 8.94737 9.27468 8.94737 9.27052C8.94737 9.26637 8.94737 9.26221 8.94737 9.25805C8.94737 9.25389 8.94737 9.24972 8.94737 9.24556C8.94737 9.24139 8.94737 9.23722 8.94737 9.23305C8.94737 9.22888 8.94737 9.2247 8.94737 9.22053C8.94737 9.21635 8.94737 9.21217 8.94737 9.20799C8.94737 9.20381 8.94737 9.19963 8.94737 9.19544C8.94737 9.19126 8.94737 9.18707 8.94737 9.18288C8.94737 9.17869 8.94737 9.1745 8.94737 9.1703C8.94737 9.16611 8.94737 9.16191 8.94737 9.15771C8.94737 9.15351 8.94737 9.14931 8.94737 9.14511C8.94737 9.14091 8.94737 9.1367 8.94737 9.1325C8.94737 9.12829 8.94737 9.12408 8.94737 9.11987C8.94737 9.11566 8.94737 9.11145 8.94737 9.10723C8.94737 9.10302 8.94737 9.0988 8.94737 9.09458C8.94737 9.09037 8.94737 9.08615 8.94737 9.08193C8.94737 9.0777 8.94737 9.07348 8.94737 9.06926C8.94737 9.06503 8.94737 9.06081 8.94737 9.05658C8.94737 9.05235 8.94737 9.04812 8.94737 9.04389C8.94737 9.03966 8.94737 9.03543 8.94737 9.03119C8.94737 9.02696 8.94737 9.02273 8.94737 9.01849C8.94737 9.01425 8.94737 9.01001 8.94737 9.00577C8.94737 9.00154 8.94737 8.99729 8.94737 8.99305C8.94737 8.98881 8.94737 8.98457 8.94737 8.98032C8.94737 8.97608 8.94737 8.97184 8.94737 8.96759C8.94737 8.96334 8.94737 8.95909 8.94737 8.95485C8.94737 8.9506 8.94737 8.94635 8.94737 8.9421C8.94737 8.93785 8.94737 8.9336 8.94737 8.92934C8.94737 8.92509 8.94737 8.92084 8.94737 8.91658C8.94737 8.91233 8.94737 8.90807 8.94737 8.90382C8.94737 8.89956 8.94737 8.89531 8.94737 8.89105C8.94737 8.88679 8.94737 8.88253 8.94737 8.87827C8.94737 8.87402 8.94737 8.86976 8.94737 8.8655C8.94737 8.86124 8.94737 8.85698 8.94737 8.85272C8.94737 8.84845 8.94737 8.84419 8.94737 8.83993C8.94737 8.83567 8.94737 8.83141 8.94737 8.82714C8.94737 8.82288 8.94737 8.81862 8.94737 8.81436C8.94737 8.81009 8.94737 8.80583 8.94737 8.80156C8.94737 8.7973 8.94737 8.79304 8.94737 8.78877C8.94737 8.78451 8.94737 8.78024 8.94737 8.77598C8.94737 8.77171 8.94737 8.76745 8.94737 8.76318C8.94737 8.75892 8.94737 8.75465 8.94737 8.75039C8.94737 8.74612 8.94737 8.74186 8.94737 8.73759C8.94737 8.73333 8.94737 8.72906 8.94737 8.7248C8.94737 8.72054 8.94737 8.71627 8.94737 8.71201C8.94737 8.70774 8.94737 8.70348 8.94737 8.69921C8.94737 8.69495 8.94737 8.69069 8.94737 8.68642C8.94737 8.68216 8.94737 8.6779 8.94737 8.67364C8.94737 8.66937 8.94737 8.66511 8.94737 8.66085C8.94737 8.65659 8.94737 8.65233 8.94737 8.64807C8.94737 8.64381 8.94737 8.63955 8.94737 8.63529C8.94737 8.63103 8.94737 8.62677 8.94737 8.62251C8.94737 8.61825 8.94737 8.61399 8.94737 8.60974C8.94737 8.60548 8.94737 8.60123 8.94737 8.59697C8.94737 8.59271 8.94737 8.58846 8.94737 8.58421C8.94737 8.57995 8.94737 8.5757 8.94737 8.57145C8.94737 8.5672 8.94737 8.56295 8.94737 8.5587C8.94737 8.55445 8.94737 8.5502 8.94737 8.54595C8.94737 8.5417 8.94737 8.53746 8.94737 8.53321C8.94737 8.52896 8.94737 8.52472 8.94737 8.52048C8.94737 8.51623 8.94737 8.51199 8.94737 8.50775C8.94737 8.50351 8.94737 8.49927 8.94737 8.49503C8.94737 8.49079 8.94737 8.48656 8.94737 8.48232C8.94737 8.47809 8.94737 8.47385 8.94737 8.46962C8.94737 8.46539 8.94737 8.46116 8.94737 8.45693C8.94737 8.4527 8.94737 8.44847 8.94737 8.44424C8.94737 8.44001 8.94737 8.43579 8.94737 8.43157C8.94737 8.42734 8.94737 8.42312 8.94737 8.4189C8.94737 8.41468 8.94737 8.41046 8.94737 8.40625C8.94737 8.40203 8.94737 8.39782 8.94737 8.3936C8.94737 8.38939 8.94737 8.38518 8.94737 8.38097C8.94737 8.37676 8.94737 8.37255 8.94737 8.36835C8.94737 8.36414 8.94737 8.35994 8.94737 8.35574C8.94737 8.35154 8.94737 8.34734 8.94737 8.34314C8.94737 8.33894 8.94737 8.33475 8.94737 8.33056C8.94737 8.32636 8.94737 8.32217 8.94737 8.31798C8.94737 8.3138 8.94737 8.30961 8.94737 8.30543C8.94737 8.30124 8.94737 8.29706 8.94737 8.29288C8.94737 8.2887 8.94737 8.28453 8.94737 8.28035C8.94737 8.27618 8.94737 8.272 8.94737 8.26784C8.94737 8.26367 8.94737 8.2595 8.94737 8.25533C8.94737 8.25117 8.94737 8.24701 8.94737 8.24285C8.94737 8.23869 8.94737 8.23453 8.94737 8.23038C8.94737 8.22623 8.94737 8.22207 8.94737 8.21793C8.94737 8.21378 8.94737 8.20963 8.94737 8.20549C8.94737 8.20135 8.94737 8.19721 8.94737 8.19307C8.94737 8.18893 8.94737 8.1848 8.94737 8.18067C8.94737 8.17654 8.94737 8.17241 8.94737 8.16828C8.94737 8.16416 8.94737 8.16004 8.94737 8.15592C8.94737 8.1518 8.94737 8.14768 8.94737 8.14357C8.94737 8.13946 8.94737 8.13535 8.94737 8.13124C8.94737 8.12713 8.94737 8.12303 8.94737 8.11893C8.94737 8.11483 8.94737 8.11073 8.94737 8.10664C8.94737 8.10255 8.94737 8.09846 8.94737 8.09437C8.94737 8.09028 8.94737 8.0862 8.94737 8.08212C8.94737 8.07804 8.94737 8.07397 8.94737 8.06989C8.94737 8.06582 8.94737 8.06175 8.94737 8.05769C8.94737 8.05362 8.94737 8.04956 8.94737 8.0455C8.94737 8.04144 8.94737 8.03739 8.94737 8.03334C8.94737 8.02929 8.94737 8.02524 8.94737 8.0212C8.94737 8.01715 8.94737 8.01311 8.94737 8.00908C8.94737 8.00504 8.94737 8.00101 8.94737 7.99698C8.94737 7.99296 8.94737 7.98893 8.94737 7.98491C8.94737 7.98089 8.94737 7.97688 8.94737 7.97287C8.94737 7.96885 8.94737 7.96485 8.94737 7.96084C8.94737 7.95684 8.94737 7.95284 8.94737 7.94884C8.94737 7.94485 8.94737 7.94086 8.94737 7.93687C8.94737 7.93289 8.94737 7.9289 8.94737 7.92493C8.94737 7.92095 8.94737 7.91697 8.94737 7.913C8.94737 7.90904 8.94737 7.90507 8.94737 7.90111C8.94737 7.89715 8.94737 7.89319 8.94737 7.88924C8.94737 7.88529 8.94737 7.88134 8.94737 7.8774C8.94737 7.87346 8.94737 7.86952 8.94737 7.86559C8.94737 7.86166 8.94737 7.85773 8.94737 7.8538C8.94737 7.84988 8.94737 7.84596 8.94737 7.84205C8.94737 7.83813 8.94737 7.83422 8.94737 7.83032C8.94737 7.82642 8.94737 7.82252 8.94737 7.81862C8.94737 7.81473 8.94737 7.81084 8.94737 7.80695C8.94737 7.80307 8.94737 7.79919 8.94737 7.79531C8.94737 7.79144 8.94737 7.78757 8.94737 7.7837C8.94737 7.77984 8.94737 7.77598 8.94737 7.77213C8.94737 7.76827 8.94737 7.76442 8.94737 7.76058C8.94737 7.75673 8.94737 7.7529 8.94737 7.74906C8.94737 7.74523 8.94737 7.7414 8.94737 7.73758C8.94737 7.73376 8.94737 7.72994 8.94737 7.72613C8.94737 7.72232 8.94737 7.71851 8.94737 7.71471C8.94737 7.71091 8.94737 7.70711 8.94737 7.70332C8.94737 7.69953 8.94737 7.69575 8.94737 7.69197C8.94737 7.68819 8.94737 7.68442 8.94737 7.68065C8.94737 7.67689 8.94737 7.67312 8.94737 7.66937C8.94737 7.66561 8.94737 7.66186 8.94737 7.65812C8.94737 7.65438 8.94737 7.65064 8.94737 7.64691C8.94737 7.64317 8.94737 7.63945 8.94737 7.63573C8.94737 7.63201 8.94737 7.62829 8.94737 7.62458C8.94737 7.62088 8.94737 7.61717 8.94737 7.61348C8.94737 7.60978 8.94737 7.60609 8.94737 7.60241C8.94737 7.59872 8.94737 7.59505 8.94737 7.59137C8.94737 7.5877 8.94737 7.58404 8.94737 7.58038C8.94737 7.57672 8.94737 7.57307 8.94737 7.56942C8.94737 7.56577 8.94737 7.56213 8.94737 7.5585C8.94737 7.55487 8.94737 7.55124 8.94737 7.54762C8.94737 7.544 8.94737 7.54038 8.94737 7.53678C8.94737 7.53317 8.94737 7.52957 8.94737 7.52597C8.94737 7.52238 8.94737 7.51879 8.94737 7.51521C8.94737 7.51163 8.94737 7.50806 8.94737 7.50449C8.94737 7.50092 8.94737 7.49736 8.94737 7.49381C8.94737 7.49025 8.94737 7.4867 8.94737 7.48316C8.94737 7.47962 8.94737 7.47609 8.94737 7.47256C8.94737 7.46904 8.94737 7.46552 8.94737 7.46201C8.94737 7.45849 8.94737 7.45499 8.94737 7.45149C8.94737 7.44799 8.94737 7.4445 8.94737 7.44102C8.94737 7.43753 8.94737 7.43406 8.94737 7.43059C8.94737 7.42712 8.94737 7.42365 8.94737 7.4202C8.94737 7.41674 8.94737 7.41329 8.94737 7.40985C8.94737 7.40641 8.94737 7.40298 8.94737 7.39955C8.94737 7.39613 8.94737 7.39271 8.94737 7.3893C8.94737 7.38589 8.94737 7.38248 8.94737 7.37909C8.94737 7.37569 8.94737 7.3723 8.94737 7.36892C8.94737 7.36554 8.94737 7.36217 8.94737 7.3588C8.94737 7.35544 8.94737 7.35208 8.94737 7.34873C8.94737 7.34538 8.94737 7.34204 8.94737 7.3387C8.94737 7.33537 8.94737 7.33204 8.94737 7.32872C8.94737 7.3254 8.94737 7.32209 8.94737 7.31879C8.94737 7.31549 8.94737 7.31219 8.94737 7.30891C8.94737 7.30562 8.94737 7.30234 8.94737 7.29907C8.94737 7.2958 8.94737 7.29253 8.94737 7.28928C8.94737 7.28602 8.94737 7.28278 8.94737 7.27954C8.94737 7.2763 8.94737 7.27307 8.94737 7.26985C8.94737 7.26663 8.94737 7.26341 8.94737 7.26021C8.94737 7.257 8.94737 7.2538 8.94737 7.25062C8.94737 7.24743 8.94737 7.24425 8.94737 7.24108C8.94737 7.2379 8.94737 7.23474 8.94737 7.23159C8.94737 7.22843 8.94737 7.22528 8.94737 7.22215C8.94737 7.21901 8.94737 7.21588 8.94737 7.21276C8.94737 7.20964 8.94737 7.20653 8.94737 7.20342C8.94737 7.20032 8.94737 7.19723 8.94737 7.19414C8.94737 7.19105 8.94737 7.18798 8.94737 7.18491C8.94737 7.18184 8.94737 7.17878 8.94737 7.17573C8.94737 7.17268 8.94737 7.16964 8.94737 7.16661C8.94737 7.16358 8.94737 7.16055 8.94737 7.15754C8.94737 7.15452 8.94737 7.15152 8.94737 7.14852C8.94737 7.14553 8.94737 7.14254 8.94737 7.13956C8.94737 7.13658 8.94737 7.13362 8.94737 7.13066C8.94737 7.1277 8.94737 7.12475 8.94737 7.12181C8.94737 7.11886 8.94737 7.11593 8.94737 7.11301C8.94737 7.11009 8.94737 7.10718 8.94737 7.10427C8.94737 7.10137 8.94737 7.09848 8.94737 7.09559C8.94737 7.09271 8.94737 7.08983 8.94737 7.08697C8.94737 7.0841 8.94737 7.08125 8.94737 7.0784C8.94737 7.07555 8.94737 7.07272 8.94737 7.06989C8.94737 7.06706 8.94737 7.06425 8.94737 7.06144C8.94737 7.05863 8.94737 7.05584 8.94737 7.05305C8.94737 7.05026 8.94737 7.04748 8.94737 7.04471C8.94737 7.04195 8.94737 7.03919 8.94737 7.03644C8.94737 7.03369 8.94737 7.03095 8.94737 7.02823C8.94737 7.0255 8.94737 7.02278 8.94737 7.02007C8.94737 7.01736 8.94737 7.01467 8.94737 7.01198C8.94737 7.00929 8.94737 7.00661 8.94737 7.00395C8.94737 7.00128 8.94737 6.99862 8.94737 6.99598C8.94737 6.99333 8.94737 6.99069 8.94737 6.98807C8.94737 6.98544 8.94737 6.98282 8.94737 6.98022C8.94737 6.97761 8.94737 6.97502 8.94737 6.97243C8.94737 6.96985 8.94737 6.96728 8.94737 6.96471C8.94737 6.96215 8.94737 6.9596 8.94737 6.95706C8.94737 6.95451 8.94737 6.95198 8.94737 6.94946C8.94737 6.94694 8.94737 6.94443 8.94737 6.94193C8.94737 6.93943 8.94737 6.93694 8.94737 6.93446C8.94737 6.93199 8.94737 6.92952 8.94737 6.92706C8.94737 6.92461 8.94737 6.92216 8.94737 6.91973C8.94737 6.91729 8.94737 6.91487 8.94737 6.91246C8.94737 6.91005 8.94737 6.90764 8.94737 6.90525C8.94737 6.90286 8.94737 6.90048 8.94737 6.89812C8.94737 6.89575 8.94737 6.89339 8.94737 6.89105C8.94737 6.8887 8.94737 6.88637 8.94737 6.88404C8.94737 6.88172 8.94737 6.87941 8.94737 6.87711C8.94737 6.87481 8.94737 6.87252 8.94737 6.87024C8.94737 6.86796 8.94737 6.8657 8.94737 6.86344C8.94737 6.86119 8.94737 6.85894 8.94737 6.85671C8.94737 6.85448 8.94737 6.85226 8.94737 6.85005C8.94737 6.84784 8.94737 6.84564 8.94737 6.84346C8.94737 6.84127 8.94737 6.8391 8.94737 6.83694C8.94737 6.83478 8.94737 6.83262 8.94737 6.83049C8.94737 6.82835 8.94737 6.82622 8.94737 6.82411C8.94737 6.82199 8.94737 6.81989 8.94737 6.8178C8.94737 6.81571 8.94737 6.81363 8.94737 6.81156C8.94737 6.80949 8.94737 6.80744 8.94737 6.80539C8.94737 6.80335 8.94737 6.80132 8.94737 6.7993C8.94737 6.79728 8.94737 6.79528 8.94737 6.79328C8.94737 6.79129 8.94737 6.7893 8.94737 6.78733C8.94737 6.78536 8.94737 6.78341 8.94737 6.78146C8.94737 6.77952 8.94737 6.77758 8.94737 6.77566C8.94737 6.77374 8.94737 6.77183 8.94737 6.76994C8.94737 6.76804 8.94737 6.76616 8.94737 6.76429C8.94737 6.76241 8.94737 6.76056 8.94737 6.75871C8.94737 6.75686 8.94737 6.75503 8.94737 6.75321C8.94737 6.75139 8.94737 6.74958 8.94737 6.74779C8.94737 6.74599 8.94737 6.74421 8.94737 6.74244C8.94737 6.74067 8.94737 6.73891 8.94737 6.73717C8.94737 6.73542 8.94737 6.73369 8.94737 6.73197C8.94737 6.73026 8.94737 6.72855 8.94737 6.72686C8.94737 6.72517 8.94737 6.72349 8.94737 6.72182C8.94737 6.72015 8.94737 6.7185 8.94737 6.71686C8.94737 6.71522 8.94737 6.71359 8.94737 6.71198C8.94737 6.71036 8.94737 6.70876 8.94737 6.70718C8.94737 6.70559 8.94737 6.70401 8.94737 6.70245C8.94737 6.70089 8.94737 6.69934 8.94737 6.69781C8.94737 6.69628 8.94737 6.69475 8.94737 6.69325C8.94737 6.69174 8.94737 6.69025 8.94737 6.68876C8.94737 6.68728 8.94737 6.68582 8.94737 6.68436C8.94737 6.68291 8.94737 6.68147 8.94737 6.68004C8.94737 6.67862 8.94737 6.6772 8.94737 6.67581C8.94737 6.67441 8.94737 6.67302 8.94737 6.67165C8.94737 6.67028 8.94737 6.66892 8.94737 6.66758C8.94737 6.66623 8.94737 6.6649 8.94737 6.66359C8.94737 6.66227 8.94737 6.66097 8.94737 6.65968C8.94737 6.65839 8.94737 6.65712 8.94737 6.65586C8.94737 6.6546 8.94737 6.65335 8.94737 6.65212C8.94737 6.65089 8.94737 6.64967 8.94737 6.64846C8.94737 6.64726 8.94737 6.64607 8.94737 6.64489C8.94737 6.64372 8.94737 6.64256 8.94737 6.64141C8.94737 6.64026 8.94737 6.63913 8.94737 6.63801C8.94737 6.63689 8.94737 6.63579 8.94737 6.6347C8.94737 6.63361 8.94737 6.63253 8.94737 6.63147C8.94737 6.63041 8.94737 6.62937 8.94737 6.62833C8.94737 6.6273 8.94737 6.62629 8.94737 6.62528C8.94737 6.62428 8.94737 6.62329 8.94737 6.62232C8.94737 6.62135 8.94737 6.62039 8.94737 6.61944C8.94737 6.6185 8.94737 6.61757 8.94737 6.61666C8.94737 6.61574 8.94737 6.61484 8.94737 6.61396C8.94737 6.61307 8.94737 6.6122 8.94737 6.61135C8.94737 6.61049 8.94737 6.60966 8.94737 6.60883C8.94737 6.60801 8.94737 6.6072 8.94737 6.6064C8.94737 6.60561 8.94737 6.60483 8.94737 6.60406C8.94737 6.6033 8.94737 6.60255 8.94737 6.60181C8.94737 6.60108 8.94737 6.60036 8.94737 6.59966C8.94737 6.59895 8.94737 6.59827 8.94737 6.59759C8.94737 6.59692 8.94737 6.59626 8.94737 6.59562C8.94737 6.59498 8.94737 6.59435 8.94737 6.59374C8.94737 6.59313 8.94737 6.59253 8.94737 6.59195C8.94737 6.59137 8.94737 6.59081 8.94737 6.59026C8.94737 6.58971 8.94737 6.58917 8.94737 6.58865C8.94737 6.58814 8.94737 6.58763 8.94737 6.58715C8.94737 6.58666 8.94737 6.58619 8.94737 6.58574C8.94737 6.58528 8.94737 6.58484 8.94737 6.58442C8.94737 6.58399 8.94737 6.58359 8.94737 6.58319C8.94737 6.5828 8.94737 6.58243 8.94737 6.58207C8.94737 6.58171 8.94737 6.58136 8.94737 6.58104C8.94737 6.58071 8.94737 6.5804 8.94737 6.5801C8.94737 6.57981 8.94737 6.57953 8.94737 6.57926C8.94737 6.579 8.94737 6.57875 8.94737 6.57852C8.94737 6.57829 8.94737 6.57808 8.94737 6.57788C8.94737 6.57768 8.94737 6.5775 8.94737 6.57733C8.94737 6.57717 8.94737 6.57702 8.94737 6.57689C8.94737 6.57675 8.94737 6.57664 8.94737 6.57654C8.94737 6.57644 8.94737 6.57635 8.94737 6.57629C8.94737 6.57622 8.94737 6.57617 8.94737 6.57614C8.94737 6.5761 8.94737 6.57609 7.94737 6.57609ZM6.94737 10.9294C6.94737 11.7509 7.20689 12.5277 7.49369 13.1455C7.78445 13.7717 8.1337 14.2989 8.38008 14.6374L9.99714 13.4605C9.79742 13.1861 9.52604 12.7735 9.30771 12.3032C9.08542 11.8245 8.94737 11.3481 8.94737 10.9294H6.94737ZM8.56243 13.8093L5.41226 15.6636L6.42683 17.3872L9.57699 15.5329L8.56243 13.8093ZM6.8645 21C8.17935 21 10.2066 21 13 21V19C10.2066 19 8.17934 19 6.86448 19L6.8645 21ZM4 18.1337C4 19.7155 5.28022 21 6.8645 21L6.86448 19C6.38731 19 6 18.6134 6 18.1337H4ZM5.41226 15.6636C4.53722 16.1787 4 17.1183 4 18.1337H6C6 17.8269 6.16236 17.5429 6.42683 17.3872L5.41226 15.6636ZM8.38008 14.6374C8.20518 14.3971 8.23194 14.0038 8.56243 13.8093L9.57699 15.5329C10.3381 15.0849 10.4661 14.1048 9.99714 13.4605L8.38008 14.6374Z" fill="#2F3032"/>
  <path fill-rule="evenodd" clip-rule="evenodd" d="M16.9152 15.5C16.9152 15.2239 17.1391 15 17.4152 15H18.4152C18.6914 15 18.9152 15.2239 18.9152 15.5V15.708C19.0877 15.7834 19.2501 15.8777 19.3997 15.9883L19.5803 15.884C19.8195 15.7459 20.1253 15.8278 20.2634 16.067L20.7634 16.933C20.9014 17.1722 20.8195 17.478 20.5803 17.616L20.3997 17.7203C20.41 17.8121 20.4152 17.9054 20.4152 18C20.4152 18.0946 20.41 18.1879 20.3997 18.2798L20.5802 18.384C20.8194 18.522 20.9013 18.8278 20.7632 19.067L20.2632 19.933C20.1252 20.1722 19.8194 20.2541 19.5802 20.116L19.3996 20.0118C19.2501 20.1223 19.0877 20.2166 18.9152 20.292V20.5C18.9152 20.7761 18.6914 21 18.4152 21H17.4152C17.1391 21 16.9152 20.7761 16.9152 20.5V20.292C16.7427 20.2166 16.5804 20.1223 16.4308 20.0118L16.2502 20.116C16.0111 20.2541 15.7053 20.1722 15.5672 19.933L15.0672 19.067C14.9291 18.8278 15.0111 18.522 15.2502 18.384L15.4307 18.2798C15.4205 18.1879 15.4152 18.0946 15.4152 18C15.4152 17.9054 15.4205 17.8121 15.4307 17.7203L15.2501 17.616C15.0109 17.478 14.929 17.1722 15.0671 16.933L15.5671 16.067C15.7051 15.8278 16.0109 15.7459 16.2501 15.884L16.4307 15.9883C16.5803 15.8777 16.7427 15.7834 16.9152 15.708V15.5ZM17.915 17C17.3628 17 16.915 17.4477 16.915 18C16.915 18.5523 17.3628 19 17.915 19C18.4673 19 18.915 18.5523 18.915 18C18.915 17.4477 18.4673 17 17.915 17Z" fill="#2F3032"/>
</svg>
