<svg width="24" height="24" viewBox="0 0 24 24" fill="none"
     xmlns="http://www.w3.org/2000/svg">
  <path
    d="M14 4.17427C14 2.46557 11.9958 1.54375 10.6984 2.65576L5.63008 7.00005H4C2.34315 7.00005 1 8.3432 1 10.0001V14.0001C1 15.6569 2.34315 17.0001 4 17.0001H4.21113L6.21113 15.0001H4C3.44772 15.0001 3 14.5523 3 14.0001V10.0001C3 9.44777 3.44772 9.00005 4 9.00005H6.36992L12 4.17427V9.21118L14 7.21118V4.17427Z"
    fill="#2F3032"/>
  <path
    d="M10.6984 21.3443L7.91203 18.956L9.33042 17.5376L12 19.8258V14.868L14 12.868V19.8258C14 21.5345 11.9958 22.4564 10.6984 21.3443Z"
    fill="#2F3032"/>
  <path
    d="M15.8285 14.4853C16.9983 13.3155 17.2921 11.6014 16.7099 10.1582L18.2028 8.66523C19.5235 10.9587 19.2035 13.9388 17.2428 15.8995C16.8522 16.29 16.2191 16.29 15.8285 15.8995C15.438 15.509 15.438 14.8758 15.8285 14.4853Z"
    fill="#2F3032"/>
  <path
    d="M18.9499 16.6066C21.4786 14.0779 21.6682 10.0959 19.5187 7.3493L20.7697 6.09835C20.8281 6.03997 20.8821 5.97887 20.9317 5.91546C23.8673 9.45121 23.6781 14.7068 20.3641 18.0208C19.9736 18.4113 19.3404 18.4113 18.9499 18.0208C18.5594 17.6303 18.5594 16.9971 18.9499 16.6066Z"
    fill="#2F3032"/>
  <path
    d="M20.1373 3.91829C19.7468 3.52776 19.1136 3.52776 18.7231 3.91829L4.03626 18.6051C3.64574 18.9956 3.64574 19.6288 4.03626 20.0193C4.42679 20.4098 5.05995 20.4098 5.45048 20.0193L20.1373 5.3325C20.5278 4.94198 20.5278 4.30881 20.1373 3.91829Z"
    fill="#2F3032"/>
</svg>
