<svg width="24" height="24" viewBox="0 0 24 24" fill="none" xmlns="http://www.w3.org/2000/svg">
  <path d="M12.8782 13.6799C12.4653 14.0467 12.4279 14.6788 12.7947 15.0917C13.1615 15.5046 13.7936 15.542 14.2065 15.1752L12.8782 13.6799ZM12 21C12.5523 21 13 20.5523 13 20C13 19.4477 12.5523 19 12 19V21ZM4.91955 16.5254L4.41226 15.6636L4.91955 16.5254ZM8.18861 14.0489L8.99714 13.4605L8.18861 14.0489ZM8.06971 14.6711L7.56243 13.8093L8.06971 14.6711ZM13.5423 14.4276C14.2065 15.1752 14.2068 15.1749 14.2071 15.1747C14.2072 15.1746 14.2075 15.1743 14.2077 15.1741C14.2081 15.1737 14.2086 15.1733 14.2091 15.1729C14.21 15.172 14.2111 15.171 14.2123 15.17C14.2146 15.1679 14.2172 15.1655 14.2203 15.1628C14.2263 15.1572 14.2338 15.1503 14.2426 15.1421C14.2603 15.1256 14.2833 15.1036 14.3109 15.0763C14.3661 15.0216 14.4399 14.9453 14.5261 14.8482C14.6979 14.6547 14.9223 14.3749 15.1458 14.0167C15.5913 13.3029 16.0526 12.2462 16.0526 10.9294H14.0526C14.0526 11.7692 13.7588 12.4615 13.4492 12.9577C13.2951 13.2045 13.1419 13.3949 13.0305 13.5203C12.9752 13.5827 12.931 13.628 12.9036 13.6552C12.8899 13.6687 12.8805 13.6777 12.876 13.6818C12.8737 13.6839 12.8728 13.6848 12.8731 13.6845C12.8733 13.6844 12.8738 13.6839 12.8746 13.6832C12.875 13.6828 12.8756 13.6823 12.8762 13.6818C12.8765 13.6815 12.8768 13.6812 12.8771 13.6809C12.8773 13.6808 12.8776 13.6805 12.8777 13.6804C12.8779 13.6802 12.8782 13.6799 13.5423 14.4276ZM16.0526 10.9294V6.57609H14.0526V10.9294H16.0526ZM16.0526 6.57609C16.0526 5.34448 15.1895 4.34208 14.3009 3.71293C13.3778 3.05941 12.1674 2.61176 11.0025 2.6089L10.9975 4.60889C11.6906 4.61059 12.5065 4.89307 13.1452 5.34527C13.8184 5.82184 14.0526 6.30076 14.0526 6.57609H16.0526ZM11.0025 2.6089C9.8336 2.60603 8.62111 3.05601 7.69813 3.71115C6.80962 4.34183 5.94737 5.34643 5.94737 6.57609H7.94737C7.94737 6.30127 8.18246 5.81999 8.85578 5.34206C9.49464 4.88859 10.3085 4.6072 10.9975 4.60889L11.0025 2.6089ZM6.94737 6.57609C5.94737 6.57609 5.94737 6.5761 5.94737 6.57614C5.94737 6.57617 5.94737 6.57622 5.94737 6.57629C5.94737 6.57635 5.94737 6.57644 5.94737 6.57654C5.94737 6.57664 5.94737 6.57675 5.94737 6.57689C5.94737 6.57702 5.94737 6.57717 5.94737 6.57733C5.94737 6.5775 5.94737 6.57768 5.94737 6.57788C5.94737 6.57808 5.94737 6.57829 5.94737 6.57852C5.94737 6.57875 5.94737 6.579 5.94737 6.57926C5.94737 6.57953 5.94737 6.57981 5.94737 6.5801C5.94737 6.5804 5.94737 6.58071 5.94737 6.58104C5.94737 6.58136 5.94737 6.58171 5.94737 6.58207C5.94737 6.58243 5.94737 6.5828 5.94737 6.58319C5.94737 6.58359 5.94737 6.58399 5.94737 6.58442C5.94737 6.58484 5.94737 6.58528 5.94737 6.58574C5.94737 6.58619 5.94737 6.58666 5.94737 6.58715C5.94737 6.58763 5.94737 6.58814 5.94737 6.58865C5.94737 6.58917 5.94737 6.58971 5.94737 6.59026C5.94737 6.59081 5.94737 6.59137 5.94737 6.59195C5.94737 6.59253 5.94737 6.59313 5.94737 6.59374C5.94737 6.59435 5.94737 6.59498 5.94737 6.59562C5.94737 6.59626 5.94737 6.59692 5.94737 6.59759C5.94737 6.59827 5.94737 6.59895 5.94737 6.59966C5.94737 6.60036 5.94737 6.60108 5.94737 6.60181C5.94737 6.60255 5.94737 6.6033 5.94737 6.60406C5.94737 6.60483 5.94737 6.60561 5.94737 6.6064C5.94737 6.6072 5.94737 6.60801 5.94737 6.60883C5.94737 6.60966 5.94737 6.61049 5.94737 6.61135C5.94737 6.6122 5.94737 6.61307 5.94737 6.61396C5.94737 6.61484 5.94737 6.61574 5.94737 6.61666C5.94737 6.61757 5.94737 6.6185 5.94737 6.61944C5.94737 6.62039 5.94737 6.62135 5.94737 6.62232C5.94737 6.62329 5.94737 6.62428 5.94737 6.62528C5.94737 6.62629 5.94737 6.6273 5.94737 6.62833C5.94737 6.62937 5.94737 6.63041 5.94737 6.63147C5.94737 6.63253 5.94737 6.63361 5.94737 6.6347C5.94737 6.63579 5.94737 6.63689 5.94737 6.63801C5.94737 6.63913 5.94737 6.64026 5.94737 6.64141C5.94737 6.64256 5.94737 6.64372 5.94737 6.64489C5.94737 6.64607 5.94737 6.64726 5.94737 6.64846C5.94737 6.64967 5.94737 6.65089 5.94737 6.65212C5.94737 6.65335 5.94737 6.6546 5.94737 6.65586C5.94737 6.65712 5.94737 6.65839 5.94737 6.65968C5.94737 6.66097 5.94737 6.66227 5.94737 6.66359C5.94737 6.6649 5.94737 6.66623 5.94737 6.66758C5.94737 6.66892 5.94737 6.67028 5.94737 6.67165C5.94737 6.67302 5.94737 6.67441 5.94737 6.67581C5.94737 6.6772 5.94737 6.67862 5.94737 6.68004C5.94737 6.68147 5.94737 6.68291 5.94737 6.68436C5.94737 6.68582 5.94737 6.68728 5.94737 6.68876C5.94737 6.69025 5.94737 6.69174 5.94737 6.69325C5.94737 6.69475 5.94737 6.69628 5.94737 6.69781C5.94737 6.69934 5.94737 6.70089 5.94737 6.70245C5.94737 6.70401 5.94737 6.70559 5.94737 6.70718C5.94737 6.70876 5.94737 6.71036 5.94737 6.71198C5.94737 6.71359 5.94737 6.71522 5.94737 6.71686C5.94737 6.7185 5.94737 6.72015 5.94737 6.72182C5.94737 6.72349 5.94737 6.72517 5.94737 6.72686C5.94737 6.72855 5.94737 6.73026 5.94737 6.73197C5.94737 6.73369 5.94737 6.73542 5.94737 6.73717C5.94737 6.73891 5.94737 6.74067 5.94737 6.74244C5.94737 6.74421 5.94737 6.74599 5.94737 6.74779C5.94737 6.74958 5.94737 6.75139 5.94737 6.75321C5.94737 6.75503 5.94737 6.75686 5.94737 6.75871C5.94737 6.76056 5.94737 6.76241 5.94737 6.76429C5.94737 6.76616 5.94737 6.76804 5.94737 6.76994C5.94737 6.77183 5.94737 6.77374 5.94737 6.77566C5.94737 6.77758 5.94737 6.77952 5.94737 6.78146C5.94737 6.78341 5.94737 6.78536 5.94737 6.78733C5.94737 6.7893 5.94737 6.79129 5.94737 6.79328C5.94737 6.79528 5.94737 6.79728 5.94737 6.7993C5.94737 6.80132 5.94737 6.80335 5.94737 6.80539C5.94737 6.80744 5.94737 6.80949 5.94737 6.81156C5.94737 6.81363 5.94737 6.81571 5.94737 6.8178C5.94737 6.81989 5.94737 6.82199 5.94737 6.82411C5.94737 6.82622 5.94737 6.82835 5.94737 6.83049C5.94737 6.83262 5.94737 6.83478 5.94737 6.83694C5.94737 6.8391 5.94737 6.84127 5.94737 6.84346C5.94737 6.84564 5.94737 6.84784 5.94737 6.85005C5.94737 6.85226 5.94737 6.85448 5.94737 6.85671C5.94737 6.85894 5.94737 6.86119 5.94737 6.86344C5.94737 6.8657 5.94737 6.86796 5.94737 6.87024C5.94737 6.87252 5.94737 6.87481 5.94737 6.87711C5.94737 6.87941 5.94737 6.88172 5.94737 6.88404C5.94737 6.88637 5.94737 6.8887 5.94737 6.89105C5.94737 6.89339 5.94737 6.89575 5.94737 6.89812C5.94737 6.90048 5.94737 6.90286 5.94737 6.90525C5.94737 6.90764 5.94737 6.91005 5.94737 6.91246C5.94737 6.91487 5.94737 6.91729 5.94737 6.91973C5.94737 6.92216 5.94737 6.92461 5.94737 6.92706C5.94737 6.92952 5.94737 6.93199 5.94737 6.93446C5.94737 6.93694 5.94737 6.93943 5.94737 6.94193C5.94737 6.94443 5.94737 6.94694 5.94737 6.94946C5.94737 6.95198 5.94737 6.95451 5.94737 6.95706C5.94737 6.9596 5.94737 6.96215 5.94737 6.96471C5.94737 6.96728 5.94737 6.96985 5.94737 6.97243C5.94737 6.97502 5.94737 6.97761 5.94737 6.98022C5.94737 6.98282 5.94737 6.98544 5.94737 6.98807C5.94737 6.99069 5.94737 6.99333 5.94737 6.99598C5.94737 6.99862 5.94737 7.00128 5.94737 7.00395C5.94737 7.00661 5.94737 7.00929 5.94737 7.01198C5.94737 7.01467 5.94737 7.01736 5.94737 7.02007C5.94737 7.02278 5.94737 7.0255 5.94737 7.02823C5.94737 7.03095 5.94737 7.03369 5.94737 7.03644C5.94737 7.03919 5.94737 7.04195 5.94737 7.04471C5.94737 7.04748 5.94737 7.05026 5.94737 7.05305C5.94737 7.05584 5.94737 7.05863 5.94737 7.06144C5.94737 7.06425 5.94737 7.06706 5.94737 7.06989C5.94737 7.07272 5.94737 7.07555 5.94737 7.0784C5.94737 7.08125 5.94737 7.0841 5.94737 7.08697C5.94737 7.08983 5.94737 7.09271 5.94737 7.09559C5.94737 7.09848 5.94737 7.10137 5.94737 7.10427C5.94737 7.10718 5.94737 7.11009 5.94737 7.11301C5.94737 7.11593 5.94737 7.11886 5.94737 7.12181C5.94737 7.12475 5.94737 7.1277 5.94737 7.13066C5.94737 7.13362 5.94737 7.13658 5.94737 7.13956C5.94737 7.14254 5.94737 7.14553 5.94737 7.14852C5.94737 7.15152 5.94737 7.15452 5.94737 7.15754C5.94737 7.16055 5.94737 7.16358 5.94737 7.16661C5.94737 7.16964 5.94737 7.17268 5.94737 7.17573C5.94737 7.17878 5.94737 7.18184 5.94737 7.18491C5.94737 7.18798 5.94737 7.19105 5.94737 7.19414C5.94737 7.19723 5.94737 7.20032 5.94737 7.20342C5.94737 7.20653 5.94737 7.20964 5.94737 7.21276C5.94737 7.21588 5.94737 7.21901 5.94737 7.22215C5.94737 7.22528 5.94737 7.22843 5.94737 7.23159C5.94737 7.23474 5.94737 7.2379 5.94737 7.24108C5.94737 7.24425 5.94737 7.24743 5.94737 7.25062C5.94737 7.2538 5.94737 7.257 5.94737 7.26021C5.94737 7.26341 5.94737 7.26663 5.94737 7.26985C5.94737 7.27307 5.94737 7.2763 5.94737 7.27954C5.94737 7.28278 5.94737 7.28602 5.94737 7.28928C5.94737 7.29253 5.94737 7.2958 5.94737 7.29907C5.94737 7.30234 5.94737 7.30562 5.94737 7.30891C5.94737 7.31219 5.94737 7.31549 5.94737 7.31879C5.94737 7.32209 5.94737 7.3254 5.94737 7.32872C5.94737 7.33204 5.94737 7.33537 5.94737 7.3387C5.94737 7.34204 5.94737 7.34538 5.94737 7.34873C5.94737 7.35208 5.94737 7.35544 5.94737 7.3588C5.94737 7.36217 5.94737 7.36554 5.94737 7.36892C5.94737 7.3723 5.94737 7.37569 5.94737 7.37909C5.94737 7.38248 5.94737 7.38589 5.94737 7.3893C5.94737 7.39271 5.94737 7.39613 5.94737 7.39955C5.94737 7.40298 5.94737 7.40641 5.94737 7.40985C5.94737 7.41329 5.94737 7.41674 5.94737 7.4202C5.94737 7.42365 5.94737 7.42712 5.94737 7.43059C5.94737 7.43406 5.94737 7.43753 5.94737 7.44102C5.94737 7.4445 5.94737 7.44799 5.94737 7.45149C5.94737 7.45499 5.94737 7.45849 5.94737 7.46201C5.94737 7.46552 5.94737 7.46904 5.94737 7.47256C5.94737 7.47609 5.94737 7.47962 5.94737 7.48316C5.94737 7.4867 5.94737 7.49025 5.94737 7.49381C5.94737 7.49736 5.94737 7.50092 5.94737 7.50449C5.94737 7.50806 5.94737 7.51163 5.94737 7.51521C5.94737 7.51879 5.94737 7.52238 5.94737 7.52597C5.94737 7.52957 5.94737 7.53317 5.94737 7.53678C5.94737 7.54038 5.94737 7.544 5.94737 7.54762C5.94737 7.55124 5.94737 7.55487 5.94737 7.5585C5.94737 7.56213 5.94737 7.56577 5.94737 7.56942C5.94737 7.57307 5.94737 7.57672 5.94737 7.58038C5.94737 7.58404 5.94737 7.5877 5.94737 7.59137C5.94737 7.59505 5.94737 7.59872 5.94737 7.60241C5.94737 7.60609 5.94737 7.60978 5.94737 7.61348C5.94737 7.61717 5.94737 7.62088 5.94737 7.62458C5.94737 7.62829 5.94737 7.63201 5.94737 7.63573C5.94737 7.63945 5.94737 7.64317 5.94737 7.64691C5.94737 7.65064 5.94737 7.65438 5.94737 7.65812C5.94737 7.66186 5.94737 7.66561 5.94737 7.66937C5.94737 7.67312 5.94737 7.67689 5.94737 7.68065C5.94737 7.68442 5.94737 7.68819 5.94737 7.69197C5.94737 7.69575 5.94737 7.69953 5.94737 7.70332C5.94737 7.70711 5.94737 7.71091 5.94737 7.71471C5.94737 7.71851 5.94737 7.72232 5.94737 7.72613C5.94737 7.72994 5.94737 7.73376 5.94737 7.73758C5.94737 7.7414 5.94737 7.74523 5.94737 7.74906C5.94737 7.7529 5.94737 7.75673 5.94737 7.76058C5.94737 7.76442 5.94737 7.76827 5.94737 7.77213C5.94737 7.77598 5.94737 7.77984 5.94737 7.7837C5.94737 7.78757 5.94737 7.79144 5.94737 7.79531C5.94737 7.79919 5.94737 7.80307 5.94737 7.80695C5.94737 7.81084 5.94737 7.81473 5.94737 7.81862C5.94737 7.82252 5.94737 7.82642 5.94737 7.83032C5.94737 7.83422 5.94737 7.83813 5.94737 7.84205C5.94737 7.84596 5.94737 7.84988 5.94737 7.8538C5.94737 7.85773 5.94737 7.86166 5.94737 7.86559C5.94737 7.86952 5.94737 7.87346 5.94737 7.8774C5.94737 7.88134 5.94737 7.88529 5.94737 7.88924C5.94737 7.89319 5.94737 7.89715 5.94737 7.90111C5.94737 7.90507 5.94737 7.90904 5.94737 7.913C5.94737 7.91697 5.94737 7.92095 5.94737 7.92493C5.94737 7.9289 5.94737 7.93289 5.94737 7.93687C5.94737 7.94086 5.94737 7.94485 5.94737 7.94884C5.94737 7.95284 5.94737 7.95684 5.94737 7.96084C5.94737 7.96485 5.94737 7.96885 5.94737 7.97287C5.94737 7.97688 5.94737 7.98089 5.94737 7.98491C5.94737 7.98893 5.94737 7.99296 5.94737 7.99698C5.94737 8.00101 5.94737 8.00504 5.94737 8.00908C5.94737 8.01311 5.94737 8.01715 5.94737 8.0212C5.94737 8.02524 5.94737 8.02929 5.94737 8.03334C5.94737 8.03739 5.94737 8.04144 5.94737 8.0455C5.94737 8.04956 5.94737 8.05362 5.94737 8.05769C5.94737 8.06175 5.94737 8.06582 5.94737 8.06989C5.94737 8.07397 5.94737 8.07804 5.94737 8.08212C5.94737 8.0862 5.94737 8.09028 5.94737 8.09437C5.94737 8.09846 5.94737 8.10255 5.94737 8.10664C5.94737 8.11073 5.94737 8.11483 5.94737 8.11893C5.94737 8.12303 5.94737 8.12713 5.94737 8.13124C5.94737 8.13535 5.94737 8.13946 5.94737 8.14357C5.94737 8.14768 5.94737 8.1518 5.94737 8.15592C5.94737 8.16004 5.94737 8.16416 5.94737 8.16828C5.94737 8.17241 5.94737 8.17654 5.94737 8.18067C5.94737 8.1848 5.94737 8.18893 5.94737 8.19307C5.94737 8.19721 5.94737 8.20135 5.94737 8.20549C5.94737 8.20963 5.94737 8.21378 5.94737 8.21793C5.94737 8.22207 5.94737 8.22623 5.94737 8.23038C5.94737 8.23453 5.94737 8.23869 5.94737 8.24285C5.94737 8.24701 5.94737 8.25117 5.94737 8.25533C5.94737 8.2595 5.94737 8.26367 5.94737 8.26784C5.94737 8.272 5.94737 8.27618 5.94737 8.28035C5.94737 8.28453 5.94737 8.2887 5.94737 8.29288C5.94737 8.29706 5.94737 8.30124 5.94737 8.30543C5.94737 8.30961 5.94737 8.3138 5.94737 8.31798C5.94737 8.32217 5.94737 8.32636 5.94737 8.33056C5.94737 8.33475 5.94737 8.33894 5.94737 8.34314C5.94737 8.34734 5.94737 8.35154 5.94737 8.35574C5.94737 8.35994 5.94737 8.36414 5.94737 8.36835C5.94737 8.37255 5.94737 8.37676 5.94737 8.38097C5.94737 8.38518 5.94737 8.38939 5.94737 8.3936C5.94737 8.39782 5.94737 8.40203 5.94737 8.40625C5.94737 8.41046 5.94737 8.41468 5.94737 8.4189C5.94737 8.42312 5.94737 8.42734 5.94737 8.43157C5.94737 8.43579 5.94737 8.44001 5.94737 8.44424C5.94737 8.44847 5.94737 8.4527 5.94737 8.45693C5.94737 8.46116 5.94737 8.46539 5.94737 8.46962C5.94737 8.47385 5.94737 8.47809 5.94737 8.48232C5.94737 8.48656 5.94737 8.49079 5.94737 8.49503C5.94737 8.49927 5.94737 8.50351 5.94737 8.50775C5.94737 8.51199 5.94737 8.51623 5.94737 8.52048C5.94737 8.52472 5.94737 8.52896 5.94737 8.53321C5.94737 8.53746 5.94737 8.5417 5.94737 8.54595C5.94737 8.5502 5.94737 8.55445 5.94737 8.5587C5.94737 8.56295 5.94737 8.5672 5.94737 8.57145C5.94737 8.5757 5.94737 8.57995 5.94737 8.58421C5.94737 8.58846 5.94737 8.59271 5.94737 8.59697C5.94737 8.60123 5.94737 8.60548 5.94737 8.60974C5.94737 8.61399 5.94737 8.61825 5.94737 8.62251C5.94737 8.62677 5.94737 8.63103 5.94737 8.63529C5.94737 8.63955 5.94737 8.64381 5.94737 8.64807C5.94737 8.65233 5.94737 8.65659 5.94737 8.66085C5.94737 8.66511 5.94737 8.66937 5.94737 8.67364C5.94737 8.6779 5.94737 8.68216 5.94737 8.68642C5.94737 8.69069 5.94737 8.69495 5.94737 8.69921C5.94737 8.70348 5.94737 8.70774 5.94737 8.71201C5.94737 8.71627 5.94737 8.72054 5.94737 8.7248C5.94737 8.72906 5.94737 8.73333 5.94737 8.73759C5.94737 8.74186 5.94737 8.74612 5.94737 8.75039C5.94737 8.75465 5.94737 8.75892 5.94737 8.76318C5.94737 8.76745 5.94737 8.77171 5.94737 8.77598C5.94737 8.78024 5.94737 8.78451 5.94737 8.78877C5.94737 8.79304 5.94737 8.7973 5.94737 8.80156C5.94737 8.80583 5.94737 8.81009 5.94737 8.81436C5.94737 8.81862 5.94737 8.82288 5.94737 8.82714C5.94737 8.83141 5.94737 8.83567 5.94737 8.83993C5.94737 8.84419 5.94737 8.84845 5.94737 8.85272C5.94737 8.85698 5.94737 8.86124 5.94737 8.8655C5.94737 8.86976 5.94737 8.87402 5.94737 8.87827C5.94737 8.88253 5.94737 8.88679 5.94737 8.89105C5.94737 8.89531 5.94737 8.89956 5.94737 8.90382C5.94737 8.90807 5.94737 8.91233 5.94737 8.91658C5.94737 8.92084 5.94737 8.92509 5.94737 8.92934C5.94737 8.9336 5.94737 8.93785 5.94737 8.9421C5.94737 8.94635 5.94737 8.9506 5.94737 8.95485C5.94737 8.95909 5.94737 8.96334 5.94737 8.96759C5.94737 8.97184 5.94737 8.97608 5.94737 8.98032C5.94737 8.98457 5.94737 8.98881 5.94737 8.99305C5.94737 8.99729 5.94737 9.00154 5.94737 9.00577C5.94737 9.01001 5.94737 9.01425 5.94737 9.01849C5.94737 9.02273 5.94737 9.02696 5.94737 9.03119C5.94737 9.03543 5.94737 9.03966 5.94737 9.04389C5.94737 9.04812 5.94737 9.05235 5.94737 9.05658C5.94737 9.06081 5.94737 9.06503 5.94737 9.06926C5.94737 9.07348 5.94737 9.0777 5.94737 9.08193C5.94737 9.08615 5.94737 9.09037 5.94737 9.09458C5.94737 9.0988 5.94737 9.10302 5.94737 9.10723C5.94737 9.11145 5.94737 9.11566 5.94737 9.11987C5.94737 9.12408 5.94737 9.12829 5.94737 9.1325C5.94737 9.1367 5.94737 9.14091 5.94737 9.14511C5.94737 9.14931 5.94737 9.15351 5.94737 9.15771C5.94737 9.16191 5.94737 9.16611 5.94737 9.1703C5.94737 9.1745 5.94737 9.17869 5.94737 9.18288C5.94737 9.18707 5.94737 9.19126 5.94737 9.19544C5.94737 9.19963 5.94737 9.20381 5.94737 9.20799C5.94737 9.21217 5.94737 9.21635 5.94737 9.22053C5.94737 9.2247 5.94737 9.22888 5.94737 9.23305C5.94737 9.23722 5.94737 9.24139 5.94737 9.24556C5.94737 9.24972 5.94737 9.25389 5.94737 9.25805C5.94737 9.26221 5.94737 9.26637 5.94737 9.27052C5.94737 9.27468 5.94737 9.27883 5.94737 9.28298C5.94737 9.28713 5.94737 9.29128 5.94737 9.29542C5.94737 9.29957 5.94737 9.30371 5.94737 9.30785C5.94737 9.31199 5.94737 9.31613 5.94737 9.32026C5.94737 9.32439 5.94737 9.32852 5.94737 9.33265C5.94737 9.33678 5.94737 9.3409 5.94737 9.34503C5.94737 9.34915 5.94737 9.35326 5.94737 9.35738C5.94737 9.3615 5.94737 9.36561 5.94737 9.36972C5.94737 9.37383 5.94737 9.37793 5.94737 9.38203C5.94737 9.38614 5.94737 9.39023 5.94737 9.39433C5.94737 9.39843 5.94737 9.40252 5.94737 9.40661C5.94737 9.4107 5.94737 9.41478 5.94737 9.41887C5.94737 9.42295 5.94737 9.42703 5.94737 9.4311C5.94737 9.43518 5.94737 9.43925 5.94737 9.44332C5.94737 9.44739 5.94737 9.45145 5.94737 9.45551C5.94737 9.45957 5.94737 9.46363 5.94737 9.46768C5.94737 9.47174 5.94737 9.47579 5.94737 9.47983C5.94737 9.48388 5.94737 9.48792 5.94737 9.49196C5.94737 9.496 5.94737 9.50003 5.94737 9.50406C5.94737 9.50809 5.94737 9.51212 5.94737 9.51614C5.94737 9.52016 5.94737 9.52418 5.94737 9.5282C5.94737 9.53221 5.94737 9.53622 5.94737 9.54023C5.94737 9.54424 5.94737 9.54824 5.94737 9.55224C5.94737 9.55624 5.94737 9.56023 5.94737 9.56422C5.94737 9.56821 5.94737 9.5722 5.94737 9.57618C5.94737 9.58016 5.94737 9.58413 5.94737 9.58811C5.94737 9.59208 5.94737 9.59605 5.94737 9.60001C5.94737 9.60398 5.94737 9.60793 5.94737 9.61189C5.94737 9.61584 5.94737 9.61979 5.94737 9.62374C5.94737 9.62769 5.94737 9.63163 5.94737 9.63556C5.94737 9.6395 5.94737 9.64343 5.94737 9.64736C5.94737 9.65129 5.94737 9.65521 5.94737 9.65913C5.94737 9.66304 5.94737 9.66696 5.94737 9.67087C5.94737 9.67477 5.94737 9.67868 5.94737 9.68258C5.94737 9.68647 5.94737 9.69037 5.94737 9.69426C5.94737 9.69814 5.94737 9.70203 5.94737 9.70591C5.94737 9.70979 5.94737 9.71366 5.94737 9.71753C5.94737 9.7214 5.94737 9.72526 5.94737 9.72912C5.94737 9.73298 5.94737 9.73683 5.94737 9.74068C5.94737 9.74452 5.94737 9.74837 5.94737 9.7522C5.94737 9.75604 5.94737 9.75987 5.94737 9.7637C5.94737 9.76753 5.94737 9.77135 5.94737 9.77516C5.94737 9.77898 5.94737 9.78279 5.94737 9.78659C5.94737 9.7904 5.94737 9.7942 5.94737 9.79799C5.94737 9.80179 5.94737 9.80557 5.94737 9.80936C5.94737 9.81314 5.94737 9.81692 5.94737 9.82069C5.94737 9.82446 5.94737 9.82823 5.94737 9.83199C5.94737 9.83575 5.94737 9.8395 5.94737 9.84325C5.94737 9.847 5.94737 9.85074 5.94737 9.85448C5.94737 9.85821 5.94737 9.86194 5.94737 9.86567C5.94737 9.86939 5.94737 9.87311 5.94737 9.87682C5.94737 9.88054 5.94737 9.88424 5.94737 9.88795C5.94737 9.89165 5.94737 9.89534 5.94737 9.89903C5.94737 9.90272 5.94737 9.9064 5.94737 9.91008C5.94737 9.91375 5.94737 9.91742 5.94737 9.92109C5.94737 9.92475 5.94737 9.92841 5.94737 9.93206C5.94737 9.93571 5.94737 9.93935 5.94737 9.94299C5.94737 9.94663 5.94737 9.95026 5.94737 9.95389C5.94737 9.95751 5.94737 9.96113 5.94737 9.96475C5.94737 9.96836 5.94737 9.97196 5.94737 9.97556C5.94737 9.97916 5.94737 9.98276 5.94737 9.98634C5.94737 9.98993 5.94737 9.99351 5.94737 9.99708C5.94737 10.0007 5.94737 10.0042 5.94737 10.0078C5.94737 10.0113 5.94737 10.0149 5.94737 10.0184C5.94737 10.022 5.94737 10.0255 5.94737 10.0291C5.94737 10.0326 5.94737 10.0361 5.94737 10.0396C5.94737 10.0431 5.94737 10.0467 5.94737 10.0502C5.94737 10.0537 5.94737 10.0572 5.94737 10.0606C5.94737 10.0641 5.94737 10.0676 5.94737 10.0711C5.94737 10.0746 5.94737 10.078 5.94737 10.0815C5.94737 10.085 5.94737 10.0884 5.94737 10.0919C5.94737 10.0953 5.94737 10.0987 5.94737 10.1022C5.94737 10.1056 5.94737 10.109 5.94737 10.1124C5.94737 10.1159 5.94737 10.1193 5.94737 10.1227C5.94737 10.1261 5.94737 10.1295 5.94737 10.1329C5.94737 10.1362 5.94737 10.1396 5.94737 10.143C5.94737 10.1464 5.94737 10.1497 5.94737 10.1531C5.94737 10.1564 5.94737 10.1598 5.94737 10.1631C5.94737 10.1665 5.94737 10.1698 5.94737 10.1731C5.94737 10.1765 5.94737 10.1798 5.94737 10.1831C5.94737 10.1864 5.94737 10.1897 5.94737 10.193C5.94737 10.1963 5.94737 10.1996 5.94737 10.2028C5.94737 10.2061 5.94737 10.2094 5.94737 10.2126C5.94737 10.2159 5.94737 10.2192 5.94737 10.2224C5.94737 10.2256 5.94737 10.2289 5.94737 10.2321C5.94737 10.2353 5.94737 10.2386 5.94737 10.2418C5.94737 10.245 5.94737 10.2482 5.94737 10.2514C5.94737 10.2546 5.94737 10.2578 5.94737 10.2609C5.94737 10.2641 5.94737 10.2673 5.94737 10.2705C5.94737 10.2736 5.94737 10.2768 5.94737 10.2799C5.94737 10.2831 5.94737 10.2862 5.94737 10.2893C5.94737 10.2924 5.94737 10.2956 5.94737 10.2987C5.94737 10.3018 5.94737 10.3049 5.94737 10.308C5.94737 10.3111 5.94737 10.3142 5.94737 10.3172C5.94737 10.3203 5.94737 10.3234 5.94737 10.3264C5.94737 10.3295 5.94737 10.3325 5.94737 10.3356C5.94737 10.3386 5.94737 10.3416 5.94737 10.3447C5.94737 10.3477 5.94737 10.3507 5.94737 10.3537C5.94737 10.3567 5.94737 10.3597 5.94737 10.3627C5.94737 10.3657 5.94737 10.3686 5.94737 10.3716C5.94737 10.3746 5.94737 10.3775 5.94737 10.3805C5.94737 10.3834 5.94737 10.3864 5.94737 10.3893C5.94737 10.3922 5.94737 10.3951 5.94737 10.3981C5.94737 10.401 5.94737 10.4039 5.94737 10.4068C5.94737 10.4096 5.94737 10.4125 5.94737 10.4154C5.94737 10.4183 5.94737 10.4211 5.94737 10.424C5.94737 10.4268 5.94737 10.4297 5.94737 10.4325C5.94737 10.4354 5.94737 10.4382 5.94737 10.441C5.94737 10.4438 5.94737 10.4466 5.94737 10.4494C5.94737 10.4522 5.94737 10.455 5.94737 10.4578C5.94737 10.4605 5.94737 10.4633 5.94737 10.4661C5.94737 10.4688 5.94737 10.4716 5.94737 10.4743C5.94737 10.477 5.94737 10.4798 5.94737 10.4825C5.94737 10.4852 5.94737 10.4879 5.94737 10.4906C5.94737 10.4933 5.94737 10.496 5.94737 10.4986C5.94737 10.5013 5.94737 10.504 5.94737 10.5066C5.94737 10.5093 5.94737 10.5119 5.94737 10.5146C5.94737 10.5172 5.94737 10.5198 5.94737 10.5224C5.94737 10.5251 5.94737 10.5277 5.94737 10.5303C5.94737 10.5328 5.94737 10.5354 5.94737 10.538C5.94737 10.5406 5.94737 10.5431 5.94737 10.5457C5.94737 10.5482 5.94737 10.5508 5.94737 10.5533C5.94737 10.5558 5.94737 10.5583 5.94737 10.5609C5.94737 10.5634 5.94737 10.5659 5.94737 10.5683C5.94737 10.5708 5.94737 10.5733 5.94737 10.5758C5.94737 10.5782 5.94737 10.5807 5.94737 10.5831C5.94737 10.5856 5.94737 10.588 5.94737 10.5904C5.94737 10.5928 5.94737 10.5953 5.94737 10.5977C5.94737 10.6001 5.94737 10.6024 5.94737 10.6048C5.94737 10.6072 5.94737 10.6096 5.94737 10.6119C5.94737 10.6143 5.94737 10.6166 5.94737 10.6189C5.94737 10.6213 5.94737 10.6236 5.94737 10.6259C5.94737 10.6282 5.94737 10.6305 5.94737 10.6328C5.94737 10.6351 5.94737 10.6374 5.94737 10.6396C5.94737 10.6419 5.94737 10.6441 5.94737 10.6464C5.94737 10.6486 5.94737 10.6508 5.94737 10.6531C5.94737 10.6553 5.94737 10.6575 5.94737 10.6597C5.94737 10.6619 5.94737 10.6641 5.94737 10.6662C5.94737 10.6684 5.94737 10.6706 5.94737 10.6727C5.94737 10.6749 5.94737 10.677 5.94737 10.6791C5.94737 10.6812 5.94737 10.6833 5.94737 10.6855C5.94737 10.6876 5.94737 10.6896 5.94737 10.6917C5.94737 10.6938 5.94737 10.6959 5.94737 10.6979C5.94737 10.7 5.94737 10.702 5.94737 10.704C5.94737 10.7061 5.94737 10.7081 5.94737 10.7101C5.94737 10.7121 5.94737 10.7141 5.94737 10.7161C5.94737 10.718 5.94737 10.72 5.94737 10.722C5.94737 10.7239 5.94737 10.7258 5.94737 10.7278C5.94737 10.7297 5.94737 10.7316 5.94737 10.7335C5.94737 10.7354 5.94737 10.7373 5.94737 10.7392C5.94737 10.7411 5.94737 10.743 5.94737 10.7448C5.94737 10.7467 5.94737 10.7485 5.94737 10.7503C5.94737 10.7522 5.94737 10.754 5.94737 10.7558C5.94737 10.7576 5.94737 10.7594 5.94737 10.7612C5.94737 10.763 5.94737 10.7647 5.94737 10.7665C5.94737 10.7682 5.94737 10.77 5.94737 10.7717C5.94737 10.7734 5.94737 10.7751 5.94737 10.7768C5.94737 10.7785 5.94737 10.7802 5.94737 10.7819C5.94737 10.7836 5.94737 10.7852 5.94737 10.7869C5.94737 10.7886 5.94737 10.7902 5.94737 10.7918C5.94737 10.7934 5.94737 10.795 5.94737 10.7966C5.94737 10.7982 5.94737 10.7998 5.94737 10.8014C5.94737 10.803 5.94737 10.8045 5.94737 10.8061C5.94737 10.8076 5.94737 10.8091 5.94737 10.8107C5.94737 10.8122 5.94737 10.8137 5.94737 10.8152C5.94737 10.8167 5.94737 10.8181 5.94737 10.8196C5.94737 10.8211 5.94737 10.8225 5.94737 10.824C5.94737 10.8254 5.94737 10.8268 5.94737 10.8282C5.94737 10.8296 5.94737 10.831 5.94737 10.8324C5.94737 10.8338 5.94737 10.8352 5.94737 10.8365C5.94737 10.8379 5.94737 10.8392 5.94737 10.8405C5.94737 10.8419 5.94737 10.8432 5.94737 10.8445C5.94737 10.8458 5.94737 10.8471 5.94737 10.8483C5.94737 10.8496 5.94737 10.8509 5.94737 10.8521C5.94737 10.8533 5.94737 10.8546 5.94737 10.8558C5.94737 10.857 5.94737 10.8582 5.94737 10.8594C5.94737 10.8606 5.94737 10.8618 5.94737 10.8629C5.94737 10.8641 5.94737 10.8652 5.94737 10.8663C5.94737 10.8675 5.94737 10.8686 5.94737 10.8697C5.94737 10.8708 5.94737 10.8719 5.94737 10.8729C5.94737 10.874 5.94737 10.8751 5.94737 10.8761C5.94737 10.8772 5.94737 10.8782 5.94737 10.8792C5.94737 10.8802 5.94737 10.8812 5.94737 10.8822C5.94737 10.8832 5.94737 10.8842 5.94737 10.8851C5.94737 10.8861 5.94737 10.887 5.94737 10.8879C5.94737 10.8889 5.94737 10.8898 5.94737 10.8907C5.94737 10.8916 5.94737 10.8924 5.94737 10.8933C5.94737 10.8942 5.94737 10.895 5.94737 10.8959C5.94737 10.8967 5.94737 10.8975 5.94737 10.8983C5.94737 10.8991 5.94737 10.8999 5.94737 10.9007C5.94737 10.9015 5.94737 10.9022 5.94737 10.903C5.94737 10.9037 5.94737 10.9045 5.94737 10.9052C5.94737 10.9059 5.94737 10.9066 5.94737 10.9073C5.94737 10.908 5.94737 10.9086 5.94737 10.9093C5.94737 10.9099 5.94737 10.9106 5.94737 10.9112C5.94737 10.9118 5.94737 10.9124 5.94737 10.913C5.94737 10.9136 5.94737 10.9142 5.94737 10.9147C5.94737 10.9153 5.94737 10.9159 5.94737 10.9164C5.94737 10.9169 5.94737 10.9174 5.94737 10.9179C5.94737 10.9184 5.94737 10.9189 5.94737 10.9194C5.94737 10.9198 5.94737 10.9203 5.94737 10.9207C5.94737 10.9212 5.94737 10.9216 5.94737 10.922C5.94737 10.9224 5.94737 10.9228 5.94737 10.9231C5.94737 10.9235 5.94737 10.9239 5.94737 10.9242C5.94737 10.9246 5.94737 10.9249 5.94737 10.9252C5.94737 10.9255 5.94737 10.9258 5.94737 10.9261C5.94737 10.9263 5.94737 10.9266 5.94737 10.9268C5.94737 10.9271 5.94737 10.9273 5.94737 10.9275C5.94737 10.9277 5.94737 10.9279 5.94737 10.9281C5.94737 10.9283 5.94737 10.9284 5.94737 10.9286C5.94737 10.9287 5.94737 10.9289 5.94737 10.929C5.94737 10.9291 5.94737 10.9292 5.94737 10.9293C5.94737 10.9293 5.94737 10.9294 5.94737 10.9295C5.94737 10.9295 5.94737 10.9295 5.94737 10.9295C6.94737 10.9296 7.94737 10.9295 7.94737 10.9295C7.94737 10.9295 7.94737 10.9295 7.94737 10.9294H5.94737C5.94737 10.9295 5.94737 10.9295 5.94737 10.9295C5.94737 10.9295 6.94737 10.9296 7.94737 10.9295C7.94737 10.9295 7.94737 10.9295 7.94737 10.9295C7.94737 10.9294 7.94737 10.9293 7.94737 10.9293C7.94737 10.9292 7.94737 10.9291 7.94737 10.929C7.94737 10.9289 7.94737 10.9287 7.94737 10.9286C7.94737 10.9284 7.94737 10.9283 7.94737 10.9281C7.94737 10.9279 7.94737 10.9277 7.94737 10.9275C7.94737 10.9273 7.94737 10.9271 7.94737 10.9268C7.94737 10.9266 7.94737 10.9263 7.94737 10.9261C7.94737 10.9258 7.94737 10.9255 7.94737 10.9252C7.94737 10.9249 7.94737 10.9246 7.94737 10.9242C7.94737 10.9239 7.94737 10.9235 7.94737 10.9231C7.94737 10.9228 7.94737 10.9224 7.94737 10.922C7.94737 10.9216 7.94737 10.9212 7.94737 10.9207C7.94737 10.9203 7.94737 10.9198 7.94737 10.9194C7.94737 10.9189 7.94737 10.9184 7.94737 10.9179C7.94737 10.9174 7.94737 10.9169 7.94737 10.9164C7.94737 10.9159 7.94737 10.9153 7.94737 10.9147C7.94737 10.9142 7.94737 10.9136 7.94737 10.913C7.94737 10.9124 7.94737 10.9118 7.94737 10.9112C7.94737 10.9106 7.94737 10.9099 7.94737 10.9093C7.94737 10.9086 7.94737 10.908 7.94737 10.9073C7.94737 10.9066 7.94737 10.9059 7.94737 10.9052C7.94737 10.9045 7.94737 10.9037 7.94737 10.903C7.94737 10.9022 7.94737 10.9015 7.94737 10.9007C7.94737 10.8999 7.94737 10.8991 7.94737 10.8983C7.94737 10.8975 7.94737 10.8967 7.94737 10.8959C7.94737 10.895 7.94737 10.8942 7.94737 10.8933C7.94737 10.8924 7.94737 10.8916 7.94737 10.8907C7.94737 10.8898 7.94737 10.8889 7.94737 10.8879C7.94737 10.887 7.94737 10.8861 7.94737 10.8851C7.94737 10.8842 7.94737 10.8832 7.94737 10.8822C7.94737 10.8812 7.94737 10.8802 7.94737 10.8792C7.94737 10.8782 7.94737 10.8772 7.94737 10.8761C7.94737 10.8751 7.94737 10.874 7.94737 10.8729C7.94737 10.8719 7.94737 10.8708 7.94737 10.8697C7.94737 10.8686 7.94737 10.8675 7.94737 10.8663C7.94737 10.8652 7.94737 10.8641 7.94737 10.8629C7.94737 10.8618 7.94737 10.8606 7.94737 10.8594C7.94737 10.8582 7.94737 10.857 7.94737 10.8558C7.94737 10.8546 7.94737 10.8533 7.94737 10.8521C7.94737 10.8509 7.94737 10.8496 7.94737 10.8483C7.94737 10.8471 7.94737 10.8458 7.94737 10.8445C7.94737 10.8432 7.94737 10.8419 7.94737 10.8405C7.94737 10.8392 7.94737 10.8379 7.94737 10.8365C7.94737 10.8352 7.94737 10.8338 7.94737 10.8324C7.94737 10.831 7.94737 10.8296 7.94737 10.8282C7.94737 10.8268 7.94737 10.8254 7.94737 10.824C7.94737 10.8225 7.94737 10.8211 7.94737 10.8196C7.94737 10.8181 7.94737 10.8167 7.94737 10.8152C7.94737 10.8137 7.94737 10.8122 7.94737 10.8107C7.94737 10.8091 7.94737 10.8076 7.94737 10.8061C7.94737 10.8045 7.94737 10.803 7.94737 10.8014C7.94737 10.7998 7.94737 10.7982 7.94737 10.7966C7.94737 10.795 7.94737 10.7934 7.94737 10.7918C7.94737 10.7902 7.94737 10.7886 7.94737 10.7869C7.94737 10.7852 7.94737 10.7836 7.94737 10.7819C7.94737 10.7802 7.94737 10.7785 7.94737 10.7768C7.94737 10.7751 7.94737 10.7734 7.94737 10.7717C7.94737 10.77 7.94737 10.7682 7.94737 10.7665C7.94737 10.7647 7.94737 10.763 7.94737 10.7612C7.94737 10.7594 7.94737 10.7576 7.94737 10.7558C7.94737 10.754 7.94737 10.7522 7.94737 10.7503C7.94737 10.7485 7.94737 10.7467 7.94737 10.7448C7.94737 10.743 7.94737 10.7411 7.94737 10.7392C7.94737 10.7373 7.94737 10.7354 7.94737 10.7335C7.94737 10.7316 7.94737 10.7297 7.94737 10.7278C7.94737 10.7258 7.94737 10.7239 7.94737 10.722C7.94737 10.72 7.94737 10.718 7.94737 10.7161C7.94737 10.7141 7.94737 10.7121 7.94737 10.7101C7.94737 10.7081 7.94737 10.7061 7.94737 10.704C7.94737 10.702 7.94737 10.7 7.94737 10.6979C7.94737 10.6959 7.94737 10.6938 7.94737 10.6917C7.94737 10.6896 7.94737 10.6876 7.94737 10.6855C7.94737 10.6833 7.94737 10.6812 7.94737 10.6791C7.94737 10.677 7.94737 10.6749 7.94737 10.6727C7.94737 10.6706 7.94737 10.6684 7.94737 10.6662C7.94737 10.6641 7.94737 10.6619 7.94737 10.6597C7.94737 10.6575 7.94737 10.6553 7.94737 10.6531C7.94737 10.6508 7.94737 10.6486 7.94737 10.6464C7.94737 10.6441 7.94737 10.6419 7.94737 10.6396C7.94737 10.6374 7.94737 10.6351 7.94737 10.6328C7.94737 10.6305 7.94737 10.6282 7.94737 10.6259C7.94737 10.6236 7.94737 10.6213 7.94737 10.6189C7.94737 10.6166 7.94737 10.6143 7.94737 10.6119C7.94737 10.6096 7.94737 10.6072 7.94737 10.6048C7.94737 10.6024 7.94737 10.6001 7.94737 10.5977C7.94737 10.5953 7.94737 10.5928 7.94737 10.5904C7.94737 10.588 7.94737 10.5856 7.94737 10.5831C7.94737 10.5807 7.94737 10.5782 7.94737 10.5758C7.94737 10.5733 7.94737 10.5708 7.94737 10.5683C7.94737 10.5659 7.94737 10.5634 7.94737 10.5609C7.94737 10.5583 7.94737 10.5558 7.94737 10.5533C7.94737 10.5508 7.94737 10.5482 7.94737 10.5457C7.94737 10.5431 7.94737 10.5406 7.94737 10.538C7.94737 10.5354 7.94737 10.5328 7.94737 10.5303C7.94737 10.5277 7.94737 10.5251 7.94737 10.5224C7.94737 10.5198 7.94737 10.5172 7.94737 10.5146C7.94737 10.5119 7.94737 10.5093 7.94737 10.5066C7.94737 10.504 7.94737 10.5013 7.94737 10.4986C7.94737 10.496 7.94737 10.4933 7.94737 10.4906C7.94737 10.4879 7.94737 10.4852 7.94737 10.4825C7.94737 10.4798 7.94737 10.477 7.94737 10.4743C7.94737 10.4716 7.94737 10.4688 7.94737 10.4661C7.94737 10.4633 7.94737 10.4605 7.94737 10.4578C7.94737 10.455 7.94737 10.4522 7.94737 10.4494C7.94737 10.4466 7.94737 10.4438 7.94737 10.441C7.94737 10.4382 7.94737 10.4354 7.94737 10.4325C7.94737 10.4297 7.94737 10.4268 7.94737 10.424C7.94737 10.4211 7.94737 10.4183 7.94737 10.4154C7.94737 10.4125 7.94737 10.4096 7.94737 10.4068C7.94737 10.4039 7.94737 10.401 7.94737 10.3981C7.94737 10.3951 7.94737 10.3922 7.94737 10.3893C7.94737 10.3864 7.94737 10.3834 7.94737 10.3805C7.94737 10.3775 7.94737 10.3746 7.94737 10.3716C7.94737 10.3686 7.94737 10.3657 7.94737 10.3627C7.94737 10.3597 7.94737 10.3567 7.94737 10.3537C7.94737 10.3507 7.94737 10.3477 7.94737 10.3447C7.94737 10.3416 7.94737 10.3386 7.94737 10.3356C7.94737 10.3325 7.94737 10.3295 7.94737 10.3264C7.94737 10.3234 7.94737 10.3203 7.94737 10.3172C7.94737 10.3142 7.94737 10.3111 7.94737 10.308C7.94737 10.3049 7.94737 10.3018 7.94737 10.2987C7.94737 10.2956 7.94737 10.2924 7.94737 10.2893C7.94737 10.2862 7.94737 10.2831 7.94737 10.2799C7.94737 10.2768 7.94737 10.2736 7.94737 10.2705C7.94737 10.2673 7.94737 10.2641 7.94737 10.2609C7.94737 10.2578 7.94737 10.2546 7.94737 10.2514C7.94737 10.2482 7.94737 10.245 7.94737 10.2418C7.94737 10.2386 7.94737 10.2353 7.94737 10.2321C7.94737 10.2289 7.94737 10.2256 7.94737 10.2224C7.94737 10.2192 7.94737 10.2159 7.94737 10.2126C7.94737 10.2094 7.94737 10.2061 7.94737 10.2028C7.94737 10.1996 7.94737 10.1963 7.94737 10.193C7.94737 10.1897 7.94737 10.1864 7.94737 10.1831C7.94737 10.1798 7.94737 10.1765 7.94737 10.1731C7.94737 10.1698 7.94737 10.1665 7.94737 10.1631C7.94737 10.1598 7.94737 10.1564 7.94737 10.1531C7.94737 10.1497 7.94737 10.1464 7.94737 10.143C7.94737 10.1396 7.94737 10.1362 7.94737 10.1329C7.94737 10.1295 7.94737 10.1261 7.94737 10.1227C7.94737 10.1193 7.94737 10.1159 7.94737 10.1124C7.94737 10.109 7.94737 10.1056 7.94737 10.1022C7.94737 10.0987 7.94737 10.0953 7.94737 10.0919C7.94737 10.0884 7.94737 10.085 7.94737 10.0815C7.94737 10.078 7.94737 10.0746 7.94737 10.0711C7.94737 10.0676 7.94737 10.0641 7.94737 10.0606C7.94737 10.0572 7.94737 10.0537 7.94737 10.0502C7.94737 10.0467 7.94737 10.0431 7.94737 10.0396C7.94737 10.0361 7.94737 10.0326 7.94737 10.0291C7.94737 10.0255 7.94737 10.022 7.94737 10.0184C7.94737 10.0149 7.94737 10.0113 7.94737 10.0078C7.94737 10.0042 7.94737 10.0007 7.94737 9.99708C7.94737 9.99351 7.94737 9.98993 7.94737 9.98634C7.94737 9.98276 7.94737 9.97916 7.94737 9.97556C7.94737 9.97196 7.94737 9.96836 7.94737 9.96475C7.94737 9.96113 7.94737 9.95751 7.94737 9.95389C7.94737 9.95026 7.94737 9.94663 7.94737 9.94299C7.94737 9.93935 7.94737 9.93571 7.94737 9.93206C7.94737 9.92841 7.94737 9.92475 7.94737 9.92109C7.94737 9.91742 7.94737 9.91375 7.94737 9.91008C7.94737 9.9064 7.94737 9.90272 7.94737 9.89903C7.94737 9.89534 7.94737 9.89165 7.94737 9.88795C7.94737 9.88424 7.94737 9.88054 7.94737 9.87682C7.94737 9.87311 7.94737 9.86939 7.94737 9.86567C7.94737 9.86194 7.94737 9.85821 7.94737 9.85448C7.94737 9.85074 7.94737 9.847 7.94737 9.84325C7.94737 9.8395 7.94737 9.83575 7.94737 9.83199C7.94737 9.82823 7.94737 9.82446 7.94737 9.82069C7.94737 9.81692 7.94737 9.81314 7.94737 9.80936C7.94737 9.80557 7.94737 9.80179 7.94737 9.79799C7.94737 9.7942 7.94737 9.7904 7.94737 9.78659C7.94737 9.78279 7.94737 9.77898 7.94737 9.77516C7.94737 9.77135 7.94737 9.76753 7.94737 9.7637C7.94737 9.75987 7.94737 9.75604 7.94737 9.7522C7.94737 9.74837 7.94737 9.74452 7.94737 9.74068C7.94737 9.73683 7.94737 9.73298 7.94737 9.72912C7.94737 9.72526 7.94737 9.7214 7.94737 9.71753C7.94737 9.71366 7.94737 9.70979 7.94737 9.70591C7.94737 9.70203 7.94737 9.69814 7.94737 9.69426C7.94737 9.69037 7.94737 9.68647 7.94737 9.68258C7.94737 9.67868 7.94737 9.67477 7.94737 9.67087C7.94737 9.66696 7.94737 9.66304 7.94737 9.65913C7.94737 9.65521 7.94737 9.65129 7.94737 9.64736C7.94737 9.64343 7.94737 9.6395 7.94737 9.63556C7.94737 9.63163 7.94737 9.62769 7.94737 9.62374C7.94737 9.61979 7.94737 9.61584 7.94737 9.61189C7.94737 9.60793 7.94737 9.60398 7.94737 9.60001C7.94737 9.59605 7.94737 9.59208 7.94737 9.58811C7.94737 9.58413 7.94737 9.58016 7.94737 9.57618C7.94737 9.5722 7.94737 9.56821 7.94737 9.56422C7.94737 9.56023 7.94737 9.55624 7.94737 9.55224C7.94737 9.54824 7.94737 9.54424 7.94737 9.54023C7.94737 9.53622 7.94737 9.53221 7.94737 9.5282C7.94737 9.52418 7.94737 9.52016 7.94737 9.51614C7.94737 9.51212 7.94737 9.50809 7.94737 9.50406C7.94737 9.50003 7.94737 9.496 7.94737 9.49196C7.94737 9.48792 7.94737 9.48388 7.94737 9.47983C7.94737 9.47579 7.94737 9.47174 7.94737 9.46768C7.94737 9.46363 7.94737 9.45957 7.94737 9.45551C7.94737 9.45145 7.94737 9.44739 7.94737 9.44332C7.94737 9.43925 7.94737 9.43518 7.94737 9.4311C7.94737 9.42703 7.94737 9.42295 7.94737 9.41887C7.94737 9.41478 7.94737 9.4107 7.94737 9.40661C7.94737 9.40252 7.94737 9.39843 7.94737 9.39433C7.94737 9.39023 7.94737 9.38614 7.94737 9.38203C7.94737 9.37793 7.94737 9.37383 7.94737 9.36972C7.94737 9.36561 7.94737 9.3615 7.94737 9.35738C7.94737 9.35326 7.94737 9.34915 7.94737 9.34503C7.94737 9.3409 7.94737 9.33678 7.94737 9.33265C7.94737 9.32852 7.94737 9.32439 7.94737 9.32026C7.94737 9.31613 7.94737 9.31199 7.94737 9.30785C7.94737 9.30371 7.94737 9.29957 7.94737 9.29542C7.94737 9.29128 7.94737 9.28713 7.94737 9.28298C7.94737 9.27883 7.94737 9.27468 7.94737 9.27052C7.94737 9.26637 7.94737 9.26221 7.94737 9.25805C7.94737 9.25389 7.94737 9.24972 7.94737 9.24556C7.94737 9.24139 7.94737 9.23722 7.94737 9.23305C7.94737 9.22888 7.94737 9.2247 7.94737 9.22053C7.94737 9.21635 7.94737 9.21217 7.94737 9.20799C7.94737 9.20381 7.94737 9.19963 7.94737 9.19544C7.94737 9.19126 7.94737 9.18707 7.94737 9.18288C7.94737 9.17869 7.94737 9.1745 7.94737 9.1703C7.94737 9.16611 7.94737 9.16191 7.94737 9.15771C7.94737 9.15351 7.94737 9.14931 7.94737 9.14511C7.94737 9.14091 7.94737 9.1367 7.94737 9.1325C7.94737 9.12829 7.94737 9.12408 7.94737 9.11987C7.94737 9.11566 7.94737 9.11145 7.94737 9.10723C7.94737 9.10302 7.94737 9.0988 7.94737 9.09458C7.94737 9.09037 7.94737 9.08615 7.94737 9.08193C7.94737 9.0777 7.94737 9.07348 7.94737 9.06926C7.94737 9.06503 7.94737 9.06081 7.94737 9.05658C7.94737 9.05235 7.94737 9.04812 7.94737 9.04389C7.94737 9.03966 7.94737 9.03543 7.94737 9.03119C7.94737 9.02696 7.94737 9.02273 7.94737 9.01849C7.94737 9.01425 7.94737 9.01001 7.94737 9.00577C7.94737 9.00154 7.94737 8.99729 7.94737 8.99305C7.94737 8.98881 7.94737 8.98457 7.94737 8.98032C7.94737 8.97608 7.94737 8.97184 7.94737 8.96759C7.94737 8.96334 7.94737 8.95909 7.94737 8.95485C7.94737 8.9506 7.94737 8.94635 7.94737 8.9421C7.94737 8.93785 7.94737 8.9336 7.94737 8.92934C7.94737 8.92509 7.94737 8.92084 7.94737 8.91658C7.94737 8.91233 7.94737 8.90807 7.94737 8.90382C7.94737 8.89956 7.94737 8.89531 7.94737 8.89105C7.94737 8.88679 7.94737 8.88253 7.94737 8.87827C7.94737 8.87402 7.94737 8.86976 7.94737 8.8655C7.94737 8.86124 7.94737 8.85698 7.94737 8.85272C7.94737 8.84845 7.94737 8.84419 7.94737 8.83993C7.94737 8.83567 7.94737 8.83141 7.94737 8.82714C7.94737 8.82288 7.94737 8.81862 7.94737 8.81436C7.94737 8.81009 7.94737 8.80583 7.94737 8.80156C7.94737 8.7973 7.94737 8.79304 7.94737 8.78877C7.94737 8.78451 7.94737 8.78024 7.94737 8.77598C7.94737 8.77171 7.94737 8.76745 7.94737 8.76318C7.94737 8.75892 7.94737 8.75465 7.94737 8.75039C7.94737 8.74612 7.94737 8.74186 7.94737 8.73759C7.94737 8.73333 7.94737 8.72906 7.94737 8.7248C7.94737 8.72054 7.94737 8.71627 7.94737 8.71201C7.94737 8.70774 7.94737 8.70348 7.94737 8.69921C7.94737 8.69495 7.94737 8.69069 7.94737 8.68642C7.94737 8.68216 7.94737 8.6779 7.94737 8.67364C7.94737 8.66937 7.94737 8.66511 7.94737 8.66085C7.94737 8.65659 7.94737 8.65233 7.94737 8.64807C7.94737 8.64381 7.94737 8.63955 7.94737 8.63529C7.94737 8.63103 7.94737 8.62677 7.94737 8.62251C7.94737 8.61825 7.94737 8.61399 7.94737 8.60974C7.94737 8.60548 7.94737 8.60123 7.94737 8.59697C7.94737 8.59271 7.94737 8.58846 7.94737 8.58421C7.94737 8.57995 7.94737 8.5757 7.94737 8.57145C7.94737 8.5672 7.94737 8.56295 7.94737 8.5587C7.94737 8.55445 7.94737 8.5502 7.94737 8.54595C7.94737 8.5417 7.94737 8.53746 7.94737 8.53321C7.94737 8.52896 7.94737 8.52472 7.94737 8.52048C7.94737 8.51623 7.94737 8.51199 7.94737 8.50775C7.94737 8.50351 7.94737 8.49927 7.94737 8.49503C7.94737 8.49079 7.94737 8.48656 7.94737 8.48232C7.94737 8.47809 7.94737 8.47385 7.94737 8.46962C7.94737 8.46539 7.94737 8.46116 7.94737 8.45693C7.94737 8.4527 7.94737 8.44847 7.94737 8.44424C7.94737 8.44001 7.94737 8.43579 7.94737 8.43157C7.94737 8.42734 7.94737 8.42312 7.94737 8.4189C7.94737 8.41468 7.94737 8.41046 7.94737 8.40625C7.94737 8.40203 7.94737 8.39782 7.94737 8.3936C7.94737 8.38939 7.94737 8.38518 7.94737 8.38097C7.94737 8.37676 7.94737 8.37255 7.94737 8.36835C7.94737 8.36414 7.94737 8.35994 7.94737 8.35574C7.94737 8.35154 7.94737 8.34734 7.94737 8.34314C7.94737 8.33894 7.94737 8.33475 7.94737 8.33056C7.94737 8.32636 7.94737 8.32217 7.94737 8.31798C7.94737 8.3138 7.94737 8.30961 7.94737 8.30543C7.94737 8.30124 7.94737 8.29706 7.94737 8.29288C7.94737 8.2887 7.94737 8.28453 7.94737 8.28035C7.94737 8.27618 7.94737 8.272 7.94737 8.26784C7.94737 8.26367 7.94737 8.2595 7.94737 8.25533C7.94737 8.25117 7.94737 8.24701 7.94737 8.24285C7.94737 8.23869 7.94737 8.23453 7.94737 8.23038C7.94737 8.22623 7.94737 8.22207 7.94737 8.21793C7.94737 8.21378 7.94737 8.20963 7.94737 8.20549C7.94737 8.20135 7.94737 8.19721 7.94737 8.19307C7.94737 8.18893 7.94737 8.1848 7.94737 8.18067C7.94737 8.17654 7.94737 8.17241 7.94737 8.16828C7.94737 8.16416 7.94737 8.16004 7.94737 8.15592C7.94737 8.1518 7.94737 8.14768 7.94737 8.14357C7.94737 8.13946 7.94737 8.13535 7.94737 8.13124C7.94737 8.12713 7.94737 8.12303 7.94737 8.11893C7.94737 8.11483 7.94737 8.11073 7.94737 8.10664C7.94737 8.10255 7.94737 8.09846 7.94737 8.09437C7.94737 8.09028 7.94737 8.0862 7.94737 8.08212C7.94737 8.07804 7.94737 8.07397 7.94737 8.06989C7.94737 8.06582 7.94737 8.06175 7.94737 8.05769C7.94737 8.05362 7.94737 8.04956 7.94737 8.0455C7.94737 8.04144 7.94737 8.03739 7.94737 8.03334C7.94737 8.02929 7.94737 8.02524 7.94737 8.0212C7.94737 8.01715 7.94737 8.01311 7.94737 8.00908C7.94737 8.00504 7.94737 8.00101 7.94737 7.99698C7.94737 7.99296 7.94737 7.98893 7.94737 7.98491C7.94737 7.98089 7.94737 7.97688 7.94737 7.97287C7.94737 7.96885 7.94737 7.96485 7.94737 7.96084C7.94737 7.95684 7.94737 7.95284 7.94737 7.94884C7.94737 7.94485 7.94737 7.94086 7.94737 7.93687C7.94737 7.93289 7.94737 7.9289 7.94737 7.92493C7.94737 7.92095 7.94737 7.91697 7.94737 7.913C7.94737 7.90904 7.94737 7.90507 7.94737 7.90111C7.94737 7.89715 7.94737 7.89319 7.94737 7.88924C7.94737 7.88529 7.94737 7.88134 7.94737 7.8774C7.94737 7.87346 7.94737 7.86952 7.94737 7.86559C7.94737 7.86166 7.94737 7.85773 7.94737 7.8538C7.94737 7.84988 7.94737 7.84596 7.94737 7.84205C7.94737 7.83813 7.94737 7.83422 7.94737 7.83032C7.94737 7.82642 7.94737 7.82252 7.94737 7.81862C7.94737 7.81473 7.94737 7.81084 7.94737 7.80695C7.94737 7.80307 7.94737 7.79919 7.94737 7.79531C7.94737 7.79144 7.94737 7.78757 7.94737 7.7837C7.94737 7.77984 7.94737 7.77598 7.94737 7.77213C7.94737 7.76827 7.94737 7.76442 7.94737 7.76058C7.94737 7.75673 7.94737 7.7529 7.94737 7.74906C7.94737 7.74523 7.94737 7.7414 7.94737 7.73758C7.94737 7.73376 7.94737 7.72994 7.94737 7.72613C7.94737 7.72232 7.94737 7.71851 7.94737 7.71471C7.94737 7.71091 7.94737 7.70711 7.94737 7.70332C7.94737 7.69953 7.94737 7.69575 7.94737 7.69197C7.94737 7.68819 7.94737 7.68442 7.94737 7.68065C7.94737 7.67689 7.94737 7.67312 7.94737 7.66937C7.94737 7.66561 7.94737 7.66186 7.94737 7.65812C7.94737 7.65438 7.94737 7.65064 7.94737 7.64691C7.94737 7.64317 7.94737 7.63945 7.94737 7.63573C7.94737 7.63201 7.94737 7.62829 7.94737 7.62458C7.94737 7.62088 7.94737 7.61717 7.94737 7.61348C7.94737 7.60978 7.94737 7.60609 7.94737 7.60241C7.94737 7.59872 7.94737 7.59505 7.94737 7.59137C7.94737 7.5877 7.94737 7.58404 7.94737 7.58038C7.94737 7.57672 7.94737 7.57307 7.94737 7.56942C7.94737 7.56577 7.94737 7.56213 7.94737 7.5585C7.94737 7.55487 7.94737 7.55124 7.94737 7.54762C7.94737 7.544 7.94737 7.54038 7.94737 7.53678C7.94737 7.53317 7.94737 7.52957 7.94737 7.52597C7.94737 7.52238 7.94737 7.51879 7.94737 7.51521C7.94737 7.51163 7.94737 7.50806 7.94737 7.50449C7.94737 7.50092 7.94737 7.49736 7.94737 7.49381C7.94737 7.49025 7.94737 7.4867 7.94737 7.48316C7.94737 7.47962 7.94737 7.47609 7.94737 7.47256C7.94737 7.46904 7.94737 7.46552 7.94737 7.46201C7.94737 7.45849 7.94737 7.45499 7.94737 7.45149C7.94737 7.44799 7.94737 7.4445 7.94737 7.44102C7.94737 7.43753 7.94737 7.43406 7.94737 7.43059C7.94737 7.42712 7.94737 7.42365 7.94737 7.4202C7.94737 7.41674 7.94737 7.41329 7.94737 7.40985C7.94737 7.40641 7.94737 7.40298 7.94737 7.39955C7.94737 7.39613 7.94737 7.39271 7.94737 7.3893C7.94737 7.38589 7.94737 7.38248 7.94737 7.37909C7.94737 7.37569 7.94737 7.3723 7.94737 7.36892C7.94737 7.36554 7.94737 7.36217 7.94737 7.3588C7.94737 7.35544 7.94737 7.35208 7.94737 7.34873C7.94737 7.34538 7.94737 7.34204 7.94737 7.3387C7.94737 7.33537 7.94737 7.33204 7.94737 7.32872C7.94737 7.3254 7.94737 7.32209 7.94737 7.31879C7.94737 7.31549 7.94737 7.31219 7.94737 7.30891C7.94737 7.30562 7.94737 7.30234 7.94737 7.29907C7.94737 7.2958 7.94737 7.29253 7.94737 7.28928C7.94737 7.28602 7.94737 7.28278 7.94737 7.27954C7.94737 7.2763 7.94737 7.27307 7.94737 7.26985C7.94737 7.26663 7.94737 7.26341 7.94737 7.26021C7.94737 7.257 7.94737 7.2538 7.94737 7.25062C7.94737 7.24743 7.94737 7.24425 7.94737 7.24108C7.94737 7.2379 7.94737 7.23474 7.94737 7.23159C7.94737 7.22843 7.94737 7.22528 7.94737 7.22215C7.94737 7.21901 7.94737 7.21588 7.94737 7.21276C7.94737 7.20964 7.94737 7.20653 7.94737 7.20342C7.94737 7.20032 7.94737 7.19723 7.94737 7.19414C7.94737 7.19105 7.94737 7.18798 7.94737 7.18491C7.94737 7.18184 7.94737 7.17878 7.94737 7.17573C7.94737 7.17268 7.94737 7.16964 7.94737 7.16661C7.94737 7.16358 7.94737 7.16055 7.94737 7.15754C7.94737 7.15452 7.94737 7.15152 7.94737 7.14852C7.94737 7.14553 7.94737 7.14254 7.94737 7.13956C7.94737 7.13658 7.94737 7.13362 7.94737 7.13066C7.94737 7.1277 7.94737 7.12475 7.94737 7.12181C7.94737 7.11886 7.94737 7.11593 7.94737 7.11301C7.94737 7.11009 7.94737 7.10718 7.94737 7.10427C7.94737 7.10137 7.94737 7.09848 7.94737 7.09559C7.94737 7.09271 7.94737 7.08983 7.94737 7.08697C7.94737 7.0841 7.94737 7.08125 7.94737 7.0784C7.94737 7.07555 7.94737 7.07272 7.94737 7.06989C7.94737 7.06706 7.94737 7.06425 7.94737 7.06144C7.94737 7.05863 7.94737 7.05584 7.94737 7.05305C7.94737 7.05026 7.94737 7.04748 7.94737 7.04471C7.94737 7.04195 7.94737 7.03919 7.94737 7.03644C7.94737 7.03369 7.94737 7.03095 7.94737 7.02823C7.94737 7.0255 7.94737 7.02278 7.94737 7.02007C7.94737 7.01736 7.94737 7.01467 7.94737 7.01198C7.94737 7.00929 7.94737 7.00661 7.94737 7.00395C7.94737 7.00128 7.94737 6.99862 7.94737 6.99598C7.94737 6.99333 7.94737 6.99069 7.94737 6.98807C7.94737 6.98544 7.94737 6.98282 7.94737 6.98022C7.94737 6.97761 7.94737 6.97502 7.94737 6.97243C7.94737 6.96985 7.94737 6.96728 7.94737 6.96471C7.94737 6.96215 7.94737 6.9596 7.94737 6.95706C7.94737 6.95451 7.94737 6.95198 7.94737 6.94946C7.94737 6.94694 7.94737 6.94443 7.94737 6.94193C7.94737 6.93943 7.94737 6.93694 7.94737 6.93446C7.94737 6.93199 7.94737 6.92952 7.94737 6.92706C7.94737 6.92461 7.94737 6.92216 7.94737 6.91973C7.94737 6.91729 7.94737 6.91487 7.94737 6.91246C7.94737 6.91005 7.94737 6.90764 7.94737 6.90525C7.94737 6.90286 7.94737 6.90048 7.94737 6.89812C7.94737 6.89575 7.94737 6.89339 7.94737 6.89105C7.94737 6.8887 7.94737 6.88637 7.94737 6.88404C7.94737 6.88172 7.94737 6.87941 7.94737 6.87711C7.94737 6.87481 7.94737 6.87252 7.94737 6.87024C7.94737 6.86796 7.94737 6.8657 7.94737 6.86344C7.94737 6.86119 7.94737 6.85894 7.94737 6.85671C7.94737 6.85448 7.94737 6.85226 7.94737 6.85005C7.94737 6.84784 7.94737 6.84564 7.94737 6.84346C7.94737 6.84127 7.94737 6.8391 7.94737 6.83694C7.94737 6.83478 7.94737 6.83262 7.94737 6.83049C7.94737 6.82835 7.94737 6.82622 7.94737 6.82411C7.94737 6.82199 7.94737 6.81989 7.94737 6.8178C7.94737 6.81571 7.94737 6.81363 7.94737 6.81156C7.94737 6.80949 7.94737 6.80744 7.94737 6.80539C7.94737 6.80335 7.94737 6.80132 7.94737 6.7993C7.94737 6.79728 7.94737 6.79528 7.94737 6.79328C7.94737 6.79129 7.94737 6.7893 7.94737 6.78733C7.94737 6.78536 7.94737 6.78341 7.94737 6.78146C7.94737 6.77952 7.94737 6.77758 7.94737 6.77566C7.94737 6.77374 7.94737 6.77183 7.94737 6.76994C7.94737 6.76804 7.94737 6.76616 7.94737 6.76429C7.94737 6.76241 7.94737 6.76056 7.94737 6.75871C7.94737 6.75686 7.94737 6.75503 7.94737 6.75321C7.94737 6.75139 7.94737 6.74958 7.94737 6.74779C7.94737 6.74599 7.94737 6.74421 7.94737 6.74244C7.94737 6.74067 7.94737 6.73891 7.94737 6.73717C7.94737 6.73542 7.94737 6.73369 7.94737 6.73197C7.94737 6.73026 7.94737 6.72855 7.94737 6.72686C7.94737 6.72517 7.94737 6.72349 7.94737 6.72182C7.94737 6.72015 7.94737 6.7185 7.94737 6.71686C7.94737 6.71522 7.94737 6.71359 7.94737 6.71198C7.94737 6.71036 7.94737 6.70876 7.94737 6.70718C7.94737 6.70559 7.94737 6.70401 7.94737 6.70245C7.94737 6.70089 7.94737 6.69934 7.94737 6.69781C7.94737 6.69628 7.94737 6.69475 7.94737 6.69325C7.94737 6.69174 7.94737 6.69025 7.94737 6.68876C7.94737 6.68728 7.94737 6.68582 7.94737 6.68436C7.94737 6.68291 7.94737 6.68147 7.94737 6.68004C7.94737 6.67862 7.94737 6.6772 7.94737 6.67581C7.94737 6.67441 7.94737 6.67302 7.94737 6.67165C7.94737 6.67028 7.94737 6.66892 7.94737 6.66758C7.94737 6.66623 7.94737 6.6649 7.94737 6.66359C7.94737 6.66227 7.94737 6.66097 7.94737 6.65968C7.94737 6.65839 7.94737 6.65712 7.94737 6.65586C7.94737 6.6546 7.94737 6.65335 7.94737 6.65212C7.94737 6.65089 7.94737 6.64967 7.94737 6.64846C7.94737 6.64726 7.94737 6.64607 7.94737 6.64489C7.94737 6.64372 7.94737 6.64256 7.94737 6.64141C7.94737 6.64026 7.94737 6.63913 7.94737 6.63801C7.94737 6.63689 7.94737 6.63579 7.94737 6.6347C7.94737 6.63361 7.94737 6.63253 7.94737 6.63147C7.94737 6.63041 7.94737 6.62937 7.94737 6.62833C7.94737 6.6273 7.94737 6.62629 7.94737 6.62528C7.94737 6.62428 7.94737 6.62329 7.94737 6.62232C7.94737 6.62135 7.94737 6.62039 7.94737 6.61944C7.94737 6.6185 7.94737 6.61757 7.94737 6.61666C7.94737 6.61574 7.94737 6.61484 7.94737 6.61396C7.94737 6.61307 7.94737 6.6122 7.94737 6.61135C7.94737 6.61049 7.94737 6.60966 7.94737 6.60883C7.94737 6.60801 7.94737 6.6072 7.94737 6.6064C7.94737 6.60561 7.94737 6.60483 7.94737 6.60406C7.94737 6.6033 7.94737 6.60255 7.94737 6.60181C7.94737 6.60108 7.94737 6.60036 7.94737 6.59966C7.94737 6.59895 7.94737 6.59827 7.94737 6.59759C7.94737 6.59692 7.94737 6.59626 7.94737 6.59562C7.94737 6.59498 7.94737 6.59435 7.94737 6.59374C7.94737 6.59313 7.94737 6.59253 7.94737 6.59195C7.94737 6.59137 7.94737 6.59081 7.94737 6.59026C7.94737 6.58971 7.94737 6.58917 7.94737 6.58865C7.94737 6.58814 7.94737 6.58763 7.94737 6.58715C7.94737 6.58666 7.94737 6.58619 7.94737 6.58574C7.94737 6.58528 7.94737 6.58484 7.94737 6.58442C7.94737 6.58399 7.94737 6.58359 7.94737 6.58319C7.94737 6.5828 7.94737 6.58243 7.94737 6.58207C7.94737 6.58171 7.94737 6.58136 7.94737 6.58104C7.94737 6.58071 7.94737 6.5804 7.94737 6.5801C7.94737 6.57981 7.94737 6.57953 7.94737 6.57926C7.94737 6.579 7.94737 6.57875 7.94737 6.57852C7.94737 6.57829 7.94737 6.57808 7.94737 6.57788C7.94737 6.57768 7.94737 6.5775 7.94737 6.57733C7.94737 6.57717 7.94737 6.57702 7.94737 6.57689C7.94737 6.57675 7.94737 6.57664 7.94737 6.57654C7.94737 6.57644 7.94737 6.57635 7.94737 6.57629C7.94737 6.57622 7.94737 6.57617 7.94737 6.57614C7.94737 6.5761 7.94737 6.57609 6.94737 6.57609ZM5.94737 10.9294C5.94737 11.7509 6.20689 12.5277 6.49369 13.1455C6.78445 13.7717 7.1337 14.2989 7.38008 14.6374L8.99714 13.4605C8.79742 13.1861 8.52604 12.7735 8.30771 12.3032C8.08542 11.8245 7.94737 11.3481 7.94737 10.9294H5.94737ZM7.56243 13.8093L4.41226 15.6636L5.42683 17.3872L8.57699 15.5329L7.56243 13.8093ZM5.8645 21C7.17935 21 9.20665 21 12 21V19C9.20664 19 7.17934 19 5.86448 19L5.8645 21ZM3 18.1337C3 19.7155 4.28022 21 5.8645 21L5.86448 19C5.38731 19 5 18.6134 5 18.1337H3ZM4.41226 15.6636C3.53722 16.1787 3 17.1183 3 18.1337H5C5 17.8269 5.16236 17.5429 5.42683 17.3872L4.41226 15.6636ZM7.38008 14.6374C7.20518 14.3971 7.23194 14.0038 7.56243 13.8093L8.57699 15.5329C9.33806 15.0849 9.46606 14.1048 8.99714 13.4605L7.38008 14.6374Z" fill="#2F3032"/>
  <rect x="14" y="17" width="6" height="2" rx="1" fill="#2F3032"/>
  <rect x="16" y="21" width="6" height="2" rx="1" transform="rotate(-90 16 21)" fill="#2F3032"/>
</svg>
