<svg width="24" height="24" viewBox="0 0 24 24" fill="none"
     xmlns="http://www.w3.org/2000/svg">
  <path fill-rule="evenodd" clip-rule="evenodd"
        d="M13.9999 4.86943V8.36934L13.1644 8.50868C8.49552 9.28733 6.19854 11.9061 5.06073 14.346C4.58787 15.36 4.31397 16.3492 4.16429 17.1693C4.56132 16.8755 5.04156 16.5547 5.62186 16.2264L5.85987 16.0922L5.86671 16.0885C7.58116 15.1569 10.2582 14.3647 12.876 14.0399L13.9989 13.9006L13.9997 18.0209L19.9624 11.4993L13.9999 4.86943ZM2.68707 18.4113C2.68716 18.4111 2.69067 18.4084 2.69733 18.404C2.69031 18.4094 2.68698 18.4116 2.68707 18.4113ZM11.9999 3.37169C11.9999 2.60944 12.6063 1.93579 13.4219 1.93579C13.8222 1.93579 14.1975 2.10554 14.4627 2.3932L14.4711 2.40233L21.5072 10.2262C22.1653 10.9454 22.1642 12.0594 21.5038 12.7773C21.5033 12.7779 21.5028 12.7784 21.5023 12.779L14.4656 20.4753L14.4627 20.4784C13.9201 21.0669 13.0023 21.0917 12.4296 20.5284C12.1513 20.2547 12 19.8823 11.9999 19.5001C11.9999 19.5 11.9999 19.5001 11.9999 19.5001L11.9993 16.1941C9.96187 16.5549 8.04538 17.1824 6.82822 17.8423L6.60653 17.9672C6.60635 17.9673 6.60671 17.9671 6.60653 17.9672C5.58488 18.5452 4.93406 19.088 4.50933 19.4676C4.45635 19.5149 4.39979 19.5664 4.34241 19.6186C4.1997 19.7486 4.05188 19.8831 3.94129 19.9702C3.86735 20.0284 3.70653 20.1519 3.49699 20.2246C3.38008 20.2652 3.20113 20.307 2.98667 20.2798C2.75513 20.2503 2.55064 20.1488 2.3924 20.0037L2.37047 19.9836L2.34978 19.9622C2.22752 19.8359 2.16626 19.7073 2.14105 19.65C2.11057 19.5808 2.09154 19.5187 2.07976 19.4752C2.05613 19.3879 2.04251 19.3033 2.03383 19.2356C2.01594 19.0959 2.00746 18.9335 2.00607 18.7612C2.00324 18.4116 2.0292 17.9531 2.10012 17.4214C2.24196 16.3581 2.56996 14.955 3.24813 13.5007C4.54858 10.712 7.12962 7.76746 11.9999 6.69703V3.37169Z"
        fill="#2F3032"/>
</svg>
