<svg width="24" height="24" viewBox="0 0 24 24" fill="none" xmlns="http://www.w3.org/2000/svg">
  <path fill-rule="evenodd" clip-rule="evenodd" d="M6.13974 8.55615L7.10464 8.51885L4.70714 6.12132C4.31661 5.73079 4.31661 5.09763 4.70714 4.70711C5.09766 4.31658 5.73083 4.31658 6.12135 4.70711L20.9706 19.5563C21.3611 19.9469 21.3611 20.58 20.9706 20.9706C20.5801 21.3611 19.9469 21.3611 19.5564 20.9706L16.4635 17.8777L16.4293 18.8446C16.3632 20.7114 14.1026 21.6038 12.7806 20.2809L10.265 17.7637L5.84035 20.7931C4.76365 21.5302 3.47516 20.2297 4.20658 19.16L7.23466 14.7314L4.71028 12.2054C3.39256 10.8868 4.27485 8.62826 6.13974 8.55615ZM14.5307 15.9449L9.03163 10.4458L6.21701 10.5547C6.17414 10.5563 6.15353 10.568 6.14101 10.5773C6.1244 10.5898 6.10603 10.6115 6.09388 10.6425C6.08174 10.6735 6.08044 10.7021 6.08424 10.7227C6.08712 10.7383 6.09446 10.7611 6.12495 10.7917L9.23562 13.9043C9.57561 14.2446 9.62524 14.7786 9.35376 15.1757L8.34058 16.6574L9.82035 15.6443C10.2176 15.3723 10.7523 15.422 11.0926 15.7626L14.1952 18.8672C14.2258 18.8978 14.2485 18.9049 14.2637 18.9077C14.2839 18.9115 14.3122 18.9102 14.3429 18.898C14.3737 18.8859 14.3954 18.8675 14.4078 18.8508C14.4172 18.8382 14.429 18.8173 14.4305 18.7738L14.5307 15.9449Z" fill="#2F3032"/>
  <path d="M15.9621 11.328L15.7644 11.5218L17.1787 12.936L17.3302 12.7875L19.9254 12.5514C20.4489 12.5038 20.9398 12.2768 21.3152 11.9089C22.2216 11.0206 22.2292 9.56312 21.3321 8.66544L16.341 3.67111C15.4534 2.78288 14.0162 2.77539 13.1194 3.65434C12.7309 4.03506 12.4906 4.5416 12.4414 5.08322L12.2082 7.65074L12.0492 7.80654L13.4635 9.22082L13.6406 9.04723C13.9588 8.73541 14.1555 8.32056 14.1958 7.877L14.4332 5.26418C14.4395 5.19528 14.47 5.13098 14.5192 5.08274C14.6326 4.9716 14.8141 4.97254 14.9263 5.08487L19.9174 10.0792C20.0283 10.1902 20.0274 10.3707 19.9153 10.4805C19.869 10.5259 19.8086 10.5538 19.7442 10.5597L17.1047 10.7998C16.6743 10.8389 16.2707 11.0256 15.9621 11.328Z" fill="#2F3032"/>
</svg>
