<svg width="24" height="24" viewBox="0 0 24 24" fill="none" xmlns="http://www.w3.org/2000/svg">
  <path fill-rule="evenodd" clip-rule="evenodd" d="M11 4C11 3.44772 11.4477 3 12 3C12.5523 3 13 3.44772 13 4V12.0355L16.2426 8.79284C16.6332 8.40232 17.2663 8.40232 17.6569 8.79284C18.0474 9.18336 18.0474 9.81653 17.6569 10.2071L12.7071 15.1568C12.3166 15.5473 11.6834 15.5473 11.2929 15.1568L6.34315 10.2071C5.95262 9.81653 5.95262 9.18336 6.34315 8.79284C6.73367 8.40232 7.36684 8.40232 7.75736 8.79284L11 12.0355V4ZM5 15C5 14.4477 4.55228 14 4 14C3.44772 14 3 14.4477 3 15V17C3 19.2091 4.79086 21 7 21H17C19.2091 21 21 19.2091 21 17V15C21 14.4477 20.5523 14 20 14C19.4477 14 19 14.4477 19 15V17C19 18.1046 18.1046 19 17 19H7C5.89543 19 5 18.1046 5 17V15Z" fill="#2F3032"/>
</svg>
