<svg width="24" height="24" viewBox="0 0 24 24" fill="none" xmlns="http://www.w3.org/2000/svg">
  <path fill-rule="evenodd" clip-rule="evenodd" d="M8 3C5.23858 3 3 5.23858 3 8V16C3 18.7614 5.23858 21 8 21H16C18.7614 21 21 18.7614 21 16V8C21 5.23858 18.7614 3 16 3H8ZM5 8C5 6.34315 6.34315 5 8 5H16C17.6569 5 19 6.34315 19 8V16C19 17.6569 17.6569 19 16 19H8C6.34315 19 5 17.6569 5 16V8ZM10.4 9.8001C10.4 10.4628 9.86274 11.0001 9.2 11.0001C8.53726 11.0001 8 10.4628 8 9.8001C8 9.13736 8.53726 8.6001 9.2 8.6001C9.86274 8.6001 10.4 9.13736 10.4 9.8001ZM8.70757 12.8993C8.43103 12.4213 7.8193 12.2579 7.34124 12.5345C6.86318 12.811 6.69981 13.4227 6.97636 13.9008C7.9777 15.6318 9.85173 16.8001 11.9998 16.8001C14.1479 16.8001 16.0219 15.6318 17.0233 13.9008C17.1113 13.7486 17.1577 13.5759 17.1577 13.4001C17.1577 12.8478 16.7099 12.4001 16.1577 12.4001C15.7818 12.4001 15.4544 12.6074 15.2835 12.914C14.6229 14.0443 13.399 14.8001 11.9998 14.8001C10.5945 14.8001 9.36612 14.0378 8.70757 12.8993ZM14.8001 11.0001C15.4628 11.0001 16.0001 10.4628 16.0001 9.8001C16.0001 9.13736 15.4628 8.6001 14.8001 8.6001C14.1374 8.6001 13.6001 9.13736 13.6001 9.8001C13.6001 10.4628 14.1374 11.0001 14.8001 11.0001Z" fill="#2F3032"/>
</svg>
