<svg width="24" height="24" viewBox="0 0 24 24" fill="none"
     xmlns="http://www.w3.org/2000/svg">
  <path fill-rule="evenodd" clip-rule="evenodd"
        d="M8.00023 4.06761C8.00023 3.64369 7.5058 3.41211 7.18013 3.6835L2.46116 7.61598C2.22128 7.81587 2.22128 8.1843 2.46116 8.3842L7.18013 12.3167C7.5058 12.5881 8.00023 12.3565 8.00023 11.9326V9.00009H13.5002C15.9855 9.00009 18.0002 11.0148 18.0002 13.5001C18.0002 15.9854 15.9855 18.0001 13.5002 18.0001H7.64728C7.095 18.0001 6.64728 18.4478 6.64728 19.0001C6.64728 19.5524 7.095 20.0001 7.64728 20.0001H13.5002C17.0901 20.0001 20.0002 17.0899 20.0002 13.5001C20.0002 9.91023 17.0901 7.00009 13.5002 7.00009H8.00023V4.06761Z"
        fill="#2F3032"/>
</svg>
