<svg width="24" height="24" viewBox="0 0 24 24" fill="none"
     xmlns="http://www.w3.org/2000/svg">
  <path
    d="M14 5.14357C14.3337 5.05057 14.6741 4.99923 15.0023 5.00001C16.5942 5.00381 18.4747 6.21689 18.4747 7.47267C18.4747 9.33563 18.4747 11.1004 18.4747 11.1004C18.4747 12.1766 18.1267 13.0701 17.4306 13.7809C17.4166 13.7953 17.4043 13.8111 17.3938 13.828C17.316 13.9546 17.359 14.1183 17.4898 14.1936L20.3268 15.8272C20.7442 16.0676 21 16.503 21 16.9731V17.4371C21 18.1121 20.4347 18.6593 19.7373 18.6593H17.9581"
    stroke="#2F3032" stroke-width="2" stroke-linecap="round"/>
  <path fill-rule="evenodd" clip-rule="evenodd"
        d="M11.3856 14.2485C11.1904 14.1336 11.158 13.8551 11.3014 13.6797C11.6758 13.2215 12.2548 12.3164 12.2548 11.1004V7.47267C12.2548 6.21689 10.4171 5.00381 8.86138 5.00001C7.30565 4.99621 5.46795 6.21894 5.46795 7.47267C5.46795 7.47267 5.46795 11.1236 5.46795 11.1004C5.46795 12.1332 6.13295 13.188 6.50662 13.6991C6.62984 13.8677 6.58754 14.1132 6.40739 14.2187L3.76842 15.7647C3.29246 16.0435 3 16.5538 3 17.1054V17.1054C3 17.9636 3.69569 18.6593 4.55387 18.6593H13.1672C14.0263 18.6593 14.7228 17.9629 14.7228 17.1038V17.1038C14.7228 16.553 14.4315 16.0432 13.9569 15.7636L11.3856 14.2485Z"
        stroke="#2F3032" stroke-width="2"/>
</svg>
