<svg width="24" height="24" viewBox="0 0 24 24" fill="none" xmlns="http://www.w3.org/2000/svg">
  <path fill-rule="evenodd" clip-rule="evenodd" d="M16.8573 14.3254C16.8573 14.0493 17.0812 13.8254 17.3573 13.8254H18.4737C18.7498 13.8254 18.9737 14.0493 18.9737 14.3254V14.5746C19.1562 14.6544 19.328 14.7542 19.4863 14.8712L19.7027 14.7463C19.9418 14.6082 20.2476 14.6902 20.3857 14.9293L20.9438 15.8961C21.0819 16.1352 21 16.441 20.7608 16.5791L20.5445 16.704C20.5554 16.8011 20.5609 16.8999 20.5609 16.9999C20.5609 17.1 20.5554 17.1988 20.5445 17.296L20.7607 17.4208C20.9998 17.5589 21.0818 17.8647 20.9437 18.1038L20.3855 19.0706C20.2475 19.3097 19.9417 19.3917 19.7025 19.2536L19.4863 19.1287C19.328 19.2457 19.1562 19.3455 18.9737 19.4252V19.6744C18.9737 19.9506 18.7498 20.1744 18.4737 20.1744H17.3573C17.0812 20.1744 16.8573 19.9506 16.8573 19.6744V19.4252C16.6748 19.3455 16.503 19.2457 16.3447 19.1287L16.1285 19.2536C15.8893 19.3917 15.5835 19.3097 15.4455 19.0706L14.8873 18.1038C14.7492 17.8647 14.8311 17.5589 15.0703 17.4208L15.2865 17.296C15.2756 17.1988 15.2701 17.1 15.2701 16.9999C15.2701 16.8999 15.2756 16.8011 15.2864 16.704L15.0702 16.5791C14.831 16.441 14.7491 16.1352 14.8871 15.8961L15.4453 14.9293C15.5834 14.6902 15.8892 14.6082 16.1283 14.7463L16.3446 14.8712C16.5029 14.7542 16.6748 14.6544 16.8573 14.5746V14.3254ZM17.9151 15.9418C17.3307 15.9418 16.857 16.4155 16.857 16.9999C16.857 17.5843 17.3307 18.0581 17.9151 18.0581C18.4995 18.0581 18.9733 17.5843 18.9733 16.9999C18.9733 16.4155 18.4995 15.9418 17.9151 15.9418Z" fill="#2F3032"/>
  <path fill-rule="evenodd" clip-rule="evenodd" d="M10.5546 5.66097C11.0932 5.53876 11.4308 5.00307 11.3085 4.46448C11.1863 3.92589 10.6506 3.58834 10.112 3.71056C6.32658 4.56952 3.5 7.95343 3.5 11.9999C3.5 12.7432 3.59565 13.4657 3.77585 14.155C3.91553 14.6894 4.46192 15.0093 4.99625 14.8696C5.53058 14.7299 5.85051 14.1835 5.71083 13.6492C5.57343 13.1236 5.5 12.5711 5.5 11.9999C5.5 8.90778 7.66012 6.31777 10.5546 5.66097ZM13.888 3.71056C13.3494 3.58834 12.8137 3.92589 12.6915 4.46448C12.5692 5.00307 12.9068 5.53876 13.4454 5.66097C16.3399 6.31777 18.5 8.90778 18.5 11.9999C18.5 12.0082 18.5 12.0164 18.5 12.0247C19.2131 12.0954 19.8821 12.3161 20.4751 12.6546C20.4916 12.4384 20.5 12.2201 20.5 11.9999C20.5 7.95343 17.6734 4.56952 13.888 3.71056ZM13.1958 18.3902C13.3924 19.0708 13.7297 19.6916 14.1741 20.2192C13.4801 20.4023 12.7514 20.4999 12 20.4999C9.39717 20.4999 7.06687 19.3288 5.50923 17.4883C5.15245 17.0668 5.20496 16.4358 5.62654 16.079C6.04811 15.7222 6.67909 15.7747 7.03588 16.1963C8.22975 17.6069 10.0101 18.4999 12 18.4999C12.4085 18.4999 12.8082 18.4623 13.1958 18.3902Z" fill="#2F3032"/>
</svg>
