<svg width="24" height="24" viewBox="0 0 24 24" fill="none" xmlns="http://www.w3.org/2000/svg">
  <path fill-rule="evenodd" clip-rule="evenodd" d="M10.0001 4.86943V8.36934L10.8356 8.50868C15.5045 9.28733 17.8015 11.9061 18.9393 14.346C19.4121 15.36 19.686 16.3492 19.8357 17.1693C19.4387 16.8755 18.9584 16.5547 18.3781 16.2264L18.1401 16.0922L18.1333 16.0885C16.4188 15.1569 13.7418 14.3647 11.124 14.0399L10.0011 13.9006L10.0003 18.0209L4.03762 11.4993L10.0001 4.86943ZM21.3129 18.4113C21.3128 18.4111 21.3093 18.4084 21.3027 18.404C21.3097 18.4094 21.313 18.4116 21.3129 18.4113ZM12.0001 3.37169C12.0001 2.60944 11.3937 1.93579 10.5781 1.93579C10.1778 1.93579 9.80251 2.10554 9.53728 2.3932L9.52886 2.40233L2.49275 10.2262C1.8347 10.9454 1.83583 12.0594 2.49616 12.7773C2.49668 12.7779 2.49719 12.7784 2.49771 12.779L9.53444 20.4753L9.53728 20.4784C10.0799 21.0669 10.9977 21.0917 11.5704 20.5284C11.8487 20.2547 12 19.8823 12.0001 19.5001C12.0001 19.5 12.0001 19.5001 12.0001 19.5001L12.0007 16.1941C14.0381 16.5549 15.9546 17.1824 17.1718 17.8423L17.3935 17.9672C17.3936 17.9673 17.3933 17.9671 17.3935 17.9672C18.4151 18.5452 19.0659 19.088 19.4907 19.4676C19.5437 19.5149 19.6002 19.5664 19.6576 19.6186C19.8003 19.7486 19.9481 19.8831 20.0587 19.9702C20.1326 20.0284 20.2935 20.1519 20.503 20.2246C20.6199 20.2652 20.7989 20.307 21.0133 20.2798C21.2449 20.2503 21.4494 20.1488 21.6076 20.0037L21.6295 19.9836L21.6502 19.9622C21.7725 19.8359 21.8337 19.7073 21.8589 19.65C21.8894 19.5808 21.9085 19.5187 21.9202 19.4752C21.9439 19.3879 21.9575 19.3033 21.9662 19.2356C21.9841 19.0959 21.9925 18.9335 21.9939 18.7612C21.9968 18.4116 21.9708 17.9531 21.8999 17.4214C21.758 16.3581 21.43 14.955 20.7519 13.5007C19.4514 10.712 16.8704 7.76746 12.0001 6.69703V3.37169Z" fill="#2F3032"/>
</svg>
