<svg width="24" height="24" viewBox="0 0 24 24" fill="none" xmlns="http://www.w3.org/2000/svg">
  <path fill-rule="evenodd" clip-rule="evenodd" d="M14 4.17427C14 2.46557 11.9958 1.54375 10.6984 2.65576L5.63008 7.00005H4C2.34315 7.00005 1 8.3432 1 10.0001V14.0001C1 15.6569 2.34315 17.0001 4 17.0001H5.63008L10.6984 21.3443C11.9958 22.4564 14 21.5345 14 19.8258V4.17427ZM6.36992 9.00005L12 4.17427V19.8258L6.36992 15.0001H4C3.44772 15.0001 3 14.5523 3 14.0001V10.0001C3 9.44777 3.44772 9.00005 4 9.00005H6.36992Z" fill="#2F3032"/>
  <path d="M20.3641 5.29289C19.9736 4.90237 19.3404 4.90237 18.9499 5.29289C18.5594 5.68342 18.5594 6.31658 18.9499 6.70711C21.6835 9.44078 21.6835 13.8729 18.9499 16.6066C18.5594 16.9971 18.5594 17.6303 18.9499 18.0208C19.3404 18.4113 19.9736 18.4113 20.3641 18.0208C23.8788 14.5061 23.8788 8.80761 20.3641 5.29289Z" fill="#2F3032"/>
  <path d="M17.2428 7.41423C16.8522 7.02371 16.2191 7.02371 15.8285 7.41423C15.438 7.80476 15.438 8.43792 15.8285 8.82844C17.3906 10.3905 17.3906 12.9232 15.8285 14.4853C15.438 14.8758 15.438 15.509 15.8285 15.8995C16.2191 16.29 16.8522 16.29 17.2428 15.8995C19.5859 13.5564 19.5859 9.75738 17.2428 7.41423Z" fill="#2F3032"/>
</svg>
