<svg width="24" height="24" viewBox="0 0 24 24" fill="none" xmlns="http://www.w3.org/2000/svg">
  <path d="M14.1214 5.63603L12.5429 7.21444C11.7148 6.95376 10.8447 6.86283 9.98731 6.94165L12.7071 4.22181C14.6598 2.26919 17.8256 2.26919 19.7782 4.22181C21.7308 6.17443 21.7308 9.34026 19.7782 11.2929L16.9498 14.1213C16.447 14.6241 15.8637 14.9975 15.2414 15.2413C15.184 15.2638 15.1263 15.2852 15.0683 15.3055C14.3082 15.5713 13.4967 15.648 12.7069 15.5358C11.6721 15.3887 10.6746 14.9172 9.87871 14.1213C9.69862 13.9412 9.53514 13.7508 9.38826 13.552C9.11562 13.1829 9.20068 12.678 9.52516 12.3535C9.60865 12.27 9.69954 12.1985 9.79571 12.1388C10.3098 11.8197 10.8651 12.2793 11.2929 12.7071C11.9212 13.3354 12.7588 13.6267 13.5812 13.5812C13.6214 13.5789 13.6617 13.5759 13.7018 13.572C14.3711 13.508 15.023 13.2197 15.5356 12.7071L18.364 9.87867C19.5356 8.70709 19.5356 6.8076 18.364 5.63603C17.1924 4.46445 15.2929 4.46445 14.1214 5.63603Z" fill="#2F3032"/>
  <path d="M11.2932 8.46419C10.4431 8.34338 9.56792 8.44153 8.75869 8.75864C8.13639 9.0025 7.55311 9.37584 7.05029 9.87867L4.22186 12.7071C2.26924 14.6597 2.26924 17.8255 4.22186 19.7782C6.17448 21.7308 9.34031 21.7308 11.2929 19.7782L14.0128 17.0583C13.1554 17.1371 12.2853 17.0462 11.4571 16.7855L9.87871 18.3639C8.70714 19.5355 6.80765 19.5355 5.63607 18.3639C4.4645 17.1924 4.4645 15.2929 5.63607 14.1213L8.46424 11.2931C9.00755 10.7498 9.70766 10.4582 10.4189 10.4188C11.2413 10.3733 12.0789 10.6646 12.7071 11.2929C13.135 11.7207 13.6903 12.1803 14.2044 11.8612C14.3005 11.8015 14.3914 11.7299 14.4749 11.6464C14.7994 11.322 14.8845 10.8171 14.6118 10.448C14.4649 10.2492 14.3014 10.0588 14.1214 9.87867C13.3254 9.08274 12.3279 8.61125 11.2932 8.46419Z" fill="#2F3032"/>
</svg>
