<svg width="14" height="14" viewBox="0 0 14 14" fill="none" xmlns="http://www.w3.org/2000/svg">
    <path fill-rule="evenodd" clip-rule="evenodd"
        d="M1.21944 10.6608C0.777977 10.8827 0.5 11.3303 0.5 11.8192V12.2612C0.5 12.9454 1.06201 13.5 1.75522 13.5H12.2448C12.938 13.5 13.5 12.9454 13.5 12.2612V11.8192C13.5 11.3303 13.222 10.8827 12.7806 10.6608L9.79518 9.3232C9.66527 9.2585 9.61312 9.10211 9.67873 8.97395C9.69104 8.94979 9.70713 8.92769 9.72637 8.90844C10.5168 8.11808 10.7143 6.93584 10.7143 5.83857V3.69329C10.7143 2.09003 9.08489 0.499992 7.08388 0.5C7.05595 0.500001 7.02799 0.500223 7 0.500845C6.97201 0.500223 6.94405 0.499988 6.91612 0.5C4.95098 0.500845 3.28571 2.09003 3.28571 3.69329V5.83857C3.28571 6.93584 3.48315 8.11808 4.27363 8.90844C4.29287 8.92769 4.30896 8.94979 4.32127 8.97395C4.38688 9.10211 4.33473 9.2585 4.20482 9.3232L1.21944 10.6608ZM12.3445 11.5612L9.36768 10.2274L9.34941 10.2183C8.72857 9.90917 8.46628 9.14986 8.78783 8.51974C8.84808 8.40156 8.92635 8.29427 9.0192 8.2014C9.51702 7.70365 9.71428 6.87004 9.71428 5.83857V3.69329C9.71428 2.72955 8.62408 1.49999 7.08389 1.5C7.06111 1.5 7.04086 1.50018 7.02224 1.5006L7 1.50109L6.97776 1.5006C6.95891 1.50018 6.93869 1.49999 6.91655 1.5C6.20296 1.50031 5.52912 1.79095 5.03422 2.23789C4.53146 2.69193 4.28571 3.23639 4.28571 3.69329V5.83857C4.28571 6.87004 4.48286 7.70353 4.98068 8.20128C5.07353 8.29415 5.15192 8.40157 5.21217 8.51974C5.53372 9.14986 5.27143 9.90917 4.65059 10.2183L4.63232 10.2274L1.65547 11.5612C1.55544 11.6172 1.5 11.7177 1.5 11.8192V12.2612C1.5 12.3807 1.6018 12.5 1.75522 12.5H12.2448C12.3982 12.5 12.5 12.3807 12.5 12.2612V11.8192C12.5 11.7177 12.4446 11.6172 12.3445 11.5612Z"
        fill="white" fill-opacity="1" />
</svg>