<svg width="24" height="24" viewBox="0 0 24 24" fill="none" xmlns="http://www.w3.org/2000/svg">
  <rect opacity="0.01" width="24" height="24" fill="#9E0000"/>
  <path fill-rule="evenodd" clip-rule="evenodd" d="M7.95266 6.95271C10.5301 4.37527 14.6454 4.35617 17.1446 6.8554C19.6438 9.35464 19.6247 13.4699 17.0473 16.0473C14.9158 18.1788 11.725 18.5623 9.27444 17.2125C9.08177 17.1064 8.85858 17.0283 8.63279 16.9887C8.41538 16.9506 8.11538 16.9342 7.80544 17.0342L6.56083 17.4355C6.71558 16.9621 6.86066 16.5176 6.94056 16.271C7.11203 15.7418 7.04096 15.1718 6.77749 14.7073C6.74003 14.6388 6.70392 14.5697 6.66916 14.5H4.49997C4.49914 14.5 4.49832 14.5 4.49749 14.5C4.64246 14.9024 4.81918 15.2957 5.02773 15.6761L5.02976 15.6798C4.92198 16.0121 4.7084 16.6658 4.50768 17.2793C4.06321 18.638 5.34706 19.9284 6.70826 19.4894L8.31948 18.9698C11.5465 20.7415 15.7018 20.2213 18.4615 17.4616C21.7954 14.1276 21.8634 8.74583 18.5588 5.44119C15.2542 2.13655 9.87236 2.20458 6.53845 5.5385C5.39805 6.67889 4.64007 8.05758 4.26819 9.5106C4.34451 9.50359 4.42182 9.5 4.49997 9.5H6.35736C6.67587 8.57268 7.20742 7.69795 7.95266 6.95271Z" fill="#2F3032"/>
  <rect x="2" y="13" width="2" height="13" rx="1" transform="rotate(-90 2 13)" fill="#2F3032"/>
  <path d="M11.3284 9.17157L14.1569 12L11.3284 14.8284" stroke="#2F3032" stroke-width="2" stroke-linecap="round" stroke-linejoin="round"/>
</svg>
