<svg width="70" height="72" viewBox="0 0 70 72" fill="none" xmlns="http://www.w3.org/2000/svg">
    <path fill-rule="evenodd" clip-rule="evenodd" d="M34.9416 43.0039L35 43.0048L35.0584 43.0039C35.2385 43.0013 35.4189 43 35.5996 43C36.4852 43 37.3571 43.0313 38.2135 43.092L34.1225 39.0009C33.7747 39.0033 33.4281 39.0101 33.0828 39.0213C31.6462 39.0679 30.2319 39.1904 28.8489 39.3841L32.5125 43.0478C33.1343 43.0162 33.7638 43 34.4004 43C34.5811 43 34.7615 43.0013 34.9416 43.0039ZM27.4732 43.6653L24.1527 40.3449C16.0877 42.5411 9.62076 47.2788 6.86191 53.4531C6.62577 53.9815 6.41837 54.5907 6.23438 55.2848C5.35091 58.6175 7.02925 62.0966 10.1876 63.4796C10.5662 63.6454 10.9128 63.7903 11.2281 63.9146C16.9289 66.1613 25.7156 67.4048 34.4004 67.4048C34.601 67.4048 34.8009 67.4043 35 67.4032C35.1991 67.4043 35.399 67.4048 35.5996 67.4048C40.5772 67.4048 45.5882 66.9963 50.0325 66.2246L46.5203 62.7124C43.0975 63.1605 39.3684 63.4048 35.5996 63.4048C35.4062 63.4048 35.2135 63.4043 35.0216 63.4032L35 63.4031L34.9784 63.4032C34.7865 63.4043 34.5938 63.4048 34.4004 63.4048C25.9734 63.4048 17.7452 62.1835 12.6947 60.1932L12.6947 60.1931C12.4349 60.0908 12.1351 59.9657 11.792 59.8155C10.4409 59.2238 9.72288 57.7355 10.1008 56.3097C10.2445 55.7679 10.3861 55.3709 10.5139 55.0849L6.86191 53.4531L10.5139 55.0849C12.8816 49.7861 19.1812 45.3035 27.4732 43.6653ZM54.6893 65.2246L51.3631 61.8984C52.9948 61.556 54.5011 61.1611 55.8414 60.7198L58.9608 63.8392C58.8966 63.8651 58.8336 63.8903 58.7719 63.9146C57.5436 64.3986 56.1722 64.8361 54.6893 65.2246ZM62.3569 61.5785C63.7833 59.8822 64.366 57.5497 63.7656 55.2848C63.5816 54.5907 63.3742 53.9815 63.1381 53.4531C59.7412 45.8508 50.7225 40.4264 40.021 39.2425L45.044 44.2656C52.0851 46.2435 57.3643 50.3365 59.4861 55.0849L63.1381 53.4531L59.4861 55.0849C59.6139 55.3709 59.7555 55.7679 59.8992 56.3097C60.1247 57.1605 59.96 58.0335 59.5034 58.725L62.3569 61.5785ZM35.8839 35.1055C36.2494 35.0892 36.6118 35.061 36.9707 35.0214C45.2522 34.107 51.6938 27.0863 51.6938 18.5611C51.6938 9.41467 44.2791 2 35.1327 2C26.238 2 18.9811 9.01208 18.5883 17.8098L23.1645 22.3861C22.7794 21.1801 22.5715 19.8949 22.5715 18.5611C22.5715 11.6238 28.1953 6 35.1327 6C42.07 6 47.6938 11.6238 47.6938 18.5611C47.6938 25.4984 42.07 31.1222 35.1327 31.1222C33.7989 31.1222 32.5137 30.9144 31.3077 30.5293L35.8839 35.1055ZM19.6977 24.5761C21.3778 28.8842 24.8095 32.316 29.1176 33.9961L19.6977 24.5761Z" fill="#F67070"/>
    <path d="M11.1699 21.7051L13.9983 18.8767L62.8109 67.6892L59.9824 70.5176L11.1699 21.7051Z" fill="#F67070"/>
</svg>
