<svg width="74" height="87" viewBox="0 0 74 87" fill="none" xmlns="http://www.w3.org/2000/svg">
    <rect x="34" y="21" width="38" height="64" rx="6" stroke="#C0C5D4" stroke-opacity="0.3" stroke-width="4"/>
    <path d="M52 14V8C52 4.68629 49.3137 2 46 2H20C16.6863 2 14 4.6784 14 7.99211C14 15.2832 14 27.6514 14 36M28 66H20C16.6863 66 14 63.3137 14 60V50" stroke="#C0C5D4" stroke-opacity="0.3" stroke-width="4" stroke-linecap="round"/>
    <path fill-rule="evenodd" clip-rule="evenodd" d="M8 29C3.58172 29 0 32.5817 0 37C0 41.4183 3.58172 45 8 45H21.4853L19.2427 47.2426C18.4617 48.0237 18.4617 49.29 19.2427 50.0711C20.0237 50.8521 21.2901 50.8521 22.0711 50.0711L27.728 44.4142C28.509 43.6332 28.509 42.3668 27.728 41.5858L22.0711 35.9289C21.2901 35.1479 20.0237 35.1479 19.2427 35.9289C18.4617 36.71 18.4617 37.9763 19.2427 38.7574L21.4853 41H8C5.79086 41 4 39.2091 4 37C4 34.7909 5.79086 33 8 33C8.55229 33 9 32.5523 9 32V30C9 29.4477 8.55229 29 8 29Z" fill="#C0C5D4" fill-opacity="0.3"/>
</svg>
