<svg width="70" height="70" viewBox="0 0 70 70" fill="none" xmlns="http://www.w3.org/2000/svg">
    <path fill-rule="evenodd" clip-rule="evenodd" d="M47.4682 17.5455C47.4682 26.692 40.0535 34.1066 30.9071 34.1066C21.7606 34.1066 14.3459 26.692 14.3459 17.5455C14.3459 8.39904 21.7606 0.984375 30.9071 0.984375C40.0535 0.984375 47.4682 8.39904 47.4682 17.5455ZM18.3459 17.5455C18.3459 24.4828 23.9698 30.1066 30.9071 30.1066C37.8444 30.1066 43.4682 24.4828 43.4682 17.5455C43.4682 10.6082 37.8444 4.98438 30.9071 4.98438C23.9698 4.98438 18.3459 10.6082 18.3459 17.5455ZM39.9195 65.8308C36.8882 66.1541 33.64 66.3149 30.1748 66.3149C21.49 66.3149 12.7033 65.0714 7.00256 62.8248C6.68723 62.7005 6.34066 62.5555 5.96197 62.3897C2.80367 61.0068 1.12532 57.5276 2.00879 54.1949C2.19278 53.5009 2.40018 52.8917 2.63633 52.3632C6.49234 43.7335 17.5924 37.9102 30.1748 37.9102C32.64 37.9102 35.0656 38.1318 37.4104 38.5656C40.1872 39.0794 42.7948 39.8785 45.1729 40.917C43.9021 41.7466 42.7426 42.7325 41.7217 43.8475C40.1428 43.2825 38.457 42.8271 36.6826 42.4988C34.5784 42.1095 32.3963 41.9102 30.1748 41.9102C19.0501 41.9102 9.43404 46.955 6.28833 53.995C6.14693 54.3115 6.00746 54.7211 5.87525 55.2199C5.4973 56.6456 6.21529 58.134 7.5664 58.7256L8.04368 58.9302L8.46916 59.1033C13.6315 61.1378 21.9492 62.3149 30.1748 62.3149C32.9471 62.3149 35.5631 62.2081 38.0228 61.9954C38.5035 63.3564 39.1431 64.6423 39.9195 65.8308Z" fill="#C0C5D4" fill-opacity="0.3"/>
    <path d="M55 44C48.3726 44 43 49.3726 43 56C43 62.6274 48.3726 68 55 68C61.6274 68 67 62.6274 67 56C67 54.4086 66.6902 52.8896 66.1277 51.5" stroke="#C0C5D4" stroke-opacity="0.3" stroke-width="4"/>
    <path d="M63.1319 51.961C62.8415 51.4354 62.2049 51.2086 61.6475 51.4322L54.8112 54.1753C53.6389 54.6457 53.1434 56.0366 53.7543 57.1423C54.3652 58.248 55.8064 58.5688 56.8287 57.8267L62.7895 53.4992C63.2755 53.1463 63.4224 52.4867 63.1319 51.961Z" fill="#C0C5D4" fill-opacity="0.3"/>
    <path d="M55 44C60.0361 44 64.3476 47.1023 66.1277 51.5" stroke="#C0C5D4" stroke-opacity="0.3" stroke-width="4" stroke-dasharray="2.4 2.4"/>
</svg>
