<svg width="24" height="24" viewBox="0 0 24 24" fill="none" xmlns="http://www.w3.org/2000/svg">
    <path fill-rule="evenodd" clip-rule="evenodd" d="M16.182 9.97491L13.3536 7.14648L0.625655 19.8744L3.45408 22.7028L16.182 9.97491ZM14.0074 10.7353L12.5932 9.32111L10.4718 11.4424L11.8861 12.8566L14.0074 10.7353Z" fill="white"/>
    <path d="M7 4L7.66751 5.33249L9 6L7.66751 6.66751L7 8L6.33249 6.66751L5 6L6.33249 5.33249L7 4Z" fill="white"/>
    <path d="M20.5 11L21.3344 12.6656L23 13.5L21.3344 14.3344L20.5 16L19.6656 14.3344L18 13.5L19.6656 12.6656L20.5 11Z" fill="white"/>
    <path d="M19.5 1L20.6681 3.33186L23 4.5L20.6681 5.66814L19.5 8L18.3319 5.66814L16 4.5L18.3319 3.33186L19.5 1Z" fill="white"/>
</svg>
