<svg width="24" height="24" viewBox="0 0 24 24" fill="none" xmlns="http://www.w3.org/2000/svg">
    <path fill-rule="evenodd" clip-rule="evenodd" d="M17.5355 6.29289C17.9261 6.68341 17.9261 7.31658 17.5355 7.7071L14.7071 10.5355C14.3166 10.9261 13.6834 10.9261 13.2929 10.5355C12.9024 10.145 12.9024 9.51184 13.2929 9.12132L14.4142 8H9.5C7.01472 8 5 10.0147 5 12.5C5 14.9853 7.01472 17 9.5 17H19C19.5523 17 20 17.4477 20 18C20 18.5523 19.5523 19 19 19H9.5C5.91015 19 3 16.0898 3 12.5C3 8.91015 5.91015 6 9.5 6H14.4142L13.2929 4.87868C12.9024 4.48815 12.9024 3.85499 13.2929 3.46446C13.6834 3.07394 14.3166 3.07394 14.7071 3.46446L17.5355 6.29289Z" fill="#2F3032"/>
</svg>
