<svg width="24" height="24" viewBox="0 0 24 24" fill="none" xmlns="http://www.w3.org/2000/svg">
    <path fill-rule="evenodd" clip-rule="evenodd" d="M5.46446 6.29289C5.07394 6.68341 5.07394 7.31658 5.46446 7.7071L8.29289 10.5355C8.68341 10.9261 9.31658 10.9261 9.7071 10.5355C10.0976 10.145 10.0976 9.51184 9.7071 9.12132L8.58578 8H13.5C15.9853 8 18 10.0147 18 12.5C18 14.9853 15.9853 17 13.5 17H4C3.44772 17 3 17.4477 3 18C3 18.5523 3.44772 19 4 19H13.5C17.0899 19 20 16.0898 20 12.5C20 8.91015 17.0899 6 13.5 6H8.58578L9.7071 4.87868C10.0976 4.48815 10.0976 3.85499 9.7071 3.46446C9.31658 3.07394 8.68341 3.07394 8.29289 3.46446L5.46446 6.29289Z" fill="#2F3032"/>
</svg>
