<svg width="24" height="24" viewBox="0 0 24 24" fill="none" xmlns="http://www.w3.org/2000/svg">
    <rect x="11.0713" y="6.82837" width="9" height="2" transform="rotate(45 11.0713 6.82837)" fill="#2F3032"/>
    <path d="M13.1922 4.7072L13.8993 5.41431L13.8993 5.41431L13.1922 4.7072ZM14.6065 4.7072L13.8993 5.41431L13.8993 5.41431L14.6065 4.7072ZM4.70696 13.1925L3.99985 12.4854H3.99985L4.70696 13.1925ZM4.70696 14.6067L3.99985 15.3138H3.99985L4.70696 14.6067ZM8.10035 18.0001L7.39325 18.7072C7.58078 18.8947 7.83514 19.0001 8.10035 19.0001V18.0001ZM12.6273 18.0001V19.0001C12.8925 19.0001 13.1468 18.8947 13.3344 18.7072L12.6273 18.0001ZM19.5562 11.0712L18.8491 10.3641V10.3641L19.5562 11.0712ZM19.5562 9.65695L20.2633 8.94984L20.2633 8.94984L19.5562 9.65695ZM13.8993 5.41431L13.8993 5.41431L15.3136 4.00009C14.5325 3.21904 13.2662 3.21904 12.4851 4.00009L13.8993 5.41431ZM5.41406 13.8996L13.8993 5.41431L12.4851 4.00009L3.99985 12.4854L5.41406 13.8996ZM5.41406 13.8996L5.41406 13.8996L3.99985 12.4854C3.2188 13.2664 3.2188 14.5328 3.99985 15.3138L5.41406 13.8996ZM8.80746 17.293L5.41406 13.8996L3.99985 15.3138L7.39325 18.7072L8.80746 17.293ZM8.10035 19.0001H12.6273V17.0001H8.10035V19.0001ZM18.8491 10.3641L11.9202 17.293L13.3344 18.7072L20.2633 11.7783L18.8491 10.3641ZM18.8491 10.3641V10.3641L20.2633 11.7783C21.0444 10.9972 21.0444 9.73089 20.2633 8.94984L18.8491 10.3641ZM13.8993 5.41431L18.8491 10.3641L20.2633 8.94984L15.3136 4.00009L13.8993 5.41431Z" fill="#2F3032"/>
    <rect x="3" y="20" width="18" height="2" rx="1" fill="#2F3032"/>
</svg>
