<svg width="24" height="24" viewBox="0 0 24 24" fill="none" xmlns="http://www.w3.org/2000/svg">
    <path fill-rule="evenodd" clip-rule="evenodd" d="M8 6H4C3.44772 6 3 6.44772 3 7C3 7.55228 3.44772 8 4 8H8V6ZM9 8H15C15.5523 8 16 8.44772 16 9V20C16 20.5523 16.4477 21 17 21C17.5523 21 18 20.5523 18 20V9C18 7.34315 16.6569 6 15 6H9V8Z" fill="#2F3032"/>
    <path fill-rule="evenodd" clip-rule="evenodd" d="M20 18C20.5523 18 21 17.5523 21 17C21 16.4477 20.5523 16 20 16H16V18H20ZM15 18V16H9C8.44772 16 8 15.5523 8 15V4C8 3.44771 7.55229 3 7 3C6.44771 3 6 3.44771 6 4V15C6 16.6569 7.34315 18 9 18H15Z" fill="#2F3032"/>
</svg>
