<svg width="24" height="24" viewBox="0 0 24 24" fill="none" xmlns="http://www.w3.org/2000/svg">
    <rect x="5" y="9" width="11" height="11" rx="2" stroke="#2F3032" stroke-width="2"/>
    <path d="M20 9C20 9.55228 20.4477 10 21 10C21.5523 10 22 9.55228 22 9H20ZM13 5H17V3H13V5ZM20 8V9H22V8H20ZM17 5C18.6569 5 20 6.34315 20 8H22C22 5.23858 19.7614 3 17 3V5Z" fill="#2F3032"/>
    <path d="M12.2496 4.16641C12.1309 4.08725 12.1309 3.91275 12.2496 3.83359L14.6891 2.20729C14.822 2.11869 15 2.21396 15 2.3737V5.6263C15 5.78604 14.822 5.88131 14.6891 5.79271L12.2496 4.16641Z" fill="#2F3032" stroke="#2F3032"/>
</svg>
