<svg width="20" height="20" viewBox="0 0 20 20" fill="none" xmlns="http://www.w3.org/2000/svg">
  <path fill-rule="evenodd" clip-rule="evenodd" d="M3 12C4.10457 12 5 11.1046 5 10C5 8.89543 4.10457 8 3 8C1.89543 8 1 8.89543 1 10C1 11.1046 1.89543 12 3 12ZM10 12C11.1046 12 12 11.1046 12 10C12 8.89543 11.1046 8 10 8C8.89543 8 8 8.89543 8 10C8 11.1046 8.89543 12 10 12ZM19 10C19 11.1046 18.1046 12 17 12C15.8954 12 15 11.1046 15 10C15 8.89543 15.8954 8 17 8C18.1046 8 19 8.89543 19 10Z" fill="#2F3032"/>
</svg>
