<svg width="20" height="20" viewBox="0 0 20 20" fill="none" xmlns="http://www.w3.org/2000/svg">
    <path d="M16.233 7.26234L16.8947 7.61541L16.8947 7.61541L16.233 7.26234ZM15.284 4.17062L15.6813 3.53454L15.284 4.17062ZM16.2127 7.29932L15.5586 6.93239L15.2678 7.4509L15.7062 7.85243L16.2127 7.29932ZM3.76788 7.31713L4.27657 7.86825L4.71282 7.4656L4.42107 6.94856L3.76788 7.31713ZM3.7453 7.27598L3.0836 7.62904L3.0836 7.62905L3.7453 7.27598ZM4.70519 4.17746L5.10256 4.81355L4.70519 4.17746ZM7.66508 4.82724L7.00338 5.1803L7.66508 4.82724ZM7.84893 5.31529L7.11902 5.48774L7.28676 6.19769L8.00108 6.0497L7.84893 5.31529ZM12.1507 5.31522L11.9986 6.04963L12.712 6.19741L12.8804 5.48859L12.1507 5.31522ZM12.3349 4.82718L12.9966 5.18025V5.18025L12.3349 4.82718ZM16.8947 7.61541C17.6558 6.18899 17.0488 4.38881 15.6813 3.53454L14.8866 4.8067C15.672 5.29733 15.9148 6.26557 15.5713 6.90927L16.8947 7.61541ZM16.8669 7.66626C16.8763 7.64942 16.8856 7.63247 16.8947 7.61541L15.5713 6.90927C15.5671 6.91707 15.5629 6.92478 15.5586 6.93239L16.8669 7.66626ZM18.75 11.0489C18.75 9.37775 17.9602 7.88261 16.7193 6.74622L15.7062 7.85243C16.7004 8.76286 17.25 9.87751 17.25 11.0489H18.75ZM10 17.7501C12.3543 17.7501 14.515 17.0412 16.1045 15.8588C17.694 14.6764 18.75 12.9839 18.75 11.0489H17.25C17.25 12.4006 16.5152 13.6838 15.2092 14.6553C13.9032 15.6268 12.064 16.2501 10 16.2501V17.7501ZM1.25 11.0489C1.25 12.9839 2.30603 14.6764 3.8955 15.8588C5.48497 17.0412 7.6457 17.7501 10 17.7501V16.2501C7.93602 16.2501 6.09676 15.6268 4.79079 14.6553C3.48483 13.6838 2.75 12.4006 2.75 11.0489H1.25ZM3.2592 6.766C2.03071 7.8999 1.25 9.38752 1.25 11.0489H2.75C2.75 9.8842 3.29331 8.7758 4.27657 7.86825L3.2592 6.766ZM3.0836 7.62905C3.09376 7.64809 3.10413 7.66697 3.11469 7.6857L4.42107 6.94856C4.41631 6.94012 4.41162 6.93157 4.407 6.92291L3.0836 7.62905ZM4.30782 3.54138C2.93748 4.39746 2.3209 6.19963 3.0836 7.62904L4.407 6.92291C4.06513 6.2822 4.30806 5.30988 5.10256 4.81355L4.30782 3.54138ZM8.32678 4.47417C7.53963 2.99894 5.7015 2.67073 4.30782 3.54138L5.10256 4.81355C5.87371 4.3318 6.68596 4.58541 7.00338 5.1803L8.32678 4.47417ZM8.57883 5.14284C8.52467 4.91362 8.4413 4.68881 8.32678 4.47417L7.00338 5.1803C7.05523 5.27748 7.09368 5.38046 7.11902 5.48774L8.57883 5.14284ZM10 4.34769C9.20403 4.34769 8.43162 4.42865 7.69678 4.58089L8.00108 6.0497C8.63512 5.91834 9.30555 5.84769 10 5.84769V4.34769ZM12.3029 4.58081C11.5681 4.42862 10.7958 4.34769 10 4.34769V5.84769C10.6943 5.84769 11.3647 5.91832 11.9986 6.04963L12.3029 4.58081ZM11.6732 4.47411C11.5589 4.6885 11.4754 4.91298 11.421 5.14186L12.8804 5.48859C12.906 5.38109 12.9446 5.27779 12.9966 5.18025L11.6732 4.47411ZM15.6813 3.53454C14.2898 2.66524 12.4584 3.00256 11.6732 4.47411L12.9966 5.18025C13.316 4.58168 14.1253 4.3311 14.8866 4.8067L15.6813 3.53454Z" fill="#B8BDC7"/>
    <path d="M15 11C15 12.6569 12.7614 14 10 14C7.23858 14 5 12.6569 5 11" stroke="#B8BDC7" stroke-width="1.5" stroke-linecap="round"/>
    <circle cx="6.25" cy="6.75" r="0.75" fill="#B8BDC7"/>
    <circle cx="13.75" cy="6.75" r="0.75" fill="#B8BDC7"/>
</svg>
