<svg width="20" height="20" viewBox="0 0 20 20" fill="none" xmlns="http://www.w3.org/2000/svg">
    <path d="M2.36885 5.40529C1.66574 7.19954 2.03909 9.31816 3.48888 10.768C5.15259 12.4317 7.69705 12.6778 9.62139 11.5064L13.676 16.4621C14.0705 16.9443 14.2678 17.1854 14.51 17.2809C14.7138 17.3612 14.9384 17.3724 15.1492 17.3128C15.3998 17.2418 15.6201 17.0216 16.0606 16.5811L16.3731 16.2686C16.8136 15.8281 17.0338 15.6078 17.1047 15.3573C17.1644 15.1464 17.1532 14.9219 17.0729 14.718C16.9773 14.4758 16.7363 14.2785 16.2541 13.884L11.2984 9.8294C12.4698 7.90506 12.2237 5.3606 10.5599 3.69689C9.11015 2.24709 6.99154 1.87375 5.19728 2.57686L8.43863 5.81821C8.82915 6.20873 8.82915 6.8419 8.43863 7.23242L7.02441 8.64664C6.63389 9.03716 6.00072 9.03716 5.6102 8.64664L2.36885 5.40529Z" stroke="#B8BDC7" stroke-width="1.5"/>
</svg>
