<svg width="20" height="20" viewBox="0 0 20 20" fill="none" xmlns="http://www.w3.org/2000/svg">
    <path d="M10 17C13.866 17 17 13.866 17 10C17 6.13401 13.866 3 10 3C6.13401 3 3 6.13401 3 10C3 13.866 6.13401 17 10 17Z" stroke="#3D75E3" stroke-width="1.5"/>
    <path d="M7.69617 10C8.24845 10 8.69617 9.55228 8.69617 9C8.69617 8.44772 8.24845 8 7.69617 8C7.14388 8 6.69617 8.44772 6.69617 9C6.69617 9.55228 7.14388 10 7.69617 10Z" fill="#3D75E3"/>
    <path d="M12.3628 10C12.9151 10 13.3628 9.55228 13.3628 9C13.3628 8.44772 12.9151 8 12.3628 8C11.8105 8 11.3628 8.44772 11.3628 9C11.3628 9.55228 11.8105 10 12.3628 10Z" fill="#3D75E3"/>
    <path d="M12.6667 11.9998C12.6667 13.1044 11.3334 13.9998 10 13.9998C8.66671 13.9998 7.33337 13.1044 7.33337 11.9998C7.33337 11.6665 7.60421 11.6665 10 11.6665C12.3959 11.6665 12.6667 11.6665 12.6667 11.9998Z" fill="#3D75E3"/>
</svg>
