<svg width="20" height="20" viewBox="0 0 20 20" fill="none" xmlns="http://www.w3.org/2000/svg">
    <path d="M3 14.1304C3 14.0584 3.0584 14 3.13043 14H16.8696C16.9416 14 17 14.0584 17 14.1304V14.1304C17 15.7153 15.7153 17 14.1304 17H5.86957C4.28475 17 3 15.7153 3 14.1304V14.1304Z" stroke="#B8BDC7" stroke-width="1.5"/>
    <path d="M3 7.58333C3 5.05203 5.05203 3 7.58333 3H12.4167C14.948 3 17 5.05203 17 7.58333V7.58333C17 7.81345 16.8135 8 16.5833 8H3.41667C3.18655 8 3 7.81345 3 7.58333V7.58333Z" stroke="#B8BDC7" stroke-width="1.5"/>
    <path d="M2.5 11.5L3.03429 11.1438C3.63146 10.7457 4.39617 10.6981 5.03811 11.0191L5.10557 11.0528C5.66863 11.3343 6.33137 11.3343 6.89443 11.0528L7.10557 10.9472C7.66863 10.6657 8.33137 10.6657 8.89443 10.9472L9.10557 11.0528C9.66863 11.3343 10.3314 11.3343 10.8944 11.0528L11.1056 10.9472C11.6686 10.6657 12.3314 10.6657 12.8944 10.9472L13.1056 11.0528C13.6686 11.3343 14.3314 11.3343 14.8944 11.0528L14.9619 11.0191C15.6038 10.6981 16.3685 10.7457 16.9657 11.1438L17.5 11.5" stroke="#B8BDC7" stroke-width="1.5" stroke-linecap="round"/>
</svg>
