<svg width="72" height="79" viewBox="0 0 72 79" fill="none"
     xmlns="http://www.w3.org/2000/svg">
  <path
    d="M24 30C23.4477 30 23 30.4477 23 31V34C23 34.5523 23.4477 35 24 35H54C54.5523 35 55 34.5523 55 34V31C55 30.4477 54.5523 30 54 30H24Z"
    fill="#C0C5D5" fill-opacity="1"/>
  <path
    d="M19 40C18.4477 40 18 40.4477 18 41V44C18 44.5523 18.4477 45 19 45H49C49.5523 45 50 44.5523 50 44V41C50 40.4477 49.5523 40 49 40H19Z"
    fill="#C0C5D5" fill-opacity="1"/>
  <path
    d="M19 51C19 50.4477 19.4477 50 20 50H54C54.5523 50 55 50.4477 55 51V54C55 54.5523 54.5523 55 54 55H20C19.4477 55 19 54.5523 19 54V51Z"
    fill="#C0C5D5" fill-opacity="1"/>
  <path fill-rule="evenodd" clip-rule="evenodd"
        d="M28.354 0H61C63.2091 0 65 1.79086 65 4V74C65 76.2091 63.2091 78 61 78H11C8.79086 78 7 76.2091 7 74V37.2705L20.03 5.57773C21.4175 2.20304 24.7052 0 28.354 0ZM14.9449 31.0955L12 38.2582V73H60V5H28.354C26.7323 5 25.2711 5.97913 24.6545 7.47899C24.3127 8.31028 24.4605 9.26258 25.0383 9.95111L31.2795 17.3891L14.9449 31.0955Z"
        fill="#C0C5D5" fill-opacity="1"/>
</svg>
