<svg width="24" height="24" viewBox="0 0 24 24" fill="white"
     xmlns="http://www.w3.org/2000/svg">
  <rect width="16" height="2" rx="1" transform="matrix(-1 0 0 1 20 4)"
  />
  <rect width="10" height="2" rx="1" transform="matrix(-1 0 0 1 14 11)"
  />
  <rect width="16" height="2" rx="1" transform="matrix(-1 0 0 1 20 18)"
  />
  <path
    d="M19 12.1765L19.727 11.4898C19.9093 11.6829 20.0074 11.9405 19.9996 12.2059C19.9918 12.4713 19.8787 12.7227 19.6854 12.9047L19 12.1765ZM15.273 9.68662C14.8938 9.28511 14.9119 8.6522 15.3134 8.27299C15.7149 7.89378 16.3478 7.91186 16.727 8.31338L15.273 9.68662ZM16.6854 15.7282C16.2832 16.1067 15.6503 16.0875 15.2718 15.6854C14.8933 15.2832 14.9125 14.6503 15.3146 14.2718L16.6854 15.7282ZM18.273 12.8631L15.273 9.68662L16.727 8.31338L19.727 11.4898L18.273 12.8631ZM15.3146 14.2718L18.3146 11.4483L19.6854 12.9047L16.6854 15.7282L15.3146 14.2718Z"
  />
</svg>
