<svg width="16" height="16" viewBox="0 0 16 16" fill="none" xmlns="http://www.w3.org/2000/svg">
    <circle cx="8" cy="8" r="8" fill="#CACDD2"/>
    <path d="M7.64725 7.15588L10.4815 5.9553C10.613 5.89962 10.7653 5.95066 10.8367 6.0743C10.9081 6.19794 10.8761 6.3554 10.7622 6.44141L8.3053 8.29565C7.98727 8.53567 7.53087 8.44299 7.33166 8.09794C7.13244 7.75288 7.28037 7.31129 7.64725 7.15588Z" fill="white"/>
    <path d="M8 3C5.23858 3 3 5.23858 3 8C3 10.7614 5.23858 13 8 13C10.7614 13 13 10.7614 13 8C13 7.08928 12.7565 6.23543 12.3311 5.5" stroke="white"/>
    <path d="M8 3C9.85071 3 11.4666 4.0055 12.3311 5.5" stroke="white" stroke-dasharray="1 1"/>
</svg>