<svg width="16" height="16" viewBox="0 0 16 16" fill="none" xmlns="http://www.w3.org/2000/svg">
    <circle cx="8" cy="8" r="8" fill="white" fill-opacity="0.4"/>
    <path d="M7.64725 7.15588L10.4815 5.9553C10.613 5.89962 10.7653 5.95066 10.8367 6.0743C10.9081 6.19794 10.8761 6.3554 10.7622 6.44141L8.3053 8.29565C7.98727 8.53567 7.53087 8.44299 7.33166 8.09794C7.13244 7.75288 7.28037 7.31129 7.64725 7.15588Z" fill="white" fill-opacity="0.9"/>
    <path fill-rule="evenodd" clip-rule="evenodd" d="M3.5 8C3.5 5.51472 5.51472 3.5 8 3.5C8.13253 3.5 8.2636 3.50572 8.39299 3.51689L8.47906 2.5206C8.32108 2.50696 8.16129 2.5 8 2.5C4.96243 2.5 2.5 4.96243 2.5 8C2.5 11.0376 4.96243 13.5 8 13.5C11.0376 13.5 13.5 11.0376 13.5 8C13.5 6.99904 13.2322 6.05912 12.7639 5.24964C12.6836 5.11082 12.5974 4.97587 12.5057 4.84511L11.687 5.41933C11.7621 5.52637 11.8326 5.63681 11.8983 5.75036C12.2809 6.41174 12.5 7.17952 12.5 8C12.5 10.4853 10.4853 12.5 8 12.5C5.51472 12.5 3.5 10.4853 3.5 8ZM9.16548 3.65226C9.42063 3.72047 9.66686 3.81056 9.90207 3.92043L10.3253 3.01441C10.0375 2.87998 9.73611 2.76969 9.42373 2.68619L9.16548 3.65226ZM10.5811 4.31329C10.7959 4.46402 10.9971 4.63307 11.1822 4.8182L11.8893 4.11114C11.6634 3.88517 11.4178 3.67876 11.1554 3.49466L10.5811 4.31329Z" fill="white" fill-opacity="0.9"/>
</svg>