<svg width="16" height="17" viewBox="0 0 16 17" fill="none" xmlns="http://www.w3.org/2000/svg">
    <ellipse cx="8" cy="8.01285" rx="8" ry="8.00309" fill="#CACDD2"/>
    <path d="M7.64728 7.16808L10.4812 5.96709C10.6127 5.91138 10.765 5.96242 10.8364 6.08607C10.9077 6.20973 10.8757 6.36721 10.7618 6.45324L8.30514 8.30795C7.98713 8.54804 7.53082 8.45539 7.33165 8.1103C7.13249 7.7652 7.28044 7.32354 7.64728 7.16808Z" fill="white"/>
    <path d="M8 3.01074C5.23858 3.01074 3 5.25018 3 8.01267C3 10.7752 5.23858 13.0146 8 13.0146C10.7614 13.0146 13 10.7752 13 8.01267C13 7.1016 12.7565 6.24742 12.3311 5.51171" stroke="white"/>
    <path d="M8 3.01074C9.85071 3.01074 11.4666 4.01624 12.3311 5.51074" stroke="white" stroke-dasharray="1 1"/>
</svg>
