<svg width="14" height="14" viewBox="0 0 14 14" fill="none" xmlns="http://www.w3.org/2000/svg">
    <path
        d="M3.71533 7.54175C3.71533 7.26561 3.93919 7.04175 4.21533 7.04175H7.52302C7.79917 7.04175 8.02302 7.26561 8.02302 7.54175C8.02302 7.81789 7.79917 8.04175 7.52302 8.04175H4.21533C3.93919 8.04175 3.71533 7.81789 3.71533 7.54175Z"
        fill="white" fill-opacity="1" />
    <path
        d="M3.71533 9.70825C3.71533 9.43211 3.93919 9.20825 4.21533 9.20825H9.75379C10.0299 9.20825 10.2538 9.43211 10.2538 9.70825C10.2538 9.98439 10.0299 10.2083 9.75379 10.2083H4.21533C3.93919 10.2083 3.71533 9.98439 3.71533 9.70825Z"
        fill="white" fill-opacity="1" />
    <path fill-rule="evenodd" clip-rule="evenodd"
        d="M3.75395 0.5H7.47422L7.48086 0.506677C7.72583 0.534086 7.95538 0.644968 8.12972 0.822629L12.061 4.82871C12.2178 4.98848 12.3199 5.19202 12.3554 5.41021L12.3693 5.42424V11.3462C12.3693 12.5357 11.405 13.5 10.2155 13.5H3.75394C2.56441 13.5 1.6001 12.5357 1.6001 11.3462V2.65385C1.6001 1.46431 2.56441 0.5 3.75395 0.5ZM3.75395 1.5H6.98471V3.76282C6.98471 4.95236 7.94902 5.91667 9.13856 5.91667H11.3693V11.3462C11.3693 11.9834 10.8527 12.5 10.2155 12.5H3.75394C3.11669 12.5 2.6001 11.9834 2.6001 11.3462V2.65385C2.6001 2.0166 3.11669 1.5 3.75395 1.5ZM8.06164 2.61845L10.2698 4.83974H9.13856C8.54379 4.83974 8.06164 4.35759 8.06164 3.76282V2.61845Z"
        fill="white" fill-opacity="1" />
</svg>