<svg width="24" height="24" viewBox="0 0 24 24" fill="none" xmlns="http://www.w3.org/2000/svg">
    <path d="M14.2715 3.66905C13.7373 3.23622 13.0706 3.00003 12.383 3.00003H7C5.34315 3.00003 4 4.34318 4 6.00003V18C4 19.6569 5.34315 21 7 21H17C18.6569 21 20 19.6569 20 18V9.74067C20 8.83582 19.5916 7.9793 18.8885 7.40969L14.2715 3.66905Z" stroke="#3D75E3" stroke-width="2" stroke-linecap="round" stroke-linejoin="round"/>
    <rect x="7" y="16" width="10" height="2" rx="1" fill="#3D75E3"/>
    <rect x="7" y="12" width="7" height="2" rx="1" fill="#3D75E3"/>
    <path d="M14 3.49997C14 2.94768 13.5523 2.49997 13 2.49997C12.4477 2.49997 12 2.94768 12 3.49997H14ZM19.5 9.99997C20.0523 9.99997 20.5 9.55225 20.5 8.99997C20.5 8.44768 20.0523 7.99997 19.5 7.99997V9.99997ZM19.5 7.99997H15V9.99997H19.5V7.99997ZM14 6.99997V3.49997H12V6.99997H14ZM15 7.99997C14.4477 7.99997 14 7.55225 14 6.99997H12C12 8.65682 13.3431 9.99997 15 9.99997V7.99997Z" fill="#3D75E3"/>
</svg>
