<svg width="24" height="24" viewBox="0 0 24 24" fill="none" xmlns="http://www.w3.org/2000/svg">
    <path fill-rule="evenodd" clip-rule="evenodd" d="M12 4.00006H7C5.89543 4.00006 5 4.89549 5 6.00006V11.0001H19V9.99994H15C13.3431 9.99994 12 8.65679 12 6.99994V4.00006ZM2 13.0001C2 12.2598 2.4022 11.6134 3 11.2676V6.00006C3 3.79092 4.79086 2.00006 7 2.00006H12.383C13.2997 2.00006 14.1887 2.31498 14.901 2.89209L19.518 6.63273C20.4555 7.39221 21 8.53423 21 9.7407V11.2676C21.5978 11.6134 22 12.2598 22 13.0001V17.0001C22 17.7708 21.564 18.4397 20.9253 18.7736C20.5649 20.6126 18.9445 22.0001 17 22.0001H7C5.0555 22.0001 3.43507 20.6126 3.07474 18.7736C2.43596 18.4397 2 17.7708 2 17.0001V13.0001ZM17 20.0001C17.7403 20.0001 18.3866 19.5979 18.7324 19.0001H5.26756C5.61337 19.5979 6.25972 20.0001 7 20.0001H17ZM14 4.73612V6.99994C14 7.55222 14.4477 7.99994 15 7.99994H18.0285L14 4.73612ZM7.03906 16.9999H10.373V16.1357H8.32812V16.08L10.3115 13.455V12.7724H7.07129V13.6367H9.02246V13.6923L7.03906 16.3173V16.9999ZM12.333 16.9999V12.7724H11.2578V16.9999H12.333ZM13.332 16.9999V12.7724H15.1836C16.0918 12.7724 16.707 13.3642 16.707 14.2724C16.707 15.1718 16.0596 15.7607 15.1191 15.7607H14.4072V16.9999H13.332ZM14.8994 13.5986H14.4072V14.9492H14.8936C15.3506 14.9492 15.6201 14.7148 15.6201 14.2753C15.6201 13.83 15.3535 13.5986 14.8994 13.5986Z" fill="#2F3032"/>
</svg>
