<svg width="24" height="24" viewBox="0 0 24 24" fill="none" xmlns="http://www.w3.org/2000/svg">
    <path
        d="M23.25 12C23.25 18.2132 18.2132 23.25 12 23.25C5.7868 23.25 0.75 18.2132 0.75 12C0.75 5.7868 5.7868 0.75 12 0.75C18.2132 0.75 23.25 5.7868 23.25 12Z"
        stroke="white" stroke-opacity="1" stroke-width="1.5" />
    <path fill-rule="evenodd" clip-rule="evenodd"
        d="M8.81232 13.4597C8.27613 13.4597 7.84147 13.025 7.84147 12.4889C7.84147 12.3101 7.98636 12.1652 8.16508 12.1652H10.3851C10.8269 12.1652 11.1851 12.5234 11.1851 12.9652V14.6957C11.1851 14.8941 11.1274 15.0889 11.0008 15.2416C10.7985 15.4858 10.4499 15.848 10.0583 16C9.84334 16.0834 9.5927 16.1592 9.33061 16.2225C9.11875 16.2736 8.33043 16.3716 8.03897 16.3689C7.80342 16.3668 7.54088 16.3585 7.30627 16.344C7.21916 16.3386 7.12434 16.3298 7.02181 16.3177C6.92581 16.3063 6.42501 16.1923 6.28762 16.1398C6.11722 16.0746 5.95387 15.998 5.79758 15.9098C5.20013 15.5726 4.75118 15.0905 4.4507 14.4633C4.15023 13.8362 4 13.154 4 12.4168C4 11.6167 4.17556 10.9352 4.51097 10.3133C4.84638 9.69139 5.33726 9.21449 5.98362 8.88257C6.47626 8.62752 7.08942 8.5 7.82312 8.5C8.77695 8.5 9.522 8.70002 10.0583 9.10007C10.4194 9.36941 10.6938 9.70803 10.8814 10.1159C10.8874 10.129 10.9174 10.2185 10.953 10.3268C11.0282 10.5557 10.8838 10.798 10.6469 10.8423L9.87141 10.9874C9.68556 11.0221 9.50118 10.9217 9.42718 10.7478C9.40085 10.6859 9.37946 10.6367 9.37447 10.6282C9.2641 10.4418 9.11995 10.2835 8.94202 10.1535C8.6433 9.93509 8.27034 9.82591 7.82312 9.82591C7.14532 9.82591 6.6064 10.0408 6.20635 10.4705C5.80631 10.9003 5.5 11.5713 5.5 12.4168C5.5 13.3287 5.80107 13.9497 6.20635 14.4057C6.31425 14.527 6.43106 14.6323 6.55678 14.7213C6.61616 14.7634 6.70078 14.8121 6.81067 14.8674C6.85775 14.8911 7.20808 14.9997 7.39852 15.0182C7.59472 15.0374 7.82303 15.0493 8.03113 15.054C8.13715 15.0564 8.35224 15.0464 8.6764 15.0238L8.73305 15.0197C8.91023 15.0066 9.0849 14.97 9.25237 14.9108C9.31852 14.8873 9.37228 14.8683 9.37447 14.8674C9.43943 14.8408 9.64563 14.7348 9.65554 14.7299C9.74874 14.6841 9.84802 14.5846 9.91593 14.5078C9.9729 14.4434 10 14.3592 10 14.2733V13.7137C10 13.5734 9.8863 13.4597 9.74606 13.4597H8.81232ZM12.8808 16.4155C12.4524 16.4155 12.1052 16.0682 12.1052 15.6399V9.81404C12.1052 9.38567 12.4524 9.03841 12.8808 9.03841C13.3092 9.03841 13.6564 9.38567 13.6564 9.81404V15.6399C13.6564 16.0682 13.3092 16.4155 12.8808 16.4155ZM15.3161 16.4155C14.9384 16.4155 14.6322 16.1093 14.6322 15.7315V9.91546C14.6322 9.36317 15.0799 8.91546 15.6322 8.91546H18.7711C19.2346 8.91546 19.5991 9.31165 19.5606 9.77358C19.5263 10.1842 19.1831 10.5 18.7711 10.5H16V12.0634H18.7817C19.1784 12.0634 19.5 12.385 19.5 12.7817C19.5 13.1784 19.1784 13.5 18.7817 13.5H16V15.7315C16 16.1093 15.6938 16.4155 15.3161 16.4155Z"
        fill="white" fill-opacity="1" />
</svg>