<svg width="24" height="24" viewBox="0 0 24 24" fill="none"
     xmlns="http://www.w3.org/2000/svg">
  <path
    d="M17.9582 18.5613H19.7374C20.4347 18.5613 21 18.0143 21 17.3396V16.8758C21 16.4058 20.7442 15.9706 20.3268 15.7303L17.4898 14.0974C17.359 14.0221 17.3161 13.8585 17.3939 13.732C17.4043 13.715 17.4167 13.6992 17.4307 13.6849C18.1267 12.9743 18.4747 12.0811 18.4747 11.0054C18.4747 11.0054 18.4747 9.24126 18.4747 7.37902C18.4747 6.12372 16.5943 4.91111 15.0024 4.90731C14.7402 4.90669 14.4702 4.93932 14.202 4.99987"
    stroke="white" stroke-opacity="1" stroke-width="2"
    stroke-linecap="round"/>
  <path fill-rule="evenodd" clip-rule="evenodd"
        d="M11.3858 14.1524C11.1906 14.0374 11.1582 13.7588 11.3015 13.5835C11.676 13.1254 12.2548 12.2207 12.2548 11.0054V7.37902C12.2548 6.12372 10.4171 4.91111 8.86138 4.90731C7.30565 4.90352 5.46795 6.12577 5.46795 7.37902C5.46795 7.37902 5.46795 11.0286 5.46795 11.0054C5.46795 12.0377 6.13277 13.0918 6.50647 13.6029C6.62974 13.7714 6.58744 14.017 6.40723 14.1226L3.7683 15.6679C3.29242 15.9466 3 16.4567 3 17.0082V17.0082C3 17.866 3.69537 18.5613 4.55316 18.5613H13.1679C14.0266 18.5613 14.7228 17.8652 14.7228 17.0065V17.0065C14.7228 16.4559 14.4315 15.9463 13.957 15.6668L11.3858 14.1524Z"
        stroke="white" stroke-opacity="1" stroke-width="2"/>
</svg>
