<svg width="26" height="26" viewBox="0 0 26 26" fill="none"
     xmlns="http://www.w3.org/2000/svg">
  <path fill-rule="evenodd" clip-rule="evenodd"
        d="M18.6808 3.38919C19.7674 2.57419 21.288 2.68225 22.2485 3.64275C23.209 4.60324 23.3171 6.12384 22.5021 7.21051L15.3019 16.8108C14.9072 17.3371 14.3334 17.7006 13.6889 17.8327L11.5525 18.2706C11.485 19.7646 10.5635 21.3645 8.9899 22.2387C8.29832 22.623 7.40556 22.7881 6.54738 22.8036C5.67394 22.8194 4.72892 22.6824 3.8884 22.3672C3.54493 22.2384 3.29955 21.9319 3.24905 21.5686C3.19854 21.2052 3.35101 20.8434 3.64632 20.6258C3.90588 20.4346 3.96281 20.2949 3.98677 20.2158C4.0196 20.1074 4.02219 20.0245 4.02798 19.8401C4.02989 19.7794 4.03217 19.7069 4.03596 19.6197C4.0402 19.5223 4.02824 19.3899 3.99628 19.1736C3.99036 19.1335 3.98348 19.089 3.97608 19.0412C3.94892 18.8657 3.9148 18.6451 3.89573 18.4329C3.84412 17.8584 3.87186 17.0916 4.41007 16.3696C5.31196 15.1598 6.54061 14.678 7.5887 14.4947L8.05855 12.2024C8.19065 11.5579 8.5542 10.9841 9.08051 10.5894L18.6808 3.38919ZM9.5373 17.8458L8.12642 16.4349C7.34374 16.5367 6.55847 16.834 6.01354 17.565C5.89911 17.7185 5.85585 17.8994 5.88771 18.2539C5.90052 18.3966 5.92102 18.5296 5.94602 18.6917C5.95505 18.7503 5.96474 18.8132 5.9748 18.8812C6.0084 19.1086 6.04723 19.4038 6.03407 19.7065C6.0331 19.7289 6.03253 19.7579 6.03184 19.7924C6.02778 19.996 6.01984 20.3942 5.90493 20.7821C6.10732 20.8002 6.31086 20.8076 6.51129 20.8039C7.18333 20.7918 7.71583 20.6586 8.01862 20.4904C9.21893 19.8236 9.6475 18.6005 9.5373 17.8458ZM12.0959 16.1176L10.8858 16.3657L9.52559 15.0055L9.77363 13.7953L12.0959 16.1176ZM14.0086 15.2019L10.6894 11.8827L19.8808 4.98919C20.1712 4.77137 20.5776 4.80025 20.8343 5.05696C21.091 5.31367 21.1199 5.72008 20.9021 6.01051L14.0086 15.2019Z"
        fill="white" fill-opacity="1"/>
</svg>
