<svg width="24" height="24" viewBox="0 0 24 24" fill="none"
     xmlns="http://www.w3.org/2000/svg">
  <path fill-rule="evenodd" clip-rule="evenodd"
        d="M17.6808 2.38919C18.7674 1.57419 20.288 1.68225 21.2485 2.64275C22.209 3.60324 22.3171 5.12384 21.5021 6.21051L14.3019 15.8108C13.9072 16.3371 13.3334 16.7006 12.6889 16.8327L10.5525 17.2706C10.485 18.7646 9.56351 20.3645 7.9899 21.2387C7.29832 21.623 6.40556 21.7881 5.54738 21.8036C4.67394 21.8194 3.72892 21.6824 2.8884 21.3672C2.54493 21.2384 2.29955 20.9319 2.24905 20.5686C2.19854 20.2052 2.35101 19.8434 2.64632 19.6258C2.90588 19.4346 2.96281 19.2949 2.98677 19.2158C3.0196 19.1074 3.02219 19.0245 3.02798 18.8401C3.02989 18.7794 3.03217 18.7069 3.03596 18.6197C3.0402 18.5223 3.02824 18.3899 2.99628 18.1736C2.99036 18.1335 2.98348 18.089 2.97608 18.0412C2.94892 17.8657 2.9148 17.6451 2.89573 17.4329C2.84412 16.8584 2.87186 16.0916 3.41007 15.3696C4.31196 14.1598 5.54061 13.678 6.5887 13.4947L7.05855 11.2024C7.19065 10.5579 7.5542 9.98412 8.08051 9.58939L17.6808 2.38919ZM8.5373 16.8458L7.12642 15.4349C6.34374 15.5367 5.55847 15.834 5.01354 16.565C4.89911 16.7185 4.85585 16.8994 4.88771 17.2539C4.90052 17.3966 4.92102 17.5296 4.94602 17.6917C4.95505 17.7503 4.96474 17.8132 4.9748 17.8812C5.0084 18.1086 5.04723 18.4038 5.03407 18.7065C5.0331 18.7289 5.03253 18.7579 5.03184 18.7924C5.02778 18.996 5.01984 19.3942 4.90493 19.7821C5.10732 19.8002 5.31086 19.8076 5.51129 19.8039C6.18333 19.7918 6.71583 19.6586 7.01862 19.4904C8.21893 18.8236 8.6475 17.6005 8.5373 16.8458ZM11.0959 15.1176L9.88579 15.3657L8.52559 14.0055L8.77363 12.7953L11.0959 15.1176ZM13.0086 14.2019L9.68942 10.8827L18.8808 3.98919C19.1712 3.77137 19.5776 3.80025 19.8343 4.05696C20.091 4.31367 20.1199 4.72008 19.9021 5.01051L13.0086 14.2019Z"
        fill="#2F3032"/>
</svg>
