<svg width="26" height="26" viewBox="0 0 26 26" fill="none" xmlns="http://www.w3.org/2000/svg">
  <path d="M8 11C8 8.23858 10.2386 6 13 6C15.7614 6 18 8.23858 18 11V12H19C21.2091 12 23 13.7909 23 16C23 18.2091 21.2091 20 19 20C18.4477 20 18 20.4477 18 21C18 21.5523 18.4477 22 19 22C22.3137 22 25 19.3137 25 16C25 13.0058 22.8068 10.5239 19.9392 10.0731C19.4857 6.64523 16.5518 4 13 4C9.13401 4 6 7.13401 6 11L6.00004 11.0225C3.19639 11.2754 1 13.6309 1 16.5V16.5116L1.00543 16.7465L1.00597 16.7581C1.1412 19.6763 3.54895 22 6.5 22C7.05228 22 7.5 21.5523 7.5 21C7.5 20.4477 7.05228 20 6.5 20C4.62617 20 3.09581 18.527 3.00435 16.6764L3.00002 16.4892C3.00569 14.6203 4.47655 13.0956 6.32359 13.0043L6.51173 13L8.26457 12.9994L8.06915 11.8344C8.02374 11.5637 8 11.285 8 11Z" fill="white" fill-opacity="1"/>
  <path d="M9.50001 18.7071C9.10949 18.3166 9.10949 17.6834 9.50001 17.2929L12.3284 14.4645C12.719 14.0739 13.3521 14.0739 13.7427 14.4645L16.5711 17.2929C16.9616 17.6834 16.9616 18.3166 16.5711 18.7071C16.1806 19.0976 15.5474 19.0976 15.1569 18.7071L14 17.5502V22C14 22.5523 13.5523 23 13 23C12.4477 23 12 22.5523 12 22V17.6213L10.9142 18.7071C10.5237 19.0976 9.89054 19.0976 9.50001 18.7071Z" fill="white" fill-opacity="1"/>
</svg>
