<svg width="24" height="24" viewBox="0 0 24 24" fill="none"
     xmlns="http://www.w3.org/2000/svg">
  <path
    d="M7 10C7 7.23858 9.23858 5 12 5C14.7614 5 17 7.23858 17 10V11H18C20.2091 11 22 12.7909 22 15C22 17.2091 20.2091 19 18 19C17.4477 19 17 19.4477 17 20C17 20.5523 17.4477 21 18 21C21.3137 21 24 18.3137 24 15C24 12.0058 21.8068 9.52385 18.9392 9.07308C18.4857 5.64523 15.5518 3 12 3C8.13401 3 5 6.13401 5 10L5.00004 10.0225C2.19639 10.2754 0 12.6309 0 15.5V15.5116L0.0054332 15.7465L0.00597 15.7581C0.1412 18.6763 2.54895 21 5.5 21C6.05228 21 6.5 20.5523 6.5 20C6.5 19.4477 6.05228 19 5.5 19C3.62617 19 2.09581 17.527 2.00435 15.6764L2.00002 15.4892C2.00569 13.6203 3.47655 12.0956 5.32359 12.0043L5.51173 12L7.26457 11.9994L7.06915 10.8344C7.02374 10.5637 7 10.285 7 10Z"
    fill="#2F3032"/>
  <path
    d="M8.50001 17.7071C8.10949 17.3166 8.10949 16.6834 8.50001 16.2929L11.3284 13.4645C11.719 13.0739 12.3521 13.0739 12.7427 13.4645L15.5711 16.2929C15.9616 16.6834 15.9616 17.3166 15.5711 17.7071C15.1806 18.0976 14.5474 18.0976 14.1569 17.7071L13 16.5502V21C13 21.5523 12.5523 22 12 22C11.4477 22 11 21.5523 11 21V16.6213L9.91423 17.7071C9.5237 18.0976 8.89054 18.0976 8.50001 17.7071Z"
    fill="#2F3032"/>
</svg>
