<svg width="20" height="20" viewBox="0 0 20 20" fill="none" xmlns="http://www.w3.org/2000/svg">
    <path d="M14.0175 4.70711C14.408 4.31658 15.0412 4.31658 15.4317 4.70711C15.8222 5.09763 15.8222 5.7308 15.4317 6.12132L6.12148 15.4316C5.73095 15.8221 5.09779 15.8221 4.70726 15.4316C4.31674 15.041 4.31674 14.4079 4.70726 14.0173L14.0175 4.70711Z" fill="#B8BDC7"/>
    <path d="M6.23933 4.70711C5.84881 4.31658 5.21564 4.31658 4.82512 4.70711C4.4346 5.09763 4.4346 5.7308 4.82512 6.12132L14.1354 15.4316C14.5259 15.8221 15.159 15.8221 15.5496 15.4316C15.9401 15.041 15.9401 14.4079 15.5496 14.0173L6.23933 4.70711Z" fill="#B8BDC7"/>
</svg>
