<svg width="24" height="24" viewBox="0 0 24 24" fill="none"     xmlns="http://www.w3.org/2000/svg">  <path    d="M15.8302 6.6378C16.2532 6.21473 16.9392 6.21473 17.3622 6.6378C17.7853 7.06087 17.7853 7.74679 17.3622 8.16986L8.16984 17.3622C7.74677 17.7853 7.06084 17.7853 6.63777 17.3623C6.2147 16.9392 6.2147 16.2533 6.63777 15.8302L15.8302 6.6378Z"    fill="white" fill-opacity="1"/>  <path    d="M8.16984 6.6378C7.74677 6.21473 7.06084 6.21473 6.63778 6.6378C6.21471 7.06087 6.21471 7.74679 6.63778 8.16986L15.8302 17.3622C16.2532 17.7853 16.9392 17.7853 17.3622 17.3623C17.7853 16.9392 17.7853 16.2533 17.3622 15.8302L8.16984 6.6378Z"    fill="white" fill-opacity="1"/></svg>