<svg width="20" height="20" viewBox="0 0 20 20" fill="none" xmlns="http://www.w3.org/2000/svg">
    <path d="M12.8285 5.75728C13.2191 5.36675 13.8522 5.36675 14.2428 5.75728C14.6333 6.1478 14.6333 6.78097 14.2428 7.17149L7.17168 14.2426C6.78116 14.6331 6.14799 14.6331 5.75747 14.2426C5.36695 13.852 5.36695 13.2189 5.75747 12.8283L12.8285 5.75728Z" fill="#2F3032"/>
    <path d="M7.17195 5.75746C6.78143 5.36694 6.14826 5.36694 5.75774 5.75746C5.36721 6.14799 5.36721 6.78115 5.75774 7.17167L12.8288 14.2427C13.2193 14.6333 13.8525 14.6333 14.243 14.2427C14.6335 13.8522 14.6335 13.2191 14.243 12.8285L7.17195 5.75746Z" fill="#2F3032"/>
    <circle cx="10" cy="10" r="9" stroke="#2F3032" stroke-width="2"/>
</svg>
