<svg width="24" height="24" viewBox="0 0 24 24" fill="none"
     xmlns="http://www.w3.org/2000/svg">
  <path fill-rule="evenodd" clip-rule="evenodd"
        d="M12 2.02258C10.4754 2.02258 9.19991 3.08867 8.87822 4.516C6.23887 5.70659 4.39995 8.36094 4.39995 11.447V14.3328L2.88175 15.851C2.4452 16.2876 2.19995 16.8797 2.19995 17.497C2.19995 18.4676 3.01583 19 3.74995 19H8.12595C8.56998 20.7252 10.1361 22 11.9999 22C13.8638 22 15.4299 20.7252 15.8739 19H20.25C20.9841 19 21.8 18.4676 21.8 17.497C21.8 16.8797 21.5547 16.2876 21.1182 15.851L19.6 14.3328V11.447C19.6 8.36094 17.761 5.7066 15.1217 4.516C14.8 3.08867 13.5245 2.02258 12 2.02258ZM10.8 5.22258C10.8 4.55984 11.3372 4.02258 12 4.02258C12.6627 4.02258 13.2 4.55984 13.2 5.22258V5.92976L13.8667 6.16542C16.0431 6.93466 17.6 9.01032 17.6 11.447V15.1612L19.4387 17H4.56122L6.39995 15.1612V11.447C6.39995 9.01032 7.95682 6.93466 10.1332 6.16542L10.8 5.92976V5.22258ZM11.9999 20C11.2597 20 10.6133 19.5978 10.2675 19H13.7324C13.3866 19.5978 12.7402 20 11.9999 20Z"
        fill="white" fill-opacity="1"/>
</svg>
