<svg width="50" height="50" viewBox="0 0 50 50" fill="none"
     xmlns="http://www.w3.org/2000/svg">
  <path fill-rule="evenodd" clip-rule="evenodd"
        d="M25 50C38.8071 50 50 38.8071 50 25C50 11.1929 38.8071 0 25 0C11.1929 0 0 11.1929 0 25C0 38.8071 11.1929 50 25 50Z"
        fill="white" fill-opacity="1"/>
  <path
    d="M30.1549 22.0142C30.1297 22.24 30.2595 22.4197 30.5441 22.5535C30.6445 22.6037 30.8831 22.6831 31.2598 22.7918C31.6364 22.9005 32.0717 23.0176 32.5656 23.143C33.0594 23.2684 33.5784 23.3896 34.1225 23.5067C34.6666 23.6237 35.1646 23.7324 35.6166 23.8328C35.918 23.8997 36.2026 23.9247 36.4704 23.908C36.7383 23.8913 36.9392 23.8161 37.0731 23.6823C37.3242 23.4314 37.4581 23.0217 37.4749 22.4532C37.4916 22.0017 37.5 21.5209 37.5 21.0109C37.5 20.5008 37.4916 20.0075 37.4749 19.5309C37.4581 19.0543 37.4414 18.6363 37.4247 18.2768C37.4079 17.9172 37.3912 17.6622 37.3744 17.5117C37.341 17.2441 37.2866 17.0435 37.2112 16.9097C37.1359 16.7759 37.048 16.6881 36.9475 16.6463C36.8471 16.6045 36.7383 16.6045 36.6211 16.6463C36.5039 16.6881 36.3951 16.7508 36.2946 16.8344C36.2277 16.8846 36.0645 17.0142 35.805 17.2232C35.5455 17.4323 35.2232 17.6789 34.8382 17.9632C34.4364 18.2809 31.2095 20.8604 30.9333 21.0861C30.6571 21.3119 30.4939 21.4415 30.4436 21.4749C30.2762 21.6087 30.18 21.7885 30.1549 22.0142Z"
    fill="#23272B"/>
  <path
    d="M34.0676 20.7778C32.4758 17.3651 29.0141 15 25 15C19.4772 15 15 19.4772 15 25C15 30.5228 19.4772 35 25 35C29.1006 35 32.6248 32.5318 34.1679 29"
    stroke="#23272B" stroke-width="3" stroke-linecap="round"
    stroke-linejoin="round"/>
</svg>
