<svg width="24" height="25" viewBox="0 0 24 25" fill="none"
     xmlns="http://www.w3.org/2000/svg">
  <path
    d="M12.0442 22.2766C17.567 22.2766 22.0442 17.7994 22.0442 12.2766C22.0442 6.7537 17.567 2.27655 12.0442 2.27655C6.52134 2.27655 2.04419 6.7537 2.04419 12.2766C2.04419 17.7994 6.52134 22.2766 12.0442 22.2766Z"
    stroke="white" stroke-opacity="0.9" stroke-width="2" stroke-linecap="round"
    stroke-linejoin="round"/>
  <path
    d="M17.2415 15.2766V15.2766C16.2041 17.07 14.2651 18.2766 12.0442 18.2766C9.82338 18.2766 7.88435 17.07 6.84692 15.2766"
    stroke="white" stroke-opacity="0.9" stroke-width="2" stroke-linecap="round"
    stroke-linejoin="round"/>
  <path
    d="M8.54419 12.2766C9.37262 12.2766 10.0442 11.605 10.0442 10.7766C10.0442 9.94812 9.37262 9.27655 8.54419 9.27655C7.71576 9.27655 7.04419 9.94812 7.04419 10.7766C7.04419 11.605 7.71576 12.2766 8.54419 12.2766Z"
    fill="white" fill-opacity="0.9"/>
  <path
    d="M15.5442 12.2766C16.3726 12.2766 17.0442 11.605 17.0442 10.7766C17.0442 9.94812 16.3726 9.27655 15.5442 9.27655C14.7158 9.27655 14.0442 9.94812 14.0442 10.7766C14.0442 11.605 14.7158 12.2766 15.5442 12.2766Z"
    fill="white" fill-opacity="0.9"/>
</svg>
