<svg width="24" height="24" viewBox="0 0 24 24" fill="none"
     xmlns="http://www.w3.org/2000/svg">
  <path
    d="M12.0442 22C17.567 22 22.0442 17.5228 22.0442 12C22.0442 6.47715 17.567 2 12.0442 2C6.52134 2 2.04419 6.47715 2.04419 12C2.04419 17.5228 6.52134 22 12.0442 22Z"
    stroke="white" stroke-width="2" stroke-linecap="round"
    stroke-linejoin="round"/>
  <path
    d="M17.2415 15V15C16.2041 16.7934 14.2651 18 12.0442 18C9.82338 18 7.88435 16.7934 6.84692 15"
    stroke="white" stroke-width="2" stroke-linecap="round"
    stroke-linejoin="round"/>
  <path
    d="M8.54419 12C9.37262 12 10.0442 11.3284 10.0442 10.5C10.0442 9.67157 9.37262 9 8.54419 9C7.71576 9 7.04419 9.67157 7.04419 10.5C7.04419 11.3284 7.71576 12 8.54419 12Z"
    fill="white"/>
  <path
    d="M15.5442 12C16.3726 12 17.0442 11.3284 17.0442 10.5C17.0442 9.67157 16.3726 9 15.5442 9C14.7158 9 14.0442 9.67157 14.0442 10.5C14.0442 11.3284 14.7158 12 15.5442 12Z"
    fill="white"/>
</svg>
