<svg width="24" height="24" viewBox="0 0 24 24" fill="none"
     xmlns="http://www.w3.org/2000/svg">
  <path fill-rule="evenodd" clip-rule="evenodd"
        d="M5.63604 5.63604C2.12132 9.15076 2.12132 14.8492 5.63604 18.364C8.91177 21.6397 14.0844 21.8624 17.6181 19.0322L19.7783 21.1924C20.1688 21.5829 20.802 21.5829 21.1925 21.1924C21.5831 20.8019 21.5831 20.1687 21.1925 19.7782L19.0323 17.6179C21.8624 14.0842 21.6396 8.91173 18.364 5.63604C14.8492 2.12132 9.15076 2.12132 5.63604 5.63604ZM7.05025 16.9497C4.31658 14.2161 4.31658 9.78392 7.05025 7.05025C9.78392 4.31658 14.2161 4.31658 16.9497 7.05025C19.6834 9.78392 19.6834 14.2161 16.9497 16.9497C14.2161 19.6834 9.78392 19.6834 7.05025 16.9497Z"
        fill="#2F3032"/>
</svg>
