<svg width="24" height="24" viewBox="0 0 24 24" fill="none" xmlns="http://www.w3.org/2000/svg">  <path fill-rule="evenodd" clip-rule="evenodd" d="M2.05228 6H2V19H2.05228C2.18693 19.6358 2.56766 20.173 3.03043 20.5985C3.60913 21.1306 4.39133 21.5638 5.27359 21.9069C7.04448 22.5956 9.42296 23 12 23C14.577 23 16.9555 22.5956 18.7264 21.9069C19.6087 21.5638 20.3909 21.1306 20.9696 20.5985C21.4323 20.173 21.8131 19.6358 21.9477 19H22V6H21.9477C21.8131 5.36416 21.4323 4.82699 20.9696 4.4015C20.3909 3.86943 19.6087 3.43622 18.7264 3.09312C16.9555 2.40444 14.577 2 12 2C9.42296 2 7.04448 2.40444 5.27359 3.09312C4.39133 3.43622 3.60913 3.86943 3.03043 4.4015C2.56766 4.82699 2.18693 5.36416 2.05228 6ZM4 6.5C4 6.39112 4.0528 6.17839 4.3841 5.87378C4.71624 5.56839 5.25207 5.2474 5.99849 4.95713C7.48496 4.37906 9.60648 4 12 4C14.3935 4 16.515 4.37906 18.0015 4.95713C18.7479 5.2474 19.2838 5.56839 19.6159 5.87378C19.9472 6.17839 20 6.39112 20 6.5C20 6.60888 19.9472 6.82161 19.6159 7.12622C19.2838 7.43161 18.7479 7.7526 18.0015 8.04287C16.515 8.62094 14.3935 9 12 9C9.60648 9 7.48496 8.62094 5.99849 8.04287C5.25207 7.7526 4.71624 7.43161 4.3841 7.12622C4.0528 6.82161 4 6.60888 4 6.5ZM20 9.30142C19.6117 9.52812 19.1824 9.72953 18.7264 9.90688C16.9555 10.5956 14.577 11 12 11C9.42296 11 7.04448 10.5956 5.27359 9.90688C4.81757 9.72953 4.38827 9.52812 4 9.30142V12.5C4 12.6089 4.0528 12.8216 4.3841 13.1262C4.71624 13.4316 5.25207 13.7526 5.99849 14.0429C7.48496 14.6209 9.60648 15 12 15C14.3935 15 16.515 14.6209 18.0015 14.0429C18.7479 13.7526 19.2838 13.4316 19.6159 13.1262C19.9472 12.8216 20 12.6089 20 12.5V9.30142ZM20 15.3014C19.6117 15.5281 19.1824 15.7295 18.7264 15.9069C16.9555 16.5956 14.577 17 12 17C9.42296 17 7.04448 16.5956 5.27359 15.9069C4.81757 15.7295 4.38827 15.5281 4 15.3014V18.5C4 18.6089 4.0528 18.8216 4.3841 19.1262C4.71624 19.4316 5.25207 19.7526 5.99849 20.0429C7.48496 20.6209 9.60648 21 12 21C14.3935 21 16.515 20.6209 18.0015 20.0429C18.7479 19.7526 19.2838 19.4316 19.6159 19.1262C19.9472 18.8216 20 18.6089 20 18.5V15.3014Z" fill="white" fill-opacity="1"/></svg>