<svg width="24" height="24" viewBox="0 0 24 24" fill="none"
     xmlns="http://www.w3.org/2000/svg">
  <rect x="9.5" y="11.5" width="9" height="1" rx="0.5" fill="#F67070"
        stroke="#F67070"/>
  <path d="M15.8284 9L18.6568 11.8284L15.8284 14.6569" stroke="#F67070"
        stroke-width="2" stroke-linecap="round" stroke-linejoin="round"/>
  <path
    d="M16 5C16.5523 5 17 4.55228 17 4C17 3.44772 16.5523 3 16 3V5ZM16 21C16.5523 21 17 20.5523 17 20C17 19.4477 16.5523 19 16 19V21ZM7 5H16V3H7V5ZM16 19H7V21H16V19ZM6 18V6H4V18H6ZM7 19C6.44772 19 6 18.5523 6 18H4C4 19.6569 5.34315 21 7 21V19ZM7 3C5.34315 3 4 4.34315 4 6H6C6 5.44772 6.44772 5 7 5V3Z"
    fill="#F67070"/>
</svg>
