<svg width="16" height="16" viewBox="0 0 16 16" fill="none"
     xmlns="http://www.w3.org/2000/svg">
  <path fill-rule="evenodd" clip-rule="evenodd"
        d="M2.91507 2.91507C0.361644 5.4685 0.361644 9.60842 2.91507 12.1619C5.30315 14.5499 9.0789 14.7046 11.6467 12.6258L12.7058 13.6848C13.0963 14.0754 13.7294 14.0754 14.12 13.6848C14.5105 13.2943 14.5105 12.6611 14.12 12.2706L12.994 11.1447C14.676 8.60597 14.3986 5.15183 12.1618 2.91507C9.60842 0.361643 5.4685 0.361643 2.91507 2.91507ZM4.32928 10.7476C2.5569 8.97526 2.5569 6.10166 4.32928 4.32928C6.10166 2.55691 8.97525 2.55691 10.7476 4.32928C12.52 6.10166 12.52 8.97526 10.7476 10.7476C8.97525 12.52 6.10166 12.52 4.32928 10.7476Z"
        fill="#B8BDC7"/>
</svg>
