<svg width="14" height="14" viewBox="0 0 14 14" fill="none" xmlns="http://www.w3.org/2000/svg">
    <path fill-rule="evenodd" clip-rule="evenodd"
        d="M0.5 3.65385C0.5 2.46431 1.46431 1.5 2.65385 1.5H11.2692C12.4588 1.5 13.4231 2.46431 13.4231 3.65385V10.1154C13.4231 11.3049 12.4588 12.2692 11.2692 12.2692H2.65385C1.46431 12.2692 0.5 11.3049 0.5 10.1154V3.65385ZM2.65385 2.5H11.2692C11.9065 2.5 12.4231 3.0166 12.4231 3.65385V7.75523L11.2531 6.58529C10.6373 5.96946 9.63885 5.96946 9.02303 6.58529L7.87271 7.7356L5.86852 5.7314C5.25269 5.11557 4.25424 5.11557 3.63841 5.7314L1.5 7.86981V3.65385C1.5 3.01659 2.01659 2.5 2.65385 2.5ZM1.5 9.28403V10.1154C1.5 10.7526 2.0166 11.2692 2.65385 11.2692H11.2692C11.9065 11.2692 12.4231 10.7526 12.4231 10.1154V9.16944L10.546 7.29239C10.3207 7.06709 9.95544 7.06709 9.73013 7.29239L7.87271 9.14981L5.16141 6.43851C4.93611 6.21321 4.57082 6.21321 4.34552 6.43851L1.5 9.28403Z"
        fill="white" fill-opacity="1" />
</svg>