<svg width="30" height="30" viewBox="0 0 30 30" fill="none" xmlns="http://www.w3.org/2000/svg">
<rect opacity="0.01" width="30" height="30" fill="white"/>
<path d="M16.1429 24C16.083 24 16.0235 24 15.9643 24M15.9643 24C12.7693 24 10.4684 24 8.99813 24C7.89354 24 7 23.1045 7 22V21.735C7 21.031 7.37021 20.3788 7.97474 20.0178L11.7172 17.7834C11.9299 17.6564 11.9804 17.3671 11.8343 17.1671C11.3358 16.4844 10.3684 14.9688 10.3684 13.4857C10.3684 13.5179 10.3684 8.43947 10.3684 8.43947C10.3684 6.69554 12.8766 4.99473 15 5.00001C17.1234 5.00529 19.6316 6.69268 19.6316 8.43947V13.4857C19.6316 15.243 18.7785 16.5335 18.2718 17.1451C18.1003 17.3521 18.1385 17.6805 18.3689 17.8189L22.0296 20.0171C22.6317 20.3786 23 21.0294 23 21.7317V22C23 23.1045 22.1046 24 21 24H15.9643Z" stroke="#2F3032" stroke-width="2" stroke-linecap="round"/>
</svg>
