<svg width="30" height="30" viewBox="0 0 30 30" fill="none" xmlns="http://www.w3.org/2000/svg">
    <rect opacity="0.01" width="30" height="30" fill="white"/>
    <path d="M16.0068 16.8823C15.5939 17.2491 15.5565 17.8811 15.9232 18.294C16.29 18.7069 16.9221 18.7443 17.335 18.3775L16.0068 16.8823ZM13.9167 5.90968L13.9191 4.90968L13.9167 5.90968ZM10.8772 17.2282L11.685 16.6388V16.6388L10.8772 17.2282ZM10.756 17.8971L10.2321 17.0453L10.2321 17.0453L10.756 17.8971ZM6.9705 20.2253L7.49438 21.0771H7.49438L6.9705 20.2253ZM8.03747 24L8.03747 23H8.03746L8.03747 24ZM15.0002 25C15.5525 25 16.0002 24.5522 16.0002 24C16.0002 23.4477 15.5524 23 15.0002 23L15.0002 25ZM16.6709 17.6299C17.335 18.3775 17.3353 18.3773 17.3356 18.377C17.3357 18.3769 17.336 18.3766 17.3362 18.3764C17.3367 18.376 17.3371 18.3756 17.3376 18.3752C17.3386 18.3743 17.3397 18.3733 17.3409 18.3723C17.3432 18.3701 17.346 18.3676 17.3491 18.3648C17.3554 18.359 17.3633 18.3518 17.3726 18.3431C17.3911 18.3258 17.4155 18.3025 17.4448 18.2734C17.5034 18.2154 17.5822 18.134 17.6743 18.0302C17.8579 17.8234 18.098 17.5241 18.3373 17.1406C18.8142 16.3765 19.307 15.2469 19.307 13.8402H17.307C17.307 14.7698 16.9818 15.5351 16.6406 16.0817C16.4709 16.3537 16.3019 16.5637 16.1787 16.7024C16.1175 16.7714 16.0684 16.8218 16.0375 16.8523C16.0221 16.8676 16.0113 16.8778 16.0059 16.8829C16.0032 16.8854 16.0019 16.8866 16.002 16.8865C16.002 16.8865 16.0025 16.8861 16.0032 16.8854C16.0036 16.885 16.0041 16.8846 16.0047 16.8841C16.005 16.8838 16.0053 16.8835 16.0057 16.8832C16.0058 16.8831 16.0061 16.8828 16.0062 16.8828C16.0065 16.8825 16.0068 16.8823 16.6709 17.6299ZM19.307 13.8402V9.12414H17.307V13.8402H19.307ZM19.307 9.12414C19.307 7.82974 18.3982 6.76562 17.4444 6.0904C16.4563 5.39081 15.1614 4.91273 13.9191 4.90968L13.9142 6.90968C14.6847 6.91157 15.585 7.22446 16.2888 7.72273C17.027 8.24538 17.307 8.78602 17.307 9.12414H19.307ZM13.9191 4.90968C12.6729 4.90663 11.3759 5.38707 10.3879 6.08841C9.43429 6.76528 8.52632 7.83179 8.52632 9.12414H10.5263C10.5263 8.78664 10.8071 8.24344 11.5455 7.71932C12.2495 7.21965 13.1477 6.9078 13.9142 6.90968L13.9191 4.90968ZM8.52632 9.12414V13.8402H10.5263V9.12414H8.52632ZM8.52632 13.8402C8.52632 14.717 8.80471 15.5495 9.11447 16.2146C9.42825 16.8883 9.80498 17.4553 10.0693 17.8176L11.685 16.6388C11.4673 16.3404 11.1686 15.888 10.9275 15.3702C10.6823 14.8438 10.5263 14.3127 10.5263 13.8402H8.52632ZM10.2321 17.0453L6.44661 19.3735L7.49438 21.0771L11.2799 18.7488L10.2321 17.0453ZM8.03748 25L15.0002 25L15.0002 23L8.03747 23L8.03748 25ZM5 21.9616C5 23.6391 6.35882 25 8.03748 25L8.03746 23C7.46457 23 7 22.5357 7 21.9616H5ZM6.44661 19.3735C5.54765 19.9264 5 20.9062 5 21.9616H7C7 21.6009 7.18716 21.2661 7.49438 21.0771L6.44661 19.3735ZM10.0693 17.8176C9.90744 17.5957 9.92826 17.2322 10.2321 17.0453L11.2799 18.7488C12.039 18.2819 12.162 17.2925 11.685 16.6388L10.0693 17.8176Z" fill="#2F3032"/>
    <path fill-rule="evenodd" clip-rule="evenodd" d="M18 20C17.4477 20 17 20.4477 17 21C17 21.5523 17.4477 22 18 22H21.5832C22.1355 22 22.5832 21.5523 22.5832 21C22.5832 20.4477 22.1355 20 21.5832 20H18ZM18 23C17.4477 23 17 23.4477 17 24C17 24.5523 17.4477 25 18 25H23C23.5523 25 24 24.5523 24 24C24 23.4477 23.5523 23 23 23H18Z" fill="#2F3032"/>
</svg>
