<svg width="112" height="112" viewBox="0 0 112 112" fill="none" xmlns="http://www.w3.org/2000/svg">
    <path d="M0 8C0 3.58172 3.58172 0 8 0H112V112H8C3.58172 112 0 108.418 0 104V8Z" fill="#ECECEC"/>
    <path d="M32.3087 45.2736C32.3087 45.0426 32.3549 44.8371 32.4473 44.6573C32.5476 44.4776 32.6785 44.3235 32.8403 44.1952C33.002 44.0667 33.1869 43.9706 33.3949 43.9063C33.6107 43.8357 33.834 43.8004 34.0651 43.8004C34.2961 43.8004 34.5157 43.8357 34.7237 43.9063C34.9394 43.9706 35.1282 44.0667 35.2899 44.1952C35.4516 44.3235 35.5787 44.4776 35.6712 44.6573C35.7713 44.8371 35.8214 45.0426 35.8214 45.2736V49.2983C35.8214 49.5294 35.7713 49.7348 35.6712 49.9146C35.5787 50.0943 35.4516 50.2484 35.2899 50.3767C35.1282 50.5052 34.9394 50.6046 34.7237 50.6752C34.5157 50.7394 34.2961 50.7715 34.0651 50.7715C33.834 50.7715 33.6107 50.7394 33.3949 50.6752C33.1869 50.6046 33.002 50.5052 32.8403 50.3767C32.6785 50.2484 32.5476 50.0943 32.4473 49.9146C32.3549 49.7348 32.3087 49.5294 32.3087 49.2983V45.2736ZM33.4874 49.2983C33.4874 49.4396 33.5412 49.5583 33.6491 49.6546C33.7569 49.7445 33.8957 49.7895 34.0651 49.7895C34.2345 49.7895 34.3732 49.7445 34.481 49.6546C34.5889 49.5583 34.6428 49.4396 34.6428 49.2983V45.2736C34.6428 45.1323 34.5889 45.0168 34.481 44.927C34.3732 44.8307 34.2345 44.7825 34.0651 44.7825C33.8957 44.7825 33.7569 44.8307 33.6491 44.927C33.5412 45.0168 33.4874 45.1323 33.4874 45.2736V49.2983Z" fill="white"/>
    <path d="M38.1633 59.2161C38.1633 58.9851 38.2095 58.7796 38.3019 58.5998C38.4022 58.4201 38.5331 58.266 38.6949 58.1377C38.8566 58.0092 39.0415 57.9131 39.2496 57.8488C39.4653 57.7782 39.6886 57.7429 39.9197 57.7429C40.1507 57.7429 40.3703 57.7782 40.5783 57.8488C40.794 57.9131 40.9828 58.0092 41.1445 58.1377C41.3063 58.266 41.4334 58.4201 41.5258 58.5998C41.6259 58.7796 41.676 58.9851 41.676 59.2161V63.2409C41.676 63.4719 41.6259 63.6773 41.5258 63.8572C41.4334 64.0368 41.3063 64.1909 41.1445 64.3192C40.9828 64.4477 40.794 64.5472 40.5783 64.6177C40.3703 64.6819 40.1507 64.714 39.9197 64.714C39.6886 64.714 39.4653 64.6819 39.2496 64.6177C39.0415 64.5472 38.8566 64.4477 38.6949 64.3192C38.5331 64.1909 38.4022 64.0368 38.3019 63.8572C38.2095 63.6773 38.1633 63.4719 38.1633 63.2409V59.2161ZM39.342 63.2409C39.342 63.3821 39.3958 63.5008 39.5038 63.5971C39.6115 63.687 39.7503 63.732 39.9197 63.732C40.0891 63.732 40.2278 63.687 40.3356 63.5971C40.4436 63.5008 40.4974 63.3821 40.4974 63.2409V59.2161C40.4974 59.0748 40.4436 58.9593 40.3356 58.8695C40.2278 58.7732 40.0891 58.725 39.9197 58.725C39.7503 58.725 39.6115 58.7732 39.5038 58.8695C39.3958 58.9593 39.342 59.0748 39.342 59.2161V63.2409Z" fill="white"/>
    <path d="M32.3087 66.1869C32.3087 65.9559 32.3549 65.7504 32.4473 65.5706C32.5476 65.3909 32.6785 65.2369 32.8403 65.1085C33.002 64.9801 33.1869 64.8839 33.3949 64.8196C33.6107 64.749 33.834 64.7137 34.0651 64.7137C34.2961 64.7137 34.5157 64.749 34.7237 64.8196C34.9394 64.8839 35.1282 64.9801 35.2899 65.1085C35.4516 65.2369 35.5787 65.3909 35.6712 65.5706C35.7713 65.7504 35.8214 65.9559 35.8214 66.1869V70.2117C35.8214 70.4427 35.7713 70.6482 35.6712 70.828C35.5787 71.0077 35.4516 71.1617 35.2899 71.2901C35.1282 71.4185 34.9394 71.518 34.7237 71.5885C34.5157 71.6527 34.2961 71.6849 34.0651 71.6849C33.834 71.6849 33.6107 71.6527 33.3949 71.5885C33.1869 71.518 33.002 71.4185 32.8403 71.2901C32.6785 71.1617 32.5476 71.0077 32.4473 70.828C32.3549 70.6482 32.3087 70.4427 32.3087 70.2117V66.1869ZM33.4874 70.2117C33.4874 70.3529 33.5412 70.4716 33.6491 70.5679C33.7569 70.6578 33.8957 70.7028 34.0651 70.7028C34.2345 70.7028 34.3732 70.6578 34.481 70.5679C34.5889 70.4716 34.6428 70.3529 34.6428 70.2117V66.1869C34.6428 66.0457 34.5889 65.9301 34.481 65.8404C34.3732 65.744 34.2345 65.6958 34.0651 65.6958C33.8957 65.6958 33.7569 65.744 33.6491 65.8404C33.5412 65.9301 33.4874 66.0457 33.4874 66.1869V70.2117Z" fill="white"/>
    <path d="M49.8724 55.7303C49.8724 55.4992 49.9186 55.2938 50.011 55.114C50.1113 54.9343 50.2422 54.7802 50.404 54.6519C50.5657 54.5234 50.7506 54.4272 50.9587 54.3629C51.1744 54.2924 51.3978 54.2571 51.6288 54.2571C51.8598 54.2571 52.0794 54.2924 52.2874 54.3629C52.5031 54.4272 52.6919 54.5234 52.8536 54.6519C53.0154 54.7802 53.1425 54.9343 53.2349 55.114C53.335 55.2938 53.3852 55.4992 53.3852 55.7303V59.755C53.3852 59.9861 53.335 60.1915 53.2349 60.3713C53.1425 60.551 53.0154 60.7051 52.8536 60.8334C52.6919 60.9619 52.5031 61.0613 52.2874 61.1319C52.0794 61.196 51.8598 61.2282 51.6288 61.2282C51.3978 61.2282 51.1744 61.196 50.9587 61.1319C50.7506 61.0613 50.5657 60.9619 50.404 60.8334C50.2422 60.7051 50.1113 60.551 50.011 60.3713C49.9186 60.1915 49.8724 59.9861 49.8724 59.755V55.7303ZM51.0511 59.755C51.0511 59.8963 51.1049 60.0149 51.2129 60.1112C51.3206 60.2012 51.4594 60.2461 51.6288 60.2461C51.7982 60.2461 51.937 60.2012 52.0447 60.1112C52.1527 60.0149 52.2065 59.8963 52.2065 59.755V55.7303C52.2065 55.589 52.1527 55.4735 52.0447 55.3837C51.937 55.2874 51.7982 55.2392 51.6288 55.2392C51.4594 55.2392 51.3206 55.2874 51.2129 55.3837C51.1049 55.4735 51.0511 55.589 51.0511 55.7303V59.755Z" fill="white"/>
    <path d="M49.8724 76.644C49.8724 76.4129 49.9186 76.2075 50.011 76.0277C50.1113 75.848 50.2422 75.6939 50.404 75.5656C50.5657 75.4371 50.7506 75.3409 50.9587 75.2766C51.1744 75.2061 51.3978 75.1708 51.6288 75.1708C51.8598 75.1708 52.0794 75.2061 52.2874 75.2766C52.5031 75.3409 52.6919 75.4371 52.8536 75.5656C53.0154 75.6939 53.1425 75.848 53.2349 76.0277C53.335 76.2075 53.3852 76.4129 53.3852 76.644V80.6687C53.3852 80.8997 53.335 81.1052 53.2349 81.285C53.1425 81.4647 53.0154 81.6188 52.8536 81.7471C52.6919 81.8756 52.5031 81.975 52.2874 82.0456C52.0794 82.1097 51.8598 82.1419 51.6288 82.1419C51.3978 82.1419 51.1744 82.1097 50.9587 82.0456C50.7506 81.975 50.5657 81.8756 50.404 81.7471C50.2422 81.6188 50.1113 81.4647 50.011 81.285C49.9186 81.1052 49.8724 80.8997 49.8724 80.6687V76.644ZM51.0511 80.6687C51.0511 80.81 51.1049 80.9286 51.2129 81.0249C51.3206 81.1149 51.4594 81.1598 51.6288 81.1598C51.7982 81.1598 51.937 81.1149 52.0447 81.0249C52.1527 80.9286 52.2065 80.81 52.2065 80.6687V76.644C52.2065 76.5027 52.1527 76.3872 52.0447 76.2974C51.937 76.2011 51.7982 76.1528 51.6288 76.1528C51.4594 76.1528 51.3206 76.2011 51.2129 76.2974C51.1049 76.3872 51.0511 76.5027 51.0511 76.644V80.6687Z" fill="white"/>
    <path d="M44.0178 73.1585C44.0178 72.9274 44.064 72.722 44.1564 72.5422C44.2567 72.3625 44.3876 72.2084 44.5494 72.0801C44.7111 71.9516 44.896 71.8555 45.104 71.7912C45.3198 71.7206 45.5431 71.6853 45.7742 71.6853C46.0052 71.6853 46.2248 71.7206 46.4328 71.7912C46.6485 71.8555 46.8373 71.9516 46.999 72.0801C47.1607 72.2084 47.2878 72.3625 47.3803 72.5422C47.4804 72.722 47.5305 72.9274 47.5305 73.1585V77.1832C47.5305 77.4143 47.4804 77.6197 47.3803 77.7995C47.2878 77.9792 47.1607 78.1333 46.999 78.2616C46.8373 78.3901 46.6485 78.4895 46.4328 78.5601C46.2248 78.6243 46.0052 78.6564 45.7742 78.6564C45.5431 78.6564 45.3198 78.6243 45.104 78.5601C44.896 78.4895 44.7111 78.3901 44.5494 78.2616C44.3876 78.1333 44.2567 77.9792 44.1564 77.7995C44.064 77.6197 44.0178 77.4143 44.0178 77.1832V73.1585ZM45.1965 77.1832C45.1965 77.3245 45.2503 77.4432 45.3582 77.5395C45.466 77.6294 45.6048 77.6743 45.7742 77.6743C45.9436 77.6743 46.0823 77.6294 46.1901 77.5395C46.2981 77.4432 46.3519 77.3245 46.3519 77.1832V73.1585C46.3519 73.0172 46.2981 72.9017 46.1901 72.8119C46.0823 72.7156 45.9436 72.6674 45.7742 72.6674C45.6048 72.6674 45.466 72.7156 45.3582 72.8119C45.2503 72.9017 45.1965 73.0172 45.1965 73.1585V77.1832Z" fill="white"/>
    <path d="M39.3342 54.2574V48.52L38.1633 49.3766V48.143L39.3342 47.2863H40.5051V54.2574H39.3342Z" fill="white"/>
    <path d="M33.4796 61.2282V55.4908L32.3087 56.3474V55.1139L33.4796 54.2571H34.6505V61.2282H33.4796Z" fill="white"/>
    <path d="M39.3342 75.1711V69.4337L38.1633 70.2903V69.0567L39.3342 68.2H40.5051V75.1711H39.3342Z" fill="white"/>
    <path d="M45.1887 57.7428V52.0054L44.0178 52.8621V51.6285L45.1887 50.7717H46.3596V57.7428H45.1887Z" fill="white"/>
    <path d="M45.1887 68.1994V62.462L44.0178 63.3186V62.0851L45.1887 61.2283H46.3596V68.1994H45.1887Z" fill="white"/>
    <path d="M51.0433 71.6849V65.9475L49.8724 66.8041V65.5705L51.0433 64.7137H52.2142V71.6849H51.0433Z" fill="white"/>
    <path fill-rule="evenodd" clip-rule="evenodd" d="M56.6996 85.9524V56.1227C56.6996 55.9834 56.7734 55.8543 56.8937 55.7825L82.0835 40.7883C82.35 40.6298 82.689 40.8202 82.689 41.1285V71.1423C82.689 71.2823 82.6144 71.4121 82.4931 71.4835L57.3033 86.2938C57.0366 86.4505 56.6996 86.2599 56.6996 85.9524ZM80.6896 49.3917C80.6854 49.2021 80.5649 49.1078 80.4163 49.181C80.3811 49.1983 80.346 49.2245 80.3134 49.258L76.8106 52.8339L76.8002 52.8446C76.6253 53.0295 76.4919 53.4696 76.4915 53.7188L76.4913 67.0647L76.4915 67.0798C76.4955 67.3127 76.6031 67.4887 76.7666 67.5095L80.275 68.3504L80.2832 68.3512C80.4179 68.3615 80.5763 68.2074 80.6402 68.0016C80.6576 67.9453 80.6668 67.8886 80.6668 67.8356L80.6898 49.4028L80.6896 49.3917ZM61.698 59.1219C61.6654 59.1205 61.6304 59.1288 61.595 59.1463C61.4437 59.2207 61.3209 59.4409 61.3207 59.6379L61.2977 78.0707C61.2977 78.1234 61.3067 78.1714 61.3241 78.2105C61.3887 78.3565 61.552 78.3517 61.6888 78.2L65.2025 74.2984C65.3699 74.1127 65.4766 73.8409 65.4768 73.6001L65.4942 59.6823C65.4946 59.4282 65.3767 59.2578 65.1961 59.251L61.698 59.1219ZM74.6433 58.6797L71.4088 57.8392C71.2183 57.7896 70.9834 57.9053 70.7926 58.1425L67.552 62.3706C67.361 62.6079 67.2433 62.9306 67.2429 63.2173L67.2369 68.0864C67.2365 68.3732 67.3537 68.5803 67.5442 68.6297L70.7787 69.2706C70.9692 69.32 71.2041 69.2044 71.3948 68.9671L74.6355 64.9388C74.8264 64.7015 74.9442 64.3788 74.9446 64.0921L74.9506 59.2231C74.951 58.9362 74.8338 58.7291 74.6433 58.6797Z" fill="white"/>
    <path fill-rule="evenodd" clip-rule="evenodd" d="M53.2011 27.1246C54.9332 26.1324 57.0669 26.1324 58.7989 27.1246L53.2011 27.1246ZM53.2011 27.1246L32.1979 39.1571C32.1979 39.1571 32.1979 39.1571 32.1979 39.1571C30.4659 40.1494 29.399 41.983 29.399 43.9674V68.0324C29.399 70.0168 30.4659 71.8504 32.1979 72.8427C32.1979 72.8427 32.1979 72.8428 32.1979 72.8428L53.2011 84.8752C54.9331 85.8674 57.0669 85.8674 58.7989 84.8752L79.8021 72.8428C81.5341 71.8505 82.601 70.0168 82.601 68.0324V43.9674C82.601 41.983 81.5341 40.1494 79.8021 39.1571L80.4019 38.1263L79.8021 39.1571L58.7989 27.1246M52.0017 25.063C54.4759 23.6457 57.5241 23.6457 59.9983 25.063L59.9984 25.0631L81.0016 37.0956L80.4125 38.1081L81.0016 37.0956C83.4759 38.5131 85 41.1326 85 43.9674V68.0324C85 70.8673 83.4759 73.4868 81.0016 74.9043L80.4019 73.8735L81.0016 74.9043L59.9984 86.9368L59.9983 86.9368C57.5241 88.3541 54.4759 88.3541 52.0017 86.9368L52.0016 86.9368L30.9984 74.9043L30.9984 74.9043C28.5241 73.4868 27 70.8673 27 68.0324V43.9674C27 41.1326 28.5241 38.5131 30.9984 37.0956L30.9984 37.0956L52.0016 25.0631L52.0017 25.063Z" fill="white"/>
    <path fill-rule="evenodd" clip-rule="evenodd" d="M82.0993 40.7797L83.2781 42.8529L58.9157 56.4916C58.2873 56.8434 57.8988 57.5036 57.8988 58.2193V86.6486H55.4998V58.2193C55.4998 56.6446 56.3547 55.1922 57.7368 54.4184L82.0993 40.7797Z" fill="white"/>
</svg>
