<svg width="24" height="24" viewBox="0 0 24 24" fill="none" xmlns="http://www.w3.org/2000/svg">
<path d="M3 12C3 7.02944 7.02944 3 12 3C16.9706 3 21 7.02944 21 12C21 16.9706 16.9706 21 12 21C10.3607 21 8.82378 20.5617 7.5 19.796" stroke="#2F3032" stroke-width="2" stroke-linecap="round"/>
<path fill-rule="evenodd" clip-rule="evenodd" d="M0.292374 10.2929C-0.0974579 10.6834 -0.0974579 11.3166 0.292374 11.7071L2.40993 13.8284C2.79976 14.219 3.43181 14.219 3.82164 13.8284L5.9392 11.7071C6.32903 11.3166 6.32903 10.6834 5.9392 10.2929C5.54936 9.90239 4.91732 9.90239 4.52749 10.2929L3.11578 11.7071L1.70408 10.2929C1.31425 9.90239 0.682205 9.90239 0.292374 10.2929Z" fill="#2F3032"/>
</svg>
