<svg width="14" height="14" viewBox="0 0 14 14" fill="none" xmlns="http://www.w3.org/2000/svg">
    <path fill-rule="evenodd" clip-rule="evenodd"
        d="M0 4C0 2.89543 0.895431 2 2 2H9C10.1046 2 11 2.89543 11 4V4.50011L12.5528 3.72371C13.0468 3.47672 13.6474 3.67695 13.8944 4.17093C13.9639 4.30978 14 4.46289 14 4.61814V9.38207C14 9.93436 13.5523 10.3821 13 10.3821C12.8448 10.3821 12.6916 10.3459 12.5528 10.2765L11 9.5001V10C11 11.1046 10.1046 12 9 12H2C0.895431 12 0 11.1046 0 10V4ZM2 3H9C9.55228 3 10 3.44772 10 4V10C10 10.5523 9.55229 11 9 11H2C1.44772 11 1 10.5523 1 10V4C1 3.44772 1.44772 3 2 3ZM11 8.38207L13 9.38207V4.61814L11 5.61814V8.38207Z"
        fill="white" fill-opacity="1" />
</svg>