<svg width="68" height="68" viewBox="0 0 68 68" fill="none" xmlns="http://www.w3.org/2000/svg">
    <rect x="14" y="29" width="45" height="37" rx="6" stroke="#B7BBC7" stroke-width="4"/>
    <path fill-rule="evenodd" clip-rule="evenodd"
          d="M36.5 41C34.0147 41 32 43.0147 32 45.5C32 47.0655 32.7994 48.4443 34.0123 49.2504C34.0042 49.3325 34 49.4158 34 49.5V51.5C34 52.8807 35.1193 54 36.5 54C37.8807 54 39 52.8807 39 51.5V49.5C39 49.4158 38.9958 49.3325 38.9877 49.2504C40.2006 48.4443 41 47.0655 41 45.5C41 43.0147 38.9853 41 36.5 41Z"
          fill="#B7BBC7"/>
    <path d="M51 31V19.5C51 11.4919 44.5081 5 36.5 5V5C28.4919 5 22 11.4919 22 19.5V31" stroke="#B7BBC7"
          stroke-width="4"/>
</svg>
