<svg width="7" height="8" viewBox="0 0 7 8" fill="none" xmlns="http://www.w3.org/2000/svg">
    <path opacity="1" fill-rule="evenodd" clip-rule="evenodd"
          d="M5.99461 2.33562C5.90997 1.03154 4.82541 0 3.49993 0C2.11921 0 0.999926 1.11929 0.999926 2.5V3H0.928571C0.415736 3 0 3.41574 0 3.92857V7.07143C0 7.58426 0.415736 8 0.928571 8H6.07143C6.58426 8 7 7.58426 7 7.07143V3.92857C7 3.41574 6.58426 3 6.07143 3H5.99993V2.5L5.99461 2.33562ZM4.99993 3V2.5C4.99993 1.67157 4.32835 1 3.49993 1C2.72023 1 2.07948 1.59489 2.00679 2.35554L1.99993 2.5V3H4.99993ZM5.99993 4V7H0.999926V4H5.99993Z"
          fill="white" fill-opacity="1"/>
</svg>
