<svg width="10" height="10" viewBox="0 0 10 10" fill="none"
     xmlns="http://www.w3.org/2000/svg">
  <path
    d="M8.71347 4.31383C8.99916 4.02814 8.99916 3.56496 8.71347 3.27927L6.45608 1.02188C6.17039 0.736196 5.70721 0.736196 5.42152 1.02188C5.28433 1.15907 5.20726 1.34514 5.20726 1.53916V2.69923L4.47571 3.43078L1.5521 3.69656C1.11533 3.73627 0.923044 4.26737 1.23316 4.57749L2.71544 6.05976L0.94668 8.64487C0.882034 8.73935 0.996001 8.85332 1.09048 8.78867L3.67559 7.01992L5.15786 8.50219C5.46798 8.81231 5.99908 8.62002 6.03879 8.18325L6.30457 5.25964L7.03612 4.52809H8.19619C8.39021 4.52809 8.57628 4.45102 8.71347 4.31383Z"
    stroke="#86909D" stroke-width="1.03028" stroke-linejoin="round"/>
</svg>
