<svg width="14" height="14" viewBox="0 0 14 14" fill="none" xmlns="http://www.w3.org/2000/svg">
<path fill-rule="evenodd" clip-rule="evenodd" d="M7 0C3.13401 0 0 3.13401 0 7C0 10.866 3.13401 14 7 14C10.866 14 14 10.866 14 7C14 3.13401 10.866 0 7 0ZM3 6.39992C3 6.09614 3.13809 5.80883 3.3753 5.61905L6.3753 3.21906C7.03007 2.69524 8 3.16142 8 3.99992V9.83867C8 10.6772 7.03007 11.1434 6.37531 10.6195L3.3753 8.21954C3.13809 8.02977 3 7.74246 3 7.43867V6.39992ZM12.0355 5.62641C11.8403 5.43114 11.5237 5.43114 11.3284 5.62641L10.6213 6.33351L9.91421 5.62641C9.71895 5.43114 9.40237 5.43114 9.20711 5.62641C9.01184 5.82167 9.01184 6.13825 9.20711 6.33351L9.91421 7.04062L9.20711 7.74773C9.01184 7.94299 9.01184 8.25957 9.20711 8.45483C9.40237 8.65009 9.71895 8.65009 9.91421 8.45483L10.6213 7.74773L11.3284 8.45483C11.5237 8.65009 11.8403 8.65009 12.0355 8.45483C12.2308 8.25957 12.2308 7.94299 12.0355 7.74773L11.3284 7.04062L12.0355 6.33351C12.2308 6.13825 12.2308 5.82167 12.0355 5.62641Z" fill="white" fill-opacity="1"/>
</svg>
