<svg width="80" height="80" viewBox="0 0 80 80" fill="none"
     xmlns="http://www.w3.org/2000/svg">
  <path fill-rule="evenodd" clip-rule="evenodd"
        d="M14 0H66C68.2091 0 70 1.79086 70 4V47.5309C68.7461 46.8958 67.4052 46.4076 66 46.0888V4H14V74H48.4587C49.7184 75.5797 51.2465 76.936 52.9738 78H14C11.7909 78 10 76.2091 10 74V4C10 1.79086 11.7909 0 14 0ZM21 21C20.4477 21 20 21.4477 20 22V25C20 25.5523 20.4477 26 21 26H59C59.5523 26 60 25.5523 60 25V22C60 21.4477 59.5523 21 59 21H21ZM20 35C20 34.4477 20.4477 34 21 34H59C59.5523 34 60 34.4477 60 35V38C60 38.5523 59.5523 39 59 39H21C20.4477 39 20 38.5523 20 38V35ZM21 47C20.4477 47 20 47.4477 20 48V51C20 51.5523 20.4477 52 21 52H39C39.5523 52 40 51.5523 40 51V48C40 47.4477 39.5523 47 39 47H21ZM76.615 63.12C76.615 66.1161 75.706 68.8998 74.1488 71.2105L78.8082 75.8699C79.5892 76.651 79.5892 77.9173 78.8082 78.6984C78.0271 79.4794 76.7608 79.4794 75.9797 78.6984L71.4743 74.193C68.9497 76.3279 65.6852 77.615 62.12 77.615C54.1146 77.615 47.625 71.1254 47.625 63.12C47.625 55.1146 54.1146 48.625 62.12 48.625C70.1254 48.625 76.615 55.1146 76.615 63.12ZM51.625 63.12C51.625 68.9162 56.3238 73.615 62.12 73.615C67.9162 73.615 72.615 68.9162 72.615 63.12C72.615 57.3238 67.9162 52.625 62.12 52.625C56.3238 52.625 51.625 57.3238 51.625 63.12Z"
        fill="#C0C5D5" fill-opacity="0.3"/>
</svg>
