<svg width="24" height="24" viewBox="0 0 24 24" fill="none" xmlns="http://www.w3.org/2000/svg">
    <path
        d="M12 4.68221L11.3755 5.09746C11.5145 5.30655 11.7489 5.43221 12 5.43221C12.2511 5.43221 12.4855 5.30655 12.6245 5.09746L12 4.68221ZM11.5279 21.7269L11.1433 22.3708L11.5279 21.7269ZM12.4721 21.7269L12.0874 21.0831L12.4721 21.7269ZM11.9126 21.0831C10.885 20.4692 8.31375 18.8254 6.00851 16.4904C3.68608 14.138 1.75 11.2024 1.75 8H0.25C0.25 11.7983 2.52566 15.0976 4.94108 17.5442C7.3737 20.0082 10.0665 21.7275 11.1433 22.3708L11.9126 21.0831ZM1.75 8C1.75 5.10051 4.10051 2.75 7 2.75V1.25C3.27208 1.25 0.25 4.27208 0.25 8H1.75ZM7 2.75C8.82537 2.75 10.4336 3.68096 11.3755 5.09746L12.6245 4.26695C11.4165 2.45006 9.34857 1.25 7 1.25V2.75ZM12.6245 5.09746C13.5664 3.68096 15.1746 2.75 17 2.75V1.25C14.6514 1.25 12.5835 2.45006 11.3755 4.26695L12.6245 5.09746ZM17 2.75C19.8995 2.75 22.25 5.1005 22.25 8H23.75C23.75 4.27208 20.7279 1.25 17 1.25V2.75ZM22.25 8C22.25 11.2024 20.3139 14.138 17.9915 16.4904C15.6863 18.8254 13.115 20.4692 12.0874 21.0831L12.8567 22.3708C13.9335 21.7275 16.6263 20.0082 19.0589 17.5442C21.4743 15.0976 23.75 11.7983 23.75 8H22.25ZM11.1433 22.3708C11.6721 22.6867 12.3279 22.6867 12.8567 22.3708L12.0874 21.0831C12.0324 21.1159 11.9676 21.1159 11.9126 21.0831L11.1433 22.3708Z"
        fill="white" fill-opacity="1" />
</svg>