<svg width="14" height="14" viewBox="0 0 14 14" fill="none" xmlns="http://www.w3.org/2000/svg">
<path fill-rule="evenodd" clip-rule="evenodd" d="M7 0C3.13401 0 0 3.13401 0 7C0 10.866 3.13401 14 7 14C10.866 14 14 10.866 14 7C14 3.13401 10.866 0 7 0ZM7.4247 2.06051C7.61996 1.86525 7.93654 1.86525 8.1318 2.06051L11.6673 5.59604C11.8626 5.7913 11.8626 6.10789 11.6673 6.30315C11.4721 6.49841 11.1555 6.49841 10.9602 6.30315L7.4247 2.76762C7.22943 2.57235 7.22943 2.25577 7.4247 2.06051ZM6.99398 8.12364L9.12752 10.2572L9.17622 5.9661L9.89957 5.24275L8.48536 3.82854L7.76228 4.55162L3.47066 4.60032L5.60575 6.73541L2.87183 10.9426L6.99398 8.12364Z" fill="white" fill-opacity="1"/>
</svg>
