<svg width="20" height="20" viewBox="0 0 20 20" fill="none" xmlns="http://www.w3.org/2000/svg">
<g clip-path="url(#clip0_447_34523)">
<mask id="mask0_447_34523" style="mask-type:luminance" maskUnits="userSpaceOnUse" x="0" y="0" width="20" height="20">
<path d="M20 0H0V20H20V0Z" fill="white"/>
</mask>
<g mask="url(#mask0_447_34523)">
<path d="M10.0119 0.227783H9.98501C4.58532 0.227783 0.208008 4.60509 0.208008 10.0048C0.208008 15.4045 4.58532 19.7818 9.98501 19.7818H10.0119C15.4116 19.7818 19.7889 15.4045 19.7889 10.0048C19.7889 4.60509 15.4116 0.227783 10.0119 0.227783Z" fill="#664C1A"/>
<mask id="mask1_447_34523" style="mask-type:alpha" maskUnits="userSpaceOnUse" x="0" y="0" width="20" height="20">
<path d="M0.555176 10.0036C0.555176 4.79522 4.78308 0.572998 9.99851 0.572998C15.2138 0.572998 19.4418 4.79522 19.4418 10.0036C19.4418 15.212 15.2138 19.4342 9.99851 19.4342C4.78308 19.4342 0.555176 15.212 0.555176 10.0036Z" fill="#524E3F"/>
</mask>
<g mask="url(#mask1_447_34523)">
<path fill-rule="evenodd" clip-rule="evenodd" d="M17.2672 10.5483C18.1456 9.6862 19.5697 9.6862 20.448 10.5483C21.3264 11.4104 21.3264 12.8081 20.448 13.6702L13.5397 20.4504C12.6613 21.3124 11.2372 21.3124 10.3589 20.4504C9.4805 19.5883 9.4805 18.1906 10.3589 17.3285L17.2672 10.5483ZM15.4641 1.65963C16.3424 0.797547 17.7666 0.797546 18.6449 1.65963C19.5232 2.52171 19.5232 3.91944 18.6449 4.78152L4.84727 18.3234C3.96889 19.1854 2.54477 19.1854 1.6664 18.3234C0.788033 17.4613 0.788034 16.0635 1.6664 15.2014L15.4641 1.65963ZM9.77608 -1.3469C8.61558 -2.48593 6.73392 -2.48593 5.57338 -1.3469L-1.35127 5.46852C-2.51182 6.60755 -2.51182 8.45428 -1.35127 9.59328C-0.190726 10.7324 1.69089 10.7324 2.85143 9.59328L9.77608 2.77789C10.9367 1.63886 10.9367 -0.207869 9.77608 -1.3469Z" fill="#785C26"/>
<path d="M15.3972 8.90375C15.0868 8.69425 14.8447 8.39842 14.701 8.05294C14.5572 7.70744 14.5181 7.32743 14.5884 6.95993C14.7928 5.90371 14.9706 5.55755 14.7084 5.29127C14.4462 5.02499 14.0996 5.20695 13.0375 5.41109C12.6695 5.48133 12.289 5.44224 11.9431 5.29868C11.5971 5.15512 11.3008 4.91338 11.0911 4.60339C10.4912 3.7158 10.3712 3.34302 9.99791 3.34302C9.62457 3.34302 9.50457 3.7158 8.90024 4.60783C8.68991 4.91701 8.39341 5.15786 8.0475 5.30062C7.70158 5.44338 7.32135 5.48178 6.95381 5.41109C5.89616 5.20695 5.55398 5.02943 5.2829 5.29127C5.01182 5.55311 5.19846 5.89927 5.40289 6.95993C5.47321 7.32743 5.43407 7.70744 5.29031 8.05294C5.14656 8.39842 4.9045 8.69425 4.5941 8.90375C3.70531 9.50733 3.33203 9.62717 3.33203 9.99992C3.33203 10.3727 3.70531 10.4925 4.59854 11.0961C4.90813 11.3062 5.14931 11.6023 5.29226 11.9477C5.43521 12.2932 5.47366 12.6728 5.40289 13.0399C5.19846 14.0962 5.02071 14.4378 5.2829 14.7086C5.54509 14.9793 5.89171 14.7929 6.95381 14.5887C7.32179 14.5185 7.70232 14.5576 8.04828 14.7012C8.39424 14.8448 8.69049 15.0865 8.90024 15.3964C9.50457 16.284 9.62457 16.6568 9.99791 16.6568C10.3712 16.6568 10.4912 16.284 11.0955 15.3964C11.3053 15.0865 11.6015 14.8448 11.9475 14.7012C12.2934 14.5576 12.674 14.5185 13.042 14.5887C14.0996 14.7929 14.4462 14.9704 14.7128 14.7086C14.9795 14.4468 14.7973 14.1006 14.5929 13.0399C14.5221 12.6728 14.5606 12.2932 14.7035 11.9477C14.8465 11.6023 15.0877 11.3062 15.3972 11.0961C16.2904 10.4925 16.6637 10.3727 16.6637 9.99992C16.6637 9.62717 16.2904 9.50733 15.3972 8.90375Z" fill="url(#paint0_linear_447_34523)"/>
<path d="M9.9977 14.1578C12.2986 14.1578 14.1639 12.2951 14.1639 9.99724C14.1639 7.69942 12.2986 5.83667 9.9977 5.83667C7.6968 5.83667 5.83154 7.69942 5.83154 9.99724C5.83154 12.2951 7.6968 14.1578 9.9977 14.1578Z" fill="url(#paint1_radial_447_34523)"/>
<g filter="url(#filter0_f_447_34523)">
<path d="M11.4306 7.52203C10.0601 6.7318 8.30757 7.20083 7.51626 8.56968C6.72494 9.93843 7.19447 11.6888 8.56496 12.4789" stroke="url(#paint2_linear_447_34523)"/>
</g>
</g>
</g>
<path d="M9.98625 0.25H10.0137C15.3906 0.25 19.75 4.6149 19.75 10C19.75 15.3851 15.3906 19.75 10.0137 19.75H9.98625C4.60939 19.75 0.25 15.3851 0.25 10C0.25 4.6149 4.60939 0.25 9.98625 0.25Z" stroke="#FFECC2" stroke-width="0.5"/>
</g>
<defs>
<filter id="filter0_f_447_34523" x="5.63184" y="5.63806" width="7.04834" height="8.27405" filterUnits="userSpaceOnUse" color-interpolation-filters="sRGB">
<feFlood flood-opacity="0" result="BackgroundImageFix"/>
<feBlend mode="normal" in="SourceGraphic" in2="BackgroundImageFix" result="shape"/>
<feGaussianBlur stdDeviation="0.5" result="effect1_foregroundBlur_447_34523"/>
</filter>
<linearGradient id="paint0_linear_447_34523" x1="9.99791" y1="16.6568" x2="9.99791" y2="3.34302" gradientUnits="userSpaceOnUse">
<stop stop-color="#FFE175"/>
<stop offset="1" stop-color="#FFFCE5"/>
</linearGradient>
<radialGradient id="paint1_radial_447_34523" cx="0" cy="0" r="1" gradientUnits="userSpaceOnUse" gradientTransform="translate(9.9977 9.99724) rotate(-90) scale(3.88319 3.88842)">
<stop offset="0.31702" stop-color="#FFF5B3"/>
<stop offset="0.785" stop-color="#FAE891"/>
<stop offset="1" stop-color="#F5C850"/>
</radialGradient>
<linearGradient id="paint2_linear_447_34523" x1="15.2997" y1="15.8044" x2="17.569" y2="10.7452" gradientUnits="userSpaceOnUse">
<stop stop-color="#FBE638" stop-opacity="0"/>
<stop offset="0.636846" stop-color="#FFFBEB"/>
<stop offset="0.951571" stop-color="#FDF194" stop-opacity="0"/>
</linearGradient>
<clipPath id="clip0_447_34523">
<rect width="20" height="20" fill="white"/>
</clipPath>
</defs>
</svg>
