<svg width="24" height="24" viewBox="0 0 24 24" fill="none" xmlns="http://www.w3.org/2000/svg">
<g clip-path="url(#clip0_33104_16312)">
<rect x="0.25" y="0.25" width="23.5" height="23.5" rx="11.75" fill="#7783A3" stroke="#DEE9FF" stroke-width="0.5"/>
<mask id="mask0_33104_16312" style="mask-type:alpha" maskUnits="userSpaceOnUse" x="0" y="0" width="24" height="24">
<path d="M0.666504 12.0013C0.666504 5.74208 5.74061 0.667969 11.9998 0.667969C18.2591 0.667969 23.3332 5.74208 23.3332 12.0013C23.3332 18.2605 18.2591 23.3346 11.9998 23.3346C5.74061 23.3346 0.666504 18.2605 0.666504 12.0013Z" fill="#6C85C8"/>
</mask>
<g mask="url(#mask0_33104_16312)">
<path fill-rule="evenodd" clip-rule="evenodd" d="M20.7245 12.6545C21.7788 11.6184 23.488 11.6184 24.5423 12.6545C25.5966 13.6906 25.5966 15.3704 24.5423 16.4064L16.2506 24.555C15.1964 25.591 13.4871 25.591 12.4328 24.555C11.3786 23.5189 11.3786 21.8391 12.4328 20.8031L20.7245 12.6545ZM18.5603 1.97199C19.6145 0.93593 21.3238 0.935927 22.3781 1.97199C23.4324 3.00806 23.4324 4.68786 22.3781 5.72392L5.8175 21.9987C4.76324 23.0348 3.05394 23.0348 1.99967 21.9987C0.945413 20.9626 0.945413 19.2828 1.99967 18.2468L18.5603 1.97199ZM11.7333 -1.64129C10.3404 -3.01019 8.08196 -3.01019 6.68902 -1.64129L-1.62228 6.54957C-3.01523 7.91847 -3.01523 10.1379 -1.62228 11.5068C-0.229342 12.8757 2.02906 12.8757 3.42201 11.5068L11.7333 3.31594C13.1263 1.94703 13.1263 -0.272394 11.7333 -1.64129Z" fill="#8A95B1"/>
<path d="M11.5265 18.6693C15.3851 18.6693 18.5131 15.6277 18.5131 11.8758C18.5131 8.78729 16.3934 6.18014 13.4915 5.35476C13.0636 5.23306 12.7586 5.7266 12.9563 6.11513C13.3189 6.82769 13.5227 7.63026 13.5227 8.47911C13.5227 11.427 11.065 13.8168 8.03329 13.8168C7.16031 13.8168 6.33493 13.6187 5.60211 13.2661C5.20254 13.0739 4.69498 13.3704 4.82014 13.7864C5.66898 16.6082 8.35023 18.6693 11.5265 18.6693Z" fill="url(#paint0_linear_33104_16312)"/>
</g>
</g>
<defs>
<linearGradient id="paint0_linear_33104_16312" x1="10.6877" y1="18.5238" x2="11.6569" y2="5.33594" gradientUnits="userSpaceOnUse">
<stop stop-color="#CAD4EB"/>
<stop offset="1" stop-color="white"/>
</linearGradient>
<clipPath id="clip0_33104_16312">
<rect width="24" height="24" fill="white"/>
</clipPath>
</defs>
</svg>
