<svg width="24" height="24" viewBox="0 0 24 24" fill="none" xmlns="http://www.w3.org/2000/svg">
<g clip-path="url(#clip0_33104_16237)">
<rect x="0.253906" y="0.25" width="23.4961" height="23.5" rx="11.748" fill="#432E7D" stroke="#DFD5E9" stroke-width="0.5"/>
<mask id="mask0_33104_16237" style="mask-type:alpha" maskUnits="userSpaceOnUse" x="0" y="0" width="24" height="24">
<path d="M0.67041 11.9974C0.67041 5.73817 5.74369 0.664062 12.0019 0.664062C18.2601 0.664062 23.3334 5.73817 23.3334 11.9974C23.3334 18.2566 18.2601 23.3307 12.0019 23.3307C5.74369 23.3307 0.67041 18.2566 0.67041 11.9974Z" fill="#4F2783"/>
</mask>
<g mask="url(#mask0_33104_16237)">
<path fill-rule="evenodd" clip-rule="evenodd" d="M20.7256 12.6506C21.7797 11.6145 23.4887 11.6145 24.5428 12.6506C25.5969 13.6867 25.5969 15.3665 24.5428 16.4025L16.2524 24.5511C15.1983 25.5871 13.4893 25.5871 12.4352 24.5511C11.3812 23.515 11.3812 21.8352 12.4352 20.7992L20.7256 12.6506ZM18.5617 1.96809C19.6158 0.932024 21.3248 0.932021 22.3789 1.96809C23.433 3.00415 23.433 4.68395 22.3789 5.72001L5.821 21.9948C4.76691 23.0309 3.05789 23.0309 2.0038 21.9948C0.949707 20.9587 0.949708 19.2789 2.0038 18.2429L18.5617 1.96809ZM11.7359 -1.6452C10.3431 -3.0141 8.0851 -3.0141 6.69238 -1.6452L-1.61757 6.54567C-3.01029 7.91457 -3.01029 10.134 -1.61757 11.5029C-0.224856 12.8718 2.03318 12.8718 3.4259 11.5029L11.7359 3.31203C13.1286 1.94313 13.1286 -0.276301 11.7359 -1.6452Z" fill="#543F8E"/>
<mask id="mask1_33104_16237" style="mask-type:alpha" maskUnits="userSpaceOnUse" x="2" y="2" width="20" height="20">
<path d="M2.66992 12.0013C2.66992 6.84665 6.84792 2.66797 12.0017 2.66797C17.1556 2.66797 21.3336 6.84665 21.3336 12.0013C21.3336 17.156 17.1556 21.3346 12.0017 21.3346C6.84792 21.3346 2.66992 17.156 2.66992 12.0013Z" fill="#4F2783"/>
</mask>
<g mask="url(#mask1_33104_16237)">
<g filter="url(#filter0_f_33104_16237)">
<path d="M18.704 8.27851C19.6043 10.0718 19.4007 11.7611 19.4078 11.6704C19.3578 11.9525 19.3864 13.2018 18.3646 14.8171C15.7851 18.6053 10.519 18.6859 8.12176 15.5895C6.47833 13.5746 6.89634 10.411 9.37934 9.10801L9.42579 9.0845C11.2336 8.23821 12.5054 8.95353 12.584 8.96696C14.0202 9.61175 14.1953 10.7166 14.2096 10.7368C14.1989 10.6831 14.2346 10.8443 14.2346 10.8476L14.2417 10.898C14.3918 11.7846 14.0381 12.2279 13.8916 12.4764C13.9809 12.3588 13.4307 13.2555 12.3732 13.2219C12.9949 13.4537 13.5201 13.1749 13.5165 13.1749C13.5201 13.1749 13.6951 13.0977 13.8309 13.007C13.8273 13.0104 13.9059 12.9533 13.9095 12.9533C14.3882 12.6208 14.6276 12.117 14.7419 11.5696C14.7383 11.5932 14.9849 10.6495 14.3632 9.71586C14.3632 9.71922 14.2703 9.57481 14.2703 9.57817C14.181 9.49085 13.8916 8.93673 12.9306 8.44978C12.1553 8.07701 11.5408 8.0535 11.4265 8.03671C11.4265 8.03671 11.4158 8.03671 11.4086 8.03671C9.93668 7.94603 8.65052 8.48336 7.71805 9.4069C6.23896 10.8913 6.23539 12.7417 6.2604 12.4596C5.86026 18.7027 14.6883 21.5774 19.4436 16.0798C21.037 14.2395 21.2763 12.1876 21.3335 11.9961C20.719 20.1199 10.4726 22.6756 5.98173 16.7985C5.71735 16.4459 5.61732 16.2578 5.5673 16.1907C5.5673 16.194 4.35259 14.4041 4.63483 11.9491C4.63483 11.9592 4.6527 11.8148 4.6527 11.8114C4.93494 9.914 5.82096 8.9636 5.87098 8.84942C5.86741 8.85278 6.04247 8.62777 6.04247 8.62777C6.32828 8.28858 6.36401 8.255 6.58908 8.03671C7.76807 6.8613 9.39363 6.44487 9.41149 6.4348C9.24001 6.4751 11.4229 5.68254 13.813 6.76727L13.9631 6.83779C13.9023 6.80757 14.7312 7.16355 15.4779 7.93932C16.0567 8.54045 16.2996 9.04084 16.3282 9.0845C16.3175 9.06435 16.7569 9.76288 16.8498 10.8174C16.8819 11.2607 16.8534 11.5293 16.7998 11.892C16.7998 11.8887 16.7605 12.107 16.7462 12.1641C16.7498 12.154 16.7069 12.3286 16.7069 12.332C15.9352 14.975 13.0735 15.9556 11.2264 14.938L11.1335 14.8876C9.84021 14.1757 9.27931 12.6678 10.1189 11.5193C10.1189 11.5126 10.2511 11.3547 10.2046 11.4118C10.6191 10.9618 11.1335 10.7637 11.6444 10.7838C11.6373 10.7804 11.6801 10.7972 11.5265 10.7435C11.0085 10.5857 10.5547 10.804 10.5297 10.8107C10.5333 10.8107 10.5226 10.814 10.5154 10.8174C10.519 10.8174 10.3654 10.8812 10.2725 10.9383C10.2761 10.9383 10.2046 10.9786 10.1332 11.029C9.4365 11.5226 9.32218 12.2212 9.30431 12.2615C9.30431 12.2615 9.29717 12.2984 9.30074 12.2648C9.28288 12.3488 9.24715 12.51 9.24001 12.5906C9.24001 12.5872 9.22929 12.6208 9.22214 12.9633C9.22214 12.96 9.22214 13.0104 9.22214 13.0137C9.22214 13.0104 9.17927 13.588 9.72232 14.4007C9.71874 14.3973 9.73303 14.4175 9.73303 14.4175C10.001 14.7768 10.4476 15.2403 10.8691 15.4418C10.8656 15.4418 10.887 15.4518 10.887 15.4518C10.8834 15.4518 11.0692 15.5492 11.1085 15.566C10.9049 15.472 12.4018 16.3116 14.031 15.8481C13.9631 15.8683 14.2275 15.7944 14.2703 15.7843C14.2453 15.791 14.6204 15.6802 14.8169 15.5862C14.6633 15.6533 15.8494 15.2302 16.6926 14.1421C16.6926 14.1455 16.7891 14.0178 16.7926 14.0145C16.7891 14.0212 16.8641 13.9171 16.8641 13.9137C16.7533 14.0716 17.6394 13.0104 17.7465 11.4286L17.7501 11.3681C17.7501 11.3715 17.7537 11.3144 17.7537 11.3144C17.7465 11.4723 17.9466 10.1289 17.1213 8.50351C17.1392 8.53038 16.5926 7.28109 14.9706 6.18628C10.4261 3.37202 3.9203 5.66575 2.66987 11.9928C2.66987 11.9928 2.67701 11.8988 2.68773 11.7208C3.23077 3.38882 15.0563 1.13875 18.704 8.27851Z" fill="url(#paint0_linear_33104_16237)" fill-opacity="0.8"/>
</g>
<path d="M8.66925 6.66797C8.66925 7.23105 8.58034 7.33477 8.00244 7.33477C8.56552 7.33477 8.66925 7.42368 8.66925 8.00158C8.66925 7.4385 8.75815 7.33477 9.33605 7.33477C8.75815 7.33477 8.66925 7.23105 8.66925 6.66797Z" fill="white"/>
<path d="M7.33575 8.00391C7.33575 8.56699 7.24684 8.67071 6.66895 8.67071C7.23202 8.67071 7.33575 8.75962 7.33575 9.33752C7.33575 8.77444 7.42466 8.67071 8.00256 8.67071C7.42466 8.67071 7.33575 8.56699 7.33575 8.00391Z" fill="white"/>
<path d="M15.3348 16C15.3348 16.5631 15.2459 16.6668 14.668 16.6668C15.231 16.6668 15.3348 16.7557 15.3348 17.3336C15.3348 16.7705 15.4237 16.6668 16.0016 16.6668C15.4237 16.6668 15.3348 16.5631 15.3348 16Z" fill="white"/>
<path d="M8.66925 13.3359C8.66925 13.899 8.58034 14.0027 8.00244 14.0027C8.56552 14.0027 8.66925 14.0916 8.66925 14.6695C8.66925 14.1065 8.75815 14.0027 9.33605 14.0027C8.75815 14.0027 8.66925 13.899 8.66925 13.3359Z" fill="white"/>
<path d="M13.0016 9.66797C13.0016 9.94974 12.9572 10.0016 12.668 10.0016C12.9497 10.0016 13.0016 10.0461 13.0016 10.3353C13.0016 10.0535 13.0461 10.0016 13.3353 10.0016C13.0461 10.0016 13.0016 9.94974 13.0016 9.66797Z" fill="white"/>
<path d="M12.3351 6.66797C12.3351 6.94974 12.2906 7.00164 12.0015 7.00164C12.2832 7.00164 12.3351 7.04613 12.3351 7.33532C12.3351 7.05355 12.3796 7.00164 12.6688 7.00164C12.3796 7.00164 12.3351 6.94974 12.3351 6.66797Z" fill="white"/>
<path d="M16.3347 12C16.3347 12.2818 16.2902 12.3337 16.001 12.3337C16.2827 12.3337 16.3347 12.3782 16.3347 12.6673C16.3347 12.3856 16.3791 12.3337 16.6683 12.3337C16.3791 12.3337 16.3347 12.2818 16.3347 12Z" fill="white"/>
<path d="M17.6681 13.3359C17.6681 13.6177 17.6237 13.6696 17.3345 13.6696C17.6162 13.6696 17.6681 13.7141 17.6681 14.0033C17.6681 13.7215 17.7126 13.6696 18.0018 13.6696C17.7126 13.6696 17.6681 13.6177 17.6681 13.3359Z" fill="white"/>
<path d="M13.6686 16.332C13.6686 16.6138 13.6241 16.6657 13.335 16.6657C13.6167 16.6657 13.6686 16.7102 13.6686 16.9994C13.6686 16.7176 13.7131 16.6657 14.0023 16.6657C13.7131 16.6657 13.6686 16.6138 13.6686 16.332Z" fill="white"/>
<path d="M11.0026 18.6719C11.0026 18.9536 10.9581 19.0055 10.6689 19.0055C10.9507 19.0055 11.0026 19.05 11.0026 19.3392C11.0026 19.0575 11.0471 19.0055 11.3363 19.0055C11.0471 19.0055 11.0026 18.9536 11.0026 18.6719Z" fill="white"/>
<path d="M16.3347 18.6719C16.3347 18.9536 16.2902 19.0055 16.001 19.0055C16.2827 19.0055 16.3347 19.05 16.3347 19.3392C16.3347 19.0575 16.3791 19.0055 16.6683 19.0055C16.3791 19.0055 16.3347 18.9536 16.3347 18.6719Z" fill="white"/>
<path d="M4.3366 6.66797C4.3366 6.94974 4.29211 7.00164 4.00293 7.00164C4.2847 7.00164 4.3366 7.04613 4.3366 7.33532C4.3366 7.05355 4.38109 7.00164 4.67028 7.00164C4.38109 7.00164 4.3366 6.94974 4.3366 6.66797Z" fill="white"/>
<path d="M9.66912 4.00391C9.66912 4.28568 9.62463 4.33758 9.33545 4.33758C9.61722 4.33758 9.66912 4.38207 9.66912 4.67125C9.66912 4.38948 9.71361 4.33758 10.0028 4.33758C9.71361 4.33758 9.66912 4.28568 9.66912 4.00391Z" fill="white"/>
<path d="M16.6681 6.66797C16.6681 6.94974 16.6237 7.00164 16.3345 7.00164C16.6162 7.00164 16.6681 7.04613 16.6681 7.33532C16.6681 7.05355 16.7126 7.00164 17.0018 7.00164C16.7126 7.00164 16.6681 6.94974 16.6681 6.66797Z" fill="white"/>
<path d="M3.0036 9.33203C3.0036 9.6138 2.95911 9.66571 2.66992 9.66571C2.95169 9.66571 3.0036 9.71019 3.0036 9.99938C3.0036 9.71761 3.04809 9.66571 3.33727 9.66571C3.04809 9.66571 3.0036 9.6138 3.0036 9.33203Z" fill="white"/>
<path d="M15.3348 8.00391C15.3348 8.56699 15.2459 8.67071 14.668 8.67071C15.231 8.67071 15.3348 8.75962 15.3348 9.33752C15.3348 8.77444 15.4237 8.67071 16.0016 8.67071C15.4237 8.67071 15.3348 8.56699 15.3348 8.00391Z" fill="white"/>
<path d="M6.00323 12C6.00323 12.5631 5.91432 12.6668 5.33643 12.6668C5.89951 12.6668 6.00323 12.7557 6.00323 13.3336C6.00323 12.7705 6.09214 12.6668 6.67004 12.6668C6.09214 12.6668 6.00323 12.5631 6.00323 12Z" fill="white"/>
<path d="M10.6688 8.00158C11.037 8.00158 11.3356 7.70304 11.3356 7.33477C11.3356 6.96651 11.037 6.66797 10.6688 6.66797C10.3005 6.66797 10.002 6.96651 10.002 7.33477C10.002 7.70304 10.3005 8.00158 10.6688 8.00158Z" fill="white"/>
<path d="M16.0013 11.3336C16.3695 11.3336 16.6681 11.0351 16.6681 10.6668C16.6681 10.2985 16.3695 10 16.0013 10C15.633 10 15.3345 10.2985 15.3345 10.6668C15.3345 11.0351 15.633 11.3336 16.0013 11.3336Z" fill="white"/>
<path d="M12.3358 13.0007C12.8883 13.0007 13.3362 12.5529 13.3362 12.0004C13.3362 11.4479 12.8883 11 12.3358 11C11.7833 11 11.3354 11.4479 11.3354 12.0004C11.3354 12.5529 11.7833 13.0007 12.3358 13.0007Z" fill="white"/>
<path d="M7.33575 16C7.33575 16.5759 7.24482 16.6668 6.66895 16.6668C7.24482 16.6668 7.33575 16.7577 7.33575 17.3336C7.33575 16.7577 7.42668 16.6668 8.00255 16.6668C7.42668 16.6668 7.33575 16.5759 7.33575 16Z" fill="white"/>
<path d="M15.6681 6.33922C15.8524 6.33922 16.0018 6.18983 16.0018 6.00555C16.0018 5.82127 15.8524 5.67188 15.6681 5.67188C15.4839 5.67188 15.3345 5.82127 15.3345 6.00555C15.3345 6.18983 15.4839 6.33922 15.6681 6.33922Z" fill="white"/>
<path d="M17.6681 8.33922C17.8524 8.33922 18.0018 8.18983 18.0018 8.00555C18.0018 7.82127 17.8524 7.67188 17.6681 7.67188C17.4839 7.67188 17.3345 7.82127 17.3345 8.00555C17.3345 8.18983 17.4839 8.33922 17.6681 8.33922Z" fill="white"/>
<path d="M16.3347 15.3314C16.5189 15.3314 16.6683 15.182 16.6683 14.9977C16.6683 14.8135 16.5189 14.6641 16.3347 14.6641C16.1504 14.6641 16.001 14.8135 16.001 14.9977C16.001 15.182 16.1504 15.3314 16.3347 15.3314Z" fill="white"/>
<path d="M9.66912 15.3314C9.85341 15.3314 10.0028 15.182 10.0028 14.9977C10.0028 14.8135 9.85341 14.6641 9.66912 14.6641C9.48484 14.6641 9.33545 14.8135 9.33545 14.9977C9.33545 15.182 9.48484 15.3314 9.66912 15.3314Z" fill="white"/>
<path d="M11.0026 10.0033C11.1869 10.0033 11.3363 9.85389 11.3363 9.66961C11.3363 9.48533 11.1869 9.33594 11.0026 9.33594C10.8183 9.33594 10.6689 9.48533 10.6689 9.66961C10.6689 9.85389 10.8183 10.0033 11.0026 10.0033Z" fill="white"/>
<path d="M9.00262 10.9994C9.1869 10.9994 9.33629 10.85 9.33629 10.6657C9.33629 10.4814 9.1869 10.332 9.00262 10.332C8.81834 10.332 8.66895 10.4814 8.66895 10.6657C8.66895 10.85 8.81834 10.9994 9.00262 10.9994Z" fill="white"/>
<path d="M4.20313 8.40431C4.3137 8.40431 4.40334 8.31468 4.40334 8.20411C4.40334 8.09354 4.3137 8.00391 4.20313 8.00391C4.09256 8.00391 4.00293 8.09354 4.00293 8.20411C4.00293 8.31468 4.09256 8.40431 4.20313 8.40431Z" fill="white"/>
<path d="M6.86915 5.73635C6.97972 5.73635 7.06935 5.64671 7.06935 5.53614C7.06935 5.42557 6.97972 5.33594 6.86915 5.33594C6.75858 5.33594 6.66895 5.42557 6.66895 5.53614C6.66895 5.64671 6.75858 5.73635 6.86915 5.73635Z" fill="white"/>
<path d="M10.8691 4.40431C10.9797 4.40431 11.0694 4.31468 11.0694 4.20411C11.0694 4.09354 10.9797 4.00391 10.8691 4.00391C10.7586 4.00391 10.6689 4.09354 10.6689 4.20411C10.6689 4.31468 10.7586 4.40431 10.8691 4.40431Z" fill="white"/>
<path d="M14.4678 8.2051C14.5784 8.2051 14.668 8.11546 14.668 8.00489C14.668 7.89432 14.5784 7.80469 14.4678 7.80469C14.3572 7.80469 14.2676 7.89432 14.2676 8.00489C14.2676 8.11546 14.3572 8.2051 14.4678 8.2051Z" fill="white"/>
<path d="M18.8672 11.0684C18.9778 11.0684 19.0674 10.9787 19.0674 10.8682C19.0674 10.7576 18.9778 10.668 18.8672 10.668C18.7566 10.668 18.667 10.7576 18.667 10.8682C18.667 10.9787 18.7566 11.0684 18.8672 11.0684Z" fill="white"/>
<path d="M14.8682 12.4004C14.9787 12.4004 15.0684 12.3108 15.0684 12.2002C15.0684 12.0896 14.9787 12 14.8682 12C14.7576 12 14.668 12.0896 14.668 12.2002C14.668 12.3108 14.7576 12.4004 14.8682 12.4004Z" fill="white"/>
<path d="M13.5357 14.2051C13.6462 14.2051 13.7359 14.1155 13.7359 14.0049C13.7359 13.8943 13.6462 13.8047 13.5357 13.8047C13.4251 13.8047 13.3354 13.8943 13.3354 14.0049C13.3354 14.1155 13.4251 14.2051 13.5357 14.2051Z" fill="white"/>
<path d="M8.20313 13.5371C8.3137 13.5371 8.40334 13.4475 8.40334 13.3369C8.40334 13.2264 8.3137 13.1367 8.20313 13.1367C8.09256 13.1367 8.00293 13.2264 8.00293 13.3369C8.00293 13.4475 8.09256 13.5371 8.20313 13.5371Z" fill="white"/>
<path d="M14.8687 19.5332C14.9792 19.5332 15.0689 19.4436 15.0689 19.333C15.0689 19.2224 14.9792 19.1328 14.8687 19.1328C14.7581 19.1328 14.6685 19.2224 14.6685 19.333C14.6685 19.4436 14.7581 19.5332 14.8687 19.5332Z" fill="white"/>
<path d="M9.53565 19.0723C9.64622 19.0723 9.73586 18.9826 9.73586 18.8721C9.73586 18.7615 9.64622 18.6719 9.53565 18.6719C9.42508 18.6719 9.33545 18.7615 9.33545 18.8721C9.33545 18.9826 9.42508 19.0723 9.53565 19.0723Z" fill="white"/>
<path d="M5.53663 16.4004C5.6472 16.4004 5.73683 16.3108 5.73683 16.2002C5.73683 16.0896 5.6472 16 5.53663 16C5.42606 16 5.33643 16.0896 5.33643 16.2002C5.33643 16.3108 5.42606 16.4004 5.53663 16.4004Z" fill="white"/>
<path d="M13.0016 5.00329C13.1859 5.00329 13.3353 4.85389 13.3353 4.66961C13.3353 4.48533 13.1859 4.33594 13.0016 4.33594C12.8174 4.33594 12.668 4.48533 12.668 4.66961C12.668 4.85389 12.8174 5.00329 13.0016 5.00329Z" fill="white"/>
<path d="M10.8024 16.2669C10.8761 16.2669 10.9359 16.2072 10.9359 16.1335C10.9359 16.0598 10.8761 16 10.8024 16C10.7287 16 10.6689 16.0598 10.6689 16.1335C10.6689 16.2072 10.7287 16.2669 10.8024 16.2669Z" fill="white"/>
<path d="M13.4684 10.9349C13.5421 10.9349 13.6019 10.8752 13.6019 10.8014C13.6019 10.7277 13.5421 10.668 13.4684 10.668C13.3947 10.668 13.335 10.7277 13.335 10.8014C13.335 10.8752 13.3947 10.9349 13.4684 10.9349Z" fill="white"/>
<path d="M18.8005 9.60288C18.8742 9.60288 18.9339 9.54312 18.9339 9.46941C18.9339 9.39569 18.8742 9.33594 18.8005 9.33594C18.7267 9.33594 18.667 9.39569 18.667 9.46941C18.667 9.54312 18.7267 9.60288 18.8005 9.60288Z" fill="white"/>
<path d="M12.1349 9.60288C12.2086 9.60288 12.2684 9.54312 12.2684 9.46941C12.2684 9.39569 12.2086 9.33594 12.1349 9.33594C12.0612 9.33594 12.0015 9.39569 12.0015 9.46941C12.0015 9.54312 12.0612 9.60288 12.1349 9.60288Z" fill="white"/>
<path d="M12.6691 10.6693C12.7428 10.6693 12.8026 10.6095 12.8026 10.5358C12.8026 10.4621 12.7428 10.4023 12.6691 10.4023C12.5954 10.4023 12.5356 10.4621 12.5356 10.5358C12.5356 10.6095 12.5954 10.6693 12.6691 10.6693Z" fill="white"/>
<path d="M9.46892 16.2669C9.54263 16.2669 9.60239 16.2072 9.60239 16.1335C9.60239 16.0598 9.54263 16 9.46892 16C9.39521 16 9.33545 16.0598 9.33545 16.1335C9.33545 16.2072 9.39521 16.2669 9.46892 16.2669Z" fill="white"/>
<path d="M8.13591 12.2669C8.20962 12.2669 8.26938 12.2072 8.26938 12.1335C8.26938 12.0598 8.20962 12 8.13591 12C8.0622 12 8.00244 12.0598 8.00244 12.1335C8.00244 12.2072 8.0622 12.2669 8.13591 12.2669Z" fill="white"/>
<path d="M9.46892 9.60288C9.54263 9.60288 9.60239 9.54312 9.60239 9.46941C9.60239 9.39569 9.54263 9.33594 9.46892 9.33594C9.39521 9.33594 9.33545 9.39569 9.33545 9.46941C9.33545 9.54312 9.39521 9.60288 9.46892 9.60288Z" fill="white"/>
<path d="M6.80241 9.60288C6.87613 9.60288 6.93588 9.54312 6.93588 9.46941C6.93588 9.39569 6.87613 9.33594 6.80241 9.33594C6.7287 9.33594 6.66895 9.39569 6.66895 9.46941C6.66895 9.54312 6.7287 9.60288 6.80241 9.60288Z" fill="white"/>
<path d="M8.13591 5.60288C8.20962 5.60288 8.26938 5.54312 8.26938 5.46941C8.26938 5.39569 8.20962 5.33594 8.13591 5.33594C8.0622 5.33594 8.00244 5.39569 8.00244 5.46941C8.00244 5.54312 8.0622 5.60288 8.13591 5.60288Z" fill="white"/>
<path d="M5.4699 10.9349C5.54361 10.9349 5.60336 10.8752 5.60336 10.8014C5.60336 10.7277 5.54361 10.668 5.4699 10.668C5.39618 10.668 5.33643 10.7277 5.33643 10.8014C5.33643 10.8752 5.39618 10.9349 5.4699 10.9349Z" fill="white"/>
<path d="M5.4699 14.931C5.54361 14.931 5.60336 14.8712 5.60336 14.7975C5.60336 14.7238 5.54361 14.6641 5.4699 14.6641C5.39618 14.6641 5.33643 14.7238 5.33643 14.7975C5.33643 14.8712 5.39618 14.931 5.4699 14.931Z" fill="white"/>
<path d="M15.0016 14.0033C15.1859 14.0033 15.3353 13.8539 15.3353 13.6696C15.3353 13.4853 15.1859 13.3359 15.0016 13.3359C14.8174 13.3359 14.668 13.4853 14.668 13.6696C14.668 13.8539 14.8174 14.0033 15.0016 14.0033Z" fill="white"/>
<path d="M12.3351 14.3353C12.5194 14.3353 12.6688 14.1859 12.6688 14.0016C12.6688 13.8174 12.5194 13.668 12.3351 13.668C12.1509 13.668 12.0015 13.8174 12.0015 14.0016C12.0015 14.1859 12.1509 14.3353 12.3351 14.3353Z" fill="white"/>
<path d="M12.3351 17.6713C12.5194 17.6713 12.6688 17.5219 12.6688 17.3376C12.6688 17.1533 12.5194 17.0039 12.3351 17.0039C12.1509 17.0039 12.0015 17.1533 12.0015 17.3376C12.0015 17.5219 12.1509 17.6713 12.3351 17.6713Z" fill="white"/>
<path d="M18.0013 12C18.0013 12.5626 17.8971 12.6668 17.3345 12.6668C17.8971 12.6668 18.0013 12.771 18.0013 13.3336C18.0013 12.771 18.1055 12.6668 18.6681 12.6668C18.0846 12.6668 18.0013 12.5626 18.0013 12Z" fill="white"/>
</g>
</g>
</g>
<defs>
<filter id="filter0_f_33104_16237" x="2.16992" y="3.50391" width="19.6636" height="17" filterUnits="userSpaceOnUse" color-interpolation-filters="sRGB">
<feFlood flood-opacity="0" result="BackgroundImageFix"/>
<feBlend mode="normal" in="SourceGraphic" in2="BackgroundImageFix" result="shape"/>
<feGaussianBlur stdDeviation="0.25" result="effect1_foregroundBlur_33104_16237"/>
</filter>
<linearGradient id="paint0_linear_33104_16237" x1="16.6676" y1="20.0039" x2="13.6528" y2="4.47938" gradientUnits="userSpaceOnUse">
<stop stop-color="#B283FF"/>
<stop offset="1" stop-color="#EDD5FF"/>
</linearGradient>
<clipPath id="clip0_33104_16237">
<rect width="24" height="24" fill="white"/>
</clipPath>
</defs>
</svg>
