<svg width="20" height="20" viewBox="0 0 20 20" fill="none" xmlns="http://www.w3.org/2000/svg">
<g clip-path="url(#clip0_447_34451)">
<path d="M10.0023 0H10.0022C4.4803 0 0.00390625 4.47639 0.00390625 9.9983V10.0017C0.00390625 15.5236 4.4803 20 10.0022 20H10.0023C15.5242 20 20.0006 15.5236 20.0006 10.0017V9.9983C20.0006 4.47639 15.5242 0 10.0023 0Z" fill="#432E7D"/>
<mask id="mask0_447_34451" style="mask-type:alpha" maskUnits="userSpaceOnUse" x="0" y="0" width="20" height="20">
<path d="M0.358398 9.99769C0.358398 4.67068 4.67608 0.352295 10.0022 0.352295C15.3283 0.352295 19.6461 4.67068 19.6461 9.99769C19.6461 15.3247 15.3283 19.6431 10.0022 19.6431C4.67608 19.6431 0.358398 15.3247 0.358398 9.99769Z" fill="#4F2783"/>
</mask>
<g mask="url(#mask0_447_34451)">
<path fill-rule="evenodd" clip-rule="evenodd" d="M17.4269 10.5537C18.324 9.67192 19.7785 9.67192 20.6756 10.5537C21.5727 11.4355 21.5727 12.8651 20.6756 13.7468L13.6199 20.6818C12.7228 21.5635 11.2683 21.5635 10.3712 20.6818C9.47421 19.8 9.47421 18.3704 10.3712 17.4887L17.4269 10.5537ZM15.5853 1.46221C16.4824 0.580454 17.9369 0.580451 18.834 1.46221C19.7311 2.34397 19.7311 3.77358 18.834 4.65533L4.74213 18.5062C3.84503 19.388 2.39055 19.388 1.49345 18.5062C0.596348 17.6244 0.596348 16.1948 1.49345 15.3131L15.5853 1.46221ZM9.77609 -1.61293C8.59073 -2.77795 6.66902 -2.77795 5.48373 -1.61293L-1.58857 5.35802C-2.77386 6.52305 -2.77386 8.41192 -1.58857 9.57694C-0.40328 10.742 1.51845 10.742 2.70375 9.57694L9.77609 2.60599C10.9614 1.44097 10.9614 -0.447908 9.77609 -1.61293Z" fill="#543F8E"/>
<mask id="mask1_447_34451" style="mask-type:alpha" maskUnits="userSpaceOnUse" x="2" y="2" width="16" height="16">
<path d="M2.06006 10.0011C2.06006 5.61418 5.6158 2.05786 10.002 2.05786C14.3883 2.05786 17.944 5.61418 17.944 10.0011C17.944 14.3881 14.3883 17.9444 10.002 17.9444C5.6158 17.9444 2.06006 14.3881 2.06006 10.0011Z" fill="#4F2783"/>
</mask>
<g mask="url(#mask1_447_34451)">
<g filter="url(#filter0_f_447_34451)">
<path d="M15.7061 6.83278C16.4723 8.35899 16.2991 9.79669 16.3051 9.7195C16.2626 9.95958 16.2869 11.0228 15.4173 12.3975C13.222 15.6215 8.74017 15.6901 6.69997 13.0549C5.3013 11.3401 5.65705 8.64767 7.77025 7.53874L7.80978 7.51873C9.34834 6.79848 10.4307 7.40727 10.4976 7.4187C11.7199 7.96745 11.8689 8.90775 11.8811 8.92494C11.872 8.87924 11.9024 9.01643 11.9024 9.01924L11.9084 9.06213C12.0362 9.81669 11.7351 10.194 11.6105 10.4055C11.6865 10.3054 11.2182 11.0685 10.3182 11.0399C10.8473 11.2372 11.2943 10.9999 11.2912 10.9999C11.2943 10.9999 11.4432 10.9342 11.5588 10.857C11.5557 10.8599 11.6226 10.8113 11.6257 10.8113C12.0331 10.5283 12.2369 10.0996 12.3341 9.63371C12.3311 9.65379 12.5409 8.85065 12.0118 8.05606C12.0118 8.05892 11.9328 7.93602 11.9328 7.93888C11.8568 7.86456 11.6105 7.39297 10.7926 6.97854C10.1328 6.66129 9.60979 6.64128 9.51251 6.62699C9.51251 6.62699 9.5034 6.62699 9.49727 6.62699C8.24458 6.54982 7.14997 7.00712 6.35638 7.79311C5.09758 9.05643 5.09454 10.6312 5.11583 10.3912C4.77528 15.7044 12.2885 18.151 16.3356 13.4722C17.6917 11.906 17.8953 10.1597 17.944 9.99669C17.421 16.9106 8.70068 19.0856 4.87866 14.0838C4.65366 13.7838 4.56853 13.6237 4.52596 13.5666C4.52596 13.5694 3.49216 12.046 3.73236 9.95669C3.73236 9.96528 3.74757 9.84239 3.74757 9.8395C3.98778 8.22469 4.74184 7.41584 4.78441 7.31866C4.78137 7.32152 4.93036 7.13002 4.93036 7.13002C5.1736 6.84135 5.20401 6.81277 5.39556 6.62699C6.39895 5.62665 7.78241 5.27224 7.79761 5.26367C7.65167 5.29796 9.50944 4.62345 11.5436 5.54662L11.6713 5.60664C11.6196 5.58092 12.325 5.88388 12.9605 6.54411C13.4531 7.05571 13.6598 7.48157 13.6842 7.51873C13.6751 7.50158 14.049 8.09608 14.1281 8.99354C14.1554 9.37082 14.1311 9.59941 14.0855 9.90809C14.0855 9.90528 14.0521 10.0911 14.0399 10.1397C14.043 10.1311 14.0065 10.2797 14.0065 10.2826C13.3497 12.5319 10.9142 13.3665 9.34221 12.5004L9.26315 12.4575C8.16248 11.8517 7.68511 10.5683 8.39966 9.5909C8.39966 9.5852 8.51217 9.45082 8.47259 9.49941C8.82536 9.11643 9.26315 8.94784 9.69796 8.96494C9.69191 8.96205 9.72834 8.97635 9.59762 8.93065C9.15676 8.79635 8.77055 8.98214 8.74928 8.98784C8.75234 8.98784 8.74323 8.99065 8.73711 8.99354C8.74017 8.99354 8.60945 9.04784 8.53038 9.09643C8.53345 9.09643 8.47259 9.13073 8.41183 9.17362C7.81889 9.59371 7.7216 10.1883 7.70639 10.2226C7.70639 10.2226 7.70031 10.254 7.70335 10.2254C7.68815 10.2969 7.65774 10.434 7.65167 10.5026C7.65167 10.4998 7.64254 10.5283 7.63646 10.8198C7.63646 10.817 7.63646 10.8599 7.63646 10.8627C7.63646 10.8599 7.59997 11.3515 8.06214 12.0432C8.0591 12.0403 8.07126 12.0575 8.07126 12.0575C8.29932 12.3632 8.6794 12.7577 9.03813 12.9292C9.03515 12.9292 9.05336 12.9377 9.05336 12.9377C9.0503 12.9377 9.20842 13.0206 9.24187 13.0349C9.06859 12.9549 10.3426 13.6695 11.7291 13.275C11.6713 13.2922 11.8963 13.2293 11.9328 13.2207C11.9115 13.2264 12.2307 13.1321 12.398 13.0521C12.2672 13.1092 13.2767 12.7491 13.9943 11.8231C13.9943 11.826 14.0764 11.7173 14.0794 11.7145C14.0764 11.7202 14.1403 11.6316 14.1403 11.6287C14.046 11.7631 14.8001 10.8599 14.8912 9.51371L14.8943 9.46222C14.8943 9.46511 14.8974 9.41652 14.8974 9.41652C14.8912 9.5509 15.0615 8.40758 14.3591 7.02427C14.3744 7.04714 13.9092 5.98391 12.5288 5.05216C8.6611 2.65705 3.12425 4.60916 2.06006 9.99388C2.06006 9.99388 2.06614 9.91388 2.07526 9.76239C2.53742 2.67134 12.6017 0.75639 15.7061 6.83278Z" fill="url(#paint0_linear_447_34451)" fill-opacity="0.8"/>
</g>
<path d="M7.16613 5.46204C7.16613 5.94125 7.09046 6.02953 6.59863 6.02953C7.07785 6.02953 7.16613 6.10519 7.16613 6.59702C7.16613 6.11781 7.24179 6.02953 7.73362 6.02953C7.24179 6.02953 7.16613 5.94125 7.16613 5.46204Z" fill="white"/>
<path d="M6.03087 6.59912C6.03087 7.07834 5.9552 7.16661 5.46338 7.16661C5.94259 7.16661 6.03087 7.24228 6.03087 7.73411C6.03087 7.25489 6.10654 7.16661 6.59837 7.16661C6.10654 7.16661 6.03087 7.07834 6.03087 6.59912Z" fill="white"/>
<path d="M12.8385 13.4042C12.8385 13.8834 12.7628 13.9717 12.271 13.9717C12.7501 13.9717 12.8385 14.0473 12.8385 14.5392C12.8385 14.0599 12.9141 13.9717 13.406 13.9717C12.9141 13.9717 12.8385 13.8834 12.8385 13.4042Z" fill="white"/>
<path d="M7.16613 11.137C7.16613 11.6162 7.09046 11.7045 6.59863 11.7045C7.07785 11.7045 7.16613 11.7801 7.16613 12.2719C7.16613 11.7928 7.24179 11.7045 7.73362 11.7045C7.24179 11.7045 7.16613 11.6162 7.16613 11.137Z" fill="white"/>
<path d="M10.8533 8.01526C10.8533 8.25506 10.8155 8.2992 10.5693 8.2992C10.8091 8.2992 10.8533 8.33707 10.8533 8.5832C10.8533 8.34337 10.8911 8.2992 11.1373 8.2992C10.8911 8.2992 10.8533 8.25506 10.8533 8.01526Z" fill="white"/>
<path d="M10.2859 5.46204C10.2859 5.70184 10.248 5.74601 10.002 5.74601C10.2417 5.74601 10.2859 5.78387 10.2859 6.02999C10.2859 5.79019 10.3237 5.74601 10.5699 5.74601C10.3237 5.74601 10.2859 5.70184 10.2859 5.46204Z" fill="white"/>
<path d="M13.6898 10C13.6898 10.2398 13.6519 10.284 13.4058 10.284C13.6455 10.284 13.6898 10.3219 13.6898 10.5679C13.6898 10.3282 13.7275 10.284 13.9737 10.284C13.7275 10.284 13.6898 10.2398 13.6898 10Z" fill="white"/>
<path d="M14.8244 11.137C14.8244 11.3768 14.7867 11.421 14.5405 11.421C14.7803 11.421 14.8244 11.4588 14.8244 11.705C14.8244 11.4651 14.8623 11.421 15.1084 11.421C14.8623 11.421 14.8244 11.3768 14.8244 11.137Z" fill="white"/>
<path d="M11.4211 13.6869C11.4211 13.9267 11.3832 13.9709 11.1372 13.9709C11.377 13.9709 11.4211 14.0088 11.4211 14.2549C11.4211 14.0151 11.459 13.9709 11.7051 13.9709C11.459 13.9709 11.4211 13.9267 11.4211 13.6869Z" fill="white"/>
<path d="M9.15168 15.6781C9.15168 15.9178 9.1138 15.962 8.86768 15.962C9.10751 15.962 9.15168 15.9999 9.15168 16.246C9.15168 16.0063 9.18955 15.962 9.43568 15.962C9.18955 15.962 9.15168 15.9178 9.15168 15.6781Z" fill="white"/>
<path d="M13.6898 15.6781C13.6898 15.9178 13.6519 15.962 13.4058 15.962C13.6455 15.962 13.6898 15.9999 13.6898 16.246C13.6898 16.0063 13.7275 15.962 13.9737 15.962C13.7275 15.962 13.6898 15.9178 13.6898 15.6781Z" fill="white"/>
<path d="M3.4788 5.46204C3.4788 5.70184 3.44093 5.74601 3.19482 5.74601C3.43463 5.74601 3.4788 5.78387 3.4788 6.02999C3.4788 5.79019 3.51666 5.74601 3.76278 5.74601C3.51666 5.74601 3.4788 5.70184 3.4788 5.46204Z" fill="white"/>
<path d="M8.01737 3.19482C8.01737 3.43463 7.97951 3.4788 7.7334 3.4788C7.9732 3.4788 8.01737 3.51666 8.01737 3.76277C8.01737 3.52297 8.05524 3.4788 8.30136 3.4788C8.05524 3.4788 8.01737 3.43463 8.01737 3.19482Z" fill="white"/>
<path d="M13.9739 5.46204C13.9739 5.70184 13.9361 5.74601 13.6899 5.74601C13.9297 5.74601 13.9739 5.78387 13.9739 6.02999C13.9739 5.79019 14.0117 5.74601 14.2579 5.74601C14.0117 5.74601 13.9739 5.70184 13.9739 5.46204Z" fill="white"/>
<path d="M2.34404 7.72937C2.34404 7.96917 2.30618 8.01335 2.06006 8.01335C2.29986 8.01335 2.34404 8.05121 2.34404 8.29733C2.34404 8.05752 2.38191 8.01335 2.62802 8.01335C2.38191 8.01335 2.34404 7.96917 2.34404 7.72937Z" fill="white"/>
<path d="M12.8385 6.59912C12.8385 7.07834 12.7628 7.16661 12.271 7.16661C12.7501 7.16661 12.8385 7.24228 12.8385 7.73411C12.8385 7.25489 12.9141 7.16661 13.406 7.16661C12.9141 7.16661 12.8385 7.07834 12.8385 6.59912Z" fill="white"/>
<path d="M4.89708 10C4.89708 10.4792 4.82141 10.5675 4.32959 10.5675C4.80881 10.5675 4.89708 10.6431 4.89708 11.135C4.89708 10.6557 4.97275 10.5675 5.46458 10.5675C4.97275 10.5675 4.89708 10.4792 4.89708 10Z" fill="white"/>
<path d="M8.86778 6.59702C9.18114 6.59702 9.43527 6.34295 9.43527 6.02953C9.43527 5.71611 9.18114 5.46204 8.86778 5.46204C8.55434 5.46204 8.30029 5.71611 8.30029 6.02953C8.30029 6.34295 8.55434 6.59702 8.86778 6.59702Z" fill="white"/>
<path d="M13.4059 9.43283C13.7192 9.43283 13.9734 9.17879 13.9734 8.86534C13.9734 8.55189 13.7192 8.29785 13.4059 8.29785C13.0924 8.29785 12.8384 8.55189 12.8384 8.86534C12.8384 9.17879 13.0924 9.43283 13.4059 9.43283Z" fill="white"/>
<path d="M10.2865 10.8516C10.7567 10.8516 11.1379 10.4705 11.1379 10.0003C11.1379 9.53012 10.7567 9.14893 10.2865 9.14893C9.81625 9.14893 9.43506 9.53012 9.43506 10.0003C9.43506 10.4705 9.81625 10.8516 10.2865 10.8516Z" fill="white"/>
<path d="M6.03087 13.4042C6.03087 13.8943 5.95348 13.9717 5.46338 13.9717C5.95348 13.9717 6.03087 14.049 6.03087 14.5392C6.03087 14.049 6.10826 13.9717 6.59836 13.9717C6.10826 13.9717 6.03087 13.8943 6.03087 13.4042Z" fill="white"/>
<path d="M13.1223 5.18233C13.2791 5.18233 13.4063 5.05519 13.4063 4.89835C13.4063 4.74152 13.2791 4.61438 13.1223 4.61438C12.9655 4.61438 12.8384 4.74152 12.8384 4.89835C12.8384 5.05519 12.9655 5.18233 13.1223 5.18233Z" fill="white"/>
<path d="M14.8244 6.88448C14.9813 6.88448 15.1084 6.75734 15.1084 6.6005C15.1084 6.44367 14.9813 6.31653 14.8244 6.31653C14.6677 6.31653 14.5405 6.44367 14.5405 6.6005C14.5405 6.75734 14.6677 6.88448 14.8244 6.88448Z" fill="white"/>
<path d="M13.6898 12.8352C13.8465 12.8352 13.9737 12.7081 13.9737 12.5512C13.9737 12.3945 13.8465 12.2673 13.6898 12.2673C13.5329 12.2673 13.4058 12.3945 13.4058 12.5512C13.4058 12.7081 13.5329 12.8352 13.6898 12.8352Z" fill="white"/>
<path d="M8.01737 12.8352C8.17422 12.8352 8.30136 12.7081 8.30136 12.5512C8.30136 12.3945 8.17422 12.2673 8.01737 12.2673C7.86054 12.2673 7.7334 12.3945 7.7334 12.5512C7.7334 12.7081 7.86054 12.8352 8.01737 12.8352Z" fill="white"/>
<path d="M9.15168 8.30063C9.30853 8.30063 9.43568 8.17347 9.43568 8.01664C9.43568 7.85981 9.30853 7.73267 9.15168 7.73267C8.99482 7.73267 8.86768 7.85981 8.86768 8.01664C8.86768 8.17347 8.99482 8.30063 9.15168 8.30063Z" fill="white"/>
<path d="M7.44999 9.14844C7.60682 9.14844 7.73396 9.0213 7.73396 8.86444C7.73396 8.70759 7.60682 8.58044 7.44999 8.58044C7.29316 8.58044 7.16602 8.70759 7.16602 8.86444C7.16602 9.0213 7.29316 9.14844 7.44999 9.14844Z" fill="white"/>
<path d="M3.36521 6.93989C3.45931 6.93989 3.5356 6.86361 3.5356 6.7695C3.5356 6.6754 3.45931 6.59912 3.36521 6.59912C3.2711 6.59912 3.19482 6.6754 3.19482 6.7695C3.19482 6.86361 3.2711 6.93989 3.36521 6.93989Z" fill="white"/>
<path d="M5.63376 4.66927C5.72786 4.66927 5.80414 4.59298 5.80414 4.49887C5.80414 4.40477 5.72786 4.32849 5.63376 4.32849C5.53966 4.32849 5.46338 4.40477 5.46338 4.49887C5.46338 4.59298 5.53966 4.66927 5.63376 4.66927Z" fill="white"/>
<path d="M9.03806 3.53559C9.13219 3.53559 9.20853 3.45931 9.20853 3.36521C9.20853 3.27111 9.13219 3.19482 9.03806 3.19482C8.94402 3.19482 8.86768 3.27111 8.86768 3.36521C8.86768 3.45931 8.94402 3.53559 9.03806 3.53559Z" fill="white"/>
<path d="M12.101 6.77034C12.1952 6.77034 12.2714 6.69405 12.2714 6.59995C12.2714 6.50585 12.1952 6.42957 12.101 6.42957C12.0069 6.42957 11.9307 6.50585 11.9307 6.59995C11.9307 6.69405 12.0069 6.77034 12.101 6.77034Z" fill="white"/>
<path d="M15.8452 9.20722C15.9393 9.20722 16.0156 9.13088 16.0156 9.03684C16.0156 8.94271 15.9393 8.86646 15.8452 8.86646C15.7511 8.86646 15.6748 8.94271 15.6748 9.03684C15.6748 9.13088 15.7511 9.20722 15.8452 9.20722Z" fill="white"/>
<path d="M12.4414 10.3408C12.5354 10.3408 12.6118 10.2645 12.6118 10.1704C12.6118 10.0763 12.5354 10 12.4414 10C12.3473 10 12.271 10.0763 12.271 10.1704C12.271 10.2645 12.3473 10.3408 12.4414 10.3408Z" fill="white"/>
<path d="M11.3077 11.8767C11.4017 11.8767 11.4781 11.8004 11.4781 11.7063C11.4781 11.6121 11.4017 11.5359 11.3077 11.5359C11.2135 11.5359 11.1372 11.6121 11.1372 11.7063C11.1372 11.8004 11.2135 11.8767 11.3077 11.8767Z" fill="white"/>
<path d="M6.7695 11.3082C6.86361 11.3082 6.9399 11.2319 6.9399 11.1378C6.9399 11.0437 6.86361 10.9674 6.7695 10.9674C6.6754 10.9674 6.59912 11.0437 6.59912 11.1378C6.59912 11.2319 6.6754 11.3082 6.7695 11.3082Z" fill="white"/>
<path d="M12.4419 16.4112C12.5359 16.4112 12.6123 16.3349 12.6123 16.2408C12.6123 16.1467 12.5359 16.0704 12.4419 16.0704C12.3477 16.0704 12.2715 16.1467 12.2715 16.2408C12.2715 16.3349 12.3477 16.4112 12.4419 16.4112Z" fill="white"/>
<path d="M7.90378 16.0189C7.99788 16.0189 8.07417 15.9425 8.07417 15.8485C8.07417 15.7544 7.99788 15.6781 7.90378 15.6781C7.80968 15.6781 7.7334 15.7544 7.7334 15.8485C7.7334 15.9425 7.80968 16.0189 7.90378 16.0189Z" fill="white"/>
<path d="M4.49997 13.7449C4.59408 13.7449 4.67036 13.6687 4.67036 13.5746C4.67036 13.4804 4.59408 13.4042 4.49997 13.4042C4.40587 13.4042 4.32959 13.4804 4.32959 13.5746C4.32959 13.6687 4.40587 13.7449 4.49997 13.7449Z" fill="white"/>
<path d="M10.8533 4.04525C11.0101 4.04525 11.1373 3.9181 11.1373 3.76127C11.1373 3.60444 11.0101 3.47729 10.8533 3.47729C10.6965 3.47729 10.5693 3.60444 10.5693 3.76127C10.5693 3.9181 10.6965 4.04525 10.8533 4.04525Z" fill="white"/>
<path d="M8.98129 13.6313C9.04402 13.6313 9.09491 13.5805 9.09491 13.5178C9.09491 13.4551 9.04402 13.4042 8.98129 13.4042C8.91857 13.4042 8.86768 13.4551 8.86768 13.5178C8.86768 13.5805 8.91857 13.6313 8.98129 13.6313Z" fill="white"/>
<path d="M11.2507 9.0936C11.3135 9.0936 11.3644 9.0428 11.3644 8.97999C11.3644 8.91726 11.3135 8.86646 11.2507 8.86646C11.188 8.86646 11.1372 8.91726 11.1372 8.97999C11.1372 9.0428 11.188 9.0936 11.2507 9.0936Z" fill="white"/>
<path d="M15.7884 7.95985C15.8511 7.95985 15.902 7.90899 15.902 7.84626C15.902 7.78352 15.8511 7.73267 15.7884 7.73267C15.7256 7.73267 15.6748 7.78352 15.6748 7.84626C15.6748 7.90899 15.7256 7.95985 15.7884 7.95985Z" fill="white"/>
<path d="M10.1155 7.95985C10.1782 7.95985 10.2291 7.90899 10.2291 7.84626C10.2291 7.78352 10.1782 7.73267 10.1155 7.73267C10.0528 7.73267 10.002 7.78352 10.002 7.84626C10.002 7.90899 10.0528 7.95985 10.1155 7.95985Z" fill="white"/>
<path d="M10.5702 8.86749C10.6329 8.86749 10.6838 8.8166 10.6838 8.75388C10.6838 8.69115 10.6329 8.64026 10.5702 8.64026C10.5074 8.64026 10.4565 8.69115 10.4565 8.75388C10.4565 8.8166 10.5074 8.86749 10.5702 8.86749Z" fill="white"/>
<path d="M7.84699 13.6313C7.90972 13.6313 7.96058 13.5805 7.96058 13.5178C7.96058 13.4551 7.90972 13.4042 7.84699 13.4042C7.78426 13.4042 7.7334 13.4551 7.7334 13.5178C7.7334 13.5805 7.78426 13.6313 7.84699 13.6313Z" fill="white"/>
<path d="M6.71222 10.2271C6.77496 10.2271 6.82582 10.1763 6.82582 10.1136C6.82582 10.0509 6.77496 10 6.71222 10C6.64949 10 6.59863 10.0509 6.59863 10.1136C6.59863 10.1763 6.64949 10.2271 6.71222 10.2271Z" fill="white"/>
<path d="M7.84699 7.95985C7.90972 7.95985 7.96058 7.90899 7.96058 7.84626C7.96058 7.78352 7.90972 7.73267 7.84699 7.73267C7.78426 7.73267 7.7334 7.78352 7.7334 7.84626C7.7334 7.90899 7.78426 7.95985 7.84699 7.95985Z" fill="white"/>
<path d="M5.57696 7.95985C5.6397 7.95985 5.69055 7.90899 5.69055 7.84626C5.69055 7.78352 5.6397 7.73267 5.57696 7.73267C5.51423 7.73267 5.46338 7.78352 5.46338 7.84626C5.46338 7.90899 5.51423 7.95985 5.57696 7.95985Z" fill="white"/>
<path d="M6.71222 4.55567C6.77496 4.55567 6.82582 4.50481 6.82582 4.44208C6.82582 4.37934 6.77496 4.32849 6.71222 4.32849C6.64949 4.32849 6.59863 4.37934 6.59863 4.44208C6.59863 4.50481 6.64949 4.55567 6.71222 4.55567Z" fill="white"/>
<path d="M4.44318 9.0936C4.50591 9.0936 4.55676 9.0428 4.55676 8.97999C4.55676 8.91726 4.50591 8.86646 4.44318 8.86646C4.38044 8.86646 4.32959 8.91726 4.32959 8.97999C4.32959 9.0428 4.38044 9.0936 4.44318 9.0936Z" fill="white"/>
<path d="M4.44318 12.4945C4.50591 12.4945 4.55676 12.4436 4.55676 12.3809C4.55676 12.3181 4.50591 12.2673 4.44318 12.2673C4.38044 12.2673 4.32959 12.3181 4.32959 12.3809C4.32959 12.4436 4.38044 12.4945 4.44318 12.4945Z" fill="white"/>
<path d="M12.5549 11.705C12.7118 11.705 12.8389 11.5778 12.8389 11.421C12.8389 11.2641 12.7118 11.137 12.5549 11.137C12.3981 11.137 12.271 11.2641 12.271 11.421C12.271 11.5778 12.3981 11.705 12.5549 11.705Z" fill="white"/>
<path d="M10.2859 11.9875C10.4427 11.9875 10.5699 11.8603 10.5699 11.7035C10.5699 11.5467 10.4427 11.4196 10.2859 11.4196C10.1291 11.4196 10.002 11.5467 10.002 11.7035C10.002 11.8603 10.1291 11.9875 10.2859 11.9875Z" fill="white"/>
<path d="M10.2859 14.8265C10.4427 14.8265 10.5699 14.6994 10.5699 14.5425C10.5699 14.3857 10.4427 14.2585 10.2859 14.2585C10.1291 14.2585 10.002 14.3857 10.002 14.5425C10.002 14.6994 10.1291 14.8265 10.2859 14.8265Z" fill="white"/>
<path d="M15.108 10C15.108 10.4788 15.0193 10.5675 14.5405 10.5675C15.0193 10.5675 15.108 10.6562 15.108 11.135C15.108 10.6562 15.1967 10.5675 15.6755 10.5675C15.1789 10.5675 15.108 10.4788 15.108 10Z" fill="white"/>
</g>
</g>
<path d="M9.99996 0.25H10C15.3848 0.25 19.75 4.6145 19.75 9.9983V10.0017C19.75 15.3855 15.3848 19.75 10 19.75H9.99996C4.61517 19.75 0.25 15.3855 0.25 10.0017V9.9983C0.25 4.6145 4.61517 0.25 9.99996 0.25Z" stroke="#DFD5E9" stroke-width="0.5"/>
</g>
<defs>
<filter id="filter0_f_447_34451" x="1.56006" y="2.69482" width="16.8838" height="14.6171" filterUnits="userSpaceOnUse" color-interpolation-filters="sRGB">
<feFlood flood-opacity="0" result="BackgroundImageFix"/>
<feBlend mode="normal" in="SourceGraphic" in2="BackgroundImageFix" result="shape"/>
<feGaussianBlur stdDeviation="0.25" result="effect1_foregroundBlur_447_34451"/>
</filter>
<linearGradient id="paint0_linear_447_34451" x1="13.973" y1="16.8118" x2="11.4072" y2="3.59948" gradientUnits="userSpaceOnUse">
<stop stop-color="#B283FF"/>
<stop offset="1" stop-color="#EDD5FF"/>
</linearGradient>
<clipPath id="clip0_447_34451">
<rect width="20" height="20" fill="white"/>
</clipPath>
</defs>
</svg>
