<svg width="24" height="24" viewBox="0 0 24 24" fill="none" xmlns="http://www.w3.org/2000/svg">
<g clip-path="url(#clip0_33104_16301)">
<rect x="0.25" y="0.273438" width="23.4971" height="23.4648" rx="11.7324" fill="#664C1A" stroke="#FFECC2" stroke-width="0.5"/>
<mask id="mask0_33104_16301" style="mask-type:alpha" maskUnits="userSpaceOnUse" x="0" y="0" width="24" height="24">
<path d="M0.666504 12.0042C0.666504 5.75417 5.73999 0.6875 11.9985 0.6875C18.2569 0.6875 23.3304 5.75417 23.3304 12.0042C23.3304 18.2543 18.2569 23.321 11.9985 23.321C5.73999 23.321 0.666504 18.2543 0.666504 12.0042Z" fill="#524E3F"/>
</mask>
<g mask="url(#mask0_33104_16301)">
<path fill-rule="evenodd" clip-rule="evenodd" d="M20.7206 12.658C21.7747 11.6235 23.4836 11.6235 24.5376 12.658C25.5917 13.6925 25.5917 15.3698 24.5376 16.4043L16.2477 24.5405C15.1936 25.575 13.4847 25.575 12.4307 24.5405C11.3766 23.506 11.3766 21.8288 12.4307 20.7943L20.7206 12.658ZM18.5569 1.99162C19.6109 0.957123 21.3199 0.957121 22.3739 1.99162C23.4279 3.02612 23.4279 4.70339 22.3739 5.73789L5.81672 21.9881C4.76267 23.0226 3.05373 23.0226 1.99968 21.9881C0.94564 20.9536 0.945641 19.2763 1.99968 18.2418L18.5569 1.99162ZM11.7313 -1.61621C10.3387 -2.98305 8.08071 -2.98305 6.68806 -1.61621L-1.62152 6.56229C-3.01418 7.92913 -3.01418 10.1452 -1.62152 11.512C-0.22887 12.8789 2.02907 12.8789 3.42172 11.512L11.7313 3.33354C13.124 1.9667 13.124 -0.249377 11.7313 -1.61621Z" fill="#785C26"/>
<path d="M18.4763 10.6846C18.1038 10.4332 17.8133 10.0782 17.6408 9.66363C17.4683 9.24903 17.4213 8.79301 17.5057 8.35202C17.751 7.08455 17.9643 6.66916 17.6497 6.34962C17.3351 6.03009 16.9191 6.24844 15.6446 6.49341C15.203 6.57769 14.7464 6.53079 14.3313 6.35851C13.9161 6.18624 13.5606 5.89615 13.3089 5.52417C12.589 4.45906 12.445 4.01172 11.9971 4.01172C11.5491 4.01172 11.4051 4.45906 10.6799 5.52949C10.4275 5.90051 10.0717 6.18953 9.65661 6.36084C9.24151 6.53215 8.78523 6.57824 8.34418 6.49341C7.075 6.24844 6.66439 6.03542 6.33909 6.34962C6.0138 6.66383 6.23777 7.07922 6.48308 8.35202C6.56747 8.79301 6.5205 9.24903 6.34799 9.66363C6.17549 10.0782 5.88501 10.4332 5.51253 10.6846C4.44599 11.4089 3.99805 11.5527 3.99805 12C3.99805 12.4473 4.44599 12.5911 5.51786 13.3154C5.88937 13.5675 6.17878 13.9228 6.35032 14.3373C6.52186 14.7519 6.56801 15.2075 6.48308 15.648C6.23777 16.9155 6.02447 17.3255 6.33909 17.6504C6.65372 17.9752 7.06967 17.7516 8.34418 17.5066C8.78576 17.4223 9.2424 17.4692 9.65755 17.6415C10.0727 17.8138 10.4282 18.1039 10.6799 18.4758C11.4051 19.5409 11.5491 19.9883 11.9971 19.9883C12.445 19.9883 12.589 19.5409 13.3142 18.4758C13.566 18.1039 13.9214 17.8138 14.3366 17.6415C14.7517 17.4692 15.2084 17.4223 15.65 17.5066C16.9191 17.7516 17.3351 17.9646 17.655 17.6504C17.975 17.3362 17.7564 16.9208 17.5111 15.648C17.4261 15.2075 17.4723 14.7519 17.6438 14.3373C17.8154 13.9228 18.1048 13.5675 18.4763 13.3154C19.5481 12.5911 19.9961 12.4473 19.9961 12C19.9961 11.5527 19.5481 11.4089 18.4763 10.6846Z" fill="url(#paint0_linear_33104_16301)"/>
<ellipse cx="11.9969" cy="11.9966" rx="4.99939" ry="4.99268" fill="url(#paint1_radial_33104_16301)"/>
<g filter="url(#filter0_f_33104_16301)">
<path d="M13.7169 9.02652C12.0723 8.07824 9.96924 8.64107 9.01966 10.2837C8.07008 11.9262 8.63352 14.0266 10.2781 14.9748" stroke="url(#paint2_linear_33104_16301)"/>
</g>
</g>
</g>
<defs>
<filter id="filter0_f_33104_16301" x="7.05811" y="7.06641" width="7.90918" height="9.33984" filterUnits="userSpaceOnUse" color-interpolation-filters="sRGB">
<feFlood flood-opacity="0" result="BackgroundImageFix"/>
<feBlend mode="normal" in="SourceGraphic" in2="BackgroundImageFix" result="shape"/>
<feGaussianBlur stdDeviation="0.5" result="effect1_foregroundBlur_33104_16301"/>
</filter>
<linearGradient id="paint0_linear_33104_16301" x1="11.9971" y1="19.9883" x2="11.9971" y2="4.01172" gradientUnits="userSpaceOnUse">
<stop stop-color="#FFE175"/>
<stop offset="1" stop-color="#FFFCE5"/>
</linearGradient>
<radialGradient id="paint1_radial_33104_16301" cx="0" cy="0" r="1" gradientUnits="userSpaceOnUse" gradientTransform="translate(11.9969 11.9966) rotate(-90) scale(4.65983 4.6661)">
<stop offset="0.31702" stop-color="#FFF5B3"/>
<stop offset="0.785" stop-color="#FAE891"/>
<stop offset="1" stop-color="#F5C850"/>
</radialGradient>
<linearGradient id="paint2_linear_33104_16301" x1="18.3598" y1="18.9653" x2="21.083" y2="12.8943" gradientUnits="userSpaceOnUse">
<stop stop-color="#FBE638" stop-opacity="0"/>
<stop offset="0.636846" stop-color="#FFFBEB"/>
<stop offset="0.951571" stop-color="#FDF194" stop-opacity="0"/>
</linearGradient>
<clipPath id="clip0_33104_16301">
<rect width="24" height="24" fill="white"/>
</clipPath>
</defs>
</svg>
