<svg width="20" height="20" viewBox="0 0 20 20" fill="none" xmlns="http://www.w3.org/2000/svg">
<g clip-path="url(#clip0_447_34439)">
<mask id="mask0_447_34439" style="mask-type:luminance" maskUnits="userSpaceOnUse" x="0" y="0" width="20" height="20">
<path d="M20 0H0V20H20V0Z" fill="white"/>
</mask>
<g mask="url(#mask0_447_34439)">
<path d="M19.7913 9.99992C19.7913 4.59213 15.4075 0.208252 9.99967 0.208252C4.59189 0.208252 0.208008 4.59213 0.208008 9.99992C0.208008 15.4077 4.59189 19.7916 9.99967 19.7916C15.4075 19.7916 19.7913 15.4077 19.7913 9.99992Z" fill="#7783A3"/>
<mask id="mask1_447_34439" style="mask-type:alpha" maskUnits="userSpaceOnUse" x="0" y="0" width="20" height="20">
<path d="M0.555176 10.0011C0.555176 4.78507 4.7836 0.556641 9.99959 0.556641C15.2157 0.556641 19.4441 4.78507 19.4441 10.0011C19.4441 15.2171 15.2157 19.4455 9.99959 19.4455C4.7836 19.4455 0.555176 15.2171 0.555176 10.0011Z" fill="#6C85C8"/>
</mask>
<g mask="url(#mask1_447_34439)">
<path fill-rule="evenodd" clip-rule="evenodd" d="M17.2703 10.5453C18.1488 9.68192 19.5732 9.68192 20.4518 10.5453C21.3303 11.4087 21.3303 12.8086 20.4518 13.6719L13.542 20.4624C12.6635 21.3258 11.2391 21.3258 10.3605 20.4624C9.482 19.599 9.482 18.1992 10.3605 17.3358L17.2703 10.5453ZM15.4668 1.64324C16.3453 0.779857 17.7697 0.779855 18.6483 1.64324C19.5268 2.50663 19.5268 3.90647 18.6483 4.76985L4.84775 18.3322C3.9692 19.1956 2.54479 19.1956 1.66623 18.3322C0.787682 17.4687 0.787682 16.0689 1.66623 15.2056L15.4668 1.64324ZM9.77759 -1.36783C8.61684 -2.50858 6.7348 -2.50858 5.57402 -1.36783L-1.35206 5.45789C-2.51285 6.59864 -2.51285 8.44817 -1.35206 9.58892C-0.191281 10.7297 1.69072 10.7297 2.85151 9.58892L9.77759 2.7632C10.9384 1.62244 10.9384 -0.227079 9.77759 -1.36783Z" fill="#8A95B1"/>
<path d="M9.60574 15.5577C12.8212 15.5577 15.4279 13.023 15.4279 9.89642C15.4279 7.32266 13.6615 5.15003 11.2432 4.46222C10.8867 4.3608 10.6325 4.77208 10.7972 5.09586C11.0994 5.68966 11.2692 6.35847 11.2692 7.06584C11.2692 9.52242 9.22116 11.5139 6.69473 11.5139C5.96725 11.5139 5.27943 11.3488 4.66875 11.055C4.33577 10.8948 3.91281 11.1419 4.01711 11.4886C4.72447 13.8401 6.95885 15.5577 9.60574 15.5577Z" fill="url(#paint0_linear_447_34439)"/>
</g>
</g>
<path d="M10 0.25C15.3848 0.25 19.75 4.61522 19.75 10C19.75 15.3848 15.3848 19.75 10 19.75C4.61522 19.75 0.25 15.3848 0.25 10C0.25 4.61522 4.61522 0.25 10 0.25Z" stroke="#DEE9FF" stroke-width="0.5"/>
</g>
<defs>
<linearGradient id="paint0_linear_447_34439" x1="8.90674" y1="15.4364" x2="9.71441" y2="4.44653" gradientUnits="userSpaceOnUse">
<stop stop-color="#CAD4EB"/>
<stop offset="1" stop-color="white"/>
</linearGradient>
<clipPath id="clip0_447_34439">
<rect width="20" height="20" fill="white"/>
</clipPath>
</defs>
</svg>
