<svg width="18" height="18" viewBox="0 0 18 18" fill="none" xmlns="http://www.w3.org/2000/svg">
    <g clip-path="url(#clip0_29197_11099)">
        <rect width="18" height="18" rx="9" fill="url(#paint0_radial_29197_11099)" />
        <mask id="mask0_29197_11099" style="mask-type:alpha" maskUnits="userSpaceOnUse" x="2" y="2" width="14"
            height="14">
            <path
                d="M2 9C2 5.13401 5.13401 2 9 2C12.866 2 16 5.13401 16 9C16 12.866 12.866 16 9 16C5.13401 16 2 12.866 2 9Z"
                fill="#4F2783" />
        </mask>
        <g mask="url(#mask0_29197_11099)">
            <g filter="url(#filter0_f_29197_11099)">
                <path
                    d="M14.0276 6.20595C14.7029 7.55095 14.5502 8.81787 14.5555 8.74987C14.518 8.96144 14.5394 9.8984 13.773 11.1099C11.8381 13.951 7.88783 14.0115 6.08959 11.6892C4.85682 10.178 5.17037 7.80534 7.03292 6.82808L7.06776 6.81044C8.42381 6.17573 9.37787 6.71221 9.43683 6.72229C10.5142 7.20588 10.6455 8.03455 10.6562 8.04966C10.6482 8.00936 10.675 8.13026 10.675 8.13278L10.6803 8.17056C10.7929 8.8355 10.5276 9.16797 10.4177 9.35436C10.4847 9.2662 10.072 9.9387 9.27871 9.91352C9.74502 10.0873 10.139 9.87825 10.1363 9.87825C10.139 9.87825 10.2703 9.82032 10.3721 9.75232C10.3694 9.75484 10.4284 9.71202 10.4311 9.71202C10.7902 9.46266 10.9698 9.08486 11.0555 8.6743C11.0528 8.69193 11.2377 7.98417 10.7714 7.28397C10.7714 7.28648 10.7018 7.17818 10.7018 7.1807C10.6348 7.11521 10.4177 6.69962 9.69678 6.3344C9.11524 6.05483 8.65429 6.03719 8.56853 6.0246C8.56853 6.0246 8.56049 6.0246 8.55513 6.0246C7.45099 5.9566 6.48622 6.35959 5.78675 7.05224C4.67726 8.16552 4.67458 9.55334 4.69334 9.34177C4.39318 14.0241 11.0153 16.1801 14.5823 12.057C15.7776 10.6767 15.9571 9.13775 16 8.99418C15.5391 15.087 7.85299 17.0037 4.4843 12.596C4.28599 12.3315 4.21095 12.1904 4.17343 12.1401C4.17343 12.1426 3.26225 10.8001 3.47397 8.95892C3.47397 8.96648 3.48737 8.85817 3.48737 8.85565C3.69908 7.43257 4.36371 6.71977 4.40122 6.63413C4.39854 6.63665 4.52986 6.4679 4.52986 6.4679C4.74426 6.21351 4.77106 6.18832 4.93989 6.0246C5.82427 5.14305 7.04364 4.83072 7.05704 4.82317C6.92841 4.85339 8.56585 4.25897 10.3587 5.07252L10.4713 5.12542C10.4257 5.10275 11.0475 5.36973 11.6076 5.95156C12.0417 6.40241 12.224 6.7777 12.2454 6.81044C12.2374 6.79533 12.567 7.31923 12.6367 8.11011C12.6608 8.44258 12.6394 8.64408 12.5992 8.9161C12.5992 8.91358 12.5697 9.0773 12.559 9.12012C12.5616 9.11256 12.5295 9.24354 12.5295 9.24605C11.9506 11.2283 9.80398 11.9638 8.41845 11.2006L8.34877 11.1628C7.37864 10.6288 6.95789 9.49793 7.58767 8.63652C7.58767 8.63148 7.68683 8.5131 7.65199 8.55592C7.96286 8.21841 8.34877 8.06981 8.73201 8.08492C8.72665 8.0824 8.7588 8.095 8.64357 8.0547C8.25498 7.93632 7.91462 8.10003 7.89586 8.10507C7.89854 8.10507 7.8905 8.10759 7.88515 8.11011C7.88783 8.11011 7.77259 8.15796 7.70291 8.20078C7.70559 8.20078 7.65199 8.23101 7.59839 8.26879C7.0758 8.63904 6.99005 9.16294 6.97665 9.19316C6.97665 9.19316 6.97129 9.22087 6.97397 9.19568C6.96057 9.25865 6.93377 9.37955 6.92841 9.44C6.92841 9.43748 6.92037 9.46266 6.91501 9.71957C6.91501 9.71706 6.91501 9.75484 6.91501 9.75736C6.91501 9.75484 6.88285 10.1881 7.2902 10.7976C7.28752 10.7951 7.29824 10.8102 7.29824 10.8102C7.49923 11.0797 7.83423 11.4273 8.15046 11.5784C8.14778 11.5784 8.16386 11.586 8.16386 11.586C8.16118 11.586 8.30054 11.659 8.33002 11.6716C8.17726 11.6011 9.30015 12.2307 10.5222 11.8832C10.4713 11.8983 10.6696 11.8429 10.7018 11.8353C10.683 11.8403 10.9644 11.7572 11.1118 11.6867C10.9966 11.7371 11.8863 11.4197 12.5188 10.6036C12.5188 10.6062 12.5911 10.5105 12.5938 10.5079C12.5911 10.513 12.6474 10.4349 12.6474 10.4324C12.5643 10.5508 13.2289 9.75484 13.3093 8.56852L13.312 8.52318C13.312 8.5257 13.3147 8.48288 13.3147 8.48288C13.3093 8.60126 13.4594 7.59377 12.8404 6.3747C12.8538 6.39485 12.4437 5.45789 11.227 4.63678C7.81815 2.52609 2.93798 4.24638 2 8.99166C2 8.99166 2.00536 8.92114 2.0134 8.78765C2.42075 2.53868 11.2913 0.851134 14.0276 6.20595Z"
                    fill="url(#paint1_linear_29197_11099)" fill-opacity="0.8" />
            </g>
            <path
                d="M6.5 5C6.5 5.42222 6.43333 5.5 6 5.5C6.42222 5.5 6.5 5.56667 6.5 6C6.5 5.57778 6.56667 5.5 7 5.5C6.56667 5.5 6.5 5.42222 6.5 5Z"
                fill="white" />
            <path
                d="M5.5 6C5.5 6.42222 5.43333 6.5 5 6.5C5.42222 6.5 5.5 6.56667 5.5 7C5.5 6.57778 5.56667 6.5 6 6.5C5.56667 6.5 5.5 6.42222 5.5 6Z"
                fill="white" />
            <path
                d="M11.5 12C11.5 12.4222 11.4333 12.5 11 12.5C11.4222 12.5 11.5 12.5667 11.5 13C11.5 12.5778 11.5667 12.5 12 12.5C11.5667 12.5 11.5 12.4222 11.5 12Z"
                fill="white" />
            <path
                d="M6.5 10C6.5 10.4222 6.43333 10.5 6 10.5C6.42222 10.5 6.5 10.5667 6.5 11C6.5 10.5778 6.56667 10.5 7 10.5C6.56667 10.5 6.5 10.4222 6.5 10Z"
                fill="white" />
            <path
                d="M9.75 7.25C9.75 7.46111 9.71667 7.5 9.5 7.5C9.71111 7.5 9.75 7.53333 9.75 7.75C9.75 7.53889 9.78333 7.5 10 7.5C9.78333 7.5 9.75 7.46111 9.75 7.25Z"
                fill="white" />
            <path
                d="M9.25 5C9.25 5.21111 9.21667 5.25 9 5.25C9.21111 5.25 9.25 5.28333 9.25 5.5C9.25 5.28889 9.28333 5.25 9.5 5.25C9.28333 5.25 9.25 5.21111 9.25 5Z"
                fill="white" />
            <path
                d="M12.25 9C12.25 9.21111 12.2167 9.25 12 9.25C12.2111 9.25 12.25 9.28333 12.25 9.5C12.25 9.28889 12.2833 9.25 12.5 9.25C12.2833 9.25 12.25 9.21111 12.25 9Z"
                fill="white" />
            <path
                d="M13.25 10C13.25 10.2111 13.2167 10.25 13 10.25C13.2111 10.25 13.25 10.2833 13.25 10.5C13.25 10.2889 13.2833 10.25 13.5 10.25C13.2833 10.25 13.25 10.2111 13.25 10Z"
                fill="white" />
            <path
                d="M10.25 12.25C10.25 12.4611 10.2167 12.5 10 12.5C10.2111 12.5 10.25 12.5333 10.25 12.75C10.25 12.5389 10.2833 12.5 10.5 12.5C10.2833 12.5 10.25 12.4611 10.25 12.25Z"
                fill="white" />
            <path
                d="M8.25 14C8.25 14.2111 8.21667 14.25 8 14.25C8.21111 14.25 8.25 14.2833 8.25 14.5C8.25 14.2889 8.28333 14.25 8.5 14.25C8.28333 14.25 8.25 14.2111 8.25 14Z"
                fill="white" />
            <path
                d="M12.25 14C12.25 14.2111 12.2167 14.25 12 14.25C12.2111 14.25 12.25 14.2833 12.25 14.5C12.25 14.2889 12.2833 14.25 12.5 14.25C12.2833 14.25 12.25 14.2111 12.25 14Z"
                fill="white" />
            <path
                d="M3.25 5C3.25 5.21111 3.21667 5.25 3 5.25C3.21111 5.25 3.25 5.28333 3.25 5.5C3.25 5.28889 3.28333 5.25 3.5 5.25C3.28333 5.25 3.25 5.21111 3.25 5Z"
                fill="white" />
            <path
                d="M7.25 3C7.25 3.21111 7.21667 3.25 7 3.25C7.21111 3.25 7.25 3.28333 7.25 3.5C7.25 3.28889 7.28333 3.25 7.5 3.25C7.28333 3.25 7.25 3.21111 7.25 3Z"
                fill="white" />
            <path
                d="M12.5 5C12.5 5.21111 12.4667 5.25 12.25 5.25C12.4611 5.25 12.5 5.28333 12.5 5.5C12.5 5.28889 12.5333 5.25 12.75 5.25C12.5333 5.25 12.5 5.21111 12.5 5Z"
                fill="white" />
            <path
                d="M2.25 7C2.25 7.21111 2.21667 7.25 2 7.25C2.21111 7.25 2.25 7.28333 2.25 7.5C2.25 7.28889 2.28333 7.25 2.5 7.25C2.28333 7.25 2.25 7.21111 2.25 7Z"
                fill="white" />
            <path
                d="M11.5 6C11.5 6.42222 11.4333 6.5 11 6.5C11.4222 6.5 11.5 6.56667 11.5 7C11.5 6.57778 11.5667 6.5 12 6.5C11.5667 6.5 11.5 6.42222 11.5 6Z"
                fill="white" />
            <path
                d="M4.5 9C4.5 9.42222 4.43333 9.5 4 9.5C4.42222 9.5 4.5 9.56667 4.5 10C4.5 9.57778 4.56667 9.5 5 9.5C4.56667 9.5 4.5 9.42222 4.5 9Z"
                fill="white" />
            <path
                d="M8 6C8.27614 6 8.5 5.77614 8.5 5.5C8.5 5.22386 8.27614 5 8 5C7.72386 5 7.5 5.22386 7.5 5.5C7.5 5.77614 7.72386 6 8 6Z"
                fill="white" />
            <path
                d="M12 8.5C12.2761 8.5 12.5 8.27614 12.5 8C12.5 7.72386 12.2761 7.5 12 7.5C11.7239 7.5 11.5 7.72386 11.5 8C11.5 8.27614 11.7239 8.5 12 8.5Z"
                fill="white" />
            <path
                d="M9.25 9.75C9.66421 9.75 10 9.41421 10 9C10 8.58579 9.66421 8.25 9.25 8.25C8.83579 8.25 8.5 8.58579 8.5 9C8.5 9.41421 8.83579 9.75 9.25 9.75Z"
                fill="white" />
            <path
                d="M5.5 12C5.5 12.4318 5.43182 12.5 5 12.5C5.43182 12.5 5.5 12.5682 5.5 13C5.5 12.5682 5.56818 12.5 6 12.5C5.56818 12.5 5.5 12.4318 5.5 12Z"
                fill="white" />
            <path
                d="M11.75 4.75C11.8881 4.75 12 4.63807 12 4.5C12 4.36193 11.8881 4.25 11.75 4.25C11.6119 4.25 11.5 4.36193 11.5 4.5C11.5 4.63807 11.6119 4.75 11.75 4.75Z"
                fill="white" />
            <path
                d="M13.25 6.25C13.3881 6.25 13.5 6.13807 13.5 6C13.5 5.86193 13.3881 5.75 13.25 5.75C13.1119 5.75 13 5.86193 13 6C13 6.13807 13.1119 6.25 13.25 6.25Z"
                fill="white" />
            <path
                d="M12.25 11.5C12.3881 11.5 12.5 11.3881 12.5 11.25C12.5 11.1119 12.3881 11 12.25 11C12.1119 11 12 11.1119 12 11.25C12 11.3881 12.1119 11.5 12.25 11.5Z"
                fill="white" />
            <path
                d="M7.25 11.5C7.38807 11.5 7.5 11.3881 7.5 11.25C7.5 11.1119 7.38807 11 7.25 11C7.11193 11 7 11.1119 7 11.25C7 11.3881 7.11193 11.5 7.25 11.5Z"
                fill="white" />
            <path
                d="M8.25 7.5C8.38807 7.5 8.5 7.38807 8.5 7.25C8.5 7.11193 8.38807 7 8.25 7C8.11193 7 8 7.11193 8 7.25C8 7.38807 8.11193 7.5 8.25 7.5Z"
                fill="white" />
            <path
                d="M6.75 8.25C6.88807 8.25 7 8.13807 7 8C7 7.86193 6.88807 7.75 6.75 7.75C6.61193 7.75 6.5 7.86193 6.5 8C6.5 8.13807 6.61193 8.25 6.75 8.25Z"
                fill="white" />
            <path
                d="M3.15 6.3C3.23284 6.3 3.3 6.23284 3.3 6.15C3.3 6.06716 3.23284 6 3.15 6C3.06716 6 3 6.06716 3 6.15C3 6.23284 3.06716 6.3 3.15 6.3Z"
                fill="white" />
            <path
                d="M5.15 4.3C5.23284 4.3 5.3 4.23284 5.3 4.15C5.3 4.06716 5.23284 4 5.15 4C5.06716 4 5 4.06716 5 4.15C5 4.23284 5.06716 4.3 5.15 4.3Z"
                fill="white" />
            <path
                d="M8.15 3.3C8.23284 3.3 8.3 3.23284 8.3 3.15C8.3 3.06716 8.23284 3 8.15 3C8.06716 3 8 3.06716 8 3.15C8 3.23284 8.06716 3.3 8.15 3.3Z"
                fill="white" />
            <path
                d="M10.8492 6.15156C10.9321 6.15156 10.9992 6.08441 10.9992 6.00156C10.9992 5.91872 10.9321 5.85156 10.8492 5.85156C10.7664 5.85156 10.6992 5.91872 10.6992 6.00156C10.6992 6.08441 10.7664 6.15156 10.8492 6.15156Z"
                fill="white" />
            <path
                d="M14.15 8.3C14.2328 8.3 14.3 8.23284 14.3 8.15C14.3 8.06716 14.2328 8 14.15 8C14.0672 8 14 8.06716 14 8.15C14 8.23284 14.0672 8.3 14.15 8.3Z"
                fill="white" />
            <path
                d="M11.15 9.3C11.2328 9.3 11.3 9.23284 11.3 9.15C11.3 9.06716 11.2328 9 11.15 9C11.0672 9 11 9.06716 11 9.15C11 9.23284 11.0672 9.3 11.15 9.3Z"
                fill="white" />
            <path
                d="M10.1505 10.6516C10.2333 10.6516 10.3005 10.5844 10.3005 10.5016C10.3005 10.4187 10.2333 10.3516 10.1505 10.3516C10.0676 10.3516 10.0005 10.4187 10.0005 10.5016C10.0005 10.5844 10.0676 10.6516 10.1505 10.6516Z"
                fill="white" />
            <path
                d="M6.15049 10.1516C6.23333 10.1516 6.30049 10.0844 6.30049 10.0016C6.30049 9.91872 6.23333 9.85156 6.15049 9.85156C6.06765 9.85156 6.00049 9.91872 6.00049 10.0016C6.00049 10.0844 6.06765 10.1516 6.15049 10.1516Z"
                fill="white" />
            <path
                d="M11.1505 14.6516C11.2333 14.6516 11.3005 14.5844 11.3005 14.5016C11.3005 14.4187 11.2333 14.3516 11.1505 14.3516C11.0676 14.3516 11.0005 14.4187 11.0005 14.5016C11.0005 14.5844 11.0676 14.6516 11.1505 14.6516Z"
                fill="white" />
            <path
                d="M7.15 14.3C7.23284 14.3 7.3 14.2328 7.3 14.15C7.3 14.0672 7.23284 14 7.15 14C7.06716 14 7 14.0672 7 14.15C7 14.2328 7.06716 14.3 7.15 14.3Z"
                fill="white" />
            <path
                d="M4.15 12.3C4.23284 12.3 4.3 12.2328 4.3 12.15C4.3 12.0672 4.23284 12 4.15 12C4.06716 12 4 12.0672 4 12.15C4 12.2328 4.06716 12.3 4.15 12.3Z"
                fill="white" />
            <path
                d="M9.75 3.75C9.88807 3.75 10 3.63807 10 3.5C10 3.36193 9.88807 3.25 9.75 3.25C9.61193 3.25 9.5 3.36193 9.5 3.5C9.5 3.63807 9.61193 3.75 9.75 3.75Z"
                fill="white" />
            <path
                d="M8.1 12.2C8.15523 12.2 8.2 12.1552 8.2 12.1C8.2 12.0448 8.15523 12 8.1 12C8.04477 12 8 12.0448 8 12.1C8 12.1552 8.04477 12.2 8.1 12.2Z"
                fill="white" />
            <path
                d="M10.1 8.2C10.1552 8.2 10.2 8.15523 10.2 8.1C10.2 8.04477 10.1552 8 10.1 8C10.0448 8 10 8.04477 10 8.1C10 8.15523 10.0448 8.2 10.1 8.2Z"
                fill="white" />
            <path
                d="M14.1 7.2C14.1552 7.2 14.2 7.15523 14.2 7.1C14.2 7.04477 14.1552 7 14.1 7C14.0448 7 14 7.04477 14 7.1C14 7.15523 14.0448 7.2 14.1 7.2Z"
                fill="white" />
            <path
                d="M9.1 7.2C9.15523 7.2 9.2 7.15523 9.2 7.1C9.2 7.04477 9.15523 7 9.1 7C9.04477 7 9 7.04477 9 7.1C9 7.15523 9.04477 7.2 9.1 7.2Z"
                fill="white" />
            <path
                d="M9.50039 8.00078C9.55562 8.00078 9.60039 7.95601 9.60039 7.90078C9.60039 7.84555 9.55562 7.80078 9.50039 7.80078C9.44516 7.80078 9.40039 7.84555 9.40039 7.90078C9.40039 7.95601 9.44516 8.00078 9.50039 8.00078Z"
                fill="white" />
            <path
                d="M7.1 12.2C7.15523 12.2 7.2 12.1552 7.2 12.1C7.2 12.0448 7.15523 12 7.1 12C7.04477 12 7 12.0448 7 12.1C7 12.1552 7.04477 12.2 7.1 12.2Z"
                fill="white" />
            <path
                d="M6.1 9.2C6.15523 9.2 6.2 9.15523 6.2 9.1C6.2 9.04477 6.15523 9 6.1 9C6.04477 9 6 9.04477 6 9.1C6 9.15523 6.04477 9.2 6.1 9.2Z"
                fill="white" />
            <path
                d="M7.1 7.2C7.15523 7.2 7.2 7.15523 7.2 7.1C7.2 7.04477 7.15523 7 7.1 7C7.04477 7 7 7.04477 7 7.1C7 7.15523 7.04477 7.2 7.1 7.2Z"
                fill="white" />
            <path
                d="M5.1 7.2C5.15523 7.2 5.2 7.15523 5.2 7.1C5.2 7.04477 5.15523 7 5.1 7C5.04477 7 5 7.04477 5 7.1C5 7.15523 5.04477 7.2 5.1 7.2Z"
                fill="white" />
            <path
                d="M6.1 4.2C6.15523 4.2 6.2 4.15523 6.2 4.1C6.2 4.04477 6.15523 4 6.1 4C6.04477 4 6 4.04477 6 4.1C6 4.15523 6.04477 4.2 6.1 4.2Z"
                fill="white" />
            <path
                d="M4.1 8.2C4.15523 8.2 4.2 8.15523 4.2 8.1C4.2 8.04477 4.15523 8 4.1 8C4.04477 8 4 8.04477 4 8.1C4 8.15523 4.04477 8.2 4.1 8.2Z"
                fill="white" />
            <path
                d="M4.1 11.2C4.15523 11.2 4.2 11.1552 4.2 11.1C4.2 11.0448 4.15523 11 4.1 11C4.04477 11 4 11.0448 4 11.1C4 11.1552 4.04477 11.2 4.1 11.2Z"
                fill="white" />
            <path
                d="M11.25 10.5C11.3881 10.5 11.5 10.3881 11.5 10.25C11.5 10.1119 11.3881 10 11.25 10C11.1119 10 11 10.1119 11 10.25C11 10.3881 11.1119 10.5 11.25 10.5Z"
                fill="white" />
            <path
                d="M9.25 10.75C9.38807 10.75 9.5 10.6381 9.5 10.5C9.5 10.3619 9.38807 10.25 9.25 10.25C9.11193 10.25 9 10.3619 9 10.5C9 10.6381 9.11193 10.75 9.25 10.75Z"
                fill="white" />
            <path
                d="M9.25 13.25C9.38807 13.25 9.5 13.1381 9.5 13C9.5 12.8619 9.38807 12.75 9.25 12.75C9.11193 12.75 9 12.8619 9 13C9 13.1381 9.11193 13.25 9.25 13.25Z"
                fill="white" />
            <path
                d="M13.5 9C13.5 9.42188 13.4219 9.5 13 9.5C13.4219 9.5 13.5 9.57812 13.5 10C13.5 9.57812 13.5781 9.5 14 9.5C13.5625 9.5 13.5 9.42188 13.5 9Z"
                fill="white" />
        </g>
    </g>
    <defs>
        <filter id="filter0_f_29197_11099" x="1.5" y="2.5" width="15" height="13" filterUnits="userSpaceOnUse"
            color-interpolation-filters="sRGB">
            <feFlood flood-opacity="0" result="BackgroundImageFix" />
            <feBlend mode="normal" in="SourceGraphic" in2="BackgroundImageFix" result="shape" />
            <feGaussianBlur stdDeviation="0.25" result="effect1_foregroundBlur_29197_11099" />
        </filter>
        <radialGradient id="paint0_radial_29197_11099" cx="0" cy="0" r="1" gradientUnits="userSpaceOnUse"
            gradientTransform="translate(9 9) rotate(90) scale(9)">
            <stop offset="0.151266" stop-color="#482A9C" />
            <stop offset="0.634567" stop-color="#482A9C" stop-opacity="0.65" />
            <stop offset="0.879355" stop-color="#482A9C" stop-opacity="0.159361" />
            <stop offset="1" stop-color="#482A9C" stop-opacity="0" />
        </radialGradient>
        <linearGradient id="paint1_linear_29197_11099" x1="12.5" y1="15" x2="10.2392" y2="3.35647"
            gradientUnits="userSpaceOnUse">
            <stop stop-color="#B283FF" />
            <stop offset="1" stop-color="#EDD5FF" />
        </linearGradient>
        <clipPath id="clip0_29197_11099">
            <rect width="18" height="18" fill="white" />
        </clipPath>
    </defs>
</svg>