<svg width="20" height="20" viewBox="0 0 20 20" fill="none"
     xmlns="http://www.w3.org/2000/svg">
  <path fill-rule="evenodd" clip-rule="evenodd"
        d="M0 5C0 2.23858 2.23858 0 5 0L15 0C17.7614 0 20 2.23858 20 5V15C20 17.7614 17.7614 20 15 20H5C2.23858 20 0 17.7614 0 15V5Z"
        fill="white" fill-opacity="0.16"/>
  <path fill-rule="evenodd" clip-rule="evenodd"
        d="M11 4C10.4477 4 10 4.44772 10 5C10 5.55228 10.4477 6 11 6H14V9C14 9.55228 14.4477 10 15 10C15.5523 10 16 9.55228 16 9V5C16 4.44772 15.5523 4 15 4H11ZM9 16C9.55228 16 10 15.5523 10 15C10 14.4477 9.55228 14 9 14H6V11C6 10.4477 5.55228 10 5 10C4.44772 10 4 10.4477 4 11V15C4 15.5523 4.44772 16 5 16H9Z"
        fill="white" fill-opacity="0.9"/>
</svg>
