<svg width="24" height="24" viewBox="0 0 24 24" fill="none" xmlns="http://www.w3.org/2000/svg">
    <circle cx="12" cy="12" r="10" stroke="#2F3032" stroke-width="2"/>
    <path d="M15 12C15 14.9523 14.5632 17.5814 13.8886 19.4364C13.5499 20.3681 13.1701 21.0517 12.7987 21.4836C12.4245 21.9189 12.1512 22 12 22C11.8488 22 11.5755 21.9189 11.2013 21.4836C10.8299 21.0517 10.4501 20.3681 10.1114 19.4364C9.43679 17.5814 9 14.9523 9 12C9 9.04768 9.43679 6.41865 10.1114 4.56357C10.4501 3.63192 10.8299 2.94833 11.2013 2.51636C11.5755 2.08113 11.8488 2 12 2C12.1512 2 12.4245 2.08113 12.7987 2.51636C13.1701 2.94833 13.5499 3.63192 13.8886 4.56357C14.5632 6.41865 15 9.04768 15 12Z" stroke="#2F3032" stroke-width="2"/>
    <line x1="2" y1="12" x2="22" y2="12" stroke="#2F3032" stroke-width="2"/>
</svg>
