<svg width="14" height="8" viewBox="0 0 14 8" fill="none" xmlns="http://www.w3.org/2000/svg">
<path fill-rule="evenodd" clip-rule="evenodd" d="M3.72215 3.23005C3.90044 3.05397 4.19145 3.05207 4.37214 3.22581L6.93099 5.72038L12.6433 0.131185C12.8228 -0.0437284 13.1138 -0.0437284 13.2933 0.131185C13.4728 0.306099 13.4728 0.58969 13.2933 0.764604L7.25816 6.66839C7.07952 6.84248 6.79018 6.84342 6.61034 6.67051L3.7265 3.86345C3.54581 3.68971 3.54387 3.40613 3.72215 3.23005ZM5.00048 6.04171L4.66777 6.36593C4.48913 6.54002 4.19979 6.54096 4.01995 6.36804L1.1368 3.56107C0.956112 3.38733 0.954164 3.10374 1.13245 2.92766C1.31074 2.75158 1.60175 2.74968 1.78244 2.92342L4.3406 5.41792L5.00048 6.04171ZM9.16511 0.716479L5.9581 3.84168L6.61299 4.47033L9.81511 1.3499C9.99461 1.17498 9.99461 0.891393 9.81511 0.716479C9.63562 0.541565 9.34461 0.541565 9.16511 0.716479Z" fill="#4191FF"/>
</svg>
