<svg width="14" height="14" viewBox="0 0 14 14" fill="none" xmlns="http://www.w3.org/2000/svg">
    <path fill-rule="evenodd" clip-rule="evenodd"
        d="M1 6.92308C1 3.65185 3.65185 1 6.92308 1H7.07692C10.3481 1 13 3.65185 13 6.92308V7.07692C13 10.3481 10.3481 13 7.07692 13H6.92308C3.65185 13 1 10.3481 1 7.07692V6.92308ZM6.92308 2H7.07692C9.79586 2 12 4.20414 12 6.92308V7.07692C12 8.04635 11.7198 8.95034 11.236 9.71231L3.34197 3.54484C4.23959 2.59366 5.512 2 6.92308 2ZM2.73264 4.3378C2.2681 5.08917 2 5.97481 2 6.92308V7.07692C2 9.79586 4.20414 12 6.92308 12H7.07692C8.46674 12 9.72204 11.4241 10.6172 10.4979L2.73264 4.3378Z"
        fill="white" fill-opacity="1" />
</svg>