<svg width="24" height="24" viewBox="0 0 24 24" fill="none" xmlns="http://www.w3.org/2000/svg">
    <path
        d="M12.5 6.75C12.5 6.33579 12.1642 6 11.75 6C11.3358 6 11 6.33579 11 6.75V12.5L15.0046 16.0596C15.2828 16.3069 15.7055 16.2945 15.9687 16.0313C16.2562 15.7438 16.2406 15.273 15.9345 15.0052L12.5 12V6.75Z"
        fill="white" fill-opacity="1" />
    <path
        d="M23.25 12C23.25 18.2132 18.2132 23.25 12 23.25C5.7868 23.25 0.75 18.2132 0.75 12C0.75 5.7868 5.7868 0.75 12 0.75C18.2132 0.75 23.25 5.7868 23.25 12Z"
        stroke="white" stroke-opacity="1" stroke-width="1.5" />
</svg>