<svg width="20" height="20" viewBox="0 0 20 20" fill="none" xmlns="http://www.w3.org/2000/svg">
    <rect x="2" y="8" width="11" height="11" rx="2" stroke="#2F3032" stroke-width="2"/>
    <path d="M17 8C17 8.55228 17.4477 9 18 9C18.5523 9 19 8.55228 19 8H17ZM10 4H14V2H10V4ZM17 7V8H19V7H17ZM14 4C15.6569 4 17 5.34315 17 7H19C19 4.23858 16.7614 2 14 2V4Z" fill="#2F3032"/>
    <path d="M9.24961 3.16641C9.13087 3.08725 9.13087 2.91275 9.24962 2.83359L11.6891 1.20729C11.822 1.11869 12 1.21396 12 1.3737V4.6263C12 4.78604 11.822 4.88131 11.6891 4.79271L9.24961 3.16641Z" fill="#2F3032" stroke="#2F3032"/>
</svg>
