<svg width="14" height="14" viewBox="0 0 14 14" fill="none" xmlns="http://www.w3.org/2000/svg">
<path d="M7.39014 4.70825C7.39014 4.43211 7.16628 4.20825 6.89014 4.20825C6.61399 4.20825 6.39014 4.43211 6.39014 4.70825V8.09059L8.4686 9.76309C8.68374 9.93621 8.99849 9.90214 9.17161 9.687C9.34472 9.47187 9.31066 9.15712 9.09552 8.984L7.39014 7.61172V4.70825Z" fill="white" fill-opacity="1"/>
<path fill-rule="evenodd" clip-rule="evenodd" d="M0.5 3.65385C0.5 2.46431 1.46431 1.5 2.65385 1.5H11.3462C12.5357 1.5 13.5 2.46431 13.5 3.65385V10.3462C13.5 11.5357 12.5357 12.5 11.3462 12.5H2.65385C1.46431 12.5 0.5 11.5357 0.5 10.3462V3.65385ZM2.65385 2.5H11.3462C11.9834 2.5 12.5 3.01659 12.5 3.65385V10.3462C12.5 10.9834 11.9834 11.5 11.3462 11.5H2.65385C2.01659 11.5 1.5 10.9834 1.5 10.3462V3.65385C1.5 3.01659 2.01659 2.5 2.65385 2.5Z" fill="white" fill-opacity="1"/>
</svg>
