<svg width="24" height="24" viewBox="0 0 24 24" fill="none"
     xmlns="http://www.w3.org/2000/svg">
  <path
    d="M16.871 4.30051L16.1639 3.5934V3.5934L16.871 4.30051ZM18.4424 4.30051L17.7352 5.00762L17.7352 5.00762L18.4424 4.30051ZM19.6994 5.55759L18.9923 6.26469L18.9923 6.2647L19.6994 5.55759ZM19.6994 7.12894L20.4065 7.83604V7.83604L19.6994 7.12894ZM19.6995 16.8713L20.4066 16.1642L20.4066 16.1642L19.6995 16.8713ZM19.6995 18.4426L18.9924 17.7355L19.6995 18.4426ZM18.4425 19.6997L19.1496 20.4068L19.1496 20.4068L18.4425 19.6997ZM7.12865 19.6997L7.83575 20.4068H7.83575L7.12865 19.6997ZM5.5573 19.6997L4.85019 20.4068H4.85019L5.5573 19.6997ZM4.30022 18.4426L5.00733 17.7355L5.00733 17.7355L4.30022 18.4426ZM4.30022 16.8713L3.59311 16.1642H3.59311L4.30022 16.8713ZM4.30032 7.12894L3.59322 7.83604H3.59322L4.30032 7.12894ZM4.30032 5.55759L5.00743 6.26469L4.30032 5.55759ZM5.5574 4.30051L6.26451 5.00762L6.26451 5.00762L5.5574 4.30051ZM7.12875 4.30051L7.83586 3.5934L7.83586 3.5934L7.12875 4.30051ZM9.25988 4.48159L9.60237 5.4211L9.25988 4.48159ZM4.74614 8.62182L3.8399 8.19906L4.74614 8.62182ZM4.5593 7.38791L3.85219 8.09502L4.5593 7.38791ZM8.62167 19.2538L8.19889 20.16L8.62167 19.2538ZM7.38775 19.4406L6.68064 18.7335L7.38775 19.4406ZM19.5184 9.25988L18.5789 9.60238L19.5184 9.25988ZM8.6216 4.74625L9.04439 5.65247L8.6216 4.74625ZM14.7401 19.5184L15.0826 20.4579L14.7401 19.5184ZM15.3783 4.74618L15.801 3.83994L15.3783 4.74618ZM16.6122 4.55934L17.3193 5.26645L16.6122 4.55934ZM9.25988 19.5184L9.60237 18.5789L9.25988 19.5184ZM19.2538 15.3784L18.3475 14.9556L19.2538 15.3784ZM19.4406 16.6123L20.1477 15.9052L19.4406 16.6123ZM19.5184 14.7401L18.5789 14.3976L19.5184 14.7401ZM15.3782 19.2539L15.8009 20.1601L15.3782 19.2539ZM19.4406 7.38775L18.7335 6.68064L19.4406 7.38775ZM19.2538 8.62167L18.3476 9.04446L19.2538 8.62167ZM11.1111 1C9.94518 1 9 1.94518 9 3.11111H11C11 3.04975 11.0497 3 11.1111 3V1ZM12.8889 1H11.1111V3H12.8889V1ZM15 3.11111C15 1.94518 14.0548 1 12.8889 1V3C12.9503 3 13 3.04975 13 3.11111H15ZM15 3.47683V3.11111H13V3.47683H15ZM15.801 3.83994C15.5669 3.73072 15.3273 3.63125 15.0826 3.54207L14.3976 5.4211C14.5875 5.49033 14.7736 5.56757 14.9555 5.65241L15.801 3.83994ZM16.1639 3.5934L15.9051 3.85223L17.3193 5.26645L17.5781 5.00762L16.1639 3.5934ZM19.1495 3.5934C18.325 2.76896 16.9883 2.76896 16.1639 3.5934L17.5781 5.00762C17.6215 4.96422 17.6919 4.96422 17.7352 5.00762L19.1495 3.5934ZM20.4065 4.85048L19.1495 3.5934L17.7352 5.00762L18.9923 6.26469L20.4065 4.85048ZM20.4065 7.83604C21.231 7.01161 21.231 5.67492 20.4065 4.85048L18.9923 6.2647C19.0357 6.30808 19.0357 6.37844 18.9923 6.42183L20.4065 7.83604ZM20.1477 8.09485L20.4065 7.83604L18.9923 6.42183L18.7335 6.68064L20.1477 8.09485ZM20.4579 8.91738C20.3687 8.67272 20.2693 8.43305 20.16 8.19889L18.3476 9.04446C18.4324 9.22635 18.5097 9.41245 18.5789 9.60238L20.4579 8.91738ZM20.8889 9H20.5232V11H20.8889V9ZM23 11.1111C23 9.94518 22.0548 9 20.8889 9V11C20.9503 11 21 11.0497 21 11.1111H23ZM23 12.8889V11.1111H21V12.8889H23ZM20.8889 15C22.0548 15 23 14.0548 23 12.8889H21C21 12.9503 20.9503 13 20.8889 13V15ZM20.5232 15H20.8889V13H20.5232V15ZM20.16 15.8012C20.2692 15.567 20.3687 15.3273 20.4579 15.0826L18.5789 14.3976C18.5097 14.5876 18.4324 14.7737 18.3475 14.9556L20.16 15.8012ZM20.4066 16.1642L20.1477 15.9052L18.7335 17.3194L18.9924 17.5784L20.4066 16.1642ZM20.4066 19.1498C21.2311 18.3253 21.2311 16.9886 20.4066 16.1642L18.9924 17.5784C19.0358 17.6218 19.0358 17.6921 18.9924 17.7355L20.4066 19.1498ZM19.1496 20.4068L20.4066 19.1498L18.9924 17.7355L17.7354 18.9926L19.1496 20.4068ZM16.164 20.4068C16.9884 21.2313 18.3251 21.2313 19.1496 20.4068L17.7354 18.9926C17.692 19.036 17.6216 19.036 17.5782 18.9926L16.164 20.4068ZM15.905 20.1478L16.164 20.4068L17.5782 18.9926L17.3192 18.7336L15.905 20.1478ZM15.0826 20.4579C15.3272 20.3688 15.5668 20.2693 15.8009 20.1601L14.9554 18.3476C14.7736 18.4325 14.5875 18.5097 14.3976 18.5789L15.0826 20.4579ZM15 20.8889V20.5232H13V20.8889H15ZM12.8889 23C14.0548 23 15 22.0548 15 20.8889H13C13 20.9503 12.9503 21 12.8889 21V23ZM11.1111 23H12.8889V21H11.1111V23ZM9 20.8889C9 22.0548 9.94518 23 11.1111 23V21C11.0497 21 11 20.9503 11 20.8889H9ZM9 20.5232V20.8889H11V20.5232H9ZM8.19889 20.16C8.43305 20.2693 8.67272 20.3687 8.91738 20.4579L9.60237 18.5789C9.41245 18.5097 9.22635 18.4324 9.04446 18.3476L8.19889 20.16ZM7.83575 20.4068L8.09485 20.1477L6.68064 18.7335L6.42154 18.9926L7.83575 20.4068ZM4.85019 20.4068C5.67463 21.2313 7.01131 21.2313 7.83575 20.4068L6.42154 18.9926C6.37815 19.036 6.3078 19.036 6.2644 18.9926L4.85019 20.4068ZM3.59311 19.1498L4.85019 20.4068L6.2644 18.9926L5.00733 17.7355L3.59311 19.1498ZM3.59311 16.1642C2.76867 16.9886 2.76867 18.3253 3.59311 19.1498L5.00733 17.7355C4.96394 17.6921 4.96393 17.6218 5.00733 17.5784L3.59311 16.1642ZM3.85223 15.9051L3.59311 16.1642L5.00733 17.5784L5.26645 17.3193L3.85223 15.9051ZM3.54207 15.0826C3.63125 15.3273 3.73072 15.5669 3.83994 15.801L5.65241 14.9555C5.56757 14.7736 5.49033 14.5875 5.4211 14.3976L3.54207 15.0826ZM3.11111 15H3.47683V13H3.11111V15ZM1 12.8889C1 14.0548 1.94518 15 3.11111 15V13C3.04975 13 3 12.9503 3 12.8889H1ZM1 11.1111V12.8889H3V11.1111H1ZM3.11111 9C1.94518 9 1 9.94518 1 11.1111H3C3 11.0497 3.04975 11 3.11111 11V9ZM3.47683 9H3.11111V11H3.47683V9ZM3.8399 8.19906C3.73069 8.43316 3.63124 8.67278 3.54207 8.91738L5.4211 9.60237C5.49032 9.4125 5.56755 9.22643 5.65238 9.04458L3.8399 8.19906ZM3.59322 7.83604L3.85219 8.09502L5.26641 6.68081L5.00743 6.42183L3.59322 7.83604ZM3.59322 4.85048C2.76878 5.67492 2.76878 7.0116 3.59322 7.83604L5.00743 6.42183C4.96404 6.37844 4.96404 6.30809 5.00743 6.26469L3.59322 4.85048ZM4.85029 3.5934L3.59322 4.85048L5.00743 6.26469L6.26451 5.00762L4.85029 3.5934ZM7.83586 3.5934C7.01142 2.76896 5.67473 2.76896 4.85029 3.5934L6.26451 5.00762C6.3079 4.96422 6.37825 4.96422 6.42164 5.00762L7.83586 3.5934ZM8.09477 3.85231L7.83586 3.5934L6.42164 5.00762L6.68055 5.26652L8.09477 3.85231ZM8.91738 3.54207C8.67269 3.63127 8.43299 3.73076 8.19881 3.84002L9.04439 5.65247C9.2263 5.5676 9.41243 5.49035 9.60237 5.4211L8.91738 3.54207ZM9 3.11111V3.47683H11V3.11111H9ZM9.60237 5.4211C10.3716 5.14069 11 4.4083 11 3.47683H9C9 3.47685 9.00001 3.4765 9.00009 3.47604C9.00016 3.47561 9.0002 3.47567 8.99997 3.47632C8.99953 3.47758 8.99757 3.48258 8.99175 3.4903C8.97903 3.5072 8.95397 3.52873 8.91738 3.54207L9.60237 5.4211ZM5.65238 9.04458C5.99874 8.30212 5.92514 7.33954 5.26641 6.68081L3.85219 8.09502C3.85221 8.09504 3.85197 8.09479 3.8517 8.0944C3.85145 8.09405 3.85151 8.09406 3.85181 8.09467C3.85238 8.09586 3.85452 8.10075 3.85586 8.11028C3.85879 8.13111 3.8563 8.16391 3.8399 8.19906L5.65238 9.04458ZM5.4211 14.3976C5.14069 13.6284 4.4083 13 3.47683 13V15C3.47685 15 3.4765 15 3.47604 14.9999C3.47561 14.9998 3.47567 14.9998 3.47632 15C3.47758 15.0005 3.48258 15.0024 3.4903 15.0082C3.5072 15.021 3.52873 15.046 3.54207 15.0826L5.4211 14.3976ZM9.04446 18.3476C8.30199 18.0012 7.33938 18.0748 6.68064 18.7335L8.09485 20.1477C8.09487 20.1477 8.09462 20.1479 8.09424 20.1482C8.09388 20.1485 8.09389 20.1484 8.09451 20.1481C8.0957 20.1475 8.10059 20.1454 8.11012 20.1441C8.13095 20.1411 8.16375 20.1436 8.19889 20.16L9.04446 18.3476ZM18.5789 9.60238C18.8593 10.3716 19.5917 11 20.5232 11V9C20.5231 9 20.5235 9.00001 20.524 9.00009C20.5244 9.00016 20.5243 9.0002 20.5237 8.99997C20.5224 8.99953 20.5174 8.99757 20.5097 8.99175C20.4928 8.97903 20.4713 8.95397 20.4579 8.91738L18.5789 9.60238ZM5.26645 17.3193C5.92518 16.6605 5.99879 15.698 5.65241 14.9555L3.83994 15.801C3.85634 15.8362 3.85883 15.869 3.8559 15.8898C3.85456 15.8993 3.85242 15.9042 3.85185 15.9054C3.85155 15.906 3.85149 15.906 3.85174 15.9057C3.85201 15.9053 3.85225 15.9051 3.85223 15.9051L5.26645 17.3193ZM6.68055 5.26652C7.3393 5.92527 8.30192 5.99887 9.04439 5.65247L8.19881 3.84002C8.16366 3.85642 8.13086 3.85891 8.11003 3.85598C8.1005 3.85463 8.09561 3.8525 8.09442 3.85192C8.09381 3.85163 8.0938 3.85157 8.09415 3.85182C8.09453 3.85209 8.09478 3.85233 8.09477 3.85231L6.68055 5.26652ZM14.3976 18.5789C13.6284 18.8593 13 19.5917 13 20.5232H15C15 20.5232 15 20.5235 14.9999 20.524C14.9998 20.5244 14.9998 20.5243 15 20.5237C15.0005 20.5224 15.0024 20.5174 15.0082 20.5097C15.021 20.4928 15.046 20.4713 15.0826 20.4579L14.3976 18.5789ZM14.9555 5.65241C15.698 5.99879 16.6605 5.92518 17.3193 5.26645L15.9051 3.85223C15.905 3.85225 15.9053 3.85201 15.9057 3.85174C15.906 3.85149 15.906 3.85155 15.9054 3.85185C15.9042 3.85243 15.8993 3.85456 15.8898 3.8559C15.869 3.85883 15.8362 3.85634 15.801 3.83994L14.9555 5.65241ZM11 20.5232C11 19.5917 10.3716 18.8593 9.60237 18.5789L8.91738 20.4579C8.95397 20.4713 8.97903 20.4928 8.99175 20.5097C8.99757 20.5174 8.99953 20.5224 8.99997 20.5237C9.0002 20.5243 9.00016 20.5244 9.00009 20.524C9.00001 20.5235 9 20.5232 9 20.5232H11ZM3.47683 11C4.4083 11 5.14069 10.3716 5.4211 9.60237L3.54207 8.91738C3.52873 8.95397 3.5072 8.97903 3.4903 8.99175C3.48258 8.99757 3.47758 8.99953 3.47632 8.99997C3.47567 9.0002 3.47561 9.00016 3.47604 9.00009C3.4765 9.00001 3.47685 9 3.47683 9V11ZM18.3475 14.9556C18.0011 15.6981 18.0747 16.6607 18.7335 17.3194L20.1477 15.9052C20.1477 15.9052 20.1479 15.9055 20.1482 15.9058C20.1484 15.9062 20.1484 15.9062 20.1481 15.9056C20.1475 15.9044 20.1454 15.8995 20.144 15.89C20.1411 15.8691 20.1436 15.8363 20.16 15.8012L18.3475 14.9556ZM20.5232 13C19.5917 13 18.8593 13.6284 18.5789 14.3976L20.4579 15.0826C20.4713 15.046 20.4928 15.021 20.5097 15.0082C20.5174 15.0024 20.5224 15.0005 20.5237 15C20.5243 14.9998 20.5244 14.9998 20.524 14.9999C20.5235 15 20.5232 15 20.5232 15V13ZM17.3192 18.7336C16.6605 18.0749 15.6979 18.0013 14.9554 18.3476L15.8009 20.1601C15.8361 20.1437 15.8689 20.1412 15.8897 20.1441C15.8992 20.1455 15.9041 20.1476 15.9053 20.1482C15.9059 20.1485 15.906 20.1486 15.9056 20.1483C15.9052 20.148 15.905 20.1478 15.905 20.1478L17.3192 18.7336ZM18.7335 6.68064C18.0748 7.33938 18.0012 8.30199 18.3476 9.04446L20.16 8.19889C20.1436 8.16375 20.1411 8.13095 20.1441 8.11012C20.1454 8.10059 20.1475 8.0957 20.1481 8.09451C20.1484 8.09389 20.1485 8.09388 20.1482 8.09424C20.1479 8.09462 20.1477 8.09487 20.1477 8.09485L18.7335 6.68064ZM13 3.47683C13 4.4083 13.6284 5.14069 14.3976 5.4211L15.0826 3.54207C15.046 3.52873 15.021 3.5072 15.0082 3.4903C15.0024 3.48258 15.0005 3.47758 15 3.47632C14.9998 3.47567 14.9998 3.47561 14.9999 3.47604C15 3.4765 15 3.47685 15 3.47683H13Z"
    fill="#2F3032"/>
  <circle cx="12" cy="12" r="3" stroke="#2F3032" stroke-width="2"/>
</svg>
