<svg width="20" height="20" viewBox="0 0 20 20" fill="none" xmlns="http://www.w3.org/2000/svg">
  <path d="M11.2872 1.45831C11.4013 1.45831 11.5103 1.50505 11.589 1.58762L18.6566 9.0086C18.9631 9.33044 18.9631 9.83619 18.6566 10.158L11.589 17.579C11.4303 17.7456 11.1665 17.7521 10.9999 17.5934C10.9173 17.5147 10.8706 17.4057 10.8706 17.2916L10.8698 13.0212C8.37185 13.3212 5.97255 13.9906 4.41615 14.8094L4.1891 14.9333C2.01132 16.1259 1.38943 17.1918 1.18169 17.0074C0.922432 16.7481 0.915025 7.44989 10.8706 5.84248V1.87498C10.8706 1.64486 11.0571 1.45831 11.2872 1.45831Z" stroke="white" stroke-opacity="1" stroke-width="2"/>
</svg>
