<svg width="24" height="24" viewBox="0 0 24 24" fill="none" xmlns="http://www.w3.org/2000/svg">
    <path fill-rule="evenodd" clip-rule="evenodd"
          d="M12.3201 1.05261C12.1125 0.982462 11.8875 0.982462 11.6799 1.05261L2.67991 4.09343C2.27354 4.23073 2 4.61189 2 5.04082V13.5215C2 17.0292 4.61579 19.6599 6.91538 21.317C8.09652 22.1681 9.27127 22.8186 10.1473 23.2557C10.5867 23.4748 10.9541 23.6419 11.214 23.7551C11.344 23.8117 11.4473 23.8549 11.5194 23.8845C11.5555 23.8993 11.5838 23.9107 11.6038 23.9187L11.6275 23.9281L11.6345 23.9308L11.6376 23.932C11.8703 24.0223 12.129 24.0226 12.3617 23.9323L12 23C12.3617 23.9323 12.3629 23.9318 12.3632 23.9317L12.3655 23.9308L12.3725 23.9281L12.3962 23.9187C12.4162 23.9107 12.4445 23.8993 12.4806 23.8845C12.5527 23.8549 12.656 23.8117 12.786 23.7551C13.0459 23.6419 13.4133 23.4748 13.8527 23.2557C14.7287 22.8186 15.9035 22.1681 17.0846 21.317C19.3842 19.6599 22 17.0292 22 13.5215V5.04082C22 4.61189 21.7265 4.23073 21.3201 4.09343L12.3201 1.05261ZM12 23L11.6376 23.932C11.638 23.9322 11.6383 23.9323 12 23ZM12.9598 21.466C12.5627 21.6641 12.2318 21.8148 12 21.916C11.7682 21.8148 11.4373 21.6641 11.0402 21.466C10.2287 21.0612 9.15348 20.4646 8.08462 19.6944C5.88421 18.1088 4 16.0003 4 13.5215V5.75848L12 3.05554L20 5.75848V13.5215C20 16.0003 18.1158 18.1088 15.9154 19.6944C14.8465 20.4646 13.7713 21.0612 12.9598 21.466ZM12 7C12.5523 7 13 7.44772 13 8V11H16C16.5523 11 17 11.4477 17 12C17 12.5523 16.5523 13 16 13H13V16C13 16.5523 12.5523 17 12 17C11.4477 17 11 16.5523 11 16V13H8C7.44772 13 7 12.5523 7 12C7 11.4477 7.44772 11 8 11H11V8C11 7.44772 11.4477 7 12 7Z"
          fill="#2F3032"/>
</svg>
