<svg width="24" height="24" viewBox="0 0 24 24" fill="none"
     xmlns="http://www.w3.org/2000/svg">
  <path fill-rule="evenodd" clip-rule="evenodd"
        d="M11.9781 14.2157C11.7599 14.0945 11.7379 13.7709 11.9129 13.5928C12.3569 13.1409 13 12.2604 13 10.9513V7.9525C13 5.95327 11.0925 4.95753 9.5 4.95364C7.90748 4.94975 6 5.95327 6 7.9525V10.9513C6 12.26 6.64275 13.1404 7.08677 13.5924C7.26177 13.7706 7.23959 14.0945 7.02115 14.2155L3.81232 15.9937C3.31104 16.2715 3 16.7994 3 17.3725V17.3725C3 18.2429 3.70538 18.9486 4.57574 18.9489L14.4232 18.953C15.2939 18.9534 16 18.2476 16 17.3768V17.3768C16 16.8043 15.6896 16.2768 15.1891 15.9989L11.9781 14.2157Z"
        stroke="white" stroke-opacity="1" stroke-width="2"/>
  <rect x="15" y="7" width="7" height="2" rx="1" fill="white"
        fill-opacity="1"/>
  <rect x="16" y="11" width="6" height="2" rx="1" fill="white"
        fill-opacity="1"/>
  <rect x="18" y="15" width="4" height="2" rx="1" fill="white"
        fill-opacity="1"/>
</svg>
