<svg width="8" height="8" viewBox="0 0 8 8" fill="none"
     xmlns="http://www.w3.org/2000/svg">
  <path
    d="M6.82842 1.17156C6.43789 0.781031 5.80473 0.781031 5.4142 1.17156L3.99998 2.58577L2.58577 1.17156C2.19524 0.781033 1.56208 0.781033 1.17156 1.17156C0.781031 1.56208 0.781031 2.19525 1.17156 2.58577L2.58577 3.99999L1.17156 5.4142C0.781037 5.80472 0.781037 6.43789 1.17156 6.82841C1.56209 7.21893 2.19525 7.21893 2.58578 6.82841L3.99998 5.4142L5.4142 6.82841C5.80472 7.21894 6.43789 7.21894 6.82841 6.82841C7.21893 6.43789 7.21893 5.80472 6.82841 5.4142L5.4142 3.99999L6.82842 2.58577C7.21894 2.19524 7.21894 1.56208 6.82842 1.17156Z"
    fill="white" fill-opacity="1"/>
</svg>
