<svg width="24" height="24" viewBox="0 0 24 24" fill="none" xmlns="http://www.w3.org/2000/svg">
    <circle cx="12" cy="12" r="10" stroke="#B8BDC7" stroke-width="2"/>
    <path fill-rule="evenodd" clip-rule="evenodd" d="M9.32891 13.3861C8.84658 13.3861 8.45558 13.0017 8.45558 12.5275C8.45558 12.3695 8.58591 12.2413 8.74669 12.2413H10.7437C11.1411 12.2413 11.4633 12.5581 11.4633 12.9488V14.4792C11.4633 14.6546 11.4114 14.8269 11.2976 14.9619C11.1156 15.1778 10.802 15.4982 10.4497 15.6326C10.2564 15.7063 10.0309 15.7733 9.79513 15.8293C9.60456 15.8745 8.89543 15.9612 8.63324 15.9588C8.42136 15.9569 8.18519 15.9496 7.97414 15.9368C7.89578 15.932 7.81049 15.9242 7.71826 15.9135C7.6319 15.9035 7.18141 15.8026 7.05783 15.7562C6.90454 15.6986 6.7576 15.6308 6.617 15.5528C6.07957 15.2546 5.67572 14.8282 5.40543 14.2736C5.13514 13.719 5 13.1157 5 12.4638C5 11.7562 5.15793 11.1536 5.45964 10.6036C5.76136 10.0536 6.20293 9.63185 6.78436 9.33833C7.22751 9.11277 7.77908 9 8.43908 9C9.29709 9 9.9673 9.17689 10.4497 9.53066C10.7745 9.76885 11.0213 10.0683 11.1902 10.4291C11.1956 10.4406 11.2225 10.5197 11.2545 10.6155C11.3222 10.8179 11.1923 11.0322 10.9792 11.0714L10.2816 11.1997C10.1144 11.2304 9.94857 11.1417 9.882 10.9878C9.85832 10.933 9.83908 10.8895 9.83459 10.8821C9.7353 10.7172 9.60564 10.5772 9.44558 10.4622C9.17687 10.2691 8.84137 10.1726 8.43908 10.1726C7.82936 10.1726 7.34458 10.3626 6.98472 10.7426C6.62486 11.1227 6.34932 11.7161 6.34932 12.4638C6.34932 13.2702 6.62015 13.8194 6.98472 14.2226C7.08178 14.33 7.18685 14.423 7.29995 14.5018C7.35336 14.539 7.42948 14.582 7.52833 14.6309C7.57068 14.6519 7.88582 14.7479 8.05713 14.7644C8.23362 14.7813 8.43899 14.7918 8.62619 14.796C8.72156 14.7981 8.91504 14.7892 9.20664 14.7693L9.2576 14.7656C9.41698 14.7541 9.57411 14.7217 9.72476 14.6693C9.78426 14.6486 9.83262 14.6317 9.83459 14.6309C9.89302 14.6074 10.0785 14.5137 10.0874 14.5094C10.1713 14.4689 10.2606 14.3809 10.3217 14.313C10.3729 14.256 10.3973 14.1816 10.3973 14.1055V13.6107C10.3973 13.4866 10.295 13.3861 10.1688 13.3861H9.32891ZM12.9887 16C12.6034 16 12.291 15.6929 12.291 15.3141V10.1621C12.291 9.78324 12.6034 9.47614 12.9887 9.47614C13.374 9.47614 13.6864 9.78324 13.6864 10.1621V15.3141C13.6864 15.6929 13.374 16 12.9887 16ZM15.1793 16C14.8396 16 14.5641 15.7292 14.5641 15.3952V10.2517C14.5641 9.76334 14.9669 9.36741 15.4637 9.36741H18.2873C18.7042 9.36741 19.0321 9.71778 18.9975 10.1263C18.9667 10.4894 18.6579 10.7687 18.2873 10.7687H15.7946V12.1513H18.2968C18.6537 12.1513 18.943 12.4357 18.943 12.7865C18.943 13.1373 18.6537 13.4217 18.2968 13.4217H15.7946V15.3952C15.7946 15.7292 15.5191 16 15.1793 16Z" fill="#B8BDC7" stroke="#B8BDC7" stroke-width="0.2"/>
</svg>
