<svg width="14" height="14" viewBox="0 0 14 14" fill="none" xmlns="http://www.w3.org/2000/svg">
    <path
        d="M5.24614 6.72805C5.24614 7.05517 4.98095 7.32036 4.65383 7.32036C4.32671 7.32036 4.06152 7.05517 4.06152 6.72805C4.06152 6.40093 4.32671 6.13574 4.65383 6.13574C4.98095 6.13574 5.24614 6.40093 5.24614 6.72805Z"
        fill="white" fill-opacity="1" />
    <path
        d="M9.39236 7.32036C9.71948 7.32036 9.98466 7.05517 9.98466 6.72805C9.98466 6.40093 9.71948 6.13574 9.39236 6.13574C9.06523 6.13574 8.80005 6.40093 8.80005 6.72805C8.80005 7.05517 9.06523 7.32036 9.39236 7.32036Z"
        fill="white" fill-opacity="1" />
    <path
        d="M5.18825 8.76396C5.00408 8.5582 4.68798 8.54069 4.48222 8.72485C4.27646 8.90901 4.25895 9.22511 4.44311 9.43087C5.07623 10.1382 5.99788 10.5846 7.02312 10.5846C8.04836 10.5846 8.97001 10.1382 9.60312 9.43087L9.73056 9.2885V9.09742C9.73056 8.82127 9.5067 8.59742 9.23056 8.59742C9.08177 8.59742 8.94817 8.6624 8.85658 8.76553C8.40519 9.26901 7.75134 9.5846 7.02312 9.5846C6.29414 9.5846 5.63969 9.26835 5.18825 8.76396Z"
        fill="white" fill-opacity="1" />
    <path fill-rule="evenodd" clip-rule="evenodd"
        d="M1.1001 7.12303C1.1001 3.8518 3.75195 1.19995 7.02317 1.19995C10.2944 1.19995 12.9463 3.8518 12.9463 7.12303C12.9463 10.3943 10.2944 13.0461 7.02317 13.0461C3.75195 13.0461 1.1001 10.3943 1.1001 7.12303ZM7.02317 12.0461C4.30423 12.0461 2.1001 9.84197 2.1001 7.12303C2.1001 4.40409 4.30423 2.19995 7.02317 2.19995C9.74212 2.19995 11.9463 4.40409 11.9463 7.12303C11.9463 9.84197 9.74212 12.0461 7.02317 12.0461Z"
        fill="white" fill-opacity="1" />
</svg>