<svg width="24" height="24" viewBox="0 0 24 24" fill="none"
     xmlns="http://www.w3.org/2000/svg">
  <path
    d="M3.75 14.75V19.0833C3.75 20.7402 5.09315 22.0833 6.75 22.0833H17.25C18.9069 22.0833 20.25 20.7402 20.25 19.0833V14.75"
    stroke="#B8BDC7" stroke-width="2" stroke-linecap="round"
    stroke-linejoin="round"/>
  <path
    d="M22 12V13C22.3033 13 22.5902 12.8623 22.78 12.6257C22.9698 12.3891 23.042 12.0792 22.9762 11.7831L22 12ZM2 12L1.02381 11.7831C0.958014 12.0792 1.03016 12.3891 1.21996 12.6257C1.40975 12.8623 1.69668 13 2 13V12ZM18.3548 11.6687L17.898 12.5583L18.3548 11.6687ZM10.2149 11.6543L9.61685 12.4557L10.2149 11.6543ZM13.815 11.6456L13.213 10.8471L13.815 11.6456ZM20.522 5.34921L19.5459 5.56614L20.522 5.34921ZM9.36355 11.0189L9.96163 10.2175L9.36355 11.0189ZM6.40651 4H17.5935V2H6.40651V4ZM19.5459 5.56614L21.0238 12.2169L22.9762 11.7831L21.4982 5.13228L19.5459 5.56614ZM2.97619 12.2169L4.45414 5.56614L2.50177 5.13228L1.02381 11.7831L2.97619 12.2169ZM10.813 10.8529L9.96163 10.2175L8.76546 11.8204L9.61685 12.4557L10.813 10.8529ZM6.79696 9.95309L5.18836 10.7791L6.10197 12.5583L7.71057 11.7322L6.79696 9.95309ZM4.27475 11H2V13H4.27475V11ZM22 11H19.7253V13H22V11ZM18.8116 10.7791L17.209 9.95614L16.2954 11.7353L17.898 12.5583L18.8116 10.7791ZM14.0328 10.2292L13.213 10.8471L14.4169 12.4442L15.2366 11.8263L14.0328 10.2292ZM19.7253 11C19.4075 11 19.0943 10.9243 18.8116 10.7791L17.898 12.5583C18.4634 12.8486 19.0897 13 19.7253 13V11ZM5.18836 10.7791C4.90569 10.9243 4.5925 11 4.27475 11V13C4.91026 13 5.53663 12.8486 6.10197 12.5583L5.18836 10.7791ZM9.61685 12.4557C11.0416 13.519 12.9972 13.5143 14.4169 12.4442L13.213 10.8471C12.5032 11.3821 11.5254 11.3845 10.813 10.8529L9.61685 12.4557ZM17.209 9.95614C16.1855 9.43057 14.9516 9.53664 14.0328 10.2292L15.2366 11.8263C15.5429 11.5954 15.9542 11.5601 16.2954 11.7353L17.209 9.95614ZM17.5935 4C18.5309 4 19.3425 4.65106 19.5459 5.56614L21.4982 5.13228C21.0915 3.30213 19.4683 2 17.5935 2V4ZM9.96163 10.2175C9.0437 9.53248 7.81583 9.42989 6.79696 9.95309L7.71057 11.7322C8.0502 11.5578 8.45949 11.592 8.76546 11.8204L9.96163 10.2175ZM6.40651 2C4.53172 2 2.90847 3.30213 2.50177 5.13228L4.45414 5.56614C4.65749 4.65106 5.46912 4 6.40651 4V2Z"
    fill="#B8BDC7"/>
</svg>
