<svg width="25" height="25" viewBox="0 0 25 25" fill="none"
     xmlns="http://www.w3.org/2000/svg">
  <path fill-rule="evenodd" clip-rule="evenodd"
        d="M17 3H6.40652C4.53173 3 2.90847 4.30213 2.50177 6.13228L1.02382 12.7831C0.958022 13.0792 1.03017 13.3891 1.21997 13.6257C1.40976 13.8623 1.69669 14 2.00001 14H4.27476C4.91027 14 5.53664 13.8486 6.10197 13.5583L7.71058 12.7322C8.0502 12.5578 8.45949 12.592 8.76547 12.8204L9.61685 13.4557C11.0416 14.519 12.9972 14.5143 14.4169 13.4442L15.2366 12.8263C15.5429 12.5954 15.9542 12.5601 16.2954 12.7353L17.898 13.5583C18.4634 13.8486 19.0897 14 19.7253 14H22C22.3033 14 22.5903 13.8623 22.7801 13.6257C22.9698 13.3891 23.042 13.0792 22.9762 12.7831L21.9131 7.99926C21.1342 7.98599 20.3986 7.79458 19.7454 7.46403L20.7534 12H19.7253C19.4075 12 19.0943 11.9243 18.8117 11.7791L17.209 10.9561C16.1855 10.4306 14.9516 10.5366 14.0328 11.2292L13.213 11.8471C12.5032 12.3821 11.5254 12.3845 10.813 11.8529L9.96164 11.2175C9.04371 10.5325 7.81584 10.4299 6.79697 10.9531L5.18836 11.7791C4.9057 11.9243 4.59251 12 4.27476 12H3.24662L4.45415 6.56614C4.6575 5.65106 5.46913 5 6.40652 5H17.416C17.1484 4.38754 17 3.7111 17 3ZM3.75 14.75C4.30228 14.75 4.75 15.1977 4.75 15.75V20.0833C4.75 21.1879 5.64543 22.0833 6.75 22.0833H17.25C18.3546 22.0833 19.25 21.1879 19.25 20.0833V15.75C19.25 15.1977 19.6977 14.75 20.25 14.75C20.8023 14.75 21.25 15.1977 21.25 15.75V20.0833C21.25 22.2925 19.4591 24.0833 17.25 24.0833H6.75C4.54086 24.0833 2.75 22.2925 2.75 20.0833V15.75C2.75 15.1977 3.19771 14.75 3.75 14.75Z"
        fill="#B8BDC7"/>
  <circle cx="22" cy="3" r="3" fill="#F67070"/>
</svg>
