<svg width="24" height="24" viewBox="0 0 24 24" fill="none"
     xmlns="http://www.w3.org/2000/svg">
  <path
    d="M15.3341 19.2738L15.148 20.2564L15.3341 19.2738ZM14.7889 19.4772L14.0049 18.8565L14.7889 19.4772ZM8.66588 19.2738L8.85204 20.2564L8.66588 19.2738ZM9.26232 19.5419L8.47827 20.1626L9.26232 19.5419ZM7.11138 19.5684L6.92522 18.5859L7.11138 19.5684ZM16.8886 19.5684L17.0748 18.5859L16.8886 19.5684ZM19 13V16.9912H21V13H19ZM5 16.9912V13H3V16.9912H5ZM10.0464 18.9212L9.99513 18.8565L8.42703 20.0979L8.47827 20.1626L10.0464 18.9212ZM8.47972 18.2913L6.92522 18.5859L7.29754 20.5509L8.85204 20.2564L8.47972 18.2913ZM17.0748 18.5859L15.5203 18.2913L15.148 20.2564L16.7025 20.5509L17.0748 18.5859ZM14.0049 18.8565L13.9536 18.9212L15.5217 20.1626L15.573 20.0979L14.0049 18.8565ZM15.5203 18.2913C14.9493 18.1831 14.3656 18.4008 14.0049 18.8565L15.573 20.0979C15.4718 20.2256 15.3081 20.2867 15.148 20.2564L15.5203 18.2913ZM9.99513 18.8565C9.63444 18.4008 9.05065 18.1831 8.47972 18.2913L8.85204 20.2564C8.69192 20.2867 8.52819 20.2256 8.42703 20.0979L9.99513 18.8565ZM8.47827 20.1626C10.2766 22.4342 13.7234 22.4342 15.5217 20.1626L13.9536 18.9212C12.956 20.1813 11.044 20.1813 10.0464 18.9212L8.47827 20.1626ZM3 16.9912C3 19.2625 5.0659 20.9737 7.29754 20.5509L6.92522 18.5859C5.92548 18.7753 5 18.0087 5 16.9912H3ZM19 16.9912C19 18.0087 18.0745 18.7753 17.0748 18.5859L16.7025 20.5509C18.9341 20.9737 21 19.2625 21 16.9912H19ZM12 6C15.866 6 19 9.13401 19 13H21C21 8.02944 16.9706 4 12 4V6ZM12 4C7.02944 4 3 8.02944 3 13H5C5 9.13401 8.13401 6 12 6V4Z"
    fill="white" fill-opacity="1"/>
  <rect x="8" y="11" width="2" height="3" rx="1" fill="white"
        fill-opacity="1"/>
  <rect x="14" y="11" width="2" height="3" rx="1" fill="white"
        fill-opacity="1"/>
</svg>
