<svg width="69" height="70" viewBox="0 0 69 70" fill="none" xmlns="http://www.w3.org/2000/svg">
    <path fill-rule="evenodd" clip-rule="evenodd" d="M0 8C0 3.58172 3.58172 0 8 0H45C49.4183 0 53 3.58172 53 8V21H49V8C49 5.79086 47.2091 4 45 4H8C5.79086 4 4 5.79086 4 8V32C4 34.2091 5.79086 36 8 36H39V40H28.5V48H37C38.1046 48 39 48.8954 39 50C39 51.1046 38.1046 52 37 52H16C14.8954 52 14 51.1046 14 50C14 48.8954 14.8954 48 16 48H24.5V40H8C3.58172 40 0 36.4183 0 32V8Z" fill="#C0C5D4" fill-opacity="0.3"/>
    <path fill-rule="evenodd" clip-rule="evenodd" d="M39 29C39 24.5817 42.5817 21 47 21H61C65.4183 21 69 24.5817 69 29V62C69 66.4183 65.4183 70 61 70H47C42.5817 70 39 66.4183 39 62V29ZM47 25C44.7909 25 43 26.7909 43 29V62C43 64.2091 44.7909 66 47 66H61C63.2091 66 65 64.2091 65 62V29C65 26.7909 63.2091 25 61 25H47Z" fill="#C0C5D4" fill-opacity="0.3"/>
    <path fill-rule="evenodd" clip-rule="evenodd" d="M8 48C3.58172 48 0 51.5817 0 56C0 60.4183 3.58172 64 8 64H21.4853L19.2427 66.2426C18.4617 67.0237 18.4617 68.29 19.2427 69.0711C20.0237 69.8521 21.2901 69.8521 22.0711 69.0711L27.728 63.4142C28.509 62.6332 28.509 61.3668 27.728 60.5858L22.0711 54.9289C21.2901 54.1479 20.0237 54.1479 19.2427 54.9289C18.4617 55.71 18.4617 56.9763 19.2427 57.7574L21.4853 60H8C5.79086 60 4 58.2091 4 56C4 53.7909 5.79086 52 8 52C8.55229 52 9 51.5523 9 51V49C9 48.4477 8.55229 48 8 48Z" fill="#C0C5D4" fill-opacity="0.3"/>
</svg>
