<svg width="72" height="72" viewBox="0 0 72 72" fill="none" xmlns="http://www.w3.org/2000/svg">
    <path fill-rule="evenodd" clip-rule="evenodd" d="M12 9.99211C12 5.57041 15.5852 2 20 2H46C50.4183 2 54 5.58172 54 10V24C54 25.1046 53.1046 26 52 26C50.8954 26 50 25.1046 50 24V10C50 7.79086 48.2091 6 46 6H20C17.7874 6 16 7.7864 16 9.99211V38C16 39.1046 15.1046 40 14 40C12.8954 40 12 39.1046 12 38V9.99211ZM14 50C15.1046 50 16 50.8954 16 52V62C16 64.2091 17.7909 66 20 66H28C29.1046 66 30 66.8954 30 68C30 69.1046 29.1046 70 28 70H20C15.5817 70 12 66.4183 12 62V52C12 50.8954 12.8954 50 14 50Z" fill="#C0C5D4" fill-opacity="0.3"/>
    <path fill-rule="evenodd" clip-rule="evenodd" d="M32 39C32 34.5817 35.5817 31 40 31H64C68.4183 31 72 34.5817 72 39V53C72 57.4183 68.4183 61 64 61H54V66H60C61.1046 66 62 66.8954 62 68C62 69.1046 61.1046 70 60 70H44C42.8954 70 42 69.1046 42 68C42 66.8954 42.8954 66 44 66H50V61H40C35.5817 61 32 57.4183 32 53V39ZM40 35C37.7909 35 36 36.7909 36 39V53C36 55.2091 37.7909 57 40 57H64C66.2091 57 68 55.2091 68 53V39C68 36.7909 66.2091 35 64 35H40Z" fill="#C0C5D4" fill-opacity="0.3"/>
    <path fill-rule="evenodd" clip-rule="evenodd" d="M8 31C3.58172 31 0 34.5817 0 39C0 43.4183 3.58172 47 8 47H21.4853L19.2427 49.2426C18.4617 50.0237 18.4617 51.29 19.2427 52.0711C20.0237 52.8521 21.2901 52.8521 22.0711 52.0711L27.728 46.4142C28.509 45.6332 28.509 44.3668 27.728 43.5858L22.0711 37.9289C21.2901 37.1479 20.0237 37.1479 19.2427 37.9289C18.4617 38.71 18.4617 39.9763 19.2427 40.7574L21.4853 43H8C5.79086 43 4 41.2091 4 39C4 36.7909 5.79086 35 8 35C8.55229 35 9 34.5523 9 34V32C9 31.4477 8.55229 31 8 31Z" fill="#C0C5D4" fill-opacity="0.3"/>
</svg>
