<svg width="14" height="14" viewBox="0 0 14 14" fill="none" xmlns="http://www.w3.org/2000/svg">
    <path
        d="M7.32586 4.37716C7.52112 4.1819 7.8377 4.1819 8.03297 4.37716L9.46886 5.81306C9.61186 5.95606 9.65464 6.17111 9.57725 6.35795C9.49986 6.54479 9.31754 6.66661 9.11531 6.66661H4.80762C4.53147 6.66661 4.30762 6.44275 4.30762 6.16661C4.30762 5.89047 4.53147 5.66661 4.80762 5.66661H7.9082L7.32586 5.08427C7.1306 4.889 7.1306 4.57242 7.32586 4.37716Z"
        fill="white" fill-opacity="1" />
    <path
        d="M4.80763 7.46143C4.6054 7.46143 4.42308 7.58325 4.34569 7.77008C4.2683 7.95692 4.31108 8.17198 4.45408 8.31498L5.88998 9.75088C6.08524 9.94614 6.40182 9.94614 6.59708 9.75088C6.79234 9.55561 6.79234 9.23903 6.59708 9.04377L6.01474 8.46143H9.11532C9.39147 8.46143 9.61532 8.23757 9.61532 7.96143C9.61532 7.68528 9.39147 7.46143 9.11532 7.46143H4.80763Z"
        fill="white" fill-opacity="1" />
    <path fill-rule="evenodd" clip-rule="evenodd"
        d="M2.65385 1.5C1.46431 1.5 0.5 2.46431 0.5 3.65384V10.4231C0.5 11.6126 1.46431 12.5769 2.65385 12.5769H11.2692C12.4588 12.5769 13.4231 11.6126 13.4231 10.4231V3.65385C13.4231 2.46431 12.4588 1.5 11.2692 1.5H2.65385ZM11.2692 2.5H2.65385C2.01659 2.5 1.5 3.01659 1.5 3.65384V10.4231C1.5 11.0603 2.0166 11.5769 2.65385 11.5769H11.2692C11.9065 11.5769 12.4231 11.0603 12.4231 10.4231V3.65385C12.4231 3.0166 11.9065 2.5 11.2692 2.5Z"
        fill="white" fill-opacity="1" />
</svg>