<svg width="26" height="26" viewBox="0 0 26 26" fill="none"
     xmlns="http://www.w3.org/2000/svg">
  <path fill-rule="evenodd" clip-rule="evenodd"
        d="M15.5981 4.5L23.3923 18C24.547 20 23.1036 22.5 20.7942 22.5H5.20577C2.89637 22.5 1.45299 20 2.60769 18L10.4019 4.5C11.5566 2.5 14.4434 2.5 15.5981 4.5ZM13.866 5.5C13.4811 4.83333 12.5189 4.83333 12.134 5.5L4.33974 19C3.95484 19.6667 4.43597 20.5 5.20577 20.5H20.7942C21.564 20.5 22.0452 19.6667 21.6603 19L13.866 5.5ZM14.25 17.75C14.25 18.4404 13.6904 19 13 19C12.3096 19 11.75 18.4404 11.75 17.75C11.75 17.0596 12.3096 16.5 13 16.5C13.6904 16.5 14.25 17.0596 14.25 17.75ZM13 8C12.4477 8 12 8.44772 12 9V14C12 14.5523 12.4477 15 13 15C13.5523 15 14 14.5523 14 14V9C14 8.44772 13.5523 8 13 8Z"
        fill="#E86B67"/>
</svg>
