<svg width="24" height="24" viewBox="0 0 24 24" fill="none" xmlns="http://www.w3.org/2000/svg">
    <path fill-rule="evenodd" clip-rule="evenodd" d="M15.029 14.9027C14.7948 14.7647 14.756 14.4305 14.9279 14.2201C15.3773 13.6703 16.0721 12.5842 16.0721 11.125V6.77164C16.0721 5.26471 13.8668 3.80901 12 3.80445C10.1331 3.7999 7.92785 5.26717 7.92785 6.77164C7.92785 6.77164 7.92785 11.1528 7.92785 11.125C7.92785 12.3643 8.72585 13.63 9.17425 14.2434C9.32211 14.4456 9.27136 14.7402 9.05518 14.8669L5.88842 16.7221C5.31726 17.0567 4.96631 17.669 4.96631 18.331V18.331C4.96631 19.3608 5.80114 20.1956 6.83095 20.1956H17.167C18.1979 20.1956 19.0336 19.3599 19.0336 18.329V18.329C19.0336 17.668 18.6841 17.0563 18.1146 16.7208L15.029 14.9027Z" stroke="#2F3032" stroke-width="2"/>
</svg>
