<svg width="14" height="14" viewBox="0 0 14 14" fill="none" xmlns="http://www.w3.org/2000/svg">
  <path fill-rule="evenodd" clip-rule="evenodd" d="M12.767 5.01062L13.7114 6.18239C14.0962 6.66334 14.0962 7.34541 13.7114 7.82636L12.767 8.99813C12.6184 9.19051 12.5047 9.41786 12.4785 9.6802L12.3123 11.1668C12.2423 11.7789 11.7614 12.2598 11.1493 12.3298L9.66271 12.4959C9.40912 12.5222 9.18176 12.6184 8.98938 12.767L7.81761 13.7114C7.33666 14.0962 6.65459 14.0962 6.17364 13.7114L5.00187 12.767C4.80949 12.6184 4.58214 12.5047 4.3198 12.4785L2.83323 12.3123C2.22111 12.2423 1.74016 11.7614 1.67021 11.1493L1.50406 9.66271C1.47783 9.40912 1.38164 9.18176 1.23298 8.98938L0.28857 7.81761C-0.0961899 7.33666 -0.0961899 6.65459 0.28857 6.17364L1.23298 5.00187C1.38164 4.80949 1.49532 4.58214 1.52155 4.3198L1.6877 2.83323C1.75765 2.22111 2.2386 1.74016 2.85072 1.67021L4.33729 1.50406C4.59088 1.47783 4.81824 1.38164 5.01062 1.23298L6.18239 0.28857C6.66334 -0.0961899 7.34541 -0.0961899 7.82636 0.28857L8.99813 1.23298C9.19051 1.38164 9.41786 1.49532 9.6802 1.52155L11.1668 1.6877C11.778 1.7571 12.2604 2.23945 12.3298 2.85072L12.4959 4.33729C12.5222 4.59088 12.6184 4.81824 12.767 5.01062ZM5.77388 10.1968C5.78844 10.211 5.8116 10.211 5.82622 10.1969L10.3795 5.80415C10.7206 5.47508 10.7261 4.93043 10.3918 4.59452C10.0638 4.26505 9.53186 4.26069 9.19856 4.58474L5.8016 7.88733H5.7984L4.7831 6.90024C4.45844 6.5846 3.94156 6.5846 3.6169 6.90024C3.27904 7.22871 3.27904 7.77129 3.6169 8.09976L5.77388 10.1968Z" fill="#3D75E3"/>
</svg>
