<svg width="14" height="14" viewBox="0 0 14 14" fill="none" xmlns="http://www.w3.org/2000/svg">
    <path fill-rule="evenodd" clip-rule="evenodd"
        d="M3.09452 1.98021C2.73356 2.30697 2.52805 2.71014 2.50642 3.01943C2.4557 3.74481 2.70687 4.65971 3.21151 5.66118C3.7113 6.65301 4.43619 7.68316 5.26839 8.62303C6.10049 9.5628 7.02797 10.3989 7.92406 11.0091C8.8321 11.6274 9.65759 11.9794 10.2935 12.0238C10.5961 12.045 11.0314 11.8322 11.4485 11.4342C11.6441 11.2476 11.809 11.0446 11.9241 10.8616C12.02 10.709 12.0619 10.6012 12.0771 10.5443C12.0734 10.5371 12.0686 10.5284 12.0624 10.518C12.024 10.4536 11.9562 10.3649 11.854 10.255C11.651 10.0367 11.3604 9.785 11.0416 9.54077C10.725 9.2982 10.395 9.07388 10.1216 8.90905C9.98452 8.82639 9.86744 8.76217 9.77715 8.71874C9.72136 8.6919 9.68861 8.67936 9.67455 8.67409C9.5617 8.67437 9.45863 8.71864 9.24896 8.82637C9.24133 8.83029 9.23352 8.83431 9.22554 8.83842C9.01618 8.94637 8.68849 9.11532 8.26327 9.08559C8.05951 9.07134 7.87478 8.96563 7.75742 8.89021C7.61923 8.80139 7.47169 8.68483 7.32476 8.55658C7.02939 8.29875 6.69942 7.96104 6.39352 7.61447C6.08759 7.26784 5.79502 6.90021 5.5778 6.57928C5.46981 6.41973 5.37348 6.26154 5.30342 6.11679C5.24585 5.99784 5.15997 5.79917 5.17443 5.59238C5.20088 5.21415 5.40421 4.89791 5.53388 4.69623C5.54356 4.68118 5.55282 4.66677 5.56157 4.65302C5.70997 4.41984 5.78359 4.28241 5.79745 4.14022C5.79611 4.13509 5.79094 4.09987 5.76578 4.02401C5.73345 3.92653 5.68136 3.80027 5.6105 3.65066C5.46933 3.35258 5.26965 2.99522 5.05348 2.64871C4.83695 2.30163 4.61199 1.97845 4.42325 1.7458C4.33069 1.6317 4.25557 1.55025 4.2011 1.50013C3.81948 1.50372 3.42273 1.68311 3.09452 1.98021ZM2.42342 1.23885C2.92281 0.786787 3.61555 0.452899 4.36701 0.505446C4.50856 0.515345 4.61928 0.574005 4.68073 0.611593C4.75021 0.654095 4.81329 0.705369 4.8674 0.75438C4.97609 0.852833 5.08946 0.979727 5.19984 1.11578C5.42276 1.39057 5.6717 1.75038 5.90192 2.11941C6.13249 2.489 6.35241 2.88086 6.51427 3.22263C6.59493 3.39295 6.66521 3.55927 6.71494 3.70923C6.75912 3.84244 6.8083 4.02265 6.79618 4.19603C6.76633 4.6228 6.55262 4.95843 6.41257 5.17837C6.4101 5.18226 6.40765 5.18611 6.40522 5.18992C6.25972 5.41854 6.19615 5.52949 6.17746 5.62201C6.18254 5.63519 6.19071 5.65465 6.20354 5.68115C6.24455 5.76589 6.312 5.87997 6.40594 6.01876C6.59258 6.29451 6.8565 6.62783 7.14326 6.95273C7.43007 7.27768 7.72901 7.58207 7.98236 7.80321C8.10979 7.91444 8.21656 7.99658 8.29808 8.04897C8.33182 8.07065 8.35448 8.0828 8.36727 8.08917C8.47977 8.08866 8.58285 8.04434 8.79197 7.93689C8.7996 7.93297 8.80741 7.92895 8.81538 7.92484C9.02474 7.81689 9.35244 7.64794 9.77766 7.67767C9.78671 7.67831 9.79573 7.67918 9.80473 7.68031C9.949 7.69832 10.1007 7.76469 10.2107 7.81759C10.3385 7.87911 10.4846 7.96018 10.638 8.05269C10.9456 8.23819 11.3062 8.48374 11.6498 8.74696C11.9912 9.00851 12.3303 9.29856 12.5865 9.57421C12.7139 9.7113 12.833 9.85777 12.9214 10.006C13.0019 10.141 13.0982 10.3448 13.0819 10.5772C13.0623 10.8581 12.9241 11.1497 12.7706 11.3939C12.608 11.6526 12.3891 11.9189 12.1389 12.1577C11.6643 12.6105 10.9594 13.0728 10.2237 13.0214C9.32701 12.9587 8.32493 12.4919 7.3612 11.8356C6.38553 11.1712 5.39705 10.2768 4.5197 9.28595C3.64245 8.2952 2.86441 7.19457 2.31848 6.11118C1.77742 5.03744 1.44012 3.93268 1.50885 2.94968C1.55331 2.31391 1.92912 1.6863 2.42342 1.23885Z"
        fill="white" fill-opacity="1" />
</svg>