<svg width="14" height="14" viewBox="0 0 14 14" fill="none" xmlns="http://www.w3.org/2000/svg">
    <path
        d="M6.47163 5.25284C6.18551 5.05994 5.80005 5.26494 5.80005 5.61001V8.30789C5.80005 8.65092 6.18147 8.85634 6.46788 8.66756L8.49129 7.3339C8.74795 7.16474 8.74992 6.7889 8.49504 6.61706L6.47163 5.25284Z"
        fill="white" fill-opacity="1" />
    <path fill-rule="evenodd" clip-rule="evenodd"
        d="M1 4.15385C1 2.96431 1.96431 2 3.15385 2H10.8462C12.0357 2 13 2.96431 13 4.15385V9.84615C13 11.0357 12.0357 12 10.8462 12H3.15385C1.96431 12 1 11.0357 1 9.84615V4.15385ZM3.15385 3H10.8462C11.4834 3 12 3.51659 12 4.15385V9.84615C12 10.4834 11.4834 11 10.8462 11H3.15385C2.51659 11 2 10.4834 2 9.84615V4.15385C2 3.51659 2.51659 3 3.15385 3Z"
        fill="white" fill-opacity="1" />
</svg>