<svg width="16" height="16" viewBox="0 0 16 16" fill="none" xmlns="http://www.w3.org/2000/svg">
    <path d="M11.0676 2.62643C10.9307 2.23547 10.5029 2.02945 10.1119 2.16628C9.72095 2.30311 9.51493 2.73097 9.65176 3.12193L11.0676 2.62643ZM11.1855 5.23384L11.4332 5.94174C11.8242 5.80491 12.0302 5.37705 11.8934 4.98609L11.1855 5.23384ZM8.57808 5.35177C8.18712 5.4886 7.98111 5.91646 8.11794 6.30742C8.25476 6.69838 8.68262 6.9044 9.07358 6.76757L8.57808 5.35177ZM9.65176 3.12193L10.4776 5.48159L11.8934 4.98609L11.0676 2.62643L9.65176 3.12193ZM10.9377 4.52594L8.57808 5.35177L9.07358 6.76757L11.4332 5.94174L10.9377 4.52594Z" fill="#2F3032"/>
    <path d="M12 8C12 10.2091 10.2091 12 8 12C5.79086 12 4 10.2091 4 8C4 5.79086 5.79086 4 8 4C9.01445 4 9.94069 4.37764 10.6458 5" stroke="#2F3032" stroke-width="1.5" stroke-linecap="round"/>
</svg>
