<svg width="20" height="20" viewBox="0 0 20 20" fill="none"
     xmlns="http://www.w3.org/2000/svg">
  <path fill-rule="evenodd" clip-rule="evenodd"
        d="M2 9C2 5.13401 5.13401 2 9 2C12.866 2 16 5.13401 16 9C16 12.866 12.866 16 9 16C5.13401 16 2 12.866 2 9ZM9 0C4.02944 0 0 4.02944 0 9C0 13.9706 4.02944 18 9 18C11.1278 18 13.0831 17.2616 14.6237 16.027C14.6492 16.0598 14.6769 16.0912 14.707 16.1213L17.5354 18.9497C17.9259 19.3402 18.5591 19.3402 18.9496 18.9497C19.3401 18.5592 19.3401 17.926 18.9496 17.5355L16.1212 14.7071C16.0911 14.677 16.0596 14.6493 16.0269 14.6239C17.2616 13.0833 18 11.1279 18 9C18 4.02944 13.9706 0 9 0Z"
        fill="white" fill-opacity="1"/>
  <path fill-rule="evenodd" clip-rule="evenodd"
        d="M8 12C8 12.5523 8.44772 13 9 13C9.55228 13 10 12.5523 10 12V10H12C12.5523 10 13 9.55228 13 9C13 8.44772 12.5523 8 12 8H10V6C10 5.44772 9.55228 5 9 5C8.44772 5 8 5.44772 8 6V8H6C5.44772 8 5 8.44772 5 9C5 9.55228 5.44772 10 6 10H8V12Z"
        fill="white" fill-opacity="1"/>
</svg>
