<?xml version="1.0" encoding="UTF-8"?>
<svg width="1024px" height="1024px" viewBox="0 0 1024 1024" version="1.1" xmlns="http://www.w3.org/2000/svg" xmlns:xlink="http://www.w3.org/1999/xlink">
    <title>1024*1024备份 3</title>
    <defs>
        <linearGradient x1="50%" y1="0%" x2="50%" y2="100%" id="linearGradient-1">
            <stop stop-color="#00BFFF" offset="0%"></stop>
            <stop stop-color="#2E67CC" offset="100%"></stop>
        </linearGradient>
    </defs>
    <g id="windows" stroke="none" stroke-width="1" fill="none" fill-rule="evenodd">
        <g id="1024*1024备份-3">
            <path d="M292.282913,-1.18085795e-14 L731.717087,1.18085795e-14 C833.350224,-6.86112476e-15 870.204855,10.5821197 907.36041,30.4531282 C944.515966,50.3241368 973.675863,79.4840342 993.546872,116.63959 C1013.41788,153.795145 1024,190.649776 1024,292.282913 L1024,731.717087 C1024,833.350224 1013.41788,870.204855 993.546872,907.36041 C973.675863,944.515966 944.515966,973.675863 907.36041,993.546872 C870.204855,1013.41788 833.350224,1024 731.717087,1024 L292.282913,1024 C190.649776,1024 153.795145,1013.41788 116.63959,993.546872 C79.4840342,973.675863 50.3241368,944.515966 30.4531282,907.36041 C10.5821197,870.204855 4.57408317e-15,833.350224 -7.87238634e-15,731.717087 L7.87238634e-15,292.282913 C-4.57408317e-15,190.649776 10.5821197,153.795145 30.4531282,116.63959 C50.3241368,79.4840342 79.4840342,50.3241368 116.63959,30.4531282 C153.795145,10.5821197 190.649776,6.86112476e-15 292.282913,-1.18085795e-14 Z" id="Path" fill="#FFFFFF"></path>
            <path d="M813.171429,276 C817.955316,276 821.850513,279.805444 821.995799,284.554727 L822,284.829751 L822,741.168184 C822,742.479122 821.708134,743.773611 821.14559,744.957678 C819.094021,749.27591 813.991759,751.161827 809.642465,749.261957 L809.382441,749.143411 L696.183557,695.348852 C690.909062,692.842297 687.508157,687.581983 687.368742,681.764283 L687.364286,681.392204 L687.364286,336.82964 C687.364286,330.662991 691.028502,325.099444 696.66404,322.654608 L696.997804,322.51441 L809.847725,276.64962 C810.90333,276.220598 812.031993,276 813.171429,276 Z M212.828571,276 C213.968007,276 215.09667,276.220598 216.152275,276.64962 L329.002196,322.51441 C334.826395,324.881498 338.635714,330.542076 338.635714,336.82964 L338.635714,681.392204 C338.635714,687.356893 335.203162,692.788966 329.816443,695.348852 L216.617559,749.143411 C212.213551,751.236291 206.94701,749.362275 204.85441,744.957678 C204.291866,743.773611 204,742.479122 204,741.168184 L204,284.829751 C204,279.953214 207.952686,276 212.828571,276 Z M522.932143,375.676734 L627.311573,435.948281 C633.457604,439.497168 637.243716,446.055782 637.243716,453.153556 L637.243716,573.69665 C637.243716,580.794424 633.457604,587.353038 627.311573,590.901925 L522.932143,651.173472 C516.786111,654.722359 509.213889,654.722359 503.067857,651.173472 L398.688427,590.901925 C392.542396,587.353038 388.756284,580.794424 388.756284,573.69665 L388.756284,453.153556 C388.756284,446.055782 392.542396,439.497168 398.688427,435.948281 L503.067857,375.676734 C509.213889,372.127847 516.786111,372.127847 522.932143,375.676734 Z" id="形状" fill="url(#linearGradient-1)"></path>
        </g>
    </g>
</svg>